<svg width="184" height="184" viewBox="0 0 184 184" fill="none" xmlns="http://www.w3.org/2000/svg">
<g clip-path="url(#clip0_5087_54471)">
<g clip-path="url(#clip1_5087_54471)">
<path d="M0 4C0 1.79086 1.79086 0 4 0H180C182.209 0 184 1.79086 184 4V180C184 182.209 182.209 184 180 184H4C1.79086 184 0 182.209 0 180V4Z" fill="#F0F7FE"/>
<path d="M12 28C12 25.7909 13.7909 24 16 24H72C74.2091 24 76 25.7909 76 28V28C76 30.2091 74.2091 32 72 32H16C13.7909 32 12 30.2091 12 28V28Z" fill="#2B87F8" fill-opacity="0.55"/>
<g clip-path="url(#clip2_5087_54471)">
<path d="M12 42C12 40.8954 12.8954 40 14 40H170C171.105 40 172 40.8954 172 42V76C172 77.1046 171.105 78 170 78H14C12.8954 78 12 77.1046 12 76V42Z" fill="white"/>
<path d="M16 46C16 44.8954 16.8954 44 18 44H26C27.1046 44 28 44.8954 28 46V46C28 47.1046 27.1046 48 26 48H18C16.8954 48 16 47.1046 16 46V46Z" fill="#2B87F8" fill-opacity="0.55"/>
<path d="M166 45.4375L163.95 47.4875C163.858 47.5791 163.752 47.625 163.631 47.625C163.51 47.625 163.404 47.5791 163.313 47.4875C163.221 47.3958 163.175 47.2896 163.175 47.1687C163.175 47.0479 163.222 46.9402 163.317 46.8458L165.688 44.475C165.733 44.4333 165.781 44.4021 165.834 44.3812C165.886 44.3604 165.943 44.35 166.003 44.35C166.063 44.35 166.119 44.3604 166.171 44.3812C166.224 44.4021 166.271 44.4333 166.313 44.475L168.683 46.8458C168.778 46.9402 168.825 47.0458 168.825 47.1625C168.825 47.2791 168.779 47.3833 168.688 47.475C168.596 47.5666 168.49 47.6125 168.369 47.6125C168.248 47.6125 168.142 47.5666 168.05 47.475L166 45.4375Z" fill="#2B87F8"/>
<path d="M16 56C16 54.8954 16.8954 54 18 54H166C167.105 54 168 54.8954 168 56V56C168 57.1046 167.105 58 166 58H18C16.8954 58 16 57.1046 16 56V56Z" fill="#2B87F8" fill-opacity="0.25"/>
<path d="M16 64C16 62.8954 16.8954 62 18 62H166C167.105 62 168 62.8954 168 64V64C168 65.1046 167.105 66 166 66H18C16.8954 66 16 65.1046 16 64V64Z" fill="#2B87F8" fill-opacity="0.25"/>
<path d="M16 72C16 70.8954 16.8954 70 18 70H150C151.105 70 152 70.8954 152 72V72C152 73.1046 151.105 74 150 74H18C16.8954 74 16 73.1046 16 72V72Z" fill="#2B87F8" fill-opacity="0.25"/>
</g>
<path d="M14 40.5H170C170.828 40.5 171.5 41.1716 171.5 42V76C171.5 76.8284 170.828 77.5 170 77.5H14C13.1716 77.5 12.5 76.8284 12.5 76V42C12.5 41.2233 13.0903 40.5846 13.8467 40.5078L14 40.5Z" stroke="#2B87F8" stroke-opacity="0.15"/>
<g clip-path="url(#clip3_5087_54471)">
<path d="M12 88C12 86.8954 12.8954 86 14 86H170C171.105 86 172 86.8954 172 88V96C172 97.1046 171.105 98 170 98H14C12.8954 98 12 97.1046 12 96V88Z" fill="white"/>
<path d="M16 92C16 90.8954 16.8954 90 18 90H26C27.1046 90 28 90.8954 28 92V92C28 93.1046 27.1046 94 26 94H18C16.8954 94 16 93.1046 16 92V92Z" fill="#2B87F8" fill-opacity="0.55"/>
<path d="M166 92.5625L163.95 90.5125C163.858 90.4209 163.752 90.375 163.631 90.375C163.51 90.375 163.404 90.4209 163.313 90.5125C163.221 90.6042 163.175 90.7104 163.175 90.8313C163.175 90.9521 163.222 91.0598 163.317 91.1542L165.688 93.525C165.733 93.5667 165.781 93.5979 165.834 93.6188C165.886 93.6396 165.943 93.65 166.003 93.65C166.063 93.65 166.119 93.6396 166.171 93.6188C166.224 93.5979 166.271 93.5667 166.313 93.525L168.683 91.1542C168.778 91.0598 168.825 90.9542 168.825 90.8375C168.825 90.7209 168.779 90.6167 168.688 90.525C168.596 90.4334 168.49 90.3875 168.369 90.3875C168.248 90.3875 168.142 90.4334 168.05 90.525L166 92.5625Z" fill="#2B87F8"/>
</g>
<path d="M14 86.5H170C170.828 86.5 171.5 87.1716 171.5 88V96C171.5 96.8284 170.828 97.5 170 97.5H14C13.1716 97.5 12.5 96.8284 12.5 96V88L12.5078 87.8467C12.5795 87.1407 13.1407 86.5795 13.8467 86.5078L14 86.5Z" stroke="#2B87F8" stroke-opacity="0.15"/>
<g clip-path="url(#clip4_5087_54471)">
<path d="M12 108C12 106.895 12.8954 106 14 106H170C171.105 106 172 106.895 172 108V116C172 117.105 171.105 118 170 118H14C12.8954 118 12 117.105 12 116V108Z" fill="white"/>
<path d="M16 112C16 110.895 16.8954 110 18 110H26C27.1046 110 28 110.895 28 112V112C28 113.105 27.1046 114 26 114H18C16.8954 114 16 113.105 16 112V112Z" fill="#2B87F8" fill-opacity="0.55"/>
<path d="M166 112.563L163.95 110.513C163.858 110.421 163.752 110.375 163.631 110.375C163.51 110.375 163.404 110.421 163.313 110.513C163.221 110.604 163.175 110.71 163.175 110.831C163.175 110.952 163.222 111.06 163.317 111.154L165.688 113.525C165.733 113.567 165.781 113.598 165.834 113.619C165.886 113.64 165.943 113.65 166.003 113.65C166.063 113.65 166.119 113.64 166.171 113.619C166.224 113.598 166.271 113.567 166.313 113.525L168.683 111.154C168.778 111.06 168.825 110.954 168.825 110.838C168.825 110.721 168.779 110.617 168.688 110.525C168.596 110.433 168.49 110.388 168.369 110.388C168.248 110.388 168.142 110.433 168.05 110.525L166 112.563Z" fill="#2B87F8"/>
</g>
<path d="M14 106.5H170C170.828 106.5 171.5 107.172 171.5 108V116C171.5 116.828 170.828 117.5 170 117.5H14C13.1716 117.5 12.5 116.828 12.5 116V108L12.5078 107.847C12.5795 107.141 13.1407 106.579 13.8467 106.508L14 106.5Z" stroke="#2B87F8" stroke-opacity="0.15"/>
<g clip-path="url(#clip5_5087_54471)">
<path d="M12 128C12 126.895 12.8954 126 14 126H170C171.105 126 172 126.895 172 128V136C172 137.105 171.105 138 170 138H14C12.8954 138 12 137.105 12 136V128Z" fill="white"/>
<path d="M16 132C16 130.895 16.8954 130 18 130H26C27.1046 130 28 130.895 28 132V132C28 133.105 27.1046 134 26 134H18C16.8954 134 16 133.105 16 132V132Z" fill="#2B87F8" fill-opacity="0.55"/>
<path d="M166 132.563L163.95 130.513C163.858 130.421 163.752 130.375 163.631 130.375C163.51 130.375 163.404 130.421 163.313 130.513C163.221 130.604 163.175 130.71 163.175 130.831C163.175 130.952 163.222 131.06 163.317 131.154L165.688 133.525C165.733 133.567 165.781 133.598 165.834 133.619C165.886 133.64 165.943 133.65 166.003 133.65C166.063 133.65 166.119 133.64 166.171 133.619C166.224 133.598 166.271 133.567 166.313 133.525L168.683 131.154C168.778 131.06 168.825 130.954 168.825 130.838C168.825 130.721 168.779 130.617 168.688 130.525C168.596 130.433 168.49 130.388 168.369 130.388C168.248 130.388 168.142 130.433 168.05 130.525L166 132.563Z" fill="#2B87F8"/>
</g>
<path d="M14 126.5H170C170.828 126.5 171.5 127.172 171.5 128V136C171.5 136.828 170.828 137.5 170 137.5H14C13.1716 137.5 12.5 136.828 12.5 136V128L12.5078 127.847C12.5795 127.141 13.1407 126.579 13.8467 126.508L14 126.5Z" stroke="#2B87F8" stroke-opacity="0.15"/>
<g clip-path="url(#clip6_5087_54471)">
<path d="M12 148C12 146.895 12.8954 146 14 146H170C171.105 146 172 146.895 172 148V156C172 157.105 171.105 158 170 158H14C12.8954 158 12 157.105 12 156V148Z" fill="white"/>
<path d="M16 152C16 150.895 16.8954 150 18 150H26C27.1046 150 28 150.895 28 152V152C28 153.105 27.1046 154 26 154H18C16.8954 154 16 153.105 16 152V152Z" fill="#2B87F8" fill-opacity="0.55"/>
<path d="M166 152.563L163.95 150.513C163.858 150.421 163.752 150.375 163.631 150.375C163.51 150.375 163.404 150.421 163.313 150.513C163.221 150.604 163.175 150.71 163.175 150.831C163.175 150.952 163.222 151.06 163.317 151.154L165.688 153.525C165.733 153.567 165.781 153.598 165.834 153.619C165.886 153.64 165.943 153.65 166.003 153.65C166.063 153.65 166.119 153.64 166.171 153.619C166.224 153.598 166.271 153.567 166.313 153.525L168.683 151.154C168.778 151.06 168.825 150.954 168.825 150.838C168.825 150.721 168.779 150.617 168.688 150.525C168.596 150.433 168.49 150.388 168.369 150.388C168.248 150.388 168.142 150.433 168.05 150.525L166 152.563Z" fill="#2B87F8"/>
</g>
<path d="M14 146.5H170C170.828 146.5 171.5 147.172 171.5 148V156C171.5 156.828 170.828 157.5 170 157.5H14C13.1716 157.5 12.5 156.828 12.5 156V148L12.5078 147.847C12.5795 147.141 13.1407 146.579 13.8467 146.508L14 146.5Z" stroke="#2B87F8" stroke-opacity="0.15"/>
<g clip-path="url(#clip7_5087_54471)">
<path d="M12 168C12 166.895 12.8954 166 14 166H170C171.105 166 172 166.895 172 168V176C172 177.105 171.105 178 170 178H14C12.8954 178 12 177.105 12 176V168Z" fill="white"/>
<path d="M16 172C16 170.895 16.8954 170 18 170H26C27.1046 170 28 170.895 28 172V172C28 173.105 27.1046 174 26 174H18C16.8954 174 16 173.105 16 172V172Z" fill="#2B87F8" fill-opacity="0.55"/>
<path d="M166 172.563L163.95 170.513C163.858 170.421 163.752 170.375 163.631 170.375C163.51 170.375 163.404 170.421 163.313 170.513C163.221 170.604 163.175 170.71 163.175 170.831C163.175 170.952 163.222 171.06 163.317 171.154L165.688 173.525C165.733 173.567 165.781 173.598 165.834 173.619C165.886 173.64 165.943 173.65 166.003 173.65C166.063 173.65 166.119 173.64 166.171 173.619C166.224 173.598 166.271 173.567 166.313 173.525L168.683 171.154C168.778 171.06 168.825 170.954 168.825 170.838C168.825 170.721 168.779 170.617 168.688 170.525C168.596 170.433 168.49 170.388 168.369 170.388C168.248 170.388 168.142 170.433 168.05 170.525L166 172.563Z" fill="#2B87F8"/>
</g>
<path d="M14 166.5H170C170.828 166.5 171.5 167.172 171.5 168V176C171.5 176.828 170.828 177.5 170 177.5H14C13.1716 177.5 12.5 176.828 12.5 176V168L12.5078 167.847C12.5795 167.141 13.1407 166.579 13.8467 166.508L14 166.5Z" stroke="#2B87F8" stroke-opacity="0.15"/>
<mask id="path-32-inside-1_5087_54471" fill="white">
<path d="M0 0H184V12H0V0Z"/>
</mask>
<path d="M0 0H184V12H0V0Z" fill="#2B87F8" fill-opacity="0.25"/>
<path d="M184 12V11H0V12V13H184V12Z" fill="#2B87F8" fill-opacity="0.15" mask="url(#path-32-inside-1_5087_54471)"/>
<rect x="12" y="4" width="8" height="4" rx="1" fill="#2B87F8" fill-opacity="0.55"/>
<rect x="144" y="4" width="8" height="4" rx="1" fill="#2B87F8" fill-opacity="0.55"/>
<rect x="154" y="4" width="8" height="4" rx="1" fill="#2B87F8" fill-opacity="0.55"/>
<rect x="164" y="4" width="8" height="4" rx="1" fill="#2B87F8" fill-opacity="0.55"/>
</g>
<path d="M4 0.5H180C181.933 0.5 183.5 2.067 183.5 4V180C183.5 181.933 181.933 183.5 180 183.5H4C2.067 183.5 0.5 181.933 0.5 180V4C0.5 2.067 2.067 0.5 4 0.5Z" stroke="#2B87F8" stroke-opacity="0.1"/>
</g>
<defs>
<clipPath id="clip0_5087_54471">
<rect width="184" height="184" rx="4" fill="white"/>
</clipPath>
<clipPath id="clip1_5087_54471">
<path d="M0 4C0 1.79086 1.79086 0 4 0H180C182.209 0 184 1.79086 184 4V180C184 182.209 182.209 184 180 184H4C1.79086 184 0 182.209 0 180V4Z" fill="white"/>
</clipPath>
<clipPath id="clip2_5087_54471">
<path d="M12 42C12 40.8954 12.8954 40 14 40H170C171.105 40 172 40.8954 172 42V76C172 77.1046 171.105 78 170 78H14C12.8954 78 12 77.1046 12 76V42Z" fill="white"/>
</clipPath>
<clipPath id="clip3_5087_54471">
<path d="M12 88C12 86.8954 12.8954 86 14 86H170C171.105 86 172 86.8954 172 88V96C172 97.1046 171.105 98 170 98H14C12.8954 98 12 97.1046 12 96V88Z" fill="white"/>
</clipPath>
<clipPath id="clip4_5087_54471">
<path d="M12 108C12 106.895 12.8954 106 14 106H170C171.105 106 172 106.895 172 108V116C172 117.105 171.105 118 170 118H14C12.8954 118 12 117.105 12 116V108Z" fill="white"/>
</clipPath>
<clipPath id="clip5_5087_54471">
<path d="M12 128C12 126.895 12.8954 126 14 126H170C171.105 126 172 126.895 172 128V136C172 137.105 171.105 138 170 138H14C12.8954 138 12 137.105 12 136V128Z" fill="white"/>
</clipPath>
<clipPath id="clip6_5087_54471">
<path d="M12 148C12 146.895 12.8954 146 14 146H170C171.105 146 172 146.895 172 148V156C172 157.105 171.105 158 170 158H14C12.8954 158 12 157.105 12 156V148Z" fill="white"/>
</clipPath>
<clipPath id="clip7_5087_54471">
<path d="M12 168C12 166.895 12.8954 166 14 166H170C171.105 166 172 166.895 172 168V176C172 177.105 171.105 178 170 178H14C12.8954 178 12 177.105 12 176V168Z" fill="white"/>
</clipPath>
</defs>
</svg>
