<svg width="104" height="184" viewBox="0 0 104 184" fill="none" xmlns="http://www.w3.org/2000/svg">
<g clip-path="url(#clip0_5087_54537)">
<g clip-path="url(#clip1_5087_54537)">
<path d="M0 4C0 1.79086 1.79086 0 4 0H100C102.209 0 104 1.79086 104 4V180C104 182.209 102.209 184 100 184H4C1.79086 184 0 182.209 0 180V4Z" fill="#F0F7FE"/>
<path d="M8 28C8 25.7909 9.79086 24 12 24H68C70.2091 24 72 25.7909 72 28V28C72 30.2091 70.2091 32 68 32H12C9.79086 32 8 30.2091 8 28V28Z" fill="#2B87F8" fill-opacity="0.55"/>
<g clip-path="url(#clip2_5087_54537)">
<path d="M8 42C8 40.8954 8.89543 40 10 40H94C95.1046 40 96 40.8954 96 42V76C96 77.1046 95.1046 78 94 78H10C8.89543 78 8 77.1046 8 76V42Z" fill="white"/>
<path d="M12 46C12 44.8954 12.8954 44 14 44H22C23.1046 44 24 44.8954 24 46V46C24 47.1046 23.1046 48 22 48H14C12.8954 48 12 47.1046 12 46V46Z" fill="#2B87F8" fill-opacity="0.55"/>
<path d="M90 45.4375L87.95 47.4875C87.8584 47.5791 87.7521 47.625 87.6313 47.625C87.5105 47.625 87.4042 47.5791 87.3125 47.4875C87.2209 47.3958 87.175 47.2896 87.175 47.1687C87.175 47.0479 87.2223 46.9402 87.3168 46.8458L89.6875 44.475C89.7325 44.4333 89.7813 44.4021 89.8338 44.3812C89.8863 44.3604 89.9425 44.35 90.0025 44.35C90.0625 44.35 90.1188 44.3604 90.1713 44.3812C90.2238 44.4021 90.2709 44.4333 90.3125 44.475L92.6833 46.8458C92.7778 46.9402 92.825 47.0458 92.825 47.1625C92.825 47.2791 92.7792 47.3833 92.6875 47.475C92.5959 47.5666 92.4896 47.6125 92.3688 47.6125C92.248 47.6125 92.1417 47.5666 92.05 47.475L90 45.4375Z" fill="#2B87F8"/>
<path d="M12 56C12 54.8954 12.8954 54 14 54H90C91.1046 54 92 54.8954 92 56V56C92 57.1046 91.1046 58 90 58H14C12.8954 58 12 57.1046 12 56V56Z" fill="#2B87F8" fill-opacity="0.25"/>
<path d="M12 64C12 62.8954 12.8954 62 14 62H90C91.1046 62 92 62.8954 92 64V64C92 65.1046 91.1046 66 90 66H14C12.8954 66 12 65.1046 12 64V64Z" fill="#2B87F8" fill-opacity="0.25"/>
<path d="M12 72C12 70.8954 12.8954 70 14 70H74C75.1046 70 76 70.8954 76 72V72C76 73.1046 75.1046 74 74 74H14C12.8954 74 12 73.1046 12 72V72Z" fill="#2B87F8" fill-opacity="0.25"/>
</g>
<path d="M10 40.5H94C94.8284 40.5 95.5 41.1716 95.5 42V76C95.5 76.8284 94.8284 77.5 94 77.5H10C9.17157 77.5 8.5 76.8284 8.5 76V42C8.5 41.1716 9.17157 40.5 10 40.5Z" stroke="#2B87F8" stroke-opacity="0.15"/>
<g clip-path="url(#clip3_5087_54537)">
<path d="M8 88C8 86.8954 8.89543 86 10 86H94C95.1046 86 96 86.8954 96 88V96C96 97.1046 95.1046 98 94 98H10C8.89543 98 8 97.1046 8 96V88Z" fill="white"/>
<path d="M12 92C12 90.8954 12.8954 90 14 90H22C23.1046 90 24 90.8954 24 92V92C24 93.1046 23.1046 94 22 94H14C12.8954 94 12 93.1046 12 92V92Z" fill="#2B87F8" fill-opacity="0.55"/>
<path d="M90 92.5625L87.95 90.5125C87.8584 90.4209 87.7521 90.375 87.6313 90.375C87.5105 90.375 87.4042 90.4209 87.3125 90.5125C87.2209 90.6042 87.175 90.7104 87.175 90.8313C87.175 90.9521 87.2223 91.0598 87.3168 91.1542L89.6875 93.525C89.7325 93.5667 89.7813 93.5979 89.8338 93.6188C89.8863 93.6396 89.9425 93.65 90.0025 93.65C90.0625 93.65 90.1188 93.6396 90.1713 93.6188C90.2238 93.5979 90.2709 93.5667 90.3125 93.525L92.6833 91.1542C92.7778 91.0598 92.825 90.9542 92.825 90.8375C92.825 90.7209 92.7792 90.6167 92.6875 90.525C92.5959 90.4334 92.4896 90.3875 92.3688 90.3875C92.248 90.3875 92.1417 90.4334 92.05 90.525L90 92.5625Z" fill="#2B87F8"/>
</g>
<path d="M10 86.5H94C94.8284 86.5 95.5 87.1716 95.5 88V96C95.5 96.8284 94.8284 97.5 94 97.5H10C9.17157 97.5 8.5 96.8284 8.5 96V88L8.50781 87.8467C8.58461 87.0903 9.22334 86.5 10 86.5Z" stroke="#2B87F8" stroke-opacity="0.15"/>
<g clip-path="url(#clip4_5087_54537)">
<path d="M8 108C8 106.895 8.89543 106 10 106H94C95.1046 106 96 106.895 96 108V116C96 117.105 95.1046 118 94 118H10C8.89543 118 8 117.105 8 116V108Z" fill="white"/>
<path d="M12 112C12 110.895 12.8954 110 14 110H22C23.1046 110 24 110.895 24 112V112C24 113.105 23.1046 114 22 114H14C12.8954 114 12 113.105 12 112V112Z" fill="#2B87F8" fill-opacity="0.55"/>
<path d="M90 112.563L87.95 110.513C87.8584 110.421 87.7521 110.375 87.6313 110.375C87.5105 110.375 87.4042 110.421 87.3125 110.513C87.2209 110.604 87.175 110.71 87.175 110.831C87.175 110.952 87.2223 111.06 87.3168 111.154L89.6875 113.525C89.7325 113.567 89.7813 113.598 89.8338 113.619C89.8863 113.64 89.9425 113.65 90.0025 113.65C90.0625 113.65 90.1188 113.64 90.1713 113.619C90.2238 113.598 90.2709 113.567 90.3125 113.525L92.6833 111.154C92.7778 111.06 92.825 110.954 92.825 110.838C92.825 110.721 92.7792 110.617 92.6875 110.525C92.5959 110.433 92.4896 110.388 92.3688 110.388C92.248 110.388 92.1417 110.433 92.05 110.525L90 112.563Z" fill="#2B87F8"/>
</g>
<path d="M10 106.5H94C94.8284 106.5 95.5 107.172 95.5 108V116C95.5 116.828 94.8284 117.5 94 117.5H10C9.17157 117.5 8.5 116.828 8.5 116V108L8.50781 107.847C8.58461 107.09 9.22334 106.5 10 106.5Z" stroke="#2B87F8" stroke-opacity="0.15"/>
<g clip-path="url(#clip5_5087_54537)">
<path d="M8 128C8 126.895 8.89543 126 10 126H94C95.1046 126 96 126.895 96 128V136C96 137.105 95.1046 138 94 138H10C8.89543 138 8 137.105 8 136V128Z" fill="white"/>
<path d="M12 132C12 130.895 12.8954 130 14 130H22C23.1046 130 24 130.895 24 132V132C24 133.105 23.1046 134 22 134H14C12.8954 134 12 133.105 12 132V132Z" fill="#2B87F8" fill-opacity="0.55"/>
<path d="M90 132.563L87.95 130.513C87.8584 130.421 87.7521 130.375 87.6313 130.375C87.5105 130.375 87.4042 130.421 87.3125 130.513C87.2209 130.604 87.175 130.71 87.175 130.831C87.175 130.952 87.2223 131.06 87.3168 131.154L89.6875 133.525C89.7325 133.567 89.7813 133.598 89.8338 133.619C89.8863 133.64 89.9425 133.65 90.0025 133.65C90.0625 133.65 90.1188 133.64 90.1713 133.619C90.2238 133.598 90.2709 133.567 90.3125 133.525L92.6833 131.154C92.7778 131.06 92.825 130.954 92.825 130.838C92.825 130.721 92.7792 130.617 92.6875 130.525C92.5959 130.433 92.4896 130.388 92.3688 130.388C92.248 130.388 92.1417 130.433 92.05 130.525L90 132.563Z" fill="#2B87F8"/>
</g>
<path d="M10 126.5H94C94.8284 126.5 95.5 127.172 95.5 128V136C95.5 136.828 94.8284 137.5 94 137.5H10C9.17157 137.5 8.5 136.828 8.5 136V128L8.50781 127.847C8.58461 127.09 9.22334 126.5 10 126.5Z" stroke="#2B87F8" stroke-opacity="0.15"/>
<g clip-path="url(#clip6_5087_54537)">
<path d="M8 148C8 146.895 8.89543 146 10 146H94C95.1046 146 96 146.895 96 148V156C96 157.105 95.1046 158 94 158H10C8.89543 158 8 157.105 8 156V148Z" fill="white"/>
<path d="M12 152C12 150.895 12.8954 150 14 150H22C23.1046 150 24 150.895 24 152V152C24 153.105 23.1046 154 22 154H14C12.8954 154 12 153.105 12 152V152Z" fill="#2B87F8" fill-opacity="0.55"/>
<path d="M90 152.563L87.95 150.513C87.8584 150.421 87.7521 150.375 87.6313 150.375C87.5105 150.375 87.4042 150.421 87.3125 150.513C87.2209 150.604 87.175 150.71 87.175 150.831C87.175 150.952 87.2223 151.06 87.3168 151.154L89.6875 153.525C89.7325 153.567 89.7813 153.598 89.8338 153.619C89.8863 153.64 89.9425 153.65 90.0025 153.65C90.0625 153.65 90.1188 153.64 90.1713 153.619C90.2238 153.598 90.2709 153.567 90.3125 153.525L92.6833 151.154C92.7778 151.06 92.825 150.954 92.825 150.838C92.825 150.721 92.7792 150.617 92.6875 150.525C92.5959 150.433 92.4896 150.388 92.3688 150.388C92.248 150.388 92.1417 150.433 92.05 150.525L90 152.563Z" fill="#2B87F8"/>
</g>
<path d="M10 146.5H94C94.8284 146.5 95.5 147.172 95.5 148V156C95.5 156.828 94.8284 157.5 94 157.5H10C9.17157 157.5 8.5 156.828 8.5 156V148L8.50781 147.847C8.58461 147.09 9.22334 146.5 10 146.5Z" stroke="#2B87F8" stroke-opacity="0.15"/>
<g clip-path="url(#clip7_5087_54537)">
<path d="M8 168C8 166.895 8.89543 166 10 166H94C95.1046 166 96 166.895 96 168V176C96 177.105 95.1046 178 94 178H10C8.89543 178 8 177.105 8 176V168Z" fill="white"/>
<path d="M12 172C12 170.895 12.8954 170 14 170H22C23.1046 170 24 170.895 24 172V172C24 173.105 23.1046 174 22 174H14C12.8954 174 12 173.105 12 172V172Z" fill="#2B87F8" fill-opacity="0.55"/>
<path d="M90 172.563L87.95 170.513C87.8584 170.421 87.7521 170.375 87.6313 170.375C87.5105 170.375 87.4042 170.421 87.3125 170.513C87.2209 170.604 87.175 170.71 87.175 170.831C87.175 170.952 87.2223 171.06 87.3168 171.154L89.6875 173.525C89.7325 173.567 89.7813 173.598 89.8338 173.619C89.8863 173.64 89.9425 173.65 90.0025 173.65C90.0625 173.65 90.1188 173.64 90.1713 173.619C90.2238 173.598 90.2709 173.567 90.3125 173.525L92.6833 171.154C92.7778 171.06 92.825 170.954 92.825 170.838C92.825 170.721 92.7792 170.617 92.6875 170.525C92.5959 170.433 92.4896 170.388 92.3688 170.388C92.248 170.388 92.1417 170.433 92.05 170.525L90 172.563Z" fill="#2B87F8"/>
</g>
<path d="M10 166.5H94C94.8284 166.5 95.5 167.172 95.5 168V176C95.5 176.828 94.8284 177.5 94 177.5H10C9.17157 177.5 8.5 176.828 8.5 176V168L8.50781 167.847C8.58461 167.09 9.22334 166.5 10 166.5Z" stroke="#2B87F8" stroke-opacity="0.15"/>
<mask id="path-32-inside-1_5087_54537" fill="white">
<path d="M0 0H104V12H0V0Z"/>
</mask>
<path d="M0 0H104V12H0V0Z" fill="#2B87F8" fill-opacity="0.25"/>
<path d="M104 12V11H0V12V13H104V12Z" fill="#2B87F8" fill-opacity="0.15" mask="url(#path-32-inside-1_5087_54537)"/>
<rect x="8" y="4" width="8" height="4" rx="1" fill="#2B87F8" fill-opacity="0.55"/>
<rect x="68" y="4" width="8" height="4" rx="1" fill="#2B87F8" fill-opacity="0.55"/>
<rect x="78" y="4" width="8" height="4" rx="1" fill="#2B87F8" fill-opacity="0.55"/>
<rect x="88" y="4" width="8" height="4" rx="1" fill="#2B87F8" fill-opacity="0.55"/>
</g>
<path d="M4 0.5H100C101.933 0.500002 103.5 2.067 103.5 4V180C103.5 181.933 101.933 183.5 100 183.5H4C2.067 183.5 0.5 181.933 0.5 180V4C0.5 2.067 2.067 0.5 4 0.5Z" stroke="#2B87F8" stroke-opacity="0.1"/>
</g>
<defs>
<clipPath id="clip0_5087_54537">
<path d="M0 4C0 1.79086 1.79086 0 4 0H100C102.209 0 104 1.79086 104 4V180C104 182.209 102.209 184 100 184H4C1.79086 184 0 182.209 0 180V4Z" fill="white"/>
</clipPath>
<clipPath id="clip1_5087_54537">
<path d="M0 4C0 1.79086 1.79086 0 4 0H100C102.209 0 104 1.79086 104 4V180C104 182.209 102.209 184 100 184H4C1.79086 184 0 182.209 0 180V4Z" fill="white"/>
</clipPath>
<clipPath id="clip2_5087_54537">
<path d="M8 42C8 40.8954 8.89543 40 10 40H94C95.1046 40 96 40.8954 96 42V76C96 77.1046 95.1046 78 94 78H10C8.89543 78 8 77.1046 8 76V42Z" fill="white"/>
</clipPath>
<clipPath id="clip3_5087_54537">
<path d="M8 88C8 86.8954 8.89543 86 10 86H94C95.1046 86 96 86.8954 96 88V96C96 97.1046 95.1046 98 94 98H10C8.89543 98 8 97.1046 8 96V88Z" fill="white"/>
</clipPath>
<clipPath id="clip4_5087_54537">
<path d="M8 108C8 106.895 8.89543 106 10 106H94C95.1046 106 96 106.895 96 108V116C96 117.105 95.1046 118 94 118H10C8.89543 118 8 117.105 8 116V108Z" fill="white"/>
</clipPath>
<clipPath id="clip5_5087_54537">
<path d="M8 128C8 126.895 8.89543 126 10 126H94C95.1046 126 96 126.895 96 128V136C96 137.105 95.1046 138 94 138H10C8.89543 138 8 137.105 8 136V128Z" fill="white"/>
</clipPath>
<clipPath id="clip6_5087_54537">
<path d="M8 148C8 146.895 8.89543 146 10 146H94C95.1046 146 96 146.895 96 148V156C96 157.105 95.1046 158 94 158H10C8.89543 158 8 157.105 8 156V148Z" fill="white"/>
</clipPath>
<clipPath id="clip7_5087_54537">
<path d="M8 168C8 166.895 8.89543 166 10 166H94C95.1046 166 96 166.895 96 168V176C96 177.105 95.1046 178 94 178H10C8.89543 178 8 177.105 8 176V168Z" fill="white"/>
</clipPath>
</defs>
</svg>
