<svg width="184" height="184" viewBox="0 0 184 184" fill="none" xmlns="http://www.w3.org/2000/svg">
<g clip-path="url(#clip0_5087_54365)">
<path d="M0 4C0 1.79086 1.79086 0 4 0H180C182.209 0 184 1.79086 184 4V180C184 182.209 182.209 184 180 184H4C1.79086 184 0 182.209 0 180V4Z" fill="#F0F7FE"/>
<path d="M4 0.5H180C181.933 0.5 183.5 2.067 183.5 4V180C183.5 181.933 181.933 183.5 180 183.5H4C2.067 183.5 0.5 181.933 0.5 180V4C0.5 2.067 2.067 0.5 4 0.5Z" stroke="#2B87F8" stroke-opacity="0.1"/>
<g clip-path="url(#clip1_5087_54365)">
<g clip-path="url(#clip2_5087_54365)">
<path d="M12 26C12 24.8954 12.8954 24 14 24H170C171.105 24 172 24.8954 172 26V102C172 103.105 171.105 104 170 104H14C12.8954 104 12 103.105 12 102V26Z" fill="#2B87F8" fill-opacity="0.15"/>
<path d="M135.545 61.0732C159.292 61.0732 170.861 79.4015 194 104C175.124 104 94.3134 104 71 104C91.0941 83.7424 111.797 61.0732 135.545 61.0732Z" fill="#2B87F8" fill-opacity="0.15"/>
<path d="M56.5 54.2439C81.8827 54.2439 98.3056 77.969 121 104C91.2231 104 19.1133 104 -8 104C13.9214 77.969 31.1173 54.2439 56.5 54.2439Z" fill="#2B87F8" fill-opacity="0.25"/>
<path d="M99 57C102.866 57 106 53.866 106 50C106 46.134 102.866 43 99 43C95.134 43 92 46.134 92 50C92 53.866 95.134 57 99 57Z" fill="#2B87F8" fill-opacity="0.4"/>
</g>
<path d="M14 24.5H170C170.828 24.5 171.5 25.1716 171.5 26V102C171.5 102.828 170.828 103.5 170 103.5H14C13.1716 103.5 12.5 102.828 12.5 102V26C12.5 25.2233 13.0903 24.5846 13.8467 24.5078L14 24.5Z" stroke="#2B87F8" stroke-opacity="0.15"/>
<path d="M46 114C46 112.895 46.8954 112 48 112H136C137.105 112 138 112.895 138 114V114C138 115.105 137.105 116 136 116H48C46.8954 116 46 115.105 46 114V114Z" fill="#2B87F8" fill-opacity="0.55"/>
<path d="M26 122C26 120.895 26.8954 120 28 120H156C157.105 120 158 120.895 158 122V122C158 123.105 157.105 124 156 124H28C26.8954 124 26 123.105 26 122V122Z" fill="#2B87F8" fill-opacity="0.25"/>
<path d="M26 130C26 128.895 26.8954 128 28 128H156C157.105 128 158 128.895 158 130V130C158 131.105 157.105 132 156 132H28C26.8954 132 26 131.105 26 130V130Z" fill="#2B87F8" fill-opacity="0.25"/>
<path d="M26 138C26 136.895 26.8954 136 28 136H156C157.105 136 158 136.895 158 138V138C158 139.105 157.105 140 156 140H28C26.8954 140 26 139.105 26 138V138Z" fill="#2B87F8" fill-opacity="0.25"/>
<path d="M34 146C34 144.895 34.8954 144 36 144H148C149.105 144 150 144.895 150 146V146C150 147.105 149.105 148 148 148H36C34.8954 148 34 147.105 34 146V146Z" fill="#2B87F8" fill-opacity="0.25"/>
<path d="M26 158C26 156.895 26.8954 156 28 156H156C157.105 156 158 156.895 158 158V158C158 159.105 157.105 160 156 160H28C26.8954 160 26 159.105 26 158V158Z" fill="#2B87F8" fill-opacity="0.25"/>
<path d="M26 166C26 164.895 26.8954 164 28 164H156C157.105 164 158 164.895 158 166V166C158 167.105 157.105 168 156 168H28C26.8954 168 26 167.105 26 166V166Z" fill="#2B87F8" fill-opacity="0.25"/>
</g>
<mask id="path-16-inside-1_5087_54365" fill="white">
<path d="M0 0H184V12H0V0Z"/>
</mask>
<path d="M0 0H184V12H0V0Z" fill="#2B87F8" fill-opacity="0.25"/>
<path d="M184 12V11H0V12V13H184V12Z" fill="#2B87F8" fill-opacity="0.15" mask="url(#path-16-inside-1_5087_54365)"/>
<rect x="12" y="4" width="8" height="4" rx="1" fill="#2B87F8" fill-opacity="0.55"/>
<rect x="144" y="4" width="8" height="4" rx="1" fill="#2B87F8" fill-opacity="0.55"/>
<rect x="154" y="4" width="8" height="4" rx="1" fill="#2B87F8" fill-opacity="0.55"/>
<rect x="164" y="4" width="8" height="4" rx="1" fill="#2B87F8" fill-opacity="0.55"/>
</g>
<defs>
<clipPath id="clip0_5087_54365">
<rect width="184" height="184" rx="4" fill="white"/>
</clipPath>
<clipPath id="clip1_5087_54365">
<rect width="160" height="148" fill="white" transform="translate(12 24)"/>
</clipPath>
<clipPath id="clip2_5087_54365">
<path d="M12 26C12 24.8954 12.8954 24 14 24H170C171.105 24 172 24.8954 172 26V102C172 103.105 171.105 104 170 104H14C12.8954 104 12 103.105 12 102V26Z" fill="white"/>
</clipPath>
</defs>
</svg>
