<svg width="104" height="184" viewBox="0 0 104 184" fill="none" xmlns="http://www.w3.org/2000/svg">
<g clip-path="url(#clip0_5087_54408)">
<path d="M0 4C0 1.79086 1.79086 0 4 0H100C102.209 0 104 1.79086 104 4V180C104 182.209 102.209 184 100 184H4C1.79086 184 0 182.209 0 180V4Z" fill="#F0F7FE"/>
<path d="M4 0.5H100C101.933 0.500002 103.5 2.067 103.5 4V180C103.5 181.933 101.933 183.5 100 183.5H4C2.067 183.5 0.5 181.933 0.5 180V4C0.5 2.067 2.067 0.5 4 0.5Z" stroke="#2B87F8" stroke-opacity="0.1"/>
<g clip-path="url(#clip1_5087_54408)">
<g clip-path="url(#clip2_5087_54408)">
<path d="M8 26C8 24.8954 8.89543 24 10 24H94C95.1046 24 96 24.8954 96 26V70C96 71.1046 95.1046 72 94 72H10C8.89543 72 8 71.1046 8 70V26Z" fill="#2B87F8" fill-opacity="0.15"/>
<path d="M75.9495 46.2439C89.0106 46.2439 95.3737 57.2409 108.1 72C97.718 72 53.2723 72 40.45 72C51.5017 59.8454 62.8883 46.2439 75.9495 46.2439Z" fill="#2B87F8" fill-opacity="0.15"/>
<path d="M32.475 42.1464C46.4355 42.1464 55.4681 56.3814 67.95 72C51.5727 72 11.9123 72 -3 72C9.05676 56.3814 18.5145 42.1464 32.475 42.1464Z" fill="#2B87F8" fill-opacity="0.25"/>
<path d="M59 41C62.866 41 66 37.866 66 34C66 30.134 62.866 27 59 27C55.134 27 52 30.134 52 34C52 37.866 55.134 41 59 41Z" fill="#2B87F8" fill-opacity="0.4"/>
</g>
<path d="M10 24.5H94C94.8284 24.5 95.5 25.1716 95.5 26V70C95.5 70.8284 94.8284 71.5 94 71.5H10C9.17157 71.5 8.5 70.8284 8.5 70V26C8.5 25.1716 9.17157 24.5 10 24.5Z" stroke="#2B87F8" stroke-opacity="0.15"/>
<path d="M28 82C28 80.8954 28.8954 80 30 80H74C75.1046 80 76 80.8954 76 82V82C76 83.1046 75.1046 84 74 84H30C28.8954 84 28 83.1046 28 82V82Z" fill="#2B87F8" fill-opacity="0.55"/>
<path d="M8 90C8 88.8954 8.89543 88 10 88H94C95.1046 88 96 88.8954 96 90V90C96 91.1046 95.1046 92 94 92H10C8.89543 92 8 91.1046 8 90V90Z" fill="#2B87F8" fill-opacity="0.25"/>
<path d="M8 98C8 96.8954 8.89543 96 10 96H94C95.1046 96 96 96.8954 96 98V98C96 99.1046 95.1046 100 94 100H10C8.89543 100 8 99.1046 8 98V98Z" fill="#2B87F8" fill-opacity="0.25"/>
<path d="M8 106C8 104.895 8.89543 104 10 104H94C95.1046 104 96 104.895 96 106V106C96 107.105 95.1046 108 94 108H10C8.89543 108 8 107.105 8 106V106Z" fill="#2B87F8" fill-opacity="0.25"/>
<path d="M16 114C16 112.895 16.8954 112 18 112H86C87.1046 112 88 112.895 88 114V114C88 115.105 87.1046 116 86 116H18C16.8954 116 16 115.105 16 114V114Z" fill="#2B87F8" fill-opacity="0.25"/>
<path d="M8 126C8 124.895 8.89543 124 10 124H94C95.1046 124 96 124.895 96 126V126C96 127.105 95.1046 128 94 128H10C8.89543 128 8 127.105 8 126V126Z" fill="#2B87F8" fill-opacity="0.25"/>
<path d="M8 134C8 132.895 8.89543 132 10 132H94C95.1046 132 96 132.895 96 134V134C96 135.105 95.1046 136 94 136H10C8.89543 136 8 135.105 8 134V134Z" fill="#2B87F8" fill-opacity="0.25"/>
<path d="M8 142C8 140.895 8.89543 140 10 140H94C95.1046 140 96 140.895 96 142V142C96 143.105 95.1046 144 94 144H10C8.89543 144 8 143.105 8 142V142Z" fill="#2B87F8" fill-opacity="0.25"/>
<path d="M16 150C16 148.895 16.8954 148 18 148H86C87.1046 148 88 148.895 88 150V150C88 151.105 87.1046 152 86 152H18C16.8954 152 16 151.105 16 150V150Z" fill="#2B87F8" fill-opacity="0.25"/>
<path d="M8 162C8 160.895 8.89543 160 10 160H94C95.1046 160 96 160.895 96 162V162C96 163.105 95.1046 164 94 164H10C8.89543 164 8 163.105 8 162V162Z" fill="#2B87F8" fill-opacity="0.25"/>
<path d="M8 170C8 168.895 8.89543 168 10 168H94C95.1046 168 96 168.895 96 170V170C96 171.105 95.1046 172 94 172H10C8.89543 172 8 171.105 8 170V170Z" fill="#2B87F8" fill-opacity="0.25"/>
</g>
<mask id="path-20-inside-1_5087_54408" fill="white">
<path d="M0 0H104V12H0V0Z"/>
</mask>
<path d="M0 0H104V12H0V0Z" fill="#2B87F8" fill-opacity="0.25"/>
<path d="M104 12V11H0V12V13H104V12Z" fill="#2B87F8" fill-opacity="0.15" mask="url(#path-20-inside-1_5087_54408)"/>
<rect x="8" y="4" width="8" height="4" rx="1" fill="#2B87F8" fill-opacity="0.55"/>
<rect x="68" y="4" width="8" height="4" rx="1" fill="#2B87F8" fill-opacity="0.55"/>
<rect x="78" y="4" width="8" height="4" rx="1" fill="#2B87F8" fill-opacity="0.55"/>
<rect x="88" y="4" width="8" height="4" rx="1" fill="#2B87F8" fill-opacity="0.55"/>
</g>
<defs>
<clipPath id="clip0_5087_54408">
<path d="M0 4C0 1.79086 1.79086 0 4 0H100C102.209 0 104 1.79086 104 4V180C104 182.209 102.209 184 100 184H4C1.79086 184 0 182.209 0 180V4Z" fill="white"/>
</clipPath>
<clipPath id="clip1_5087_54408">
<rect width="88" height="148" fill="white" transform="translate(8 24)"/>
</clipPath>
<clipPath id="clip2_5087_54408">
<path d="M8 26C8 24.8954 8.89543 24 10 24H94C95.1046 24 96 24.8954 96 26V70C96 71.1046 95.1046 72 94 72H10C8.89543 72 8 71.1046 8 70V26Z" fill="white"/>
</clipPath>
</defs>
</svg>
