<svg width="184" height="184" viewBox="0 0 184 184" fill="none" xmlns="http://www.w3.org/2000/svg">
<g clip-path="url(#clip0_5087_54270)">
<path d="M0 4C0 1.79086 1.79086 0 4 0H180C182.209 0 184 1.79086 184 4V180C184 182.209 182.209 184 180 184H4C1.79086 184 0 182.209 0 180V4Z" fill="#F0F7FE"/>
<path d="M4 0.5H180C181.933 0.5 183.5 2.067 183.5 4V180C183.5 181.933 181.933 183.5 180 183.5H4C2.067 183.5 0.5 181.933 0.5 180V4C0.5 2.067 2.067 0.5 4 0.5Z" stroke="#2B87F8" stroke-opacity="0.1"/>
<path d="M40 44C40 41.7909 41.7909 40 44 40H140C142.209 40 144 41.7909 144 44V142C144 144.209 142.209 146 140 146H44C41.7909 146 40 144.209 40 142V44Z" fill="white"/>
<path d="M140 39.5C142.485 39.5 144.5 41.5147 144.5 44V142C144.5 144.485 142.485 146.5 140 146.5H44C41.5147 146.5 39.5 144.485 39.5 142V44L39.5059 43.7686C39.6263 41.3908 41.5923 39.5 44 39.5H140Z" stroke="#2B87F8" stroke-opacity="0.15" stroke-linejoin="bevel"/>
<path d="M48.3 50L51.825 46.475C51.9417 46.3583 52 46.2167 52 46.05C52 45.8833 51.9417 45.7417 51.825 45.625C51.7083 45.5083 51.5667 45.45 51.4 45.45C51.2333 45.45 51.0917 45.5083 50.975 45.625L47.2375 49.3625C47.1458 49.4542 47.0792 49.5542 47.0375 49.6625C46.9958 49.7708 46.975 49.8833 46.975 50C46.975 50.1167 46.9958 50.2292 47.0375 50.3375C47.0792 50.4458 47.1458 50.5458 47.2375 50.6375L50.975 54.375C51.0917 54.4917 51.2333 54.55 51.4 54.55C51.5667 54.55 51.7083 54.4917 51.825 54.375C51.9417 54.2583 52 54.1167 52 53.95C52 53.7833 51.9417 53.6417 51.825 53.525L48.3 50Z" fill="#2B87F8"/>
<path d="M68 50C68 48.8954 68.8954 48 70 48H114C115.105 48 116 48.8954 116 50V50C116 51.1046 115.105 52 114 52H70C68.8954 52 68 51.1046 68 50V50Z" fill="#2B87F8" fill-opacity="0.55"/>
<path d="M135.7 50L132.175 46.475C132.058 46.3583 132 46.2167 132 46.05C132 45.8833 132.058 45.7417 132.175 45.625C132.292 45.5083 132.433 45.45 132.6 45.45C132.767 45.45 132.908 45.5083 133.025 45.625L136.763 49.3625C136.854 49.4542 136.921 49.5542 136.963 49.6625C137.004 49.7708 137.025 49.8833 137.025 50C137.025 50.1167 137.004 50.2292 136.963 50.3375C136.921 50.4458 136.854 50.5458 136.763 50.6375L133.025 54.375C132.908 54.4917 132.767 54.55 132.6 54.55C132.433 54.55 132.292 54.4917 132.175 54.375C132.058 54.2583 132 54.1167 132 53.95C132 53.7833 132.058 53.6417 132.175 53.525L135.7 50Z" fill="#2B87F8"/>
<path d="M44 62C44 60.8954 44.8954 60 46 60H54C55.1046 60 56 60.8954 56 62V70C56 71.1046 55.1046 72 54 72H46C44.8954 72 44 71.1046 44 70V62Z" fill="#2B87F8" fill-opacity="0.15"/>
<path d="M58 62C58 60.8954 58.8954 60 60 60H68C69.1046 60 70 60.8954 70 62V70C70 71.1046 69.1046 72 68 72H60C58.8954 72 58 71.1046 58 70V62Z" fill="#2B87F8" fill-opacity="0.15"/>
<path d="M72 62C72 60.8954 72.8954 60 74 60H82C83.1046 60 84 60.8954 84 62V70C84 71.1046 83.1046 72 82 72H74C72.8954 72 72 71.1046 72 70V62Z" fill="#2B87F8" fill-opacity="0.15"/>
<path d="M86 62C86 60.8954 86.8954 60 88 60H96C97.1046 60 98 60.8954 98 62V70C98 71.1046 97.1046 72 96 72H88C86.8954 72 86 71.1046 86 70V62Z" fill="#2B87F8" fill-opacity="0.15"/>
<path d="M100 62C100 60.8954 100.895 60 102 60H110C111.105 60 112 60.8954 112 62V70C112 71.1046 111.105 72 110 72H102C100.895 72 100 71.1046 100 70V62Z" fill="#2B87F8" fill-opacity="0.15"/>
<path d="M114 62C114 60.8954 114.895 60 116 60H124C125.105 60 126 60.8954 126 62V70C126 71.1046 125.105 72 124 72H116C114.895 72 114 71.1046 114 70V62Z" fill="#2B87F8" fill-opacity="0.15"/>
<path d="M128 62C128 60.8954 128.895 60 130 60H138C139.105 60 140 60.8954 140 62V70C140 71.1046 139.105 72 138 72H130C128.895 72 128 71.1046 128 70V62Z" fill="#2B87F8" fill-opacity="0.15"/>
<path d="M44 76C44 74.8954 44.8954 74 46 74H54C55.1046 74 56 74.8954 56 76V84C56 85.1046 55.1046 86 54 86H46C44.8954 86 44 85.1046 44 84V76Z" fill="#2B87F8" fill-opacity="0.1"/>
<path d="M58 76C58 74.8954 58.8954 74 60 74H68C69.1046 74 70 74.8954 70 76V84C70 85.1046 69.1046 86 68 86H60C58.8954 86 58 85.1046 58 84V76Z" fill="#2B87F8" fill-opacity="0.1"/>
<path d="M72 77.2C72 76.0799 72 75.5198 72.218 75.092C72.4097 74.7157 72.7157 74.4097 73.092 74.218C73.5198 74 74.0799 74 75.2 74H80.8C81.9201 74 82.4802 74 82.908 74.218C83.2843 74.4097 83.5903 74.7157 83.782 75.092C84 75.5198 84 76.0799 84 77.2V82.8C84 83.9201 84 84.4802 83.782 84.908C83.5903 85.2843 83.2843 85.5903 82.908 85.782C82.4802 86 81.9201 86 80.8 86H75.2C74.0799 86 73.5198 86 73.092 85.782C72.7157 85.5903 72.4097 85.2843 72.218 84.908C72 84.4802 72 83.9201 72 82.8V77.2Z" fill="#2B87F8" fill-opacity="0.4"/>
<path d="M86 77.2C86 76.0799 86 75.5198 86.218 75.092C86.4097 74.7157 86.7157 74.4097 87.092 74.218C87.5198 74 88.0799 74 89.2 74H94.8C95.9201 74 96.4802 74 96.908 74.218C97.2843 74.4097 97.5903 74.7157 97.782 75.092C98 75.5198 98 76.0799 98 77.2V82.8C98 83.9201 98 84.4802 97.782 84.908C97.5903 85.2843 97.2843 85.5903 96.908 85.782C96.4802 86 95.9201 86 94.8 86H89.2C88.0799 86 87.5198 86 87.092 85.782C86.7157 85.5903 86.4097 85.2843 86.218 84.908C86 84.4802 86 83.9201 86 82.8V77.2Z" fill="#2B87F8" fill-opacity="0.4"/>
<path d="M100 77.2C100 76.0799 100 75.5198 100.218 75.092C100.41 74.7157 100.716 74.4097 101.092 74.218C101.52 74 102.08 74 103.2 74H108.8C109.92 74 110.48 74 110.908 74.218C111.284 74.4097 111.59 74.7157 111.782 75.092C112 75.5198 112 76.0799 112 77.2V82.8C112 83.9201 112 84.4802 111.782 84.908C111.59 85.2843 111.284 85.5903 110.908 85.782C110.48 86 109.92 86 108.8 86H103.2C102.08 86 101.52 86 101.092 85.782C100.716 85.5903 100.41 85.2843 100.218 84.908C100 84.4802 100 83.9201 100 82.8V77.2Z" fill="#2B87F8" fill-opacity="0.4"/>
<path d="M114 77.2C114 76.0799 114 75.5198 114.218 75.092C114.41 74.7157 114.716 74.4097 115.092 74.218C115.52 74 116.08 74 117.2 74H122.8C123.92 74 124.48 74 124.908 74.218C125.284 74.4097 125.59 74.7157 125.782 75.092C126 75.5198 126 76.0799 126 77.2V82.8C126 83.9201 126 84.4802 125.782 84.908C125.59 85.2843 125.284 85.5903 124.908 85.782C124.48 86 123.92 86 122.8 86H117.2C116.08 86 115.52 86 115.092 85.782C114.716 85.5903 114.41 85.2843 114.218 84.908C114 84.4802 114 83.9201 114 82.8V77.2Z" fill="#2B87F8" fill-opacity="0.4"/>
<path d="M128 77.2C128 76.0799 128 75.5198 128.218 75.092C128.41 74.7157 128.716 74.4097 129.092 74.218C129.52 74 130.08 74 131.2 74H136.8C137.92 74 138.48 74 138.908 74.218C139.284 74.4097 139.59 74.7157 139.782 75.092C140 75.5198 140 76.0799 140 77.2V82.8C140 83.9201 140 84.4802 139.782 84.908C139.59 85.2843 139.284 85.5903 138.908 85.782C138.48 86 137.92 86 136.8 86H131.2C130.08 86 129.52 86 129.092 85.782C128.716 85.5903 128.41 85.2843 128.218 84.908C128 84.4802 128 83.9201 128 82.8V77.2Z" fill="#2B87F8" fill-opacity="0.4"/>
<path d="M44 91.2C44 90.0799 44 89.5198 44.218 89.092C44.4097 88.7157 44.7157 88.4097 45.092 88.218C45.5198 88 46.0799 88 47.2 88H52.8C53.9201 88 54.4802 88 54.908 88.218C55.2843 88.4097 55.5903 88.7157 55.782 89.092C56 89.5198 56 90.0799 56 91.2V96.8C56 97.9201 56 98.4802 55.782 98.908C55.5903 99.2843 55.2843 99.5903 54.908 99.782C54.4802 100 53.9201 100 52.8 100H47.2C46.0799 100 45.5198 100 45.092 99.782C44.7157 99.5903 44.4097 99.2843 44.218 98.908C44 98.4802 44 97.9201 44 96.8V91.2Z" fill="#2B87F8" fill-opacity="0.4"/>
<path d="M58 91.2C58 90.0799 58 89.5198 58.218 89.092C58.4097 88.7157 58.7157 88.4097 59.092 88.218C59.5198 88 60.0799 88 61.2 88H66.8C67.9201 88 68.4802 88 68.908 88.218C69.2843 88.4097 69.5903 88.7157 69.782 89.092C70 89.5198 70 90.0799 70 91.2V96.8C70 97.9201 70 98.4802 69.782 98.908C69.5903 99.2843 69.2843 99.5903 68.908 99.782C68.4802 100 67.9201 100 66.8 100H61.2C60.0799 100 59.5198 100 59.092 99.782C58.7157 99.5903 58.4097 99.2843 58.218 98.908C58 98.4802 58 97.9201 58 96.8V91.2Z" fill="#2B87F8" fill-opacity="0.4"/>
<path d="M72 91.2C72 90.0799 72 89.5198 72.218 89.092C72.4097 88.7157 72.7157 88.4097 73.092 88.218C73.5198 88 74.0799 88 75.2 88H80.8C81.9201 88 82.4802 88 82.908 88.218C83.2843 88.4097 83.5903 88.7157 83.782 89.092C84 89.5198 84 90.0799 84 91.2V96.8C84 97.9201 84 98.4802 83.782 98.908C83.5903 99.2843 83.2843 99.5903 82.908 99.782C82.4802 100 81.9201 100 80.8 100H75.2C74.0799 100 73.5198 100 73.092 99.782C72.7157 99.5903 72.4097 99.2843 72.218 98.908C72 98.4802 72 97.9201 72 96.8V91.2Z" fill="#2B87F8" fill-opacity="0.4"/>
<path d="M86 91.2C86 90.0799 86 89.5198 86.218 89.092C86.4097 88.7157 86.7157 88.4097 87.092 88.218C87.5198 88 88.0799 88 89.2 88H94.8C95.9201 88 96.4802 88 96.908 88.218C97.2843 88.4097 97.5903 88.7157 97.782 89.092C98 89.5198 98 90.0799 98 91.2V96.8C98 97.9201 98 98.4802 97.782 98.908C97.5903 99.2843 97.2843 99.5903 96.908 99.782C96.4802 100 95.9201 100 94.8 100H89.2C88.0799 100 87.5198 100 87.092 99.782C86.7157 99.5903 86.4097 99.2843 86.218 98.908C86 98.4802 86 97.9201 86 96.8V91.2Z" fill="#2B87F8" fill-opacity="0.4"/>
<path d="M100 91.2C100 90.0799 100 89.5198 100.218 89.092C100.41 88.7157 100.716 88.4097 101.092 88.218C101.52 88 102.08 88 103.2 88H108.8C109.92 88 110.48 88 110.908 88.218C111.284 88.4097 111.59 88.7157 111.782 89.092C112 89.5198 112 90.0799 112 91.2V96.8C112 97.9201 112 98.4802 111.782 98.908C111.59 99.2843 111.284 99.5903 110.908 99.782C110.48 100 109.92 100 108.8 100H103.2C102.08 100 101.52 100 101.092 99.782C100.716 99.5903 100.41 99.2843 100.218 98.908C100 98.4802 100 97.9201 100 96.8V91.2Z" fill="#2B87F8" fill-opacity="0.4"/>
<path d="M114 91.2C114 90.0799 114 89.5198 114.218 89.092C114.41 88.7157 114.716 88.4097 115.092 88.218C115.52 88 116.08 88 117.2 88H122.8C123.92 88 124.48 88 124.908 88.218C125.284 88.4097 125.59 88.7157 125.782 89.092C126 89.5198 126 90.0799 126 91.2V96.8C126 97.9201 126 98.4802 125.782 98.908C125.59 99.2843 125.284 99.5903 124.908 99.782C124.48 100 123.92 100 122.8 100H117.2C116.08 100 115.52 100 115.092 99.782C114.716 99.5903 114.41 99.2843 114.218 98.908C114 98.4802 114 97.9201 114 96.8V91.2Z" fill="#2B87F8" fill-opacity="0.4"/>
<path d="M128 91.2C128 90.0799 128 89.5198 128.218 89.092C128.41 88.7157 128.716 88.4097 129.092 88.218C129.52 88 130.08 88 131.2 88H136.8C137.92 88 138.48 88 138.908 88.218C139.284 88.4097 139.59 88.7157 139.782 89.092C140 89.5198 140 90.0799 140 91.2V96.8C140 97.9201 140 98.4802 139.782 98.908C139.59 99.2843 139.284 99.5903 138.908 99.782C138.48 100 137.92 100 136.8 100H131.2C130.08 100 129.52 100 129.092 99.782C128.716 99.5903 128.41 99.2843 128.218 98.908C128 98.4802 128 97.9201 128 96.8V91.2Z" fill="#2B87F8" fill-opacity="0.4"/>
<path d="M44 105.2C44 104.08 44 103.52 44.218 103.092C44.4097 102.716 44.7157 102.41 45.092 102.218C45.5198 102 46.0799 102 47.2 102H52.8C53.9201 102 54.4802 102 54.908 102.218C55.2843 102.41 55.5903 102.716 55.782 103.092C56 103.52 56 104.08 56 105.2V110.8C56 111.92 56 112.48 55.782 112.908C55.5903 113.284 55.2843 113.59 54.908 113.782C54.4802 114 53.9201 114 52.8 114H47.2C46.0799 114 45.5198 114 45.092 113.782C44.7157 113.59 44.4097 113.284 44.218 112.908C44 112.48 44 111.92 44 110.8V105.2Z" fill="#2B87F8" fill-opacity="0.4"/>
<path d="M58 105.2C58 104.08 58 103.52 58.218 103.092C58.4097 102.716 58.7157 102.41 59.092 102.218C59.5198 102 60.0799 102 61.2 102H66.8C67.9201 102 68.4802 102 68.908 102.218C69.2843 102.41 69.5903 102.716 69.782 103.092C70 103.52 70 104.08 70 105.2V110.8C70 111.92 70 112.48 69.782 112.908C69.5903 113.284 69.2843 113.59 68.908 113.782C68.4802 114 67.9201 114 66.8 114H61.2C60.0799 114 59.5198 114 59.092 113.782C58.7157 113.59 58.4097 113.284 58.218 112.908C58 112.48 58 111.92 58 110.8V105.2Z" fill="#2B87F8" fill-opacity="0.4"/>
<path d="M72 105.2C72 104.08 72 103.52 72.218 103.092C72.4097 102.716 72.7157 102.41 73.092 102.218C73.5198 102 74.0799 102 75.2 102H80.8C81.9201 102 82.4802 102 82.908 102.218C83.2843 102.41 83.5903 102.716 83.782 103.092C84 103.52 84 104.08 84 105.2V110.8C84 111.92 84 112.48 83.782 112.908C83.5903 113.284 83.2843 113.59 82.908 113.782C82.4802 114 81.9201 114 80.8 114H75.2C74.0799 114 73.5198 114 73.092 113.782C72.7157 113.59 72.4097 113.284 72.218 112.908C72 112.48 72 111.92 72 110.8V105.2Z" fill="#2B87F8" fill-opacity="0.4"/>
<path d="M86 105.2C86 104.08 86 103.52 86.218 103.092C86.4097 102.716 86.7157 102.41 87.092 102.218C87.5198 102 88.0799 102 89.2 102H94.8C95.9201 102 96.4802 102 96.908 102.218C97.2843 102.41 97.5903 102.716 97.782 103.092C98 103.52 98 104.08 98 105.2V110.8C98 111.92 98 112.48 97.782 112.908C97.5903 113.284 97.2843 113.59 96.908 113.782C96.4802 114 95.9201 114 94.8 114H89.2C88.0799 114 87.5198 114 87.092 113.782C86.7157 113.59 86.4097 113.284 86.218 112.908C86 112.48 86 111.92 86 110.8V105.2Z" fill="#2B87F8" fill-opacity="0.4"/>
<path d="M100 105.2C100 104.08 100 103.52 100.218 103.092C100.41 102.716 100.716 102.41 101.092 102.218C101.52 102 102.08 102 103.2 102H108.8C109.92 102 110.48 102 110.908 102.218C111.284 102.41 111.59 102.716 111.782 103.092C112 103.52 112 104.08 112 105.2V110.8C112 111.92 112 112.48 111.782 112.908C111.59 113.284 111.284 113.59 110.908 113.782C110.48 114 109.92 114 108.8 114H103.2C102.08 114 101.52 114 101.092 113.782C100.716 113.59 100.41 113.284 100.218 112.908C100 112.48 100 111.92 100 110.8V105.2Z" fill="#2B87F8" fill-opacity="0.4"/>
<path d="M114 105.2C114 104.08 114 103.52 114.218 103.092C114.41 102.716 114.716 102.41 115.092 102.218C115.52 102 116.08 102 117.2 102H122.8C123.92 102 124.48 102 124.908 102.218C125.284 102.41 125.59 102.716 125.782 103.092C126 103.52 126 104.08 126 105.2V110.8C126 111.92 126 112.48 125.782 112.908C125.59 113.284 125.284 113.59 124.908 113.782C124.48 114 123.92 114 122.8 114H117.2C116.08 114 115.52 114 115.092 113.782C114.716 113.59 114.41 113.284 114.218 112.908C114 112.48 114 111.92 114 110.8V105.2Z" fill="#2B87F8" fill-opacity="0.4"/>
<path d="M128 105.2C128 104.08 128 103.52 128.218 103.092C128.41 102.716 128.716 102.41 129.092 102.218C129.52 102 130.08 102 131.2 102H136.8C137.92 102 138.48 102 138.908 102.218C139.284 102.41 139.59 102.716 139.782 103.092C140 103.52 140 104.08 140 105.2V110.8C140 111.92 140 112.48 139.782 112.908C139.59 113.284 139.284 113.59 138.908 113.782C138.48 114 137.92 114 136.8 114H131.2C130.08 114 129.52 114 129.092 113.782C128.716 113.59 128.41 113.284 128.218 112.908C128 112.48 128 111.92 128 110.8V105.2Z" fill="#2B87F8" fill-opacity="0.4"/>
<path d="M44 119.2C44 118.08 44 117.52 44.218 117.092C44.4097 116.716 44.7157 116.41 45.092 116.218C45.5198 116 46.0799 116 47.2 116H52.8C53.9201 116 54.4802 116 54.908 116.218C55.2843 116.41 55.5903 116.716 55.782 117.092C56 117.52 56 118.08 56 119.2V124.8C56 125.92 56 126.48 55.782 126.908C55.5903 127.284 55.2843 127.59 54.908 127.782C54.4802 128 53.9201 128 52.8 128H47.2C46.0799 128 45.5198 128 45.092 127.782C44.7157 127.59 44.4097 127.284 44.218 126.908C44 126.48 44 125.92 44 124.8V119.2Z" fill="#2B87F8" fill-opacity="0.4"/>
<path d="M58 119.2C58 118.08 58 117.52 58.218 117.092C58.4097 116.716 58.7157 116.41 59.092 116.218C59.5198 116 60.0799 116 61.2 116H66.8C67.9201 116 68.4802 116 68.908 116.218C69.2843 116.41 69.5903 116.716 69.782 117.092C70 117.52 70 118.08 70 119.2V124.8C70 125.92 70 126.48 69.782 126.908C69.5903 127.284 69.2843 127.59 68.908 127.782C68.4802 128 67.9201 128 66.8 128H61.2C60.0799 128 59.5198 128 59.092 127.782C58.7157 127.59 58.4097 127.284 58.218 126.908C58 126.48 58 125.92 58 124.8V119.2Z" fill="#2B87F8" fill-opacity="0.4"/>
<path d="M72 119.2C72 118.08 72 117.52 72.218 117.092C72.4097 116.716 72.7157 116.41 73.092 116.218C73.5198 116 74.0799 116 75.2 116H80.8C81.9201 116 82.4802 116 82.908 116.218C83.2843 116.41 83.5903 116.716 83.782 117.092C84 117.52 84 118.08 84 119.2V124.8C84 125.92 84 126.48 83.782 126.908C83.5903 127.284 83.2843 127.59 82.908 127.782C82.4802 128 81.9201 128 80.8 128H75.2C74.0799 128 73.5198 128 73.092 127.782C72.7157 127.59 72.4097 127.284 72.218 126.908C72 126.48 72 125.92 72 124.8V119.2Z" fill="#2B87F8" fill-opacity="0.4"/>
<path d="M86 119.2C86 118.08 86 117.52 86.218 117.092C86.4097 116.716 86.7157 116.41 87.092 116.218C87.5198 116 88.0799 116 89.2 116H94.8C95.9201 116 96.4802 116 96.908 116.218C97.2843 116.41 97.5903 116.716 97.782 117.092C98 117.52 98 118.08 98 119.2V124.8C98 125.92 98 126.48 97.782 126.908C97.5903 127.284 97.2843 127.59 96.908 127.782C96.4802 128 95.9201 128 94.8 128H89.2C88.0799 128 87.5198 128 87.092 127.782C86.7157 127.59 86.4097 127.284 86.218 126.908C86 126.48 86 125.92 86 124.8V119.2Z" fill="#2B87F8"/>
<path d="M100 119.2C100 118.08 100 117.52 100.218 117.092C100.41 116.716 100.716 116.41 101.092 116.218C101.52 116 102.08 116 103.2 116H108.8C109.92 116 110.48 116 110.908 116.218C111.284 116.41 111.59 116.716 111.782 117.092C112 117.52 112 118.08 112 119.2V124.8C112 125.92 112 126.48 111.782 126.908C111.59 127.284 111.284 127.59 110.908 127.782C110.48 128 109.92 128 108.8 128H103.2C102.08 128 101.52 128 101.092 127.782C100.716 127.59 100.41 127.284 100.218 126.908C100 126.48 100 125.92 100 124.8V119.2Z" fill="#2B87F8" fill-opacity="0.4"/>
<path d="M114 119.2C114 118.08 114 117.52 114.218 117.092C114.41 116.716 114.716 116.41 115.092 116.218C115.52 116 116.08 116 117.2 116H122.8C123.92 116 124.48 116 124.908 116.218C125.284 116.41 125.59 116.716 125.782 117.092C126 117.52 126 118.08 126 119.2V124.8C126 125.92 126 126.48 125.782 126.908C125.59 127.284 125.284 127.59 124.908 127.782C124.48 128 123.92 128 122.8 128H117.2C116.08 128 115.52 128 115.092 127.782C114.716 127.59 114.41 127.284 114.218 126.908C114 126.48 114 125.92 114 124.8V119.2Z" fill="#2B87F8" fill-opacity="0.4"/>
<path d="M128 119.2C128 118.08 128 117.52 128.218 117.092C128.41 116.716 128.716 116.41 129.092 116.218C129.52 116 130.08 116 131.2 116H136.8C137.92 116 138.48 116 138.908 116.218C139.284 116.41 139.59 116.716 139.782 117.092C140 117.52 140 118.08 140 119.2V124.8C140 125.92 140 126.48 139.782 126.908C139.59 127.284 139.284 127.59 138.908 127.782C138.48 128 137.92 128 136.8 128H131.2C130.08 128 129.52 128 129.092 127.782C128.716 127.59 128.41 127.284 128.218 126.908C128 126.48 128 125.92 128 124.8V119.2Z" fill="#2B87F8" fill-opacity="0.4"/>
<path d="M44 133.2C44 132.08 44 131.52 44.218 131.092C44.4097 130.716 44.7157 130.41 45.092 130.218C45.5198 130 46.0799 130 47.2 130H52.8C53.9201 130 54.4802 130 54.908 130.218C55.2843 130.41 55.5903 130.716 55.782 131.092C56 131.52 56 132.08 56 133.2V138.8C56 139.92 56 140.48 55.782 140.908C55.5903 141.284 55.2843 141.59 54.908 141.782C54.4802 142 53.9201 142 52.8 142H47.2C46.0799 142 45.5198 142 45.092 141.782C44.7157 141.59 44.4097 141.284 44.218 140.908C44 140.48 44 139.92 44 138.8V133.2Z" fill="#2B87F8" fill-opacity="0.4"/>
<path d="M58 133.2C58 132.08 58 131.52 58.218 131.092C58.4097 130.716 58.7157 130.41 59.092 130.218C59.5198 130 60.0799 130 61.2 130H66.8C67.9201 130 68.4802 130 68.908 130.218C69.2843 130.41 69.5903 130.716 69.782 131.092C70 131.52 70 132.08 70 133.2V138.8C70 139.92 70 140.48 69.782 140.908C69.5903 141.284 69.2843 141.59 68.908 141.782C68.4802 142 67.9201 142 66.8 142H61.2C60.0799 142 59.5198 142 59.092 141.782C58.7157 141.59 58.4097 141.284 58.218 140.908C58 140.48 58 139.92 58 138.8V133.2Z" fill="#2B87F8" fill-opacity="0.4"/>
<path d="M72 133.2C72 132.08 72 131.52 72.218 131.092C72.4097 130.716 72.7157 130.41 73.092 130.218C73.5198 130 74.0799 130 75.2 130H80.8C81.9201 130 82.4802 130 82.908 130.218C83.2843 130.41 83.5903 130.716 83.782 131.092C84 131.52 84 132.08 84 133.2V138.8C84 139.92 84 140.48 83.782 140.908C83.5903 141.284 83.2843 141.59 82.908 141.782C82.4802 142 81.9201 142 80.8 142H75.2C74.0799 142 73.5198 142 73.092 141.782C72.7157 141.59 72.4097 141.284 72.218 140.908C72 140.48 72 139.92 72 138.8V133.2Z" fill="#2B87F8" fill-opacity="0.4"/>
<path d="M86 133.2C86 132.08 86 131.52 86.218 131.092C86.4097 130.716 86.7157 130.41 87.092 130.218C87.5198 130 88.0799 130 89.2 130H94.8C95.9201 130 96.4802 130 96.908 130.218C97.2843 130.41 97.5903 130.716 97.782 131.092C98 131.52 98 132.08 98 133.2V138.8C98 139.92 98 140.48 97.782 140.908C97.5903 141.284 97.2843 141.59 96.908 141.782C96.4802 142 95.9201 142 94.8 142H89.2C88.0799 142 87.5198 142 87.092 141.782C86.7157 141.59 86.4097 141.284 86.218 140.908C86 140.48 86 139.92 86 138.8V133.2Z" fill="#2B87F8" fill-opacity="0.4"/>
<path d="M100 133.2C100 132.08 100 131.52 100.218 131.092C100.41 130.716 100.716 130.41 101.092 130.218C101.52 130 102.08 130 103.2 130H108.8C109.92 130 110.48 130 110.908 130.218C111.284 130.41 111.59 130.716 111.782 131.092C112 131.52 112 132.08 112 133.2V138.8C112 139.92 112 140.48 111.782 140.908C111.59 141.284 111.284 141.59 110.908 141.782C110.48 142 109.92 142 108.8 142H103.2C102.08 142 101.52 142 101.092 141.782C100.716 141.59 100.41 141.284 100.218 140.908C100 140.48 100 139.92 100 138.8V133.2Z" fill="#2B87F8" fill-opacity="0.4"/>
<path d="M114 132C114 130.895 114.895 130 116 130H124C125.105 130 126 130.895 126 132V140C126 141.105 125.105 142 124 142H116C114.895 142 114 141.105 114 140V132Z" fill="#2B87F8" fill-opacity="0.1"/>
<path d="M128 132C128 130.895 128.895 130 130 130H138C139.105 130 140 130.895 140 132V140C140 141.105 139.105 142 138 142H130C128.895 142 128 141.105 128 140V132Z" fill="#2B87F8" fill-opacity="0.1"/>
<mask id="path-51-inside-1_5087_54270" fill="white">
<path d="M0 0H184V12H0V0Z"/>
</mask>
<path d="M0 0H184V12H0V0Z" fill="#2B87F8" fill-opacity="0.25"/>
<path d="M184 12V11H0V12V13H184V12Z" fill="#2B87F8" fill-opacity="0.15" mask="url(#path-51-inside-1_5087_54270)"/>
<rect x="12" y="4" width="8" height="4" rx="1" fill="#2B87F8" fill-opacity="0.55"/>
<rect x="144" y="4" width="8" height="4" rx="1" fill="#2B87F8" fill-opacity="0.55"/>
<rect x="154" y="4" width="8" height="4" rx="1" fill="#2B87F8" fill-opacity="0.55"/>
<rect x="164" y="4" width="8" height="4" rx="1" fill="#2B87F8" fill-opacity="0.55"/>
</g>
<defs>
<clipPath id="clip0_5087_54270">
<rect width="184" height="184" rx="4" fill="white"/>
</clipPath>
</defs>
</svg>
