<svg width="104" height="184" viewBox="0 0 104 184" fill="none" xmlns="http://www.w3.org/2000/svg">
<g clip-path="url(#clip0_5087_54333)">
<path d="M0 4C0 1.79086 1.79086 0 4 0H100C102.209 0 104 1.79086 104 4V180C104 182.209 102.209 184 100 184H4C1.79086 184 0 182.209 0 180V4Z" fill="#F0F7FE"/>
<path d="M4 0.5H100C101.933 0.500002 103.5 2.067 103.5 4V180C103.5 181.933 101.933 183.5 100 183.5H4C2.067 183.5 0.5 181.933 0.5 180V4C0.5 2.067 2.067 0.5 4 0.5Z" stroke="#2B87F8" stroke-opacity="0.1"/>
<path d="M8 51.36C8 49.5043 9.50432 48 11.36 48H92.64C94.4957 48 96 49.5043 96 51.36V132.64C96 134.496 94.4957 136 92.64 136H11.36C9.50433 136 8 134.496 8 132.64V51.36Z" fill="white"/>
<path d="M92.6396 47.5801C94.7273 47.5801 96.4199 49.2727 96.4199 51.3604V132.64C96.4199 134.727 94.7273 136.42 92.6396 136.42H11.3604C9.27272 136.42 7.58008 134.727 7.58008 132.64V51.3604C7.58008 49.2727 9.27271 47.5801 11.3604 47.5801H92.6396Z" stroke="#2B87F8" stroke-opacity="0.15" stroke-width="0.84" stroke-linejoin="bevel"/>
<path d="M15.0121 56.4L17.9731 53.439C18.0711 53.341 18.1201 53.222 18.1201 53.082C18.1201 52.942 18.0711 52.823 17.9731 52.725C17.8751 52.627 17.7561 52.578 17.6161 52.578C17.4761 52.578 17.3571 52.627 17.2591 52.725L14.1196 55.8645C14.0426 55.9415 13.9866 56.0255 13.9516 56.1165C13.9166 56.2075 13.8991 56.302 13.8991 56.4C13.8991 56.498 13.9166 56.5925 13.9516 56.6835C13.9866 56.7745 14.0426 56.8585 14.1196 56.9355L17.2591 60.075C17.3571 60.173 17.4761 60.222 17.6161 60.222C17.7561 60.222 17.8751 60.173 17.9731 60.075C18.0711 59.977 18.1201 59.858 18.1201 59.718C18.1201 59.578 18.0711 59.459 17.9731 59.361L15.0121 56.4Z" fill="#2B87F8"/>
<path d="M31.52 56.4C31.52 55.4721 32.2722 54.72 33.2 54.72H70.16C71.0879 54.72 71.84 55.4721 71.84 56.4V56.4C71.84 57.3278 71.0879 58.08 70.16 58.08H33.2C32.2722 58.08 31.52 57.3278 31.52 56.4V56.4Z" fill="#2B87F8" fill-opacity="0.55"/>
<path d="M88.3482 56.4L85.3872 53.439C85.2892 53.341 85.2402 53.222 85.2402 53.082C85.2402 52.942 85.2892 52.823 85.3872 52.725C85.4852 52.627 85.6042 52.578 85.7442 52.578C85.8842 52.578 86.0032 52.627 86.1012 52.725L89.2407 55.8645C89.3177 55.9415 89.3737 56.0255 89.4087 56.1165C89.4437 56.2075 89.4612 56.302 89.4612 56.4C89.4612 56.498 89.4437 56.5925 89.4087 56.6835C89.3737 56.7745 89.3177 56.8585 89.2407 56.9355L86.1012 60.075C86.0032 60.173 85.8842 60.222 85.7442 60.222C85.6042 60.222 85.4852 60.173 85.3872 60.075C85.2892 59.977 85.2402 59.858 85.2402 59.718C85.2402 59.578 85.2892 59.459 85.3872 59.361L88.3482 56.4Z" fill="#2B87F8"/>
<path d="M11.3601 66.48C11.3601 65.5522 12.1123 64.8 13.0401 64.8H19.7601C20.6879 64.8 21.4401 65.5521 21.4401 66.48V73.2C21.4401 74.1278 20.6879 74.88 19.7601 74.88H13.0401C12.1123 74.88 11.3601 74.1278 11.3601 73.2V66.48Z" fill="#2B87F8" fill-opacity="0.15"/>
<path d="M23.1201 66.48C23.1201 65.5522 23.8723 64.8 24.8001 64.8H31.5201C32.448 64.8 33.2001 65.5521 33.2001 66.48V73.2C33.2001 74.1278 32.448 74.88 31.5201 74.88H24.8001C23.8723 74.88 23.1201 74.1278 23.1201 73.2V66.48Z" fill="#2B87F8" fill-opacity="0.15"/>
<path d="M34.8801 66.48C34.8801 65.5522 35.6323 64.8 36.5601 64.8H43.2801C44.208 64.8 44.9601 65.5521 44.9601 66.48V73.2C44.9601 74.1278 44.208 74.88 43.2801 74.88H36.5601C35.6323 74.88 34.8801 74.1278 34.8801 73.2V66.48Z" fill="#2B87F8" fill-opacity="0.15"/>
<path d="M46.6401 66.48C46.6401 65.5522 47.3923 64.8 48.3201 64.8H55.0401C55.968 64.8 56.7201 65.5521 56.7201 66.48V73.2C56.7201 74.1278 55.968 74.88 55.0401 74.88H48.3201C47.3923 74.88 46.6401 74.1278 46.6401 73.2V66.48Z" fill="#2B87F8" fill-opacity="0.15"/>
<path d="M58.4001 66.48C58.4001 65.5522 59.1523 64.8 60.0801 64.8H66.8001C67.728 64.8 68.4801 65.5521 68.4801 66.48V73.2C68.4801 74.1278 67.728 74.88 66.8001 74.88H60.0801C59.1523 74.88 58.4001 74.1278 58.4001 73.2V66.48Z" fill="#2B87F8" fill-opacity="0.15"/>
<path d="M70.1602 66.48C70.1602 65.5522 70.9123 64.8 71.8402 64.8H78.5602C79.488 64.8 80.2402 65.5521 80.2402 66.48V73.2C80.2402 74.1278 79.488 74.88 78.5602 74.88H71.8402C70.9123 74.88 70.1602 74.1278 70.1602 73.2V66.48Z" fill="#2B87F8" fill-opacity="0.15"/>
<path d="M81.9202 66.48C81.9202 65.5522 82.6723 64.8 83.6002 64.8H90.3202C91.248 64.8 92.0002 65.5521 92.0002 66.48V73.2C92.0002 74.1278 91.248 74.88 90.3202 74.88H83.6002C82.6723 74.88 81.9202 74.1278 81.9202 73.2V66.48Z" fill="#2B87F8" fill-opacity="0.15"/>
<path d="M11.3601 78.24C11.3601 77.3122 12.1123 76.56 13.0401 76.56H19.7601C20.6879 76.56 21.4401 77.3122 21.4401 78.24V84.96C21.4401 85.8878 20.6879 86.64 19.7601 86.64H13.0401C12.1123 86.64 11.3601 85.8878 11.3601 84.96V78.24Z" fill="#2B87F8" fill-opacity="0.1"/>
<path d="M23.1201 78.24C23.1201 77.3122 23.8723 76.56 24.8001 76.56H31.5201C32.448 76.56 33.2001 77.3122 33.2001 78.24V84.96C33.2001 85.8878 32.448 86.64 31.5201 86.64H24.8001C23.8723 86.64 23.1201 85.8878 23.1201 84.96V78.24Z" fill="#2B87F8" fill-opacity="0.1"/>
<path d="M34.8801 79.248C34.8801 78.3071 34.8801 77.8367 35.0632 77.4773C35.2243 77.1612 35.4813 76.9042 35.7974 76.7431C36.1568 76.56 36.6272 76.56 37.5681 76.56H42.2721C43.213 76.56 43.6835 76.56 44.0428 76.7431C44.3589 76.9042 44.616 77.1612 44.777 77.4773C44.9601 77.8367 44.9601 78.3071 44.9601 79.248V83.952C44.9601 84.8929 44.9601 85.3633 44.777 85.7227C44.616 86.0388 44.3589 86.2958 44.0428 86.4569C43.6835 86.64 43.213 86.64 42.2721 86.64H37.5681C36.6272 86.64 36.1568 86.64 35.7974 86.4569C35.4813 86.2958 35.2243 86.0388 35.0632 85.7227C34.8801 85.3633 34.8801 84.8929 34.8801 83.952V79.248Z" fill="#2B87F8" fill-opacity="0.4"/>
<path d="M46.6401 79.248C46.6401 78.3071 46.6401 77.8367 46.8232 77.4773C46.9843 77.1612 47.2413 76.9042 47.5574 76.7431C47.9168 76.56 48.3872 76.56 49.3281 76.56H54.0321C54.973 76.56 55.4435 76.56 55.8028 76.7431C56.119 76.9042 56.376 77.1612 56.537 77.4773C56.7201 77.8367 56.7201 78.3071 56.7201 79.248V83.952C56.7201 84.8929 56.7201 85.3633 56.537 85.7227C56.376 86.0388 56.119 86.2958 55.8028 86.4569C55.4435 86.64 54.973 86.64 54.0321 86.64H49.3281C48.3872 86.64 47.9168 86.64 47.5574 86.4569C47.2413 86.2958 46.9843 86.0388 46.8232 85.7227C46.6401 85.3633 46.6401 84.8929 46.6401 83.952V79.248Z" fill="#2B87F8" fill-opacity="0.4"/>
<path d="M58.4001 79.248C58.4001 78.3071 58.4001 77.8367 58.5833 77.4773C58.7443 77.1612 59.0013 76.9042 59.3174 76.7431C59.6768 76.56 60.1473 76.56 61.0881 76.56H65.7921C66.733 76.56 67.2035 76.56 67.5629 76.7431C67.879 76.9042 68.136 77.1612 68.297 77.4773C68.4801 77.8367 68.4801 78.3071 68.4801 79.248V83.952C68.4801 84.8929 68.4801 85.3633 68.297 85.7227C68.136 86.0388 67.879 86.2958 67.5629 86.4569C67.2035 86.64 66.733 86.64 65.7921 86.64H61.0881C60.1473 86.64 59.6768 86.64 59.3174 86.4569C59.0013 86.2958 58.7443 86.0388 58.5833 85.7227C58.4001 85.3633 58.4001 84.8929 58.4001 83.952V79.248Z" fill="#2B87F8" fill-opacity="0.4"/>
<path d="M70.1602 79.248C70.1602 78.3071 70.1602 77.8367 70.3433 77.4773C70.5043 77.1612 70.7613 76.9042 71.0775 76.7431C71.4368 76.56 71.9073 76.56 72.8482 76.56H77.5522C78.493 76.56 78.9635 76.56 79.3229 76.7431C79.639 76.9042 79.896 77.1612 80.057 77.4773C80.2402 77.8367 80.2402 78.3071 80.2402 79.248V83.952C80.2402 84.8929 80.2402 85.3633 80.057 85.7227C79.896 86.0388 79.639 86.2958 79.3229 86.4569C78.9635 86.64 78.493 86.64 77.5522 86.64H72.8482C71.9073 86.64 71.4368 86.64 71.0775 86.4569C70.7613 86.2958 70.5043 86.0388 70.3433 85.7227C70.1602 85.3633 70.1602 84.8929 70.1602 83.952V79.248Z" fill="#2B87F8" fill-opacity="0.4"/>
<path d="M81.9202 79.248C81.9202 78.3071 81.9202 77.8367 82.1033 77.4773C82.2643 77.1612 82.5213 76.9042 82.8375 76.7431C83.1968 76.56 83.6673 76.56 84.6082 76.56H89.3122C90.2531 76.56 90.7235 76.56 91.0829 76.7431C91.399 76.9042 91.656 77.1612 91.8171 77.4773C92.0002 77.8367 92.0002 78.3071 92.0002 79.248V83.952C92.0002 84.8929 92.0002 85.3633 91.8171 85.7227C91.656 86.0388 91.399 86.2958 91.0829 86.4569C90.7235 86.64 90.2531 86.64 89.3122 86.64H84.6082C83.6673 86.64 83.1968 86.64 82.8375 86.4569C82.5213 86.2958 82.2643 86.0388 82.1033 85.7227C81.9202 85.3633 81.9202 84.8929 81.9202 83.952V79.248Z" fill="#2B87F8" fill-opacity="0.4"/>
<path d="M11.3601 91.008C11.3601 90.0671 11.3601 89.5967 11.5432 89.2373C11.7043 88.9212 11.9613 88.6642 12.2774 88.5031C12.6368 88.32 13.1072 88.32 14.0481 88.32H18.7521C19.693 88.32 20.1634 88.32 20.5228 88.5031C20.8389 88.6642 21.0959 88.9212 21.257 89.2373C21.4401 89.5967 21.4401 90.0671 21.4401 91.008V95.712C21.4401 96.6529 21.4401 97.1233 21.257 97.4827C21.0959 97.7988 20.8389 98.0558 20.5228 98.2169C20.1634 98.4 19.693 98.4 18.7521 98.4H14.0481C13.1072 98.4 12.6368 98.4 12.2774 98.2169C11.9613 98.0558 11.7043 97.7988 11.5432 97.4827C11.3601 97.1233 11.3601 96.6529 11.3601 95.712V91.008Z" fill="#2B87F8" fill-opacity="0.4"/>
<path d="M23.1201 91.008C23.1201 90.0671 23.1201 89.5967 23.3032 89.2373C23.4643 88.9212 23.7213 88.6642 24.0374 88.5031C24.3968 88.32 24.8672 88.32 25.8081 88.32H30.5121C31.453 88.32 31.9234 88.32 32.2828 88.5031C32.5989 88.6642 32.8559 88.9212 33.017 89.2373C33.2001 89.5967 33.2001 90.0671 33.2001 91.008V95.712C33.2001 96.6529 33.2001 97.1233 33.017 97.4827C32.8559 97.7988 32.5989 98.0558 32.2828 98.2169C31.9234 98.4 31.453 98.4 30.5121 98.4H25.8081C24.8672 98.4 24.3968 98.4 24.0374 98.2169C23.7213 98.0558 23.4643 97.7988 23.3032 97.4827C23.1201 97.1233 23.1201 96.6529 23.1201 95.712V91.008Z" fill="#2B87F8" fill-opacity="0.4"/>
<path d="M34.8801 91.008C34.8801 90.0671 34.8801 89.5967 35.0632 89.2373C35.2243 88.9212 35.4813 88.6642 35.7974 88.5031C36.1568 88.32 36.6272 88.32 37.5681 88.32H42.2721C43.213 88.32 43.6835 88.32 44.0428 88.5031C44.3589 88.6642 44.616 88.9212 44.777 89.2373C44.9601 89.5967 44.9601 90.0671 44.9601 91.008V95.712C44.9601 96.6529 44.9601 97.1233 44.777 97.4827C44.616 97.7988 44.3589 98.0558 44.0428 98.2169C43.6835 98.4 43.213 98.4 42.2721 98.4H37.5681C36.6272 98.4 36.1568 98.4 35.7974 98.2169C35.4813 98.0558 35.2243 97.7988 35.0632 97.4827C34.8801 97.1233 34.8801 96.6529 34.8801 95.712V91.008Z" fill="#2B87F8" fill-opacity="0.4"/>
<path d="M46.6401 91.008C46.6401 90.0671 46.6401 89.5967 46.8232 89.2373C46.9843 88.9212 47.2413 88.6642 47.5574 88.5031C47.9168 88.32 48.3872 88.32 49.3281 88.32H54.0321C54.973 88.32 55.4435 88.32 55.8028 88.5031C56.119 88.6642 56.376 88.9212 56.537 89.2373C56.7201 89.5967 56.7201 90.0671 56.7201 91.008V95.712C56.7201 96.6529 56.7201 97.1233 56.537 97.4827C56.376 97.7988 56.119 98.0558 55.8028 98.2169C55.4435 98.4 54.973 98.4 54.0321 98.4H49.3281C48.3872 98.4 47.9168 98.4 47.5574 98.2169C47.2413 98.0558 46.9843 97.7988 46.8232 97.4827C46.6401 97.1233 46.6401 96.6529 46.6401 95.712V91.008Z" fill="#2B87F8" fill-opacity="0.4"/>
<path d="M58.4001 91.008C58.4001 90.0671 58.4001 89.5967 58.5833 89.2373C58.7443 88.9212 59.0013 88.6642 59.3174 88.5031C59.6768 88.32 60.1473 88.32 61.0881 88.32H65.7921C66.733 88.32 67.2035 88.32 67.5629 88.5031C67.879 88.6642 68.136 88.9212 68.297 89.2373C68.4801 89.5967 68.4801 90.0671 68.4801 91.008V95.712C68.4801 96.6529 68.4801 97.1233 68.297 97.4827C68.136 97.7988 67.879 98.0558 67.5629 98.2169C67.2035 98.4 66.733 98.4 65.7921 98.4H61.0881C60.1473 98.4 59.6768 98.4 59.3174 98.2169C59.0013 98.0558 58.7443 97.7988 58.5833 97.4827C58.4001 97.1233 58.4001 96.6529 58.4001 95.712V91.008Z" fill="#2B87F8" fill-opacity="0.4"/>
<path d="M70.1602 91.008C70.1602 90.0671 70.1602 89.5967 70.3433 89.2373C70.5043 88.9212 70.7613 88.6642 71.0775 88.5031C71.4368 88.32 71.9073 88.32 72.8482 88.32H77.5522C78.493 88.32 78.9635 88.32 79.3229 88.5031C79.639 88.6642 79.896 88.9212 80.057 89.2373C80.2402 89.5967 80.2402 90.0671 80.2402 91.008V95.712C80.2402 96.6529 80.2402 97.1233 80.057 97.4827C79.896 97.7988 79.639 98.0558 79.3229 98.2169C78.9635 98.4 78.493 98.4 77.5522 98.4H72.8482C71.9073 98.4 71.4368 98.4 71.0775 98.2169C70.7613 98.0558 70.5043 97.7988 70.3433 97.4827C70.1602 97.1233 70.1602 96.6529 70.1602 95.712V91.008Z" fill="#2B87F8" fill-opacity="0.4"/>
<path d="M81.9202 91.008C81.9202 90.0671 81.9202 89.5967 82.1033 89.2373C82.2643 88.9212 82.5213 88.6642 82.8375 88.5031C83.1968 88.32 83.6673 88.32 84.6082 88.32H89.3122C90.2531 88.32 90.7235 88.32 91.0829 88.5031C91.399 88.6642 91.656 88.9212 91.8171 89.2373C92.0002 89.5967 92.0002 90.0671 92.0002 91.008V95.712C92.0002 96.6529 92.0002 97.1233 91.8171 97.4827C91.656 97.7988 91.399 98.0558 91.0829 98.2169C90.7235 98.4 90.2531 98.4 89.3122 98.4H84.6082C83.6673 98.4 83.1968 98.4 82.8375 98.2169C82.5213 98.0558 82.2643 97.7988 82.1033 97.4827C81.9202 97.1233 81.9202 96.6529 81.9202 95.712V91.008Z" fill="#2B87F8" fill-opacity="0.4"/>
<path d="M11.3601 102.768C11.3601 101.827 11.3601 101.357 11.5432 100.997C11.7043 100.681 11.9613 100.424 12.2774 100.263C12.6368 100.08 13.1072 100.08 14.0481 100.08H18.7521C19.693 100.08 20.1634 100.08 20.5228 100.263C20.8389 100.424 21.0959 100.681 21.257 100.997C21.4401 101.357 21.4401 101.827 21.4401 102.768V107.472C21.4401 108.413 21.4401 108.883 21.257 109.243C21.0959 109.559 20.8389 109.816 20.5228 109.977C20.1634 110.16 19.693 110.16 18.7521 110.16H14.0481C13.1072 110.16 12.6368 110.16 12.2774 109.977C11.9613 109.816 11.7043 109.559 11.5432 109.243C11.3601 108.883 11.3601 108.413 11.3601 107.472V102.768Z" fill="#2B87F8" fill-opacity="0.4"/>
<path d="M23.1201 102.768C23.1201 101.827 23.1201 101.357 23.3032 100.997C23.4643 100.681 23.7213 100.424 24.0374 100.263C24.3968 100.08 24.8672 100.08 25.8081 100.08H30.5121C31.453 100.08 31.9234 100.08 32.2828 100.263C32.5989 100.424 32.8559 100.681 33.017 100.997C33.2001 101.357 33.2001 101.827 33.2001 102.768V107.472C33.2001 108.413 33.2001 108.883 33.017 109.243C32.8559 109.559 32.5989 109.816 32.2828 109.977C31.9234 110.16 31.453 110.16 30.5121 110.16H25.8081C24.8672 110.16 24.3968 110.16 24.0374 109.977C23.7213 109.816 23.4643 109.559 23.3032 109.243C23.1201 108.883 23.1201 108.413 23.1201 107.472V102.768Z" fill="#2B87F8" fill-opacity="0.4"/>
<path d="M34.8801 102.768C34.8801 101.827 34.8801 101.357 35.0632 100.997C35.2243 100.681 35.4813 100.424 35.7974 100.263C36.1568 100.08 36.6272 100.08 37.5681 100.08H42.2721C43.213 100.08 43.6835 100.08 44.0428 100.263C44.3589 100.424 44.616 100.681 44.777 100.997C44.9601 101.357 44.9601 101.827 44.9601 102.768V107.472C44.9601 108.413 44.9601 108.883 44.777 109.243C44.616 109.559 44.3589 109.816 44.0428 109.977C43.6835 110.16 43.213 110.16 42.2721 110.16H37.5681C36.6272 110.16 36.1568 110.16 35.7974 109.977C35.4813 109.816 35.2243 109.559 35.0632 109.243C34.8801 108.883 34.8801 108.413 34.8801 107.472V102.768Z" fill="#2B87F8" fill-opacity="0.4"/>
<path d="M46.6401 102.768C46.6401 101.827 46.6401 101.357 46.8232 100.997C46.9843 100.681 47.2413 100.424 47.5574 100.263C47.9168 100.08 48.3872 100.08 49.3281 100.08H54.0321C54.973 100.08 55.4435 100.08 55.8028 100.263C56.119 100.424 56.376 100.681 56.537 100.997C56.7201 101.357 56.7201 101.827 56.7201 102.768V107.472C56.7201 108.413 56.7201 108.883 56.537 109.243C56.376 109.559 56.119 109.816 55.8028 109.977C55.4435 110.16 54.973 110.16 54.0321 110.16H49.3281C48.3872 110.16 47.9168 110.16 47.5574 109.977C47.2413 109.816 46.9843 109.559 46.8232 109.243C46.6401 108.883 46.6401 108.413 46.6401 107.472V102.768Z" fill="#2B87F8" fill-opacity="0.4"/>
<path d="M58.4001 102.768C58.4001 101.827 58.4001 101.357 58.5833 100.997C58.7443 100.681 59.0013 100.424 59.3174 100.263C59.6768 100.08 60.1473 100.08 61.0881 100.08H65.7921C66.733 100.08 67.2035 100.08 67.5629 100.263C67.879 100.424 68.136 100.681 68.297 100.997C68.4801 101.357 68.4801 101.827 68.4801 102.768V107.472C68.4801 108.413 68.4801 108.883 68.297 109.243C68.136 109.559 67.879 109.816 67.5629 109.977C67.2035 110.16 66.733 110.16 65.7921 110.16H61.0881C60.1473 110.16 59.6768 110.16 59.3174 109.977C59.0013 109.816 58.7443 109.559 58.5833 109.243C58.4001 108.883 58.4001 108.413 58.4001 107.472V102.768Z" fill="#2B87F8" fill-opacity="0.4"/>
<path d="M70.1602 102.768C70.1602 101.827 70.1602 101.357 70.3433 100.997C70.5043 100.681 70.7613 100.424 71.0775 100.263C71.4368 100.08 71.9073 100.08 72.8482 100.08H77.5522C78.493 100.08 78.9635 100.08 79.3229 100.263C79.639 100.424 79.896 100.681 80.057 100.997C80.2402 101.357 80.2402 101.827 80.2402 102.768V107.472C80.2402 108.413 80.2402 108.883 80.057 109.243C79.896 109.559 79.639 109.816 79.3229 109.977C78.9635 110.16 78.493 110.16 77.5522 110.16H72.8482C71.9073 110.16 71.4368 110.16 71.0775 109.977C70.7613 109.816 70.5043 109.559 70.3433 109.243C70.1602 108.883 70.1602 108.413 70.1602 107.472V102.768Z" fill="#2B87F8" fill-opacity="0.4"/>
<path d="M81.9202 102.768C81.9202 101.827 81.9202 101.357 82.1033 100.997C82.2643 100.681 82.5213 100.424 82.8375 100.263C83.1968 100.08 83.6673 100.08 84.6082 100.08H89.3122C90.2531 100.08 90.7235 100.08 91.0829 100.263C91.399 100.424 91.656 100.681 91.8171 100.997C92.0002 101.357 92.0002 101.827 92.0002 102.768V107.472C92.0002 108.413 92.0002 108.883 91.8171 109.243C91.656 109.559 91.399 109.816 91.0829 109.977C90.7235 110.16 90.2531 110.16 89.3122 110.16H84.6082C83.6673 110.16 83.1968 110.16 82.8375 109.977C82.5213 109.816 82.2643 109.559 82.1033 109.243C81.9202 108.883 81.9202 108.413 81.9202 107.472V102.768Z" fill="#2B87F8" fill-opacity="0.4"/>
<path d="M11.3601 114.528C11.3601 113.587 11.3601 113.117 11.5432 112.757C11.7043 112.441 11.9613 112.184 12.2774 112.023C12.6368 111.84 13.1072 111.84 14.0481 111.84H18.7521C19.693 111.84 20.1634 111.84 20.5228 112.023C20.8389 112.184 21.0959 112.441 21.257 112.757C21.4401 113.117 21.4401 113.587 21.4401 114.528V119.232C21.4401 120.173 21.4401 120.643 21.257 121.003C21.0959 121.319 20.8389 121.576 20.5228 121.737C20.1634 121.92 19.693 121.92 18.7521 121.92H14.0481C13.1072 121.92 12.6368 121.92 12.2774 121.737C11.9613 121.576 11.7043 121.319 11.5432 121.003C11.3601 120.643 11.3601 120.173 11.3601 119.232V114.528Z" fill="#2B87F8" fill-opacity="0.4"/>
<path d="M23.1201 114.528C23.1201 113.587 23.1201 113.117 23.3032 112.757C23.4643 112.441 23.7213 112.184 24.0374 112.023C24.3968 111.84 24.8672 111.84 25.8081 111.84H30.5121C31.453 111.84 31.9234 111.84 32.2828 112.023C32.5989 112.184 32.8559 112.441 33.017 112.757C33.2001 113.117 33.2001 113.587 33.2001 114.528V119.232C33.2001 120.173 33.2001 120.643 33.017 121.003C32.8559 121.319 32.5989 121.576 32.2828 121.737C31.9234 121.92 31.453 121.92 30.5121 121.92H25.8081C24.8672 121.92 24.3968 121.92 24.0374 121.737C23.7213 121.576 23.4643 121.319 23.3032 121.003C23.1201 120.643 23.1201 120.173 23.1201 119.232V114.528Z" fill="#2B87F8" fill-opacity="0.4"/>
<path d="M34.8801 114.528C34.8801 113.587 34.8801 113.117 35.0632 112.757C35.2243 112.441 35.4813 112.184 35.7974 112.023C36.1568 111.84 36.6272 111.84 37.5681 111.84H42.2721C43.213 111.84 43.6835 111.84 44.0428 112.023C44.3589 112.184 44.616 112.441 44.777 112.757C44.9601 113.117 44.9601 113.587 44.9601 114.528V119.232C44.9601 120.173 44.9601 120.643 44.777 121.003C44.616 121.319 44.3589 121.576 44.0428 121.737C43.6835 121.92 43.213 121.92 42.2721 121.92H37.5681C36.6272 121.92 36.1568 121.92 35.7974 121.737C35.4813 121.576 35.2243 121.319 35.0632 121.003C34.8801 120.643 34.8801 120.173 34.8801 119.232V114.528Z" fill="#2B87F8" fill-opacity="0.4"/>
<path d="M46.6401 114.528C46.6401 113.587 46.6401 113.117 46.8232 112.757C46.9843 112.441 47.2413 112.184 47.5574 112.023C47.9168 111.84 48.3872 111.84 49.3281 111.84H54.0321C54.973 111.84 55.4435 111.84 55.8028 112.023C56.119 112.184 56.376 112.441 56.537 112.757C56.7201 113.117 56.7201 113.587 56.7201 114.528V119.232C56.7201 120.173 56.7201 120.643 56.537 121.003C56.376 121.319 56.119 121.576 55.8028 121.737C55.4435 121.92 54.973 121.92 54.0321 121.92H49.3281C48.3872 121.92 47.9168 121.92 47.5574 121.737C47.2413 121.576 46.9843 121.319 46.8232 121.003C46.6401 120.643 46.6401 120.173 46.6401 119.232V114.528Z" fill="#2B87F8"/>
<path d="M58.4001 114.528C58.4001 113.587 58.4001 113.117 58.5833 112.757C58.7443 112.441 59.0013 112.184 59.3174 112.023C59.6768 111.84 60.1473 111.84 61.0881 111.84H65.7921C66.733 111.84 67.2035 111.84 67.5629 112.023C67.879 112.184 68.136 112.441 68.297 112.757C68.4801 113.117 68.4801 113.587 68.4801 114.528V119.232C68.4801 120.173 68.4801 120.643 68.297 121.003C68.136 121.319 67.879 121.576 67.5629 121.737C67.2035 121.92 66.733 121.92 65.7921 121.92H61.0881C60.1473 121.92 59.6768 121.92 59.3174 121.737C59.0013 121.576 58.7443 121.319 58.5833 121.003C58.4001 120.643 58.4001 120.173 58.4001 119.232V114.528Z" fill="#2B87F8" fill-opacity="0.4"/>
<path d="M70.1602 114.528C70.1602 113.587 70.1602 113.117 70.3433 112.757C70.5043 112.441 70.7613 112.184 71.0775 112.023C71.4368 111.84 71.9073 111.84 72.8482 111.84H77.5522C78.493 111.84 78.9635 111.84 79.3229 112.023C79.639 112.184 79.896 112.441 80.057 112.757C80.2402 113.117 80.2402 113.587 80.2402 114.528V119.232C80.2402 120.173 80.2402 120.643 80.057 121.003C79.896 121.319 79.639 121.576 79.3229 121.737C78.9635 121.92 78.493 121.92 77.5522 121.92H72.8482C71.9073 121.92 71.4368 121.92 71.0775 121.737C70.7613 121.576 70.5043 121.319 70.3433 121.003C70.1602 120.643 70.1602 120.173 70.1602 119.232V114.528Z" fill="#2B87F8" fill-opacity="0.4"/>
<path d="M81.9202 114.528C81.9202 113.587 81.9202 113.117 82.1033 112.757C82.2643 112.441 82.5213 112.184 82.8375 112.023C83.1968 111.84 83.6673 111.84 84.6082 111.84H89.3122C90.2531 111.84 90.7235 111.84 91.0829 112.023C91.399 112.184 91.656 112.441 91.8171 112.757C92.0002 113.117 92.0002 113.587 92.0002 114.528V119.232C92.0002 120.173 92.0002 120.643 91.8171 121.003C91.656 121.319 91.399 121.576 91.0829 121.737C90.7235 121.92 90.2531 121.92 89.3122 121.92H84.6082C83.6673 121.92 83.1968 121.92 82.8375 121.737C82.5213 121.576 82.2643 121.319 82.1033 121.003C81.9202 120.643 81.9202 120.173 81.9202 119.232V114.528Z" fill="#2B87F8" fill-opacity="0.4"/>
<path d="M11.3601 126.288C11.3601 125.347 11.3601 124.877 11.5432 124.517C11.7043 124.201 11.9613 123.944 12.2774 123.783C12.6368 123.6 13.1072 123.6 14.0481 123.6H18.7521C19.693 123.6 20.1634 123.6 20.5228 123.783C20.8389 123.944 21.0959 124.201 21.257 124.517C21.4401 124.877 21.4401 125.347 21.4401 126.288V130.992C21.4401 131.933 21.4401 132.403 21.257 132.763C21.0959 133.079 20.8389 133.336 20.5228 133.497C20.1634 133.68 19.693 133.68 18.7521 133.68H14.0481C13.1072 133.68 12.6368 133.68 12.2774 133.497C11.9613 133.336 11.7043 133.079 11.5432 132.763C11.3601 132.403 11.3601 131.933 11.3601 130.992V126.288Z" fill="#2B87F8" fill-opacity="0.4"/>
<path d="M23.1201 126.288C23.1201 125.347 23.1201 124.877 23.3032 124.517C23.4643 124.201 23.7213 123.944 24.0374 123.783C24.3968 123.6 24.8672 123.6 25.8081 123.6H30.5121C31.453 123.6 31.9234 123.6 32.2828 123.783C32.5989 123.944 32.8559 124.201 33.017 124.517C33.2001 124.877 33.2001 125.347 33.2001 126.288V130.992C33.2001 131.933 33.2001 132.403 33.017 132.763C32.8559 133.079 32.5989 133.336 32.2828 133.497C31.9234 133.68 31.453 133.68 30.5121 133.68H25.8081C24.8672 133.68 24.3968 133.68 24.0374 133.497C23.7213 133.336 23.4643 133.079 23.3032 132.763C23.1201 132.403 23.1201 131.933 23.1201 130.992V126.288Z" fill="#2B87F8" fill-opacity="0.4"/>
<path d="M34.8801 126.288C34.8801 125.347 34.8801 124.877 35.0632 124.517C35.2243 124.201 35.4813 123.944 35.7974 123.783C36.1568 123.6 36.6272 123.6 37.5681 123.6H42.2721C43.213 123.6 43.6835 123.6 44.0428 123.783C44.3589 123.944 44.616 124.201 44.777 124.517C44.9601 124.877 44.9601 125.347 44.9601 126.288V130.992C44.9601 131.933 44.9601 132.403 44.777 132.763C44.616 133.079 44.3589 133.336 44.0428 133.497C43.6835 133.68 43.213 133.68 42.2721 133.68H37.5681C36.6272 133.68 36.1568 133.68 35.7974 133.497C35.4813 133.336 35.2243 133.079 35.0632 132.763C34.8801 132.403 34.8801 131.933 34.8801 130.992V126.288Z" fill="#2B87F8" fill-opacity="0.4"/>
<path d="M46.6401 126.288C46.6401 125.347 46.6401 124.877 46.8232 124.517C46.9843 124.201 47.2413 123.944 47.5574 123.783C47.9168 123.6 48.3872 123.6 49.3281 123.6H54.0321C54.973 123.6 55.4435 123.6 55.8028 123.783C56.119 123.944 56.376 124.201 56.537 124.517C56.7201 124.877 56.7201 125.347 56.7201 126.288V130.992C56.7201 131.933 56.7201 132.403 56.537 132.763C56.376 133.079 56.119 133.336 55.8028 133.497C55.4435 133.68 54.973 133.68 54.0321 133.68H49.3281C48.3872 133.68 47.9168 133.68 47.5574 133.497C47.2413 133.336 46.9843 133.079 46.8232 132.763C46.6401 132.403 46.6401 131.933 46.6401 130.992V126.288Z" fill="#2B87F8" fill-opacity="0.4"/>
<path d="M58.4001 126.288C58.4001 125.347 58.4001 124.877 58.5833 124.517C58.7443 124.201 59.0013 123.944 59.3174 123.783C59.6768 123.6 60.1473 123.6 61.0881 123.6H65.7921C66.733 123.6 67.2035 123.6 67.5629 123.783C67.879 123.944 68.136 124.201 68.297 124.517C68.4801 124.877 68.4801 125.347 68.4801 126.288V130.992C68.4801 131.933 68.4801 132.403 68.297 132.763C68.136 133.079 67.879 133.336 67.5629 133.497C67.2035 133.68 66.733 133.68 65.7921 133.68H61.0881C60.1473 133.68 59.6768 133.68 59.3174 133.497C59.0013 133.336 58.7443 133.079 58.5833 132.763C58.4001 132.403 58.4001 131.933 58.4001 130.992V126.288Z" fill="#2B87F8" fill-opacity="0.4"/>
<path d="M70.1602 125.28C70.1602 124.352 70.9123 123.6 71.8402 123.6H78.5602C79.488 123.6 80.2402 124.352 80.2402 125.28V132C80.2402 132.928 79.488 133.68 78.5602 133.68H71.8402C70.9123 133.68 70.1602 132.928 70.1602 132V125.28Z" fill="#2B87F8" fill-opacity="0.1"/>
<path d="M81.9202 125.28C81.9202 124.352 82.6723 123.6 83.6002 123.6H90.3202C91.248 123.6 92.0002 124.352 92.0002 125.28V132C92.0002 132.928 91.248 133.68 90.3202 133.68H83.6002C82.6723 133.68 81.9202 132.928 81.9202 132V125.28Z" fill="#2B87F8" fill-opacity="0.1"/>
<mask id="path-51-inside-1_5087_54333" fill="white">
<path d="M0 0H104V12H0V0Z"/>
</mask>
<path d="M0 0H104V12H0V0Z" fill="#2B87F8" fill-opacity="0.25"/>
<path d="M104 12V11H0V12V13H104V12Z" fill="#2B87F8" fill-opacity="0.15" mask="url(#path-51-inside-1_5087_54333)"/>
<rect x="8" y="4" width="8" height="4" rx="1" fill="#2B87F8" fill-opacity="0.55"/>
<rect x="68" y="4" width="8" height="4" rx="1" fill="#2B87F8" fill-opacity="0.55"/>
<rect x="78" y="4" width="8" height="4" rx="1" fill="#2B87F8" fill-opacity="0.55"/>
<rect x="88" y="4" width="8" height="4" rx="1" fill="#2B87F8" fill-opacity="0.55"/>
</g>
<defs>
<clipPath id="clip0_5087_54333">
<path d="M0 4C0 1.79086 1.79086 0 4 0H100C102.209 0 104 1.79086 104 4V180C104 182.209 102.209 184 100 184H4C1.79086 184 0 182.209 0 180V4Z" fill="white"/>
</clipPath>
</defs>
</svg>
