<svg width="104" height="184" viewBox="0 0 104 184" fill="none" xmlns="http://www.w3.org/2000/svg">
<g clip-path="url(#clip0_5087_53921)">
<path d="M0 4C0 1.79086 1.79086 0 4 0H100C102.209 0 104 1.79086 104 4V180C104 182.209 102.209 184 100 184H4C1.79086 184 0 182.209 0 180V4Z" fill="#F0F7FE"/>
<path d="M4 0.5H100C101.933 0.500002 103.5 2.067 103.5 4V180C103.5 181.933 101.933 183.5 100 183.5H4C2.067 183.5 0.5 181.933 0.5 180V4C0.5 2.067 2.067 0.5 4 0.5Z" stroke="#2B87F8" stroke-opacity="0.1"/>
<path d="M8 140C8 137.791 9.79086 136 12 136H44C46.2091 136 48 137.791 48 140V168C48 170.209 46.2091 172 44 172H12C9.79086 172 8 170.209 8 168V140Z" fill="white"/>
<path d="M12 136.5H44C45.933 136.5 47.5 138.067 47.5 140V168C47.5 169.933 45.933 171.5 44 171.5H12C10.067 171.5 8.5 169.933 8.5 168V140C8.5 138.067 10.067 136.5 12 136.5Z" stroke="#2B87F8" stroke-opacity="0.15"/>
<path d="M10 142C10 140.895 10.8954 140 12 140H44C45.1046 140 46 140.895 46 142V142C46 143.105 45.1046 144 44 144H12C10.8954 144 10 143.105 10 142V142Z" fill="#2B87F8" fill-opacity="0.55"/>
<path d="M10 150C10 148.895 10.8954 148 12 148H44C45.1046 148 46 148.895 46 150V150C46 151.105 45.1046 152 44 152H12C10.8954 152 10 151.105 10 150V150Z" fill="#2B87F8" fill-opacity="0.25"/>
<path d="M10 158C10 156.895 10.8954 156 12 156H44C45.1046 156 46 156.895 46 158V158C46 159.105 45.1046 160 44 160H12C10.8954 160 10 159.105 10 158V158Z" fill="#2B87F8" fill-opacity="0.25"/>
<path d="M18 166C18 164.895 18.8954 164 20 164H36C37.1046 164 38 164.895 38 166V166C38 167.105 37.1046 168 36 168H20C18.8954 168 18 167.105 18 166V166Z" fill="#2B87F8" fill-opacity="0.25"/>
<path d="M56 140C56 137.791 57.7909 136 60 136H92C94.2091 136 96 137.791 96 140V168C96 170.209 94.2091 172 92 172H60C57.7909 172 56 170.209 56 168V140Z" fill="white"/>
<path d="M60 136.5H92C93.933 136.5 95.5 138.067 95.5 140V168C95.5 169.933 93.933 171.5 92 171.5H60C58.067 171.5 56.5 169.933 56.5 168V140C56.5 138.067 58.067 136.5 60 136.5Z" stroke="#2B87F8" stroke-opacity="0.15"/>
<path d="M58 142C58 140.895 58.8954 140 60 140H92C93.1046 140 94 140.895 94 142V142C94 143.105 93.1046 144 92 144H60C58.8954 144 58 143.105 58 142V142Z" fill="#2B87F8" fill-opacity="0.55"/>
<path d="M58 150C58 148.895 58.8954 148 60 148H92C93.1046 148 94 148.895 94 150V150C94 151.105 93.1046 152 92 152H60C58.8954 152 58 151.105 58 150V150Z" fill="#2B87F8" fill-opacity="0.25"/>
<path d="M58 158C58 156.895 58.8954 156 60 156H92C93.1046 156 94 156.895 94 158V158C94 159.105 93.1046 160 92 160H60C58.8954 160 58 159.105 58 158V158Z" fill="#2B87F8" fill-opacity="0.25"/>
<path d="M66 166C66 164.895 66.8954 164 68 164H84C85.1046 164 86 164.895 86 166V166C86 167.105 85.1046 168 84 168H68C66.8954 168 66 167.105 66 166V166Z" fill="#2B87F8" fill-opacity="0.25"/>
<g clip-path="url(#clip1_5087_53921)">
<g clip-path="url(#clip2_5087_53921)">
<path d="M8 28C8 25.7909 9.79086 24 12 24H164C166.209 24 168 25.7909 168 28V124C168 126.209 166.209 128 164 128H12C9.79086 128 8 126.209 8 124V28Z" fill="#2B87F8" fill-opacity="0.15"/>
<path d="M73.7866 13.4533V-12H77.4947V9.63515L86.1459 0.727273L88.768 3.42714L77.4947 15.0349V32.5455H84.3005C92.1459 32.5455 98.5064 39.0969 98.5064 47.1761V59.2808L117.048 59.2784V24.2727C117.048 22.0586 119.242 22.0446 119.159 22.362C124.224 22.3536 129.288 22.3559 134.352 22.3555V-0.545455L189.974 -0.524033V22.36L212.224 22.364L212.231 40.2025H232V139.467L136.824 139.475V122.93H120.757V142L79.9657 142.001V154.748H76.2575V142.001L56.4807 142.001V156H52.7725V142.001L35.4678 142.001V156H7.03863V142.002L-26.3348 142.002V156H-30.0429V142.002L-44.8755 142.002L-47.3476 138.182L-30.0429 120.364V91.0909H-56V87.2727H-30.0429V70.0893C-30.0429 59.1962 -21.46 50.3636 -10.8784 50.3636H0.858372V36.3636H-41.1674V32.5455H0.858372V-1.81818H4.56653V32.5455H31.7597V-9.45455H35.4678V32.5455H55.2446L73.7866 13.4533ZM73.7866 18.8531L60.4888 32.5455H73.7866V18.8531ZM73.7866 36.3636H56.7806L43.184 50.3636H44.7399C51.2247 50.3636 56.4807 55.7762 56.4807 62.4548V86.0207H94.7983V63.0995L73.7866 63.1022V36.3636ZM94.7983 59.2813V47.1761C94.7983 41.2054 90.0977 36.3636 84.3005 36.3636H77.4947V59.2836L94.7983 59.2813ZM98.5064 63.099V86.0207H117.048V63.0966L98.5064 63.099ZM117.048 89.8389H98.5064V107.636H56.4807V138.183L76.2575 138.182V119.112H117.048V89.8389ZM120.757 119.112H140.532V135.657L228.292 135.649V44.0207H212.232L212.262 117.909L159.074 117.815V89.8389H120.757V119.112ZM208.523 40.2025L208.517 26.1814L189.974 26.1782V40.2025H208.523ZM186.266 22.3593V3.29272L138.06 3.27416V22.3552C154.129 22.3546 170.197 22.3568 186.266 22.3593ZM138.06 26.1734V40.2025H186.266V26.1775C170.197 26.175 154.129 26.1728 138.06 26.1734ZM134.352 26.1737C127.77 26.1742 123.132 26.1756 120.757 26.1778V59.2779L138.687 59.2756C153.27 59.2737 162.782 71.8437 162.782 86.0207H186.266V44.0207H134.352V26.1737ZM162.782 89.8389V114.003L208.552 114.084L208.524 44.0207H189.974V89.8389H162.782ZM159.074 86.0207C159.074 73.9343 151.244 63.0922 138.687 63.0938L120.757 63.0961V86.0207H159.074ZM117.048 122.93H79.9657V138.182L117.048 138.182V122.93ZM52.7725 138.183V107.636C47.0092 107.636 41.2294 107.501 35.4678 107.644V138.183L52.7725 138.183ZM31.7597 138.183V108.016C19.826 110.13 10.7468 120.834 10.7468 133.721V138.183L31.7597 138.183ZM10.7468 142.001V152.182H31.7597V142.001L10.7468 142.001ZM7.03863 138.183V133.721C7.03863 118.721 17.7692 106.3 31.7597 104.148V89.8389H23.0649C22.3823 100.236 13.555 108.909 3.33047 108.909C-1.57788 108.909 -6.01683 107.305 -9.53657 104.649L-26.3348 121.945V138.184L7.03863 138.183ZM-30.0429 138.184V125.763L-42.1056 138.184L-30.0429 138.184ZM94.7983 103.818V89.8389H56.4807V103.818H94.7983ZM35.4678 58.3088V86.0207H52.7725V62.4548C52.7725 57.8848 49.1767 54.1818 44.7399 54.1818H39.4759L35.4678 58.3088ZM52.7725 89.8389H35.4678V103.825C41.231 103.7 47.008 103.818 52.7725 103.818V89.8389ZM22.9757 86.0207H31.7597V62.127L18.9695 75.2966C21.1121 78.3068 22.55 81.97 22.9757 86.0207ZM-26.3348 91.0909V116.545L-12.3248 102.12C-15.1168 99.085 -16.9739 95.2534 -17.5171 91.0909H-26.3348ZM-17.6492 87.2727C-17.085 76.5139 -9.39379 68.2049 0.858372 67.0472V54.1818H-10.8784C-19.4125 54.1818 -26.3348 61.3054 -26.3348 70.0893V87.2727H-17.6492ZM31.7597 56.7273V54.1818H4.56653V66.9515C9.08451 67.2617 13.2682 69.2601 16.5136 72.4257L31.7597 56.7273ZM37.9399 50.3636L51.5365 36.3636H35.4678V50.3636H37.9399ZM31.7597 36.3636H4.56653V50.3636H31.7597V36.3636ZM19.3991 88.5455C19.3991 78.5859 12.0799 70.7273 3.33047 70.7273C-6.50336 70.7273 -13.9742 78.4198 -13.9742 88.5455C-13.9742 97.5545 -6.34207 105.091 3.33047 105.091C11.9283 105.091 19.3991 97.3983 19.3991 88.5455Z" fill="#2B87F8" fill-opacity="0.25"/>
<g clip-path="url(#clip3_5087_53921)">
<path d="M72.0001 68C72.3667 68 72.6806 67.8694 72.9417 67.6083C73.2029 67.3472 73.3334 67.0333 73.3334 66.6666C73.3334 66.3 73.2029 65.9861 72.9417 65.725C72.6806 65.4639 72.3667 65.3333 72.0001 65.3333C71.6334 65.3333 71.3195 65.4639 71.0584 65.725C70.7973 65.9861 70.6667 66.3 70.6667 66.6666C70.6667 67.0333 70.7973 67.3472 71.0584 67.6083C71.3195 67.8694 71.6334 68 72.0001 68ZM72.0001 74.6666C70.2112 73.1444 68.8751 71.7305 67.9917 70.425C67.1084 69.1194 66.6667 67.9111 66.6667 66.8C66.6667 65.1333 67.2029 63.8055 68.2751 62.8166C69.3473 61.8278 70.589 61.3333 72.0001 61.3333C73.4112 61.3333 74.6529 61.8278 75.7251 62.8166C76.7973 63.8055 77.3334 65.1333 77.3334 66.8C77.3334 67.9111 76.8917 69.1194 76.0084 70.425C75.1251 71.7305 73.789 73.1444 72.0001 74.6666Z" fill="#2B87F8"/>
</g>
</g>
</g>
<path d="M12 24.5H92C93.933 24.5 95.5 26.067 95.5 28V124C95.5 125.933 93.933 127.5 92 127.5H12C10.067 127.5 8.5 125.933 8.5 124V28C8.5 26.067 10.067 24.5 12 24.5Z" stroke="#2B87F8" stroke-opacity="0.15"/>
<mask id="path-22-inside-1_5087_53921" fill="white">
<path d="M0 0H104V12H0V0Z"/>
</mask>
<path d="M0 0H104V12H0V0Z" fill="#2B87F8" fill-opacity="0.25"/>
<path d="M104 12V11H0V12V13H104V12Z" fill="#2B87F8" fill-opacity="0.15" mask="url(#path-22-inside-1_5087_53921)"/>
<rect x="8" y="4" width="8" height="4" rx="1" fill="#2B87F8" fill-opacity="0.55"/>
<rect x="68" y="4" width="8" height="4" rx="1" fill="#2B87F8" fill-opacity="0.55"/>
<rect x="78" y="4" width="8" height="4" rx="1" fill="#2B87F8" fill-opacity="0.55"/>
<rect x="88" y="4" width="8" height="4" rx="1" fill="#2B87F8" fill-opacity="0.55"/>
</g>
<defs>
<clipPath id="clip0_5087_53921">
<path d="M0 4C0 1.79086 1.79086 0 4 0H100C102.209 0 104 1.79086 104 4V180C104 182.209 102.209 184 100 184H4C1.79086 184 0 182.209 0 180V4Z" fill="white"/>
</clipPath>
<clipPath id="clip1_5087_53921">
<path d="M8 28C8 25.7909 9.79086 24 12 24H92C94.2091 24 96 25.7909 96 28V124C96 126.209 94.2091 128 92 128H12C9.79086 128 8 126.209 8 124V28Z" fill="white"/>
</clipPath>
<clipPath id="clip2_5087_53921">
<path d="M8 28C8 25.7909 9.79086 24 12 24H164C166.209 24 168 25.7909 168 28V124C168 126.209 166.209 128 164 128H12C9.79086 128 8 126.209 8 124V28Z" fill="white"/>
</clipPath>
<clipPath id="clip3_5087_53921">
<path d="M64 68C64 63.5817 67.5817 60 72 60V60C76.4183 60 80 63.5817 80 68V68C80 72.4183 76.4183 76 72 76V76C67.5817 76 64 72.4183 64 68V68Z" fill="white"/>
</clipPath>
</defs>
</svg>
