<svg width="184" height="184" viewBox="0 0 184 184" fill="none" xmlns="http://www.w3.org/2000/svg">
<g clip-path="url(#clip0_5087_53879)">
<path d="M0 4C0 1.79086 1.79086 0 4 0H180C182.209 0 184 1.79086 184 4V180C184 182.209 182.209 184 180 184H4C1.79086 184 0 182.209 0 180V4Z" fill="#F0F7FE"/>
<path d="M4 0.5H180C181.933 0.5 183.5 2.067 183.5 4V180C183.5 181.933 181.933 183.5 180 183.5H4C2.067 183.5 0.5 181.933 0.5 180V4C0.5 2.067 2.067 0.5 4 0.5Z" stroke="#2B87F8" stroke-opacity="0.1"/>
<mask id="path-4-inside-1_5087_53879" fill="white">
<path d="M0 0H184V12H0V0Z"/>
</mask>
<path d="M0 0H184V12H0V0Z" fill="#2B87F8" fill-opacity="0.25"/>
<path d="M184 12V11H0V12V13H184V12Z" fill="#2B87F8" fill-opacity="0.15" mask="url(#path-4-inside-1_5087_53879)"/>
<rect x="12" y="4" width="8" height="4" rx="1" fill="#2B87F8" fill-opacity="0.55"/>
<rect x="144" y="4" width="8" height="4" rx="1" fill="#2B87F8" fill-opacity="0.55"/>
<rect x="154" y="4" width="8" height="4" rx="1" fill="#2B87F8" fill-opacity="0.55"/>
<rect x="164" y="4" width="8" height="4" rx="1" fill="#2B87F8" fill-opacity="0.55"/>
<g clip-path="url(#clip1_5087_53879)">
<path d="M54 28C54 25.7909 55.7909 24 58 24H168C170.209 24 172 25.7909 172 28V168C172 170.209 170.209 172 168 172H58C55.7909 172 54 170.209 54 168V28Z" fill="#2B87F8" fill-opacity="0.15"/>
<path d="M98.7866 35.4533V10H102.495V31.6351L111.146 22.7273L113.768 25.4271L102.495 37.0349V54.5455H109.3C117.146 54.5455 123.506 61.0969 123.506 69.1761V81.2808L142.048 81.2784V46.2727C142.048 44.0586 144.242 44.0446 144.159 44.362C149.224 44.3536 154.288 44.3559 159.352 44.3555V21.4545L214.974 21.476V44.36L237.224 44.364L237.231 62.2025H257V161.467L161.824 161.475V144.93H145.757V164L104.966 164.001V176.748H101.258V164.001L81.4807 164.001V178H77.7725V164.001L60.4678 164.001V178H32.0386V164.002L-1.33476 164.002V178H-5.04292V164.002L-19.8755 164.002L-22.3476 160.182L-5.04292 142.364V113.091H-31V109.273H-5.04292V92.0893C-5.04292 81.1962 3.53999 72.3636 14.1216 72.3636H25.8584V58.3636H-16.1674V54.5455H25.8584V20.1818H29.5665V54.5455H56.7597V12.5455H60.4678V54.5455H80.2446L98.7866 35.4533ZM98.7866 40.8531L85.4888 54.5455H98.7866V40.8531ZM98.7866 58.3636H81.7806L68.184 72.3636H69.7399C76.2247 72.3636 81.4807 77.7762 81.4807 84.4548V108.021H119.798V85.0995L98.7866 85.1022V58.3636ZM119.798 81.2813V69.1761C119.798 63.2054 115.098 58.3636 109.3 58.3636H102.495V81.2836L119.798 81.2813ZM123.506 85.099V108.021H142.048V85.0966L123.506 85.099ZM142.048 111.839H123.506V129.636H81.4807V160.183L101.258 160.182V141.112H142.048V111.839ZM145.757 141.112H165.532V157.657L253.292 157.649V66.0207H237.232L237.262 139.909L184.074 139.815V111.839H145.757V141.112ZM233.523 62.2025L233.517 48.1814L214.974 48.1782V62.2025H233.523ZM211.266 44.3593V25.2927L163.06 25.2742V44.3552C179.129 44.3546 195.197 44.3568 211.266 44.3593ZM163.06 48.1734V62.2025H211.266V48.1775C195.197 48.175 179.129 48.1728 163.06 48.1734ZM159.352 48.1737C152.77 48.1742 148.132 48.1756 145.757 48.1778V81.2779L163.687 81.2756C178.27 81.2737 187.782 93.8437 187.782 108.021H211.266V66.0207H159.352V48.1737ZM187.782 111.839V136.003L233.552 136.084L233.524 66.0207H214.974V111.839H187.782ZM184.074 108.021C184.074 95.9343 176.244 85.0922 163.687 85.0938L145.757 85.0961V108.021H184.074ZM142.048 144.93H104.966V160.182L142.048 160.182V144.93ZM77.7725 160.183V129.636C72.0092 129.636 66.2294 129.501 60.4678 129.644V160.183L77.7725 160.183ZM56.7597 160.183V130.016C44.826 132.13 35.7468 142.834 35.7468 155.721V160.183L56.7597 160.183ZM35.7468 164.001V174.182H56.7597V164.001L35.7468 164.001ZM32.0386 160.183V155.721C32.0386 140.721 42.7692 128.3 56.7597 126.148V111.839H48.0649C47.3823 122.236 38.555 130.909 28.3305 130.909C23.4221 130.909 18.9832 129.305 15.4634 126.649L-1.33476 143.945V160.184L32.0386 160.183ZM-5.04292 160.184V147.763L-17.1056 160.184L-5.04292 160.184ZM119.798 125.818V111.839H81.4807V125.818H119.798ZM60.4678 80.3088V108.021H77.7725V84.4548C77.7725 79.8848 74.1767 76.1818 69.7399 76.1818H64.4759L60.4678 80.3088ZM77.7725 111.839H60.4678V125.825C66.231 125.7 72.008 125.818 77.7725 125.818V111.839ZM47.9757 108.021H56.7597V84.127L43.9695 97.2966C46.1121 100.307 47.55 103.97 47.9757 108.021ZM-1.33476 113.091V138.545L12.6752 124.12C9.88323 121.085 8.02614 117.253 7.48287 113.091H-1.33476ZM7.35082 109.273C7.91502 98.5139 15.6062 90.2049 25.8584 89.0472V76.1818H14.1216C5.58748 76.1818 -1.33476 83.3054 -1.33476 92.0893V109.273H7.35082ZM56.7597 78.7273V76.1818H29.5665V88.9515C34.0845 89.2617 38.2682 91.2601 41.5136 94.4257L56.7597 78.7273ZM62.9399 72.3636L76.5365 58.3636H60.4678V72.3636H62.9399ZM56.7597 58.3636H29.5665V72.3636H56.7597V58.3636ZM44.3991 110.545C44.3991 100.586 37.0799 92.7273 28.3305 92.7273C18.4966 92.7273 11.0258 100.42 11.0258 110.545C11.0258 119.555 18.6579 127.091 28.3305 127.091C36.9283 127.091 44.3991 119.398 44.3991 110.545Z" fill="#2B87F8" fill-opacity="0.25"/>
<g clip-path="url(#clip2_5087_53879)">
<path d="M97.0001 90C97.3667 90 97.6806 89.8694 97.9417 89.6083C98.2029 89.3472 98.3334 89.0333 98.3334 88.6666C98.3334 88.3 98.2029 87.9861 97.9417 87.725C97.6806 87.4639 97.3667 87.3333 97.0001 87.3333C96.6334 87.3333 96.3195 87.4639 96.0584 87.725C95.7973 87.9861 95.6667 88.3 95.6667 88.6666C95.6667 89.0333 95.7973 89.3472 96.0584 89.6083C96.3195 89.8694 96.6334 90 97.0001 90ZM97.0001 96.6666C95.2112 95.1444 93.8751 93.7305 92.9917 92.425C92.1084 91.1194 91.6667 89.9111 91.6667 88.8C91.6667 87.1333 92.2029 85.8055 93.2751 84.8166C94.3473 83.8278 95.589 83.3333 97.0001 83.3333C98.4112 83.3333 99.6529 83.8278 100.725 84.8166C101.797 85.8055 102.333 87.1333 102.333 88.8C102.333 89.9111 101.892 91.1194 101.008 92.425C100.125 93.7305 98.789 95.1444 97.0001 96.6666Z" fill="#2B87F8"/>
</g>
</g>
<path d="M58 24.5H168C169.933 24.5 171.5 26.067 171.5 28V168C171.5 169.933 169.933 171.5 168 171.5H58C56.067 171.5 54.5 169.933 54.5 168V28C54.5 26.1273 55.9708 24.5984 57.8203 24.5049L58 24.5Z" stroke="#2B87F8" stroke-opacity="0.15" stroke-linejoin="bevel"/>
<g clip-path="url(#clip3_5087_53879)">
<path d="M12 28C12 25.7909 13.7909 24 16 24H42C44.2091 24 46 25.7909 46 28V56C46 58.2091 44.2091 60 42 60H16C13.7909 60 12 58.2091 12 56V28Z" fill="white"/>
<path d="M16 24.5H42C43.933 24.5 45.5 26.067 45.5 28V56C45.5 57.933 43.933 59.5 42 59.5H16C14.067 59.5 12.5 57.933 12.5 56V28C12.5 26.067 14.067 24.5 16 24.5Z" stroke="#2B87F8" stroke-opacity="0.15"/>
<path d="M14 30C14 28.8954 14.8954 28 16 28H42C43.1046 28 44 28.8954 44 30V30C44 31.1046 43.1046 32 42 32H16C14.8954 32 14 31.1046 14 30V30Z" fill="#2B87F8" fill-opacity="0.55"/>
<path d="M14 38C14 36.8954 14.8954 36 16 36H42C43.1046 36 44 36.8954 44 38V38C44 39.1046 43.1046 40 42 40H16C14.8954 40 14 39.1046 14 38V38Z" fill="#2B87F8" fill-opacity="0.25"/>
<path d="M14 46C14 44.8954 14.8954 44 16 44H42C43.1046 44 44 44.8954 44 46V46C44 47.1046 43.1046 48 42 48H16C14.8954 48 14 47.1046 14 46V46Z" fill="#2B87F8" fill-opacity="0.25"/>
<path d="M22 54C22 52.8954 22.8954 52 24 52H34C35.1046 52 36 52.8954 36 54V54C36 55.1046 35.1046 56 34 56H24C22.8954 56 22 55.1046 22 54V54Z" fill="#2B87F8" fill-opacity="0.25"/>
<path d="M12 72C12 69.7909 13.7909 68 16 68H42C44.2091 68 46 69.7909 46 72V100C46 102.209 44.2091 104 42 104H16C13.7909 104 12 102.209 12 100V72Z" fill="white"/>
<path d="M16 68.5H42C43.933 68.5 45.5 70.067 45.5 72V100C45.5 101.933 43.933 103.5 42 103.5H16C14.067 103.5 12.5 101.933 12.5 100V72C12.5 70.067 14.067 68.5 16 68.5Z" stroke="#2B87F8" stroke-opacity="0.15"/>
<path d="M14 74C14 72.8954 14.8954 72 16 72H42C43.1046 72 44 72.8954 44 74V74C44 75.1046 43.1046 76 42 76H16C14.8954 76 14 75.1046 14 74V74Z" fill="#2B87F8" fill-opacity="0.55"/>
<path d="M14 82C14 80.8954 14.8954 80 16 80H42C43.1046 80 44 80.8954 44 82V82C44 83.1046 43.1046 84 42 84H16C14.8954 84 14 83.1046 14 82V82Z" fill="#2B87F8" fill-opacity="0.25"/>
<path d="M14 90C14 88.8954 14.8954 88 16 88H42C43.1046 88 44 88.8954 44 90V90C44 91.1046 43.1046 92 42 92H16C14.8954 92 14 91.1046 14 90V90Z" fill="#2B87F8" fill-opacity="0.25"/>
<path d="M22 98C22 96.8954 22.8954 96 24 96H34C35.1046 96 36 96.8954 36 98V98C36 99.1046 35.1046 100 34 100H24C22.8954 100 22 99.1046 22 98V98Z" fill="#2B87F8" fill-opacity="0.25"/>
<path d="M12 116C12 113.791 13.7909 112 16 112H42C44.2091 112 46 113.791 46 116V144C46 146.209 44.2091 148 42 148H16C13.7909 148 12 146.209 12 144V116Z" fill="white"/>
<path d="M16 112.5H42C43.933 112.5 45.5 114.067 45.5 116V144C45.5 145.933 43.933 147.5 42 147.5H16C14.067 147.5 12.5 145.933 12.5 144V116C12.5 114.067 14.067 112.5 16 112.5Z" stroke="#2B87F8" stroke-opacity="0.15"/>
<path d="M14 118C14 116.895 14.8954 116 16 116H42C43.1046 116 44 116.895 44 118V118C44 119.105 43.1046 120 42 120H16C14.8954 120 14 119.105 14 118V118Z" fill="#2B87F8" fill-opacity="0.55"/>
<path d="M14 126C14 124.895 14.8954 124 16 124H42C43.1046 124 44 124.895 44 126V126C44 127.105 43.1046 128 42 128H16C14.8954 128 14 127.105 14 126V126Z" fill="#2B87F8" fill-opacity="0.25"/>
<path d="M14 134C14 132.895 14.8954 132 16 132H42C43.1046 132 44 132.895 44 134V134C44 135.105 43.1046 136 42 136H16C14.8954 136 14 135.105 14 134V134Z" fill="#2B87F8" fill-opacity="0.25"/>
<path d="M22 142C22 140.895 22.8954 140 24 140H34C35.1046 140 36 140.895 36 142V142C36 143.105 35.1046 144 34 144H24C22.8954 144 22 143.105 22 142V142Z" fill="#2B87F8" fill-opacity="0.25"/>
<path d="M12 160C12 157.791 13.7909 156 16 156H42C44.2091 156 46 157.791 46 160V188C46 190.209 44.2091 192 42 192H16C13.7909 192 12 190.209 12 188V160Z" fill="white"/>
<path d="M16 156.5H42C43.933 156.5 45.5 158.067 45.5 160V188C45.5 189.933 43.933 191.5 42 191.5H16C14.067 191.5 12.5 189.933 12.5 188V160C12.5 158.067 14.067 156.5 16 156.5Z" stroke="#2B87F8" stroke-opacity="0.15"/>
<path d="M14 162C14 160.895 14.8954 160 16 160H42C43.1046 160 44 160.895 44 162V162C44 163.105 43.1046 164 42 164H16C14.8954 164 14 163.105 14 162V162Z" fill="#2B87F8" fill-opacity="0.55"/>
<path d="M14 170C14 168.895 14.8954 168 16 168H42C43.1046 168 44 168.895 44 170V170C44 171.105 43.1046 172 42 172H16C14.8954 172 14 171.105 14 170V170Z" fill="#2B87F8" fill-opacity="0.25"/>
</g>
</g>
<defs>
<clipPath id="clip0_5087_53879">
<rect width="184" height="184" rx="4" fill="white"/>
</clipPath>
<clipPath id="clip1_5087_53879">
<path d="M54 28C54 25.7909 55.7909 24 58 24H168C170.209 24 172 25.7909 172 28V168C172 170.209 170.209 172 168 172H58C55.7909 172 54 170.209 54 168V28Z" fill="white"/>
</clipPath>
<clipPath id="clip2_5087_53879">
<path d="M89 90C89 85.5817 92.5817 82 97 82V82C101.418 82 105 85.5817 105 90V90C105 94.4183 101.418 98 97 98V98C92.5817 98 89 94.4183 89 90V90Z" fill="white"/>
</clipPath>
<clipPath id="clip3_5087_53879">
<rect width="34" height="148" fill="white" transform="translate(12 24)"/>
</clipPath>
</defs>
</svg>
