<svg width="104" height="184" viewBox="0 0 104 184" fill="none" xmlns="http://www.w3.org/2000/svg">
<g clip-path="url(#clip0_5087_54195)">
<path d="M0 4C0 1.79086 1.79086 0 4 0H100C102.209 0 104 1.79086 104 4V180C104 182.209 102.209 184 100 184H4C1.79086 184 0 182.209 0 180V4Z" fill="#F0F7FE"/>
<path d="M4 0.5H100C101.933 0.500002 103.5 2.067 103.5 4V180C103.5 181.933 101.933 183.5 100 183.5H4C2.067 183.5 0.5 181.933 0.5 180V4C0.5 2.067 2.067 0.5 4 0.5Z" stroke="#2B87F8" stroke-opacity="0.1"/>
<g clip-path="url(#clip1_5087_54195)">
<path d="M8 28C8 25.7909 9.79086 24 12 24H44C46.2091 24 48 25.7909 48 28V56C48 58.2091 46.2091 60 44 60H12C9.79086 60 8 58.2091 8 56V28Z" fill="white"/>
<path d="M12 24.5H44C45.933 24.5 47.5 26.067 47.5 28V56C47.5 57.933 45.933 59.5 44 59.5H12C10.067 59.5 8.5 57.933 8.5 56V28C8.5 26.067 10.067 24.5 12 24.5Z" stroke="#2B87F8" stroke-opacity="0.15"/>
<path d="M10 30C10 28.8954 10.8954 28 12 28H44C45.1046 28 46 28.8954 46 30V30C46 31.1046 45.1046 32 44 32H12C10.8954 32 10 31.1046 10 30V30Z" fill="#2B87F8" fill-opacity="0.55"/>
<path d="M10 38C10 36.8954 10.8954 36 12 36H44C45.1046 36 46 36.8954 46 38V38C46 39.1046 45.1046 40 44 40H12C10.8954 40 10 39.1046 10 38V38Z" fill="#2B87F8" fill-opacity="0.25"/>
<path d="M10 46C10 44.8954 10.8954 44 12 44H44C45.1046 44 46 44.8954 46 46V46C46 47.1046 45.1046 48 44 48H12C10.8954 48 10 47.1046 10 46V46Z" fill="#2B87F8" fill-opacity="0.25"/>
<path d="M18 54C18 52.8954 18.8954 52 20 52H36C37.1046 52 38 52.8954 38 54V54C38 55.1046 37.1046 56 36 56H20C18.8954 56 18 55.1046 18 54V54Z" fill="#2B87F8" fill-opacity="0.25"/>
<path d="M56 28C56 25.7909 57.7909 24 60 24H92C94.2091 24 96 25.7909 96 28V56C96 58.2091 94.2091 60 92 60H60C57.7909 60 56 58.2091 56 56V28Z" fill="white"/>
<path d="M60 24.5H92C93.933 24.5 95.5 26.067 95.5 28V56C95.5 57.933 93.933 59.5 92 59.5H60C58.067 59.5 56.5 57.933 56.5 56V28C56.5 26.067 58.067 24.5 60 24.5Z" stroke="#2B87F8" stroke-opacity="0.15"/>
<path d="M58 30C58 28.8954 58.8954 28 60 28H92C93.1046 28 94 28.8954 94 30V30C94 31.1046 93.1046 32 92 32H60C58.8954 32 58 31.1046 58 30V30Z" fill="#2B87F8" fill-opacity="0.55"/>
<path d="M58 38C58 36.8954 58.8954 36 60 36H92C93.1046 36 94 36.8954 94 38V38C94 39.1046 93.1046 40 92 40H60C58.8954 40 58 39.1046 58 38V38Z" fill="#2B87F8" fill-opacity="0.25"/>
<path d="M58 46C58 44.8954 58.8954 44 60 44H92C93.1046 44 94 44.8954 94 46V46C94 47.1046 93.1046 48 92 48H60C58.8954 48 58 47.1046 58 46V46Z" fill="#2B87F8" fill-opacity="0.25"/>
<path d="M66 54C66 52.8954 66.8954 52 68 52H84C85.1046 52 86 52.8954 86 54V54C86 55.1046 85.1046 56 84 56H68C66.8954 56 66 55.1046 66 54V54Z" fill="#2B87F8" fill-opacity="0.25"/>
<path d="M8 72C8 69.7909 9.79086 68 12 68H44C46.2091 68 48 69.7909 48 72V100C48 102.209 46.2091 104 44 104H12C9.79086 104 8 102.209 8 100V72Z" fill="white"/>
<path d="M12 68.5H44C45.933 68.5 47.5 70.067 47.5 72V100C47.5 101.933 45.933 103.5 44 103.5H12C10.067 103.5 8.5 101.933 8.5 100V72C8.5 70.067 10.067 68.5 12 68.5Z" stroke="#2B87F8" stroke-opacity="0.15"/>
<path d="M10 74C10 72.8954 10.8954 72 12 72H44C45.1046 72 46 72.8954 46 74V74C46 75.1046 45.1046 76 44 76H12C10.8954 76 10 75.1046 10 74V74Z" fill="#2B87F8" fill-opacity="0.55"/>
<path d="M10 82C10 80.8954 10.8954 80 12 80H44C45.1046 80 46 80.8954 46 82V82C46 83.1046 45.1046 84 44 84H12C10.8954 84 10 83.1046 10 82V82Z" fill="#2B87F8" fill-opacity="0.25"/>
<path d="M10 90C10 88.8954 10.8954 88 12 88H44C45.1046 88 46 88.8954 46 90V90C46 91.1046 45.1046 92 44 92H12C10.8954 92 10 91.1046 10 90V90Z" fill="#2B87F8" fill-opacity="0.25"/>
<path d="M18 98C18 96.8954 18.8954 96 20 96H36C37.1046 96 38 96.8954 38 98V98C38 99.1046 37.1046 100 36 100H20C18.8954 100 18 99.1046 18 98V98Z" fill="#2B87F8" fill-opacity="0.25"/>
<path d="M56 72C56 69.7909 57.7909 68 60 68H92C94.2091 68 96 69.7909 96 72V100C96 102.209 94.2091 104 92 104H60C57.7909 104 56 102.209 56 100V72Z" fill="white"/>
<path d="M60 68.5H92C93.933 68.5 95.5 70.067 95.5 72V100C95.5 101.933 93.933 103.5 92 103.5H60C58.067 103.5 56.5 101.933 56.5 100V72C56.5 70.067 58.067 68.5 60 68.5Z" stroke="#2B87F8" stroke-opacity="0.15"/>
<path d="M58 74C58 72.8954 58.8954 72 60 72H92C93.1046 72 94 72.8954 94 74V74C94 75.1046 93.1046 76 92 76H60C58.8954 76 58 75.1046 58 74V74Z" fill="#2B87F8" fill-opacity="0.55"/>
<path d="M58 82C58 80.8954 58.8954 80 60 80H92C93.1046 80 94 80.8954 94 82V82C94 83.1046 93.1046 84 92 84H60C58.8954 84 58 83.1046 58 82V82Z" fill="#2B87F8" fill-opacity="0.25"/>
<path d="M58 90C58 88.8954 58.8954 88 60 88H92C93.1046 88 94 88.8954 94 90V90C94 91.1046 93.1046 92 92 92H60C58.8954 92 58 91.1046 58 90V90Z" fill="#2B87F8" fill-opacity="0.25"/>
<path d="M66 98C66 96.8954 66.8954 96 68 96H84C85.1046 96 86 96.8954 86 98V98C86 99.1046 85.1046 100 84 100H68C66.8954 100 66 99.1046 66 98V98Z" fill="#2B87F8" fill-opacity="0.25"/>
<path d="M8 116C8 113.791 9.79086 112 12 112H44C46.2091 112 48 113.791 48 116V144C48 146.209 46.2091 148 44 148H12C9.79086 148 8 146.209 8 144V116Z" fill="white"/>
<path d="M12 112.5H44C45.933 112.5 47.5 114.067 47.5 116V144C47.5 145.933 45.933 147.5 44 147.5H12C10.067 147.5 8.5 145.933 8.5 144V116C8.5 114.067 10.067 112.5 12 112.5Z" stroke="#2B87F8" stroke-opacity="0.15"/>
<path d="M10 118C10 116.895 10.8954 116 12 116H44C45.1046 116 46 116.895 46 118V118C46 119.105 45.1046 120 44 120H12C10.8954 120 10 119.105 10 118V118Z" fill="#2B87F8" fill-opacity="0.55"/>
<path d="M10 126C10 124.895 10.8954 124 12 124H44C45.1046 124 46 124.895 46 126V126C46 127.105 45.1046 128 44 128H12C10.8954 128 10 127.105 10 126V126Z" fill="#2B87F8" fill-opacity="0.25"/>
<path d="M10 134C10 132.895 10.8954 132 12 132H44C45.1046 132 46 132.895 46 134V134C46 135.105 45.1046 136 44 136H12C10.8954 136 10 135.105 10 134V134Z" fill="#2B87F8" fill-opacity="0.25"/>
<path d="M18 142C18 140.895 18.8954 140 20 140H36C37.1046 140 38 140.895 38 142V142C38 143.105 37.1046 144 36 144H20C18.8954 144 18 143.105 18 142V142Z" fill="#2B87F8" fill-opacity="0.25"/>
<path d="M56 116C56 113.791 57.7909 112 60 112H92C94.2091 112 96 113.791 96 116V144C96 146.209 94.2091 148 92 148H60C57.7909 148 56 146.209 56 144V116Z" fill="white"/>
<path d="M60 112.5H92C93.933 112.5 95.5 114.067 95.5 116V144C95.5 145.933 93.933 147.5 92 147.5H60C58.067 147.5 56.5 145.933 56.5 144V116C56.5 114.067 58.067 112.5 60 112.5Z" stroke="#2B87F8" stroke-opacity="0.15"/>
<path d="M58 118C58 116.895 58.8954 116 60 116H92C93.1046 116 94 116.895 94 118V118C94 119.105 93.1046 120 92 120H60C58.8954 120 58 119.105 58 118V118Z" fill="#2B87F8" fill-opacity="0.55"/>
<path d="M58 126C58 124.895 58.8954 124 60 124H92C93.1046 124 94 124.895 94 126V126C94 127.105 93.1046 128 92 128H60C58.8954 128 58 127.105 58 126V126Z" fill="#2B87F8" fill-opacity="0.25"/>
<path d="M58 134C58 132.895 58.8954 132 60 132H92C93.1046 132 94 132.895 94 134V134C94 135.105 93.1046 136 92 136H60C58.8954 136 58 135.105 58 134V134Z" fill="#2B87F8" fill-opacity="0.25"/>
<path d="M66 142C66 140.895 66.8954 140 68 140H84C85.1046 140 86 140.895 86 142V142C86 143.105 85.1046 144 84 144H68C66.8954 144 66 143.105 66 142V142Z" fill="#2B87F8" fill-opacity="0.25"/>
<path d="M8 160C8 157.791 9.79086 156 12 156H44C46.2091 156 48 157.791 48 160V188C48 190.209 46.2091 192 44 192H12C9.79086 192 8 190.209 8 188V160Z" fill="white"/>
<path d="M12 156.5H44C45.933 156.5 47.5 158.067 47.5 160V188C47.5 189.933 45.933 191.5 44 191.5H12C10.067 191.5 8.5 189.933 8.5 188V160C8.5 158.067 10.067 156.5 12 156.5Z" stroke="#2B87F8" stroke-opacity="0.15"/>
<path d="M10 162C10 160.895 10.8954 160 12 160H44C45.1046 160 46 160.895 46 162V162C46 163.105 45.1046 164 44 164H12C10.8954 164 10 163.105 10 162V162Z" fill="#2B87F8" fill-opacity="0.55"/>
<path d="M10 170C10 168.895 10.8954 168 12 168H44C45.1046 168 46 168.895 46 170V170C46 171.105 45.1046 172 44 172H12C10.8954 172 10 171.105 10 170V170Z" fill="#2B87F8" fill-opacity="0.25"/>
<path d="M56 160C56 157.791 57.7909 156 60 156H92C94.2091 156 96 157.791 96 160V188C96 190.209 94.2091 192 92 192H60C57.7909 192 56 190.209 56 188V160Z" fill="white"/>
<path d="M60 156.5H92C93.933 156.5 95.5 158.067 95.5 160V188C95.5 189.933 93.933 191.5 92 191.5H60C58.067 191.5 56.5 189.933 56.5 188V160C56.5 158.067 58.067 156.5 60 156.5Z" stroke="#2B87F8" stroke-opacity="0.15"/>
<path d="M58 162C58 160.895 58.8954 160 60 160H92C93.1046 160 94 160.895 94 162V162C94 163.105 93.1046 164 92 164H60C58.8954 164 58 163.105 58 162V162Z" fill="#2B87F8" fill-opacity="0.55"/>
<path d="M58 170C58 168.895 58.8954 168 60 168H92C93.1046 168 94 168.895 94 170V170C94 171.105 93.1046 172 92 172H60C58.8954 172 58 171.105 58 170V170Z" fill="#2B87F8" fill-opacity="0.25"/>
</g>
<mask id="path-48-inside-1_5087_54195" fill="white">
<path d="M0 0H104V12H0V0Z"/>
</mask>
<path d="M0 0H104V12H0V0Z" fill="#2B87F8" fill-opacity="0.25"/>
<path d="M104 12V11H0V12V13H104V12Z" fill="#2B87F8" fill-opacity="0.15" mask="url(#path-48-inside-1_5087_54195)"/>
<rect x="8" y="4" width="8" height="4" rx="1" fill="#2B87F8" fill-opacity="0.55"/>
<rect x="68" y="4" width="8" height="4" rx="1" fill="#2B87F8" fill-opacity="0.55"/>
<rect x="78" y="4" width="8" height="4" rx="1" fill="#2B87F8" fill-opacity="0.55"/>
<rect x="88" y="4" width="8" height="4" rx="1" fill="#2B87F8" fill-opacity="0.55"/>
</g>
<defs>
<clipPath id="clip0_5087_54195">
<path d="M0 4C0 1.79086 1.79086 0 4 0H100C102.209 0 104 1.79086 104 4V180C104 182.209 102.209 184 100 184H4C1.79086 184 0 182.209 0 180V4Z" fill="white"/>
</clipPath>
<clipPath id="clip1_5087_54195">
<rect width="88" height="148" fill="white" transform="translate(8 24)"/>
</clipPath>
</defs>
</svg>
