<svg width="184" height="184" viewBox="0 0 184 184" fill="none" xmlns="http://www.w3.org/2000/svg">
<g clip-path="url(#clip0_5087_54086)">
<path d="M0 4C0 1.79086 1.79086 0 4 0H180C182.209 0 184 1.79086 184 4V180C184 182.209 182.209 184 180 184H4C1.79086 184 0 182.209 0 180V4Z" fill="#F0F7FE"/>
<path d="M4 0.5H180C181.933 0.5 183.5 2.067 183.5 4V180C183.5 181.933 181.933 183.5 180 183.5H4C2.067 183.5 0.5 181.933 0.5 180V4C0.5 2.067 2.067 0.5 4 0.5Z" stroke="#2B87F8" stroke-opacity="0.1"/>
<g clip-path="url(#clip1_5087_54086)">
<path d="M12 28C12 25.7909 13.7909 24 16 24H42C44.2091 24 46 25.7909 46 28V56C46 58.2091 44.2091 60 42 60H16C13.7909 60 12 58.2091 12 56V28Z" fill="white"/>
<path d="M16 24.5H42C43.933 24.5 45.5 26.067 45.5 28V56C45.5 57.933 43.933 59.5 42 59.5H16C14.067 59.5 12.5 57.933 12.5 56V28C12.5 26.067 14.067 24.5 16 24.5Z" stroke="#2B87F8" stroke-opacity="0.15"/>
<path d="M14 30C14 28.8954 14.8954 28 16 28H42C43.1046 28 44 28.8954 44 30V30C44 31.1046 43.1046 32 42 32H16C14.8954 32 14 31.1046 14 30V30Z" fill="#2B87F8" fill-opacity="0.55"/>
<path d="M14 38C14 36.8954 14.8954 36 16 36H42C43.1046 36 44 36.8954 44 38V38C44 39.1046 43.1046 40 42 40H16C14.8954 40 14 39.1046 14 38V38Z" fill="#2B87F8" fill-opacity="0.25"/>
<path d="M14 46C14 44.8954 14.8954 44 16 44H42C43.1046 44 44 44.8954 44 46V46C44 47.1046 43.1046 48 42 48H16C14.8954 48 14 47.1046 14 46V46Z" fill="#2B87F8" fill-opacity="0.25"/>
<path d="M22 54C22 52.8954 22.8954 52 24 52H34C35.1046 52 36 52.8954 36 54V54C36 55.1046 35.1046 56 34 56H24C22.8954 56 22 55.1046 22 54V54Z" fill="#2B87F8" fill-opacity="0.25"/>
<path d="M54 28C54 25.7909 55.7909 24 58 24H84C86.2091 24 88 25.7909 88 28V56C88 58.2091 86.2091 60 84 60H58C55.7909 60 54 58.2091 54 56V28Z" fill="white"/>
<path d="M58 24.5H84C85.933 24.5 87.5 26.067 87.5 28V56C87.5 57.933 85.933 59.5 84 59.5H58C56.067 59.5 54.5 57.933 54.5 56V28C54.5 26.067 56.067 24.5 58 24.5Z" stroke="#2B87F8" stroke-opacity="0.15"/>
<path d="M56 30C56 28.8954 56.8954 28 58 28H84C85.1046 28 86 28.8954 86 30V30C86 31.1046 85.1046 32 84 32H58C56.8954 32 56 31.1046 56 30V30Z" fill="#2B87F8" fill-opacity="0.55"/>
<path d="M56 38C56 36.8954 56.8954 36 58 36H84C85.1046 36 86 36.8954 86 38V38C86 39.1046 85.1046 40 84 40H58C56.8954 40 56 39.1046 56 38V38Z" fill="#2B87F8" fill-opacity="0.25"/>
<path d="M56 46C56 44.8954 56.8954 44 58 44H84C85.1046 44 86 44.8954 86 46V46C86 47.1046 85.1046 48 84 48H58C56.8954 48 56 47.1046 56 46V46Z" fill="#2B87F8" fill-opacity="0.25"/>
<path d="M64 54C64 52.8954 64.8954 52 66 52H76C77.1046 52 78 52.8954 78 54V54C78 55.1046 77.1046 56 76 56H66C64.8954 56 64 55.1046 64 54V54Z" fill="#2B87F8" fill-opacity="0.25"/>
<path d="M96 28C96 25.7909 97.7909 24 100 24H126C128.209 24 130 25.7909 130 28V56C130 58.2091 128.209 60 126 60H100C97.7909 60 96 58.2091 96 56V28Z" fill="white"/>
<path d="M100 24.5H126C127.933 24.5 129.5 26.067 129.5 28V56C129.5 57.933 127.933 59.5 126 59.5H100C98.067 59.5 96.5 57.933 96.5 56V28C96.5 26.067 98.067 24.5 100 24.5Z" stroke="#2B87F8" stroke-opacity="0.15"/>
<path d="M98 30C98 28.8954 98.8954 28 100 28H126C127.105 28 128 28.8954 128 30V30C128 31.1046 127.105 32 126 32H100C98.8954 32 98 31.1046 98 30V30Z" fill="#2B87F8" fill-opacity="0.55"/>
<path d="M98 38C98 36.8954 98.8954 36 100 36H126C127.105 36 128 36.8954 128 38V38C128 39.1046 127.105 40 126 40H100C98.8954 40 98 39.1046 98 38V38Z" fill="#2B87F8" fill-opacity="0.25"/>
<path d="M98 46C98 44.8954 98.8954 44 100 44H126C127.105 44 128 44.8954 128 46V46C128 47.1046 127.105 48 126 48H100C98.8954 48 98 47.1046 98 46V46Z" fill="#2B87F8" fill-opacity="0.25"/>
<path d="M106 54C106 52.8954 106.895 52 108 52H118C119.105 52 120 52.8954 120 54V54C120 55.1046 119.105 56 118 56H108C106.895 56 106 55.1046 106 54V54Z" fill="#2B87F8" fill-opacity="0.25"/>
<path d="M138 28C138 25.7909 139.791 24 142 24H168C170.209 24 172 25.7909 172 28V56C172 58.2091 170.209 60 168 60H142C139.791 60 138 58.2091 138 56V28Z" fill="white"/>
<path d="M142 24.5H168C169.933 24.5 171.5 26.067 171.5 28V56C171.5 57.933 169.933 59.5 168 59.5H142C140.067 59.5 138.5 57.933 138.5 56V28C138.5 26.067 140.067 24.5 142 24.5Z" stroke="#2B87F8" stroke-opacity="0.15"/>
<path d="M140 30C140 28.8954 140.895 28 142 28H168C169.105 28 170 28.8954 170 30V30C170 31.1046 169.105 32 168 32H142C140.895 32 140 31.1046 140 30V30Z" fill="#2B87F8" fill-opacity="0.55"/>
<path d="M140 38C140 36.8954 140.895 36 142 36H168C169.105 36 170 36.8954 170 38V38C170 39.1046 169.105 40 168 40H142C140.895 40 140 39.1046 140 38V38Z" fill="#2B87F8" fill-opacity="0.25"/>
<path d="M140 46C140 44.8954 140.895 44 142 44H168C169.105 44 170 44.8954 170 46V46C170 47.1046 169.105 48 168 48H142C140.895 48 140 47.1046 140 46V46Z" fill="#2B87F8" fill-opacity="0.25"/>
<path d="M148 54C148 52.8954 148.895 52 150 52H160C161.105 52 162 52.8954 162 54V54C162 55.1046 161.105 56 160 56H150C148.895 56 148 55.1046 148 54V54Z" fill="#2B87F8" fill-opacity="0.25"/>
<path d="M12 72C12 69.7909 13.7909 68 16 68H42C44.2091 68 46 69.7909 46 72V100C46 102.209 44.2091 104 42 104H16C13.7909 104 12 102.209 12 100V72Z" fill="white"/>
<path d="M16 68.5H42C43.933 68.5 45.5 70.067 45.5 72V100C45.5 101.933 43.933 103.5 42 103.5H16C14.067 103.5 12.5 101.933 12.5 100V72C12.5 70.067 14.067 68.5 16 68.5Z" stroke="#2B87F8" stroke-opacity="0.15"/>
<path d="M14 74C14 72.8954 14.8954 72 16 72H42C43.1046 72 44 72.8954 44 74V74C44 75.1046 43.1046 76 42 76H16C14.8954 76 14 75.1046 14 74V74Z" fill="#2B87F8" fill-opacity="0.55"/>
<path d="M14 82C14 80.8954 14.8954 80 16 80H42C43.1046 80 44 80.8954 44 82V82C44 83.1046 43.1046 84 42 84H16C14.8954 84 14 83.1046 14 82V82Z" fill="#2B87F8" fill-opacity="0.25"/>
<path d="M14 90C14 88.8954 14.8954 88 16 88H42C43.1046 88 44 88.8954 44 90V90C44 91.1046 43.1046 92 42 92H16C14.8954 92 14 91.1046 14 90V90Z" fill="#2B87F8" fill-opacity="0.25"/>
<path d="M22 98C22 96.8954 22.8954 96 24 96H34C35.1046 96 36 96.8954 36 98V98C36 99.1046 35.1046 100 34 100H24C22.8954 100 22 99.1046 22 98V98Z" fill="#2B87F8" fill-opacity="0.25"/>
<path d="M54 72C54 69.7909 55.7909 68 58 68H84C86.2091 68 88 69.7909 88 72V100C88 102.209 86.2091 104 84 104H58C55.7909 104 54 102.209 54 100V72Z" fill="white"/>
<path d="M58 68.5H84C85.933 68.5 87.5 70.067 87.5 72V100C87.5 101.933 85.933 103.5 84 103.5H58C56.067 103.5 54.5 101.933 54.5 100V72C54.5 70.067 56.067 68.5 58 68.5Z" stroke="#2B87F8" stroke-opacity="0.15"/>
<path d="M56 74C56 72.8954 56.8954 72 58 72H84C85.1046 72 86 72.8954 86 74V74C86 75.1046 85.1046 76 84 76H58C56.8954 76 56 75.1046 56 74V74Z" fill="#2B87F8" fill-opacity="0.55"/>
<path d="M56 82C56 80.8954 56.8954 80 58 80H84C85.1046 80 86 80.8954 86 82V82C86 83.1046 85.1046 84 84 84H58C56.8954 84 56 83.1046 56 82V82Z" fill="#2B87F8" fill-opacity="0.25"/>
<path d="M56 90C56 88.8954 56.8954 88 58 88H84C85.1046 88 86 88.8954 86 90V90C86 91.1046 85.1046 92 84 92H58C56.8954 92 56 91.1046 56 90V90Z" fill="#2B87F8" fill-opacity="0.25"/>
<path d="M64 98C64 96.8954 64.8954 96 66 96H76C77.1046 96 78 96.8954 78 98V98C78 99.1046 77.1046 100 76 100H66C64.8954 100 64 99.1046 64 98V98Z" fill="#2B87F8" fill-opacity="0.25"/>
<path d="M96 72C96 69.7909 97.7909 68 100 68H126C128.209 68 130 69.7909 130 72V100C130 102.209 128.209 104 126 104H100C97.7909 104 96 102.209 96 100V72Z" fill="white"/>
<path d="M100 68.5H126C127.933 68.5 129.5 70.067 129.5 72V100C129.5 101.933 127.933 103.5 126 103.5H100C98.067 103.5 96.5 101.933 96.5 100V72C96.5 70.067 98.067 68.5 100 68.5Z" stroke="#2B87F8" stroke-opacity="0.15"/>
<path d="M98 74C98 72.8954 98.8954 72 100 72H126C127.105 72 128 72.8954 128 74V74C128 75.1046 127.105 76 126 76H100C98.8954 76 98 75.1046 98 74V74Z" fill="#2B87F8" fill-opacity="0.55"/>
<path d="M98 82C98 80.8954 98.8954 80 100 80H126C127.105 80 128 80.8954 128 82V82C128 83.1046 127.105 84 126 84H100C98.8954 84 98 83.1046 98 82V82Z" fill="#2B87F8" fill-opacity="0.25"/>
<path d="M98 90C98 88.8954 98.8954 88 100 88H126C127.105 88 128 88.8954 128 90V90C128 91.1046 127.105 92 126 92H100C98.8954 92 98 91.1046 98 90V90Z" fill="#2B87F8" fill-opacity="0.25"/>
<path d="M106 98C106 96.8954 106.895 96 108 96H118C119.105 96 120 96.8954 120 98V98C120 99.1046 119.105 100 118 100H108C106.895 100 106 99.1046 106 98V98Z" fill="#2B87F8" fill-opacity="0.25"/>
<path d="M138 72C138 69.7909 139.791 68 142 68H168C170.209 68 172 69.7909 172 72V100C172 102.209 170.209 104 168 104H142C139.791 104 138 102.209 138 100V72Z" fill="white"/>
<path d="M142 68.5H168C169.933 68.5 171.5 70.067 171.5 72V100C171.5 101.933 169.933 103.5 168 103.5H142C140.067 103.5 138.5 101.933 138.5 100V72C138.5 70.067 140.067 68.5 142 68.5Z" stroke="#2B87F8" stroke-opacity="0.15"/>
<path d="M140 74C140 72.8954 140.895 72 142 72H168C169.105 72 170 72.8954 170 74V74C170 75.1046 169.105 76 168 76H142C140.895 76 140 75.1046 140 74V74Z" fill="#2B87F8" fill-opacity="0.55"/>
<path d="M140 82C140 80.8954 140.895 80 142 80H168C169.105 80 170 80.8954 170 82V82C170 83.1046 169.105 84 168 84H142C140.895 84 140 83.1046 140 82V82Z" fill="#2B87F8" fill-opacity="0.25"/>
<path d="M140 90C140 88.8954 140.895 88 142 88H168C169.105 88 170 88.8954 170 90V90C170 91.1046 169.105 92 168 92H142C140.895 92 140 91.1046 140 90V90Z" fill="#2B87F8" fill-opacity="0.25"/>
<path d="M148 98C148 96.8954 148.895 96 150 96H160C161.105 96 162 96.8954 162 98V98C162 99.1046 161.105 100 160 100H150C148.895 100 148 99.1046 148 98V98Z" fill="#2B87F8" fill-opacity="0.25"/>
<path d="M12 116C12 113.791 13.7909 112 16 112H42C44.2091 112 46 113.791 46 116V144C46 146.209 44.2091 148 42 148H16C13.7909 148 12 146.209 12 144V116Z" fill="white"/>
<path d="M16 112.5H42C43.933 112.5 45.5 114.067 45.5 116V144C45.5 145.933 43.933 147.5 42 147.5H16C14.067 147.5 12.5 145.933 12.5 144V116C12.5 114.067 14.067 112.5 16 112.5Z" stroke="#2B87F8" stroke-opacity="0.15"/>
<path d="M14 118C14 116.895 14.8954 116 16 116H42C43.1046 116 44 116.895 44 118V118C44 119.105 43.1046 120 42 120H16C14.8954 120 14 119.105 14 118V118Z" fill="#2B87F8" fill-opacity="0.55"/>
<path d="M14 126C14 124.895 14.8954 124 16 124H42C43.1046 124 44 124.895 44 126V126C44 127.105 43.1046 128 42 128H16C14.8954 128 14 127.105 14 126V126Z" fill="#2B87F8" fill-opacity="0.25"/>
<path d="M14 134C14 132.895 14.8954 132 16 132H42C43.1046 132 44 132.895 44 134V134C44 135.105 43.1046 136 42 136H16C14.8954 136 14 135.105 14 134V134Z" fill="#2B87F8" fill-opacity="0.25"/>
<path d="M22 142C22 140.895 22.8954 140 24 140H34C35.1046 140 36 140.895 36 142V142C36 143.105 35.1046 144 34 144H24C22.8954 144 22 143.105 22 142V142Z" fill="#2B87F8" fill-opacity="0.25"/>
<path d="M54 116C54 113.791 55.7909 112 58 112H84C86.2091 112 88 113.791 88 116V144C88 146.209 86.2091 148 84 148H58C55.7909 148 54 146.209 54 144V116Z" fill="white"/>
<path d="M58 112.5H84C85.933 112.5 87.5 114.067 87.5 116V144C87.5 145.933 85.933 147.5 84 147.5H58C56.067 147.5 54.5 145.933 54.5 144V116C54.5 114.067 56.067 112.5 58 112.5Z" stroke="#2B87F8" stroke-opacity="0.15"/>
<path d="M56 118C56 116.895 56.8954 116 58 116H84C85.1046 116 86 116.895 86 118V118C86 119.105 85.1046 120 84 120H58C56.8954 120 56 119.105 56 118V118Z" fill="#2B87F8" fill-opacity="0.55"/>
<path d="M56 126C56 124.895 56.8954 124 58 124H84C85.1046 124 86 124.895 86 126V126C86 127.105 85.1046 128 84 128H58C56.8954 128 56 127.105 56 126V126Z" fill="#2B87F8" fill-opacity="0.25"/>
<path d="M56 134C56 132.895 56.8954 132 58 132H84C85.1046 132 86 132.895 86 134V134C86 135.105 85.1046 136 84 136H58C56.8954 136 56 135.105 56 134V134Z" fill="#2B87F8" fill-opacity="0.25"/>
<path d="M64 142C64 140.895 64.8954 140 66 140H76C77.1046 140 78 140.895 78 142V142C78 143.105 77.1046 144 76 144H66C64.8954 144 64 143.105 64 142V142Z" fill="#2B87F8" fill-opacity="0.25"/>
<path d="M96 116C96 113.791 97.7909 112 100 112H126C128.209 112 130 113.791 130 116V144C130 146.209 128.209 148 126 148H100C97.7909 148 96 146.209 96 144V116Z" fill="white"/>
<path d="M100 112.5H126C127.933 112.5 129.5 114.067 129.5 116V144C129.5 145.933 127.933 147.5 126 147.5H100C98.067 147.5 96.5 145.933 96.5 144V116C96.5 114.067 98.067 112.5 100 112.5Z" stroke="#2B87F8" stroke-opacity="0.15"/>
<path d="M98 118C98 116.895 98.8954 116 100 116H126C127.105 116 128 116.895 128 118V118C128 119.105 127.105 120 126 120H100C98.8954 120 98 119.105 98 118V118Z" fill="#2B87F8" fill-opacity="0.55"/>
<path d="M98 126C98 124.895 98.8954 124 100 124H126C127.105 124 128 124.895 128 126V126C128 127.105 127.105 128 126 128H100C98.8954 128 98 127.105 98 126V126Z" fill="#2B87F8" fill-opacity="0.25"/>
<path d="M98 134C98 132.895 98.8954 132 100 132H126C127.105 132 128 132.895 128 134V134C128 135.105 127.105 136 126 136H100C98.8954 136 98 135.105 98 134V134Z" fill="#2B87F8" fill-opacity="0.25"/>
<path d="M106 142C106 140.895 106.895 140 108 140H118C119.105 140 120 140.895 120 142V142C120 143.105 119.105 144 118 144H108C106.895 144 106 143.105 106 142V142Z" fill="#2B87F8" fill-opacity="0.25"/>
<path d="M138 116C138 113.791 139.791 112 142 112H168C170.209 112 172 113.791 172 116V144C172 146.209 170.209 148 168 148H142C139.791 148 138 146.209 138 144V116Z" fill="white"/>
<path d="M142 112.5H168C169.933 112.5 171.5 114.067 171.5 116V144C171.5 145.933 169.933 147.5 168 147.5H142C140.067 147.5 138.5 145.933 138.5 144V116C138.5 114.067 140.067 112.5 142 112.5Z" stroke="#2B87F8" stroke-opacity="0.15"/>
<path d="M140 118C140 116.895 140.895 116 142 116H168C169.105 116 170 116.895 170 118V118C170 119.105 169.105 120 168 120H142C140.895 120 140 119.105 140 118V118Z" fill="#2B87F8" fill-opacity="0.55"/>
<path d="M140 126C140 124.895 140.895 124 142 124H168C169.105 124 170 124.895 170 126V126C170 127.105 169.105 128 168 128H142C140.895 128 140 127.105 140 126V126Z" fill="#2B87F8" fill-opacity="0.25"/>
<path d="M140 134C140 132.895 140.895 132 142 132H168C169.105 132 170 132.895 170 134V134C170 135.105 169.105 136 168 136H142C140.895 136 140 135.105 140 134V134Z" fill="#2B87F8" fill-opacity="0.25"/>
<path d="M148 142C148 140.895 148.895 140 150 140H160C161.105 140 162 140.895 162 142V142C162 143.105 161.105 144 160 144H150C148.895 144 148 143.105 148 142V142Z" fill="#2B87F8" fill-opacity="0.25"/>
<path d="M12 160C12 157.791 13.7909 156 16 156H42C44.2091 156 46 157.791 46 160V188C46 190.209 44.2091 192 42 192H16C13.7909 192 12 190.209 12 188V160Z" fill="white"/>
<path d="M16 156.5H42C43.933 156.5 45.5 158.067 45.5 160V188C45.5 189.933 43.933 191.5 42 191.5H16C14.067 191.5 12.5 189.933 12.5 188V160C12.5 158.067 14.067 156.5 16 156.5Z" stroke="#2B87F8" stroke-opacity="0.15"/>
<path d="M14 162C14 160.895 14.8954 160 16 160H42C43.1046 160 44 160.895 44 162V162C44 163.105 43.1046 164 42 164H16C14.8954 164 14 163.105 14 162V162Z" fill="#2B87F8" fill-opacity="0.55"/>
<path d="M14 170C14 168.895 14.8954 168 16 168H42C43.1046 168 44 168.895 44 170V170C44 171.105 43.1046 172 42 172H16C14.8954 172 14 171.105 14 170V170Z" fill="#2B87F8" fill-opacity="0.25"/>
<path d="M54 160C54 157.791 55.7909 156 58 156H84C86.2091 156 88 157.791 88 160V188C88 190.209 86.2091 192 84 192H58C55.7909 192 54 190.209 54 188V160Z" fill="white"/>
<path d="M58 156.5H84C85.933 156.5 87.5 158.067 87.5 160V188C87.5 189.933 85.933 191.5 84 191.5H58C56.067 191.5 54.5 189.933 54.5 188V160C54.5 158.067 56.067 156.5 58 156.5Z" stroke="#2B87F8" stroke-opacity="0.15"/>
<path d="M56 162C56 160.895 56.8954 160 58 160H84C85.1046 160 86 160.895 86 162V162C86 163.105 85.1046 164 84 164H58C56.8954 164 56 163.105 56 162V162Z" fill="#2B87F8" fill-opacity="0.55"/>
<path d="M56 170C56 168.895 56.8954 168 58 168H84C85.1046 168 86 168.895 86 170V170C86 171.105 85.1046 172 84 172H58C56.8954 172 56 171.105 56 170V170Z" fill="#2B87F8" fill-opacity="0.25"/>
<path d="M96 160C96 157.791 97.7909 156 100 156H126C128.209 156 130 157.791 130 160V188C130 190.209 128.209 192 126 192H100C97.7909 192 96 190.209 96 188V160Z" fill="white"/>
<path d="M100 156.5H126C127.933 156.5 129.5 158.067 129.5 160V188C129.5 189.933 127.933 191.5 126 191.5H100C98.067 191.5 96.5 189.933 96.5 188V160C96.5 158.067 98.067 156.5 100 156.5Z" stroke="#2B87F8" stroke-opacity="0.15"/>
<path d="M98 162C98 160.895 98.8954 160 100 160H126C127.105 160 128 160.895 128 162V162C128 163.105 127.105 164 126 164H100C98.8954 164 98 163.105 98 162V162Z" fill="#2B87F8" fill-opacity="0.55"/>
<path d="M98 170C98 168.895 98.8954 168 100 168H126C127.105 168 128 168.895 128 170V170C128 171.105 127.105 172 126 172H100C98.8954 172 98 171.105 98 170V170Z" fill="#2B87F8" fill-opacity="0.25"/>
<path d="M138 160C138 157.791 139.791 156 142 156H168C170.209 156 172 157.791 172 160V188C172 190.209 170.209 192 168 192H142C139.791 192 138 190.209 138 188V160Z" fill="white"/>
<path d="M142 156.5H168C169.933 156.5 171.5 158.067 171.5 160V188C171.5 189.933 169.933 191.5 168 191.5H142C140.067 191.5 138.5 189.933 138.5 188V160C138.5 158.067 140.067 156.5 142 156.5Z" stroke="#2B87F8" stroke-opacity="0.15"/>
<path d="M140 162C140 160.895 140.895 160 142 160H168C169.105 160 170 160.895 170 162V162C170 163.105 169.105 164 168 164H142C140.895 164 140 163.105 140 162V162Z" fill="#2B87F8" fill-opacity="0.55"/>
<path d="M140 170C140 168.895 140.895 168 142 168H168C169.105 168 170 168.895 170 170V170C170 171.105 169.105 172 168 172H142C140.895 172 140 171.105 140 170V170Z" fill="#2B87F8" fill-opacity="0.25"/>
</g>
<mask id="path-92-inside-1_5087_54086" fill="white">
<path d="M0 0H184V12H0V0Z"/>
</mask>
<path d="M0 0H184V12H0V0Z" fill="#2B87F8" fill-opacity="0.25"/>
<path d="M184 12V11H0V12V13H184V12Z" fill="#2B87F8" fill-opacity="0.15" mask="url(#path-92-inside-1_5087_54086)"/>
<rect x="12" y="4" width="8" height="4" rx="1" fill="#2B87F8" fill-opacity="0.55"/>
<rect x="144" y="4" width="8" height="4" rx="1" fill="#2B87F8" fill-opacity="0.55"/>
<rect x="154" y="4" width="8" height="4" rx="1" fill="#2B87F8" fill-opacity="0.55"/>
<rect x="164" y="4" width="8" height="4" rx="1" fill="#2B87F8" fill-opacity="0.55"/>
</g>
<defs>
<clipPath id="clip0_5087_54086">
<rect width="184" height="184" rx="4" fill="white"/>
</clipPath>
<clipPath id="clip1_5087_54086">
<rect width="160" height="148" fill="white" transform="translate(12 24)"/>
</clipPath>
</defs>
</svg>
