<svg width="104" height="184" viewBox="0 0 104 184" fill="none" xmlns="http://www.w3.org/2000/svg">
<g clip-path="url(#clip0_5087_53752)">
<path d="M0 4C0 1.79086 1.79086 0 4 0H100C102.209 0 104 1.79086 104 4V180C104 182.209 102.209 184 100 184H4C1.79086 184 0 182.209 0 180V4Z" fill="#F0F7FE"/>
<path d="M4 0.5H100C101.933 0.500002 103.5 2.067 103.5 4V180C103.5 181.933 101.933 183.5 100 183.5H4C2.067 183.5 0.5 181.933 0.5 180V4C0.5 2.067 2.067 0.5 4 0.5Z" stroke="#2B87F8" stroke-opacity="0.1"/>
<g clip-path="url(#clip1_5087_53752)">
<path d="M168 96H8V116H168V96Z" fill="#2B87F8" fill-opacity="0.4"/>
<path d="M14 106C14 104.895 14.8954 104 16 104H40C41.1046 104 42 104.895 42 106V106C42 107.105 41.1046 108 40 108H16C14.8954 108 14 107.105 14 106V106Z" fill="#2B87F8" fill-opacity="0.55"/>
<path d="M168 116H8V132H168V116Z" fill="white"/>
<path d="M14 124C14 122.895 14.8954 122 16 122H32C33.1046 122 34 122.895 34 124V124C34 125.105 33.1046 126 32 126H16C14.8954 126 14 125.105 14 124V124Z" fill="#2B87F8" fill-opacity="0.25"/>
<path d="M168 132H8V148H168V132Z" fill="#2B87F8" fill-opacity="0.15"/>
<path d="M14 140C14 138.895 14.8954 138 16 138H40C41.1046 138 42 138.895 42 140V140C42 141.105 41.1046 142 40 142H16C14.8954 142 14 141.105 14 140V140Z" fill="#2B87F8" fill-opacity="0.25"/>
<path d="M168 148H8V164H168V148Z" fill="white"/>
<path d="M14 156C14 154.895 14.8954 154 16 154H32C33.1046 154 34 154.895 34 156V156C34 157.105 33.1046 158 32 158H16C14.8954 158 14 157.105 14 156V156Z" fill="#2B87F8" fill-opacity="0.25"/>
<path d="M168 164H8V180H168V164Z" fill="#2B87F8" fill-opacity="0.15"/>
<path d="M14 172C14 170.895 14.8954 170 16 170H40C41.1046 170 42 170.895 42 172V172C42 173.105 41.1046 174 40 174H16C14.8954 174 14 173.105 14 172V172Z" fill="#2B87F8" fill-opacity="0.25"/>
<path d="M88 96H48V228H88V96Z" fill="#2B87F8" fill-opacity="0.15"/>
</g>
<path d="M12 96.5H92C93.933 96.5 95.5 98.067 95.5 100V168C95.5 169.933 93.933 171.5 92 171.5H12C10.067 171.5 8.5 169.933 8.5 168V100C8.5 98.067 10.067 96.5 12 96.5Z" stroke="#2B87F8" stroke-opacity="0.15"/>
<path d="M10 24.5H94C94.8284 24.5 95.5 25.1716 95.5 26V86C95.5 86.8284 94.8284 87.5 94 87.5H10C9.17157 87.5 8.5 86.8284 8.5 86V26C8.5 25.1716 9.17157 24.5 10 24.5Z" stroke="#2B87F8" stroke-opacity="0.15"/>
<path d="M81.15 31.3333H81.7V88H81.15V31.3333Z" fill="#2B87F8" fill-opacity="0.15"/>
<path d="M55.3 71.3333H55.85V88H55.3V71.3333Z" fill="#2B87F8" fill-opacity="0.15"/>
<path d="M30.55 51.3333H30V88H30.55V51.3333Z" fill="#2B87F8" fill-opacity="0.15"/>
<path d="M8 81.3333V80C9.05041 80 10.1307 78.9862 11.3946 76.8586C12.0376 75.7761 12.6962 74.4757 13.6129 72.5232C13.7827 72.1615 13.9569 71.7875 14.1955 71.273C14.2633 71.1269 14.3434 70.9539 14.4927 70.6318C14.6135 70.3711 14.7046 70.1749 14.7943 69.982C15.289 68.9178 15.6682 68.1152 16.0512 67.328C20.395 58.4001 24.3354 54 30 54C35.3914 54 38.4449 55.234 43.4545 58.583C43.5194 58.6263 43.9061 58.8851 44.0177 58.9597C48.5044 61.9571 51.0969 63.0174 55.5732 63C60.1869 62.982 63.5277 59.6933 68.9732 51.4176C69.2006 51.0721 70.1393 49.6387 70.3809 49.2718C70.9252 48.4449 71.3611 47.7929 71.7819 47.1793C75.468 41.8054 78.1907 39.3333 81.425 39.3333C83.7671 39.3333 85.5948 41.0357 87.0808 44.2015C88.2071 46.601 89.0479 49.4892 90.17 54.3193C90.3135 54.937 90.7922 57.0273 90.8581 57.3126C92.7023 65.3018 93.9742 68.3333 96 68.3333V69.6666C94.4135 69.6666 93.1819 68.3334 92.1382 65.8457C91.3533 63.9749 90.7358 61.7309 89.7988 57.6719C89.7324 57.3843 89.254 55.2954 89.1112 54.6807C86.8097 44.7744 84.8815 40.6666 81.425 40.6666C78.6264 40.6666 76.1164 42.9456 72.6278 48.0317C72.2124 48.6373 71.7808 49.2829 71.2407 50.1034C71.0003 50.4686 70.0616 51.9019 69.8332 52.249C67.1894 56.2669 65.4993 58.5402 63.5353 60.4737C60.9755 62.9936 58.3911 64.3224 55.5768 64.3333C50.8786 64.3516 48.1223 63.2243 43.4868 60.1274C43.3747 60.0526 42.9878 59.7936 42.9232 59.7505C38.0618 56.5006 35.1735 55.3333 30 55.3333C24.848 55.3333 21.161 59.4505 16.9988 68.0053C16.62 68.7837 16.2441 69.5793 15.7526 70.6365C15.6632 70.8289 15.5723 71.0247 15.4517 71.2849C15.3025 71.6069 15.2223 71.78 15.1544 71.9263C14.915 72.4427 14.7399 72.8186 14.5689 73.1827C13.6342 75.1733 12.9587 76.5075 12.2872 77.6377C10.8357 80.0813 9.50146 81.3333 8 81.3333Z" fill="#2B87F8" fill-opacity="0.25"/>
<path d="M83.6616 34.2864C83.2642 35.2996 82.4121 36 81.425 36C80.5117 36 79.714 35.4004 79.2851 34.5083C77.3039 36.0763 75.2538 39.8734 72.6906 46.2201C72.2787 47.2399 71.8512 48.3256 71.3158 49.7058C71.1952 50.0167 70.8925 50.8003 70.5952 51.5696L70.591 51.5805C70.3101 52.3076 70.0349 53.0199 69.924 53.306C67.294 60.088 65.6162 63.916 63.6673 67.1671C61.8458 70.2055 60.0012 72.2285 58.0471 73.1462C57.9842 74.7351 56.9015 76 55.575 76C54.3009 76 53.2517 74.8331 53.1151 73.3329C51.4513 72.8017 49.9298 71.7162 48.4766 70.1062C46.8419 68.2952 45.5668 66.2752 43.3177 62.222C43.2472 62.0951 43.0659 61.7678 42.9285 61.5199L42.7666 61.2277C40.3839 56.9311 39.0652 54.8483 37.3457 52.9711C35.8816 51.3726 34.3526 50.2924 32.6726 49.7474C32.3986 51.0426 31.429 52 30.275 52C29.0937 52 28.1057 50.9969 27.8592 49.6551C23.8034 50.9223 20.5824 55.9456 17.021 64.9547C16.6418 65.9141 16.2654 66.8944 15.7735 68.1966C15.6841 68.4334 15.5932 68.6745 15.4726 68.9948L15.1753 69.7843C14.9359 70.4195 14.761 70.8818 14.5901 71.3296C13.6575 73.7742 12.984 75.4112 12.3156 76.796C10.866 79.7994 9.53788 81.3333 8 81.3333V80C9.01399 80 10.1003 78.7453 11.3662 76.1227C12.0123 74.784 12.6729 73.1785 13.5917 70.77C13.7617 70.3245 13.936 69.8638 14.1747 69.2303L14.4719 68.4411C14.5927 68.1204 14.6837 67.8789 14.7734 67.6416C15.2677 66.3329 15.6465 65.3462 16.029 64.3786C17.9871 59.4252 19.6989 55.9265 21.6641 53.2257C23.5623 50.6168 25.6089 48.9383 27.8686 48.2958C28.13 46.9787 29.1082 46 30.275 46C31.4661 46 32.4607 47.0199 32.6968 48.3786C34.6527 48.9503 36.4181 50.1639 38.0819 51.9804C39.8903 53.9548 41.2471 56.0976 43.6795 60.4838L43.8434 60.7797C43.9806 61.0272 44.1605 61.3518 44.2304 61.4779C46.4314 65.4443 47.6696 67.4058 49.2187 69.122C50.4995 70.541 51.8162 71.5007 53.2431 71.9923C53.5846 70.8311 54.4997 70 55.575 70C56.5907 70 57.4635 70.7416 57.8449 71.8024C59.5074 70.9436 61.132 69.1282 62.7774 66.3833C64.6725 63.222 66.3274 59.4461 68.9285 52.7388C69.0376 52.4575 69.3064 51.7617 69.5831 51.0455L69.6048 50.9894C69.9003 50.2246 70.2002 49.4482 70.3203 49.1385C70.858 47.7525 71.2878 46.6609 71.7026 45.6338C74.449 38.8337 76.6401 34.7952 78.9539 33.1692C78.9513 33.1132 78.95 33.0568 78.95 33C78.95 31.3431 80.0581 30 81.425 30C82.788 30 83.8937 31.3356 83.9 32.9859C85.1056 33.6723 86.148 34.8905 87.0636 36.5945C88.1957 38.7013 89.0393 41.2327 90.1641 45.4621C90.2613 45.8275 90.5119 46.782 90.6842 47.4381L90.6851 47.4414C90.767 47.7532 90.831 47.9971 90.8522 48.0773C92.6966 55.0567 93.9501 57.6667 96 57.6667V59C94.4363 59 93.2016 57.8324 92.1531 55.6493C91.3634 54.0052 90.7439 52.0385 89.8046 48.484C89.7835 48.4039 89.7205 48.1641 89.6399 47.8571L89.6313 47.8245C89.4592 47.1691 89.2128 46.2309 89.1172 45.8712C87.3623 39.2727 85.8338 35.6384 83.6616 34.2864Z" fill="#2B87F8"/>
<mask id="path-22-inside-1_5087_53752" fill="white">
<path d="M0 0H104V12H0V0Z"/>
</mask>
<path d="M0 0H104V12H0V0Z" fill="#2B87F8" fill-opacity="0.25"/>
<path d="M104 12V11H0V12V13H104V12Z" fill="#2B87F8" fill-opacity="0.15" mask="url(#path-22-inside-1_5087_53752)"/>
<rect x="8" y="4" width="8" height="4" rx="1" fill="#2B87F8" fill-opacity="0.55"/>
<rect x="68" y="4" width="8" height="4" rx="1" fill="#2B87F8" fill-opacity="0.55"/>
<rect x="78" y="4" width="8" height="4" rx="1" fill="#2B87F8" fill-opacity="0.55"/>
<rect x="88" y="4" width="8" height="4" rx="1" fill="#2B87F8" fill-opacity="0.55"/>
</g>
<defs>
<clipPath id="clip0_5087_53752">
<path d="M0 4C0 1.79086 1.79086 0 4 0H100C102.209 0 104 1.79086 104 4V180C104 182.209 102.209 184 100 184H4C1.79086 184 0 182.209 0 180V4Z" fill="white"/>
</clipPath>
<clipPath id="clip1_5087_53752">
<path d="M8 100C8 97.7909 9.79086 96 12 96H92C94.2091 96 96 97.7909 96 100V168C96 170.209 94.2091 172 92 172H12C9.79086 172 8 170.209 8 168V100Z" fill="white"/>
</clipPath>
</defs>
</svg>
