<svg width="184" height="184" viewBox="0 0 184 184" fill="none" xmlns="http://www.w3.org/2000/svg">
<g clip-path="url(#clip0_5087_53706)">
<path d="M0 4C0 1.79086 1.79086 0 4 0H180C182.209 0 184 1.79086 184 4V180C184 182.209 182.209 184 180 184H4C1.79086 184 0 182.209 0 180V4Z" fill="#F0F7FE"/>
<path d="M4 0.5H180C181.933 0.5 183.5 2.067 183.5 4V180C183.5 181.933 181.933 183.5 180 183.5H4C2.067 183.5 0.5 181.933 0.5 180V4C0.5 2.067 2.067 0.5 4 0.5Z" stroke="#2B87F8" stroke-opacity="0.1"/>
<g clip-path="url(#clip1_5087_53706)">
<path d="M172 128H12V148H172V128Z" fill="#2B87F8" fill-opacity="0.4"/>
<path d="M18 138C18 136.895 18.8954 136 20 136H44C45.1046 136 46 136.895 46 138V138C46 139.105 45.1046 140 44 140H20C18.8954 140 18 139.105 18 138V138Z" fill="#2B87F8" fill-opacity="0.55"/>
<path d="M172 148H12V164H172V148Z" fill="white"/>
<path d="M18 156C18 154.895 18.8954 154 20 154H36C37.1046 154 38 154.895 38 156V156C38 157.105 37.1046 158 36 158H20C18.8954 158 18 157.105 18 156V156Z" fill="#2B87F8" fill-opacity="0.25"/>
<path d="M172 164H12V180H172V164Z" fill="#2B87F8" fill-opacity="0.15"/>
<path d="M18 172C18 170.895 18.8954 170 20 170H44C45.1046 170 46 170.895 46 172V172C46 173.105 45.1046 174 44 174H20C18.8954 174 18 173.105 18 172V172Z" fill="#2B87F8" fill-opacity="0.25"/>
<path d="M92 128H52V260H92V128Z" fill="#2B87F8" fill-opacity="0.15"/>
<path d="M172 128H132V260H172V128Z" fill="#2B87F8" fill-opacity="0.15"/>
</g>
<path d="M16 128.5H168C169.933 128.5 171.5 130.067 171.5 132V168C171.5 169.933 169.933 171.5 168 171.5H16C14.067 171.5 12.5 169.933 12.5 168V132C12.5 130.067 14.067 128.5 16 128.5Z" stroke="#2B87F8" stroke-opacity="0.15"/>
<path d="M14 24.5H170C170.828 24.5 171.5 25.1716 171.5 26V118C171.5 118.828 170.828 119.5 170 119.5H14C13.1716 119.5 12.5 118.828 12.5 118V26C12.5 25.2233 13.0903 24.5846 13.8467 24.5078L14 24.5Z" stroke="#2B87F8" stroke-opacity="0.15"/>
<path d="M145 35H146V120H145V35Z" fill="#2B87F8" fill-opacity="0.15"/>
<path d="M98 95H99V120H98V95Z" fill="#2B87F8" fill-opacity="0.15"/>
<path d="M53 65H52V120H53V65Z" fill="#2B87F8" fill-opacity="0.15"/>
<path d="M12 110V108C13.9098 108 15.8739 106.479 18.172 103.288C19.3411 101.664 20.5385 99.7135 22.2053 96.7849C22.5141 96.2423 22.8308 95.6812 23.2646 94.9095C23.3878 94.6903 23.5335 94.431 23.805 93.9477C24.0246 93.5567 24.1902 93.2624 24.3532 92.973C25.2527 91.3767 25.9422 90.1729 26.6386 88.992C34.5364 75.6001 41.7007 69 52 69C61.8026 69 67.3543 70.851 76.4627 75.8745C76.5807 75.9395 77.2838 76.3277 77.4868 76.4396C85.6443 80.9357 90.358 82.5261 98.4968 82.5C106.885 82.4731 112.96 77.5399 122.86 65.1265C123.274 64.6082 124.981 62.4581 125.42 61.9077C126.41 60.6674 127.202 59.6893 127.967 58.769C134.669 50.7082 139.619 47 145.5 47C149.758 47 153.081 49.5536 155.783 54.3024C157.831 57.9015 159.36 62.2338 161.4 69.4789C161.661 70.4055 162.531 73.541 162.651 73.969C166.004 85.9527 168.317 90.5 172 90.5V92.5C169.115 92.5 166.876 90.5002 164.978 86.7686C163.551 83.9624 162.429 80.5964 160.725 74.5079C160.604 74.0765 159.735 70.9432 159.475 70.0211C155.29 55.1616 151.785 49 145.5 49C140.412 49 135.848 52.4184 129.505 60.0476C128.75 60.956 127.965 61.9244 126.983 63.1551C126.546 63.703 124.839 65.8529 124.424 66.3736C119.617 72.4005 116.544 75.8103 112.973 78.7105C108.319 82.4904 103.62 84.4836 98.5032 84.5C89.9611 84.5274 84.9497 82.8365 76.5214 78.1912C76.3176 78.0789 75.6142 77.6905 75.4968 77.6258C66.6578 72.7509 61.4064 71 52 71C42.6327 71 35.9291 77.1757 28.3614 90.008C27.6728 91.1755 26.9892 92.369 26.0956 93.9548C25.9331 94.2433 25.7679 94.537 25.5486 94.9273C25.2773 95.4103 25.1314 95.67 25.008 95.8895C24.5727 96.6641 24.2544 97.2279 23.9435 97.7741C22.2441 100.76 21.0158 102.761 19.795 104.457C17.1557 108.122 14.7299 110 12 110Z" fill="#2B87F8" fill-opacity="0.25"/>
<path d="M149.566 39.4296C148.844 40.9494 147.295 42 145.5 42C143.84 42 142.389 41.1006 141.609 39.7625C138.007 42.1144 134.28 47.8102 129.619 57.3301C128.87 58.8599 128.093 60.4884 127.12 62.5588C126.9 63.025 126.35 64.2004 125.81 65.3545L125.802 65.3708C125.291 66.4614 124.791 67.5298 124.589 67.959C119.807 78.132 116.757 83.874 113.213 88.7506C109.902 93.3083 106.548 96.3427 102.995 97.7193C102.88 100.103 100.912 102 98.5 102C96.1835 102 94.2758 100.25 94.0274 97.9994C91.0024 97.2026 88.236 95.5742 85.5938 93.1593C82.6216 90.4428 80.3033 87.4128 76.214 81.333C76.0859 81.1426 75.7562 80.6517 75.5064 80.2799L75.2119 79.8415C70.8797 73.3966 68.4822 70.2725 65.3558 67.4567C62.6938 65.0589 59.9139 63.4386 56.8592 62.621C56.3611 64.5639 54.5982 66 52.5 66C50.3522 66 48.5559 64.4953 48.1076 62.4826C40.7335 64.3834 34.8771 71.9184 28.4018 85.4321C27.7123 86.8711 27.028 88.3416 26.1337 90.295C25.971 90.6502 25.8058 91.0117 25.5865 91.4922L25.0459 92.6764C24.6108 93.6292 24.2927 94.3227 23.982 94.9945C22.2864 98.6613 21.0618 101.117 19.8466 103.194C17.2109 107.699 14.7961 110 12 110V108C13.8436 108 15.8188 106.118 18.1203 102.184C19.2951 100.176 20.4961 97.7677 22.1667 94.155C22.4758 93.4867 22.7927 92.7957 23.2267 91.8455L23.7671 90.6617C23.9867 90.1806 24.1522 89.8184 24.3152 89.4624C25.214 87.4993 25.9027 86.0193 26.5982 84.5679C30.1584 77.1379 33.2708 71.8898 36.8438 67.8386C40.2951 63.9253 44.0162 61.4075 48.1247 60.4437C48.5999 58.4681 50.3785 57 52.5 57C54.6657 57 56.4741 58.5299 56.9033 60.5679C60.4595 61.4255 63.6692 63.2459 66.6943 65.9706C69.9824 68.9322 72.4492 72.1464 76.8718 78.7258L77.1699 79.1695C77.4193 79.5408 77.7463 80.0277 77.8735 80.2168C81.8754 86.1665 84.1265 89.1087 86.9431 91.6831C89.2718 93.8115 91.6659 95.2511 94.2602 95.9885C94.8812 94.2467 96.545 93 98.5 93C100.347 93 101.934 94.1124 102.627 95.7036C105.65 94.4154 108.604 91.6922 111.595 87.575C115.041 82.833 118.05 77.1692 122.779 67.1082C122.977 66.6862 123.466 65.6426 123.969 64.5683L124.009 64.484C124.546 63.3368 125.091 62.1723 125.31 61.7078C126.287 59.6287 127.069 57.9914 127.823 56.4507C132.816 46.2506 136.8 40.1928 141.007 37.7538C141.002 37.6698 141 37.5852 141 37.5C141 35.0147 143.015 33 145.5 33C147.978 33 149.989 35.0033 150 37.4789C152.192 38.5085 154.087 40.3358 155.752 42.8917C157.81 46.0519 159.344 49.849 161.389 56.1932C161.566 56.7413 162.022 58.173 162.335 59.1571L162.337 59.1622C162.485 59.6298 162.602 59.9956 162.64 60.1159C165.994 70.585 168.273 74.5 172 74.5V76.5C169.157 76.5 166.912 74.7486 165.006 71.474C163.57 69.0078 162.444 66.0577 160.736 60.726C160.697 60.6058 160.583 60.2461 160.436 59.7856L160.421 59.7368C160.108 58.7536 159.66 57.3464 159.486 56.8068C156.295 46.9091 153.516 41.4576 149.566 39.4296Z" fill="#2B87F8"/>
<mask id="path-19-inside-1_5087_53706" fill="white">
<path d="M0 0H184V12H0V0Z"/>
</mask>
<path d="M0 0H184V12H0V0Z" fill="#2B87F8" fill-opacity="0.25"/>
<path d="M184 12V11H0V12V13H184V12Z" fill="#2B87F8" fill-opacity="0.15" mask="url(#path-19-inside-1_5087_53706)"/>
<rect x="12" y="4" width="8" height="4" rx="1" fill="#2B87F8" fill-opacity="0.55"/>
<rect x="144" y="4" width="8" height="4" rx="1" fill="#2B87F8" fill-opacity="0.55"/>
<rect x="154" y="4" width="8" height="4" rx="1" fill="#2B87F8" fill-opacity="0.55"/>
<rect x="164" y="4" width="8" height="4" rx="1" fill="#2B87F8" fill-opacity="0.55"/>
</g>
<defs>
<clipPath id="clip0_5087_53706">
<rect width="184" height="184" rx="4" fill="white"/>
</clipPath>
<clipPath id="clip1_5087_53706">
<path d="M12 132C12 129.791 13.7909 128 16 128H168C170.209 128 172 129.791 172 132V168C172 170.209 170.209 172 168 172H16C13.7909 172 12 170.209 12 168V132Z" fill="white"/>
</clipPath>
</defs>
</svg>
