<svg width="184" height="184" viewBox="0 0 184 184" fill="none" xmlns="http://www.w3.org/2000/svg">
<g clip-path="url(#clip0_5087_53777)">
<path d="M0 4C0 1.79086 1.79086 0 4 0H180C182.209 0 184 1.79086 184 4V180C184 182.209 182.209 184 180 184H4C1.79086 184 0 182.209 0 180V4Z" fill="#F0F7FE"/>
<path d="M4 0.5H180C181.933 0.5 183.5 2.067 183.5 4V180C183.5 181.933 181.933 183.5 180 183.5H4C2.067 183.5 0.5 181.933 0.5 180V4C0.5 2.067 2.067 0.5 4 0.5Z" stroke="#2B87F8" stroke-opacity="0.1"/>
<path d="M14 24.5H170C170.828 24.5 171.5 25.1716 171.5 26V94C171.5 94.8284 170.828 95.5 170 95.5H14C13.1716 95.5 12.5 94.8284 12.5 94V26C12.5 25.2233 13.0903 24.5846 13.8467 24.5078L14 24.5Z" stroke="#2B87F8" stroke-opacity="0.15"/>
<path d="M145 32.25H146V96H145V32.25Z" fill="#2B87F8" fill-opacity="0.15"/>
<path d="M98 77.25H99V96H98V77.25Z" fill="#2B87F8" fill-opacity="0.15"/>
<path d="M53 54.75H52V96H53V54.75Z" fill="#2B87F8" fill-opacity="0.15"/>
<path d="M12 88.5V87C13.9098 87 15.8739 85.8596 18.172 83.466C19.3411 82.2482 20.5385 80.7851 22.2053 78.5886C22.5141 78.1817 22.8308 77.7609 23.2646 77.1821C23.3878 77.0177 23.5335 76.8232 23.805 76.4608C24.0246 76.1675 24.1902 75.9468 24.3532 75.7297C25.2527 74.5325 25.9422 73.6297 26.6386 72.744C34.5364 62.7001 41.7007 57.75 52 57.75C61.8026 57.75 67.3543 59.1383 76.4627 62.9059C76.5807 62.9547 77.2838 63.2458 77.4868 63.3297C85.6443 66.7017 90.358 67.8946 98.4968 67.875C106.885 67.8548 112.96 64.155 122.86 54.8449C123.274 54.4562 124.981 52.8436 125.42 52.4308C126.41 51.5005 127.202 50.767 127.967 50.0767C134.669 44.0311 139.619 41.25 145.5 41.25C149.758 41.25 153.081 43.1652 155.783 46.7268C157.831 49.4261 159.36 52.6753 161.4 58.1092C161.661 58.8041 162.531 61.1558 162.651 61.4767C166.004 70.4645 168.317 73.875 172 73.875V75.375C169.115 75.375 166.876 73.8751 164.978 71.0765C163.551 68.9718 162.429 66.4473 160.725 61.8809C160.604 61.5574 159.735 59.2074 159.475 58.5158C155.29 47.3712 151.785 42.75 145.5 42.75C140.412 42.75 135.848 45.3138 129.505 51.0357C128.75 51.717 127.965 52.4433 126.983 53.3663C126.546 53.7772 124.839 55.3897 124.424 55.7802C119.617 60.3003 116.544 62.8577 112.973 65.0329C108.319 67.8678 103.62 69.3627 98.5032 69.375C89.9611 69.3956 84.9497 68.1273 76.5214 64.6434C76.3176 64.5592 75.6142 64.2679 75.4968 64.2193C66.6578 60.5632 61.4064 59.25 52 59.25C42.6327 59.25 35.9291 63.8818 28.3614 73.506C27.6728 74.3816 26.9892 75.2768 26.0956 76.4661C25.9331 76.6825 25.7679 76.9028 25.5486 77.1955C25.2773 77.5577 25.1314 77.7525 25.008 77.9171C24.5727 78.4981 24.2544 78.9209 23.9435 79.3306C22.2441 81.57 21.0158 83.0709 19.795 84.3425C17.1557 87.0914 14.7299 88.5 12 88.5Z" fill="#2B87F8" fill-opacity="0.25"/>
<path d="M149.566 35.5722C148.844 36.712 147.295 37.5 145.5 37.5C143.84 37.5 142.389 36.8255 141.609 35.8218C138.007 37.5858 134.28 41.8576 129.619 48.9976C128.87 50.1449 128.093 51.3663 127.12 52.9191C126.9 53.2688 126.35 54.1503 125.81 55.0158L125.802 55.0281C125.291 55.846 124.791 56.6474 124.589 56.9693C119.807 64.599 116.757 68.9055 113.213 72.563C109.902 75.9812 106.548 78.257 102.995 79.2895C102.88 81.077 100.912 82.5 98.5 82.5C96.1835 82.5 94.2758 81.1872 94.0274 79.4995C91.0024 78.9019 88.236 77.6807 85.5938 75.8695C82.6216 73.8321 80.3033 71.5596 76.214 66.9998C76.0859 66.857 75.7562 66.4888 75.5064 66.2099L75.2119 65.8811C70.8797 61.0474 68.4822 58.7044 65.3558 56.5925C62.6938 54.7942 59.9139 53.5789 56.8592 52.9658C56.3611 54.4229 54.5982 55.5 52.5 55.5C50.3522 55.5 48.5559 54.3715 48.1076 52.862C40.7335 54.2875 34.8771 59.9388 28.4018 70.0741C27.7123 71.1533 27.028 72.2562 26.1337 73.7212C25.971 73.9876 25.8058 74.2588 25.5865 74.6191L25.0459 75.5073C24.6108 76.2219 24.2927 76.742 23.982 77.2459C22.2864 79.9959 21.0618 81.8377 19.8466 83.3954C17.2109 86.7743 14.7961 88.5 12 88.5V87C13.8436 87 15.8188 85.5885 18.1203 82.638C19.2951 81.132 20.4961 79.3258 22.1667 76.6163C22.4758 76.115 22.7927 75.5968 23.2267 74.8841L23.7671 73.9963C23.9867 73.6354 24.1522 73.3638 24.3152 73.0968C25.214 71.6245 25.9027 70.5144 26.5982 69.4259C30.1584 63.8534 33.2708 59.9173 36.8438 56.8789C40.2951 53.9439 44.0162 52.0556 48.1247 51.3328C48.5999 49.851 50.3785 48.75 52.5 48.75C54.6657 48.75 56.4741 49.8974 56.9033 51.4259C60.4595 52.0691 63.6692 53.4344 66.6943 55.4779C69.9824 57.6991 72.4492 60.1098 76.8718 65.0443L77.1699 65.3771C77.4193 65.6556 77.7463 66.0208 77.8735 66.1626C81.8754 70.6248 84.1265 72.8315 86.9431 74.7623C89.2718 76.3586 91.6659 77.4383 94.2602 77.9913C94.8812 76.685 96.545 75.75 98.5 75.75C100.347 75.75 101.934 76.5843 102.627 77.7777C105.65 76.8116 108.604 74.7692 111.595 71.6812C115.041 68.1248 118.05 63.8769 122.779 56.3312C122.977 56.0146 123.466 55.2319 123.969 54.4262L124.009 54.363C124.546 53.5026 125.091 52.6292 125.31 52.2808C126.287 50.7215 127.069 49.4936 127.823 48.3381C132.816 40.688 136.8 36.1446 141.007 34.3153C141.002 34.2523 141 34.1889 141 34.125C141 32.261 143.015 30.75 145.5 30.75C147.978 30.75 149.989 32.2525 150 34.1092C152.192 34.8814 154.087 36.2518 155.752 38.1688C157.81 40.539 159.344 43.3867 161.389 48.1449C161.566 48.5559 162.022 49.6297 162.335 50.3678L162.337 50.3716C162.485 50.7224 162.602 50.9967 162.64 51.0869C165.994 58.9387 168.273 61.875 172 61.875V63.375C169.157 63.375 166.912 62.0614 165.006 59.6055C163.57 57.7558 162.444 55.5433 160.736 51.5445C160.697 51.4543 160.583 51.1846 160.436 50.8392L160.421 50.8026C160.108 50.0652 159.66 49.0098 159.486 48.6051C156.295 41.1818 153.516 37.0932 149.566 35.5722Z" fill="#2B87F8"/>
<g clip-path="url(#clip1_5087_53777)">
<mask id="path-9-inside-1_5087_53777" fill="white">
<path d="M82 140C82 157.673 67.6731 172 50 172C32.3269 172 18 157.673 18 140C18 122.327 32.3269 108 50 108C67.6731 108 82 122.327 82 140ZM26.64 140C26.64 152.901 37.0986 163.36 50 163.36C62.9014 163.36 73.36 152.901 73.36 140C73.36 127.099 62.9014 116.64 50 116.64C37.0986 116.64 26.64 127.099 26.64 140Z"/>
</mask>
<path d="M82 140C82 157.673 67.6731 172 50 172C32.3269 172 18 157.673 18 140C18 122.327 32.3269 108 50 108C67.6731 108 82 122.327 82 140ZM26.64 140C26.64 152.901 37.0986 163.36 50 163.36C62.9014 163.36 73.36 152.901 73.36 140C73.36 127.099 62.9014 116.64 50 116.64C37.0986 116.64 26.64 127.099 26.64 140Z" fill="#2B87F8" fill-opacity="0.15" stroke="#2B87F8" stroke-opacity="0.15" stroke-width="2" mask="url(#path-9-inside-1_5087_53777)"/>
<path d="M75.2163 120.299C71.3198 115.312 66.0319 111.592 60.0212 109.61C54.0106 107.628 47.5472 107.472 41.4484 109.164C35.3496 110.855 29.8892 114.317 25.7579 119.112C21.6266 123.906 19.0098 129.818 18.2385 136.1L26.8141 137.153C27.3772 132.567 29.2874 128.252 32.3033 124.752C35.3191 121.251 39.3052 118.724 43.7573 117.49C48.2095 116.255 52.9277 116.368 57.3155 117.815C61.7033 119.262 65.5635 121.977 68.4079 125.618L75.2163 120.299Z" fill="#2B87F8" fill-opacity="0.4"/>
<path d="M51.1361 171.98C57.032 171.77 62.7552 169.935 67.6734 166.677C72.5916 163.418 76.5133 158.864 79.0052 153.517C81.4972 148.169 82.4623 142.237 81.794 136.375C81.1258 130.514 78.8501 124.951 75.2184 120.301L68.4094 125.62C71.0605 129.014 72.7218 133.075 73.2096 137.354C73.6975 141.633 72.9929 145.963 71.1738 149.867C69.3547 153.771 66.4919 157.095 62.9016 159.474C59.3113 161.853 55.1333 163.192 50.8294 163.345L51.1361 171.98Z" fill="#2B87F8" fill-opacity="0.25"/>
<path fill-rule="evenodd" clip-rule="evenodd" d="M55.5405 142.941V143.547C55.5405 144.017 55.6395 144.453 55.8375 144.852C56.0393 145.252 56.3344 145.573 56.7229 145.816C57.1115 146.059 57.5897 146.181 58.1576 146.181C58.7217 146.181 59.1999 146.059 59.5922 145.816C59.9845 145.573 60.2815 145.252 60.4832 144.852C60.685 144.453 60.7858 144.017 60.7858 143.547V142.941C60.7858 142.463 60.685 142.026 60.4832 141.63C60.2852 141.23 59.9901 140.911 59.5978 140.672C59.2092 140.429 58.7292 140.308 58.1576 140.308C57.5972 140.308 57.1227 140.429 56.7342 140.672C56.3456 140.915 56.0486 141.236 55.8431 141.636C55.6414 142.036 55.5405 142.471 55.5405 142.941ZM57.3282 143.547V142.941C57.3282 142.691 57.3879 142.456 57.5075 142.235C57.6271 142.011 57.8437 141.899 58.1576 141.899C58.4938 141.899 58.7142 142.011 58.8188 142.235C58.9272 142.456 58.9813 142.691 58.9813 142.941V143.547C58.9813 143.797 58.9253 144.031 58.8132 144.247C58.7012 144.46 58.4826 144.567 58.1576 144.567C57.84 144.567 57.6214 144.456 57.5019 144.236C57.3861 144.016 57.3282 143.786 57.3282 143.547Z" fill="#2B87F8"/>
<path fill-rule="evenodd" clip-rule="evenodd" d="M49.5891 136.374V136.979C49.5891 137.45 49.6881 137.883 49.8861 138.279C50.0878 138.675 50.383 138.993 50.7715 139.232C51.1638 139.471 51.642 139.59 52.2061 139.59C52.7703 139.59 53.2485 139.473 53.6407 139.237C54.033 139.002 54.33 138.686 54.5318 138.29C54.7373 137.894 54.84 137.457 54.84 136.979V136.374C54.84 135.895 54.7391 135.458 54.5374 135.062C54.3356 134.663 54.0386 134.343 53.6464 134.104C53.2578 133.861 52.7777 133.74 52.2061 133.74C51.6532 133.74 51.1825 133.861 50.7939 134.104C50.4054 134.343 50.1065 134.663 49.8973 135.062C49.6918 135.458 49.5891 135.895 49.5891 136.374ZM51.3936 136.979V136.374C51.3936 136.135 51.4496 135.901 51.5617 135.673C51.6775 135.445 51.8923 135.331 52.2061 135.331C52.5461 135.331 52.7684 135.443 52.873 135.668C52.9776 135.888 53.0299 136.123 53.0299 136.374V136.979C53.0299 137.229 52.9739 137.463 52.8618 137.679C52.7535 137.892 52.5349 137.999 52.2061 137.999C51.8998 137.999 51.6868 137.892 51.5673 137.679C51.4515 137.463 51.3936 137.229 51.3936 136.979Z" fill="#2B87F8"/>
<path d="M58.3257 134.222L50.4353 145.699H51.9652L59.8556 134.222H58.3257Z" fill="#2B87F8"/>
<path fill-rule="evenodd" clip-rule="evenodd" d="M43.6139 142.964L43.1653 145.699H45.1827L45.6314 142.964H47.1497L47.4915 140.947H45.9624L46.286 138.974H47.8054L48.1472 136.957H46.617L47.0656 134.222H45.0482L44.5995 136.957H42.5821L43.0308 134.222H41.0133L40.5647 136.957H39.0463L38.7045 138.974H40.2337L39.9101 140.947H38.3907L38.0488 142.964H39.5791L39.1304 145.699H41.1478L41.5965 142.964H43.6139ZM43.9449 140.947L44.2686 138.974H42.2511L41.9275 140.947H43.9449Z" fill="#2B87F8"/>
</g>
<mask id="path-13-inside-2_5087_53777" fill="white">
<path d="M162.755 125.959C165.805 132.204 166.738 139.273 165.414 146.096C164.09 152.92 160.58 159.126 155.416 163.778C150.251 168.429 143.712 171.273 136.788 171.878C129.864 172.484 122.931 170.819 117.038 167.134C111.144 163.45 106.61 157.947 104.121 151.457C101.633 144.968 101.325 137.844 103.244 131.164C105.163 124.484 109.205 118.61 114.759 114.431C120.313 110.252 127.076 107.994 134.027 108L134 140L162.755 125.959Z"/>
</mask>
<path d="M162.755 125.959C165.805 132.204 166.738 139.273 165.414 146.096C164.09 152.92 160.58 159.126 155.416 163.778C150.251 168.429 143.712 171.273 136.788 171.878C129.864 172.484 122.931 170.819 117.038 167.134C111.144 163.45 106.61 157.947 104.121 151.457C101.633 144.968 101.325 137.844 103.244 131.164C105.163 124.484 109.205 118.61 114.759 114.431C120.313 110.252 127.076 107.994 134.027 108L134 140L162.755 125.959Z" fill="#2B87F8" fill-opacity="0.15" stroke="#2B87F8" stroke-opacity="0.15" stroke-width="2" mask="url(#path-13-inside-2_5087_53777)"/>
<path d="M136.667 135.556L136.693 103.556C149.304 103.566 160.208 110.871 165.413 121.479L165.422 121.514L136.667 135.556Z" fill="#2B87F8"/>
<mask id="path-15-inside-3_5087_53777" fill="white">
<path d="M0 0H184V12H0V0Z"/>
</mask>
<path d="M0 0H184V12H0V0Z" fill="#2B87F8" fill-opacity="0.25"/>
<path d="M184 12V11H0V12V13H184V12Z" fill="#2B87F8" fill-opacity="0.15" mask="url(#path-15-inside-3_5087_53777)"/>
<rect x="12" y="4" width="8" height="4" rx="1" fill="#2B87F8" fill-opacity="0.55"/>
<rect x="144" y="4" width="8" height="4" rx="1" fill="#2B87F8" fill-opacity="0.55"/>
<rect x="154" y="4" width="8" height="4" rx="1" fill="#2B87F8" fill-opacity="0.55"/>
<rect x="164" y="4" width="8" height="4" rx="1" fill="#2B87F8" fill-opacity="0.55"/>
</g>
<defs>
<clipPath id="clip0_5087_53777">
<rect width="184" height="184" rx="4" fill="white"/>
</clipPath>
<clipPath id="clip1_5087_53777">
<rect width="64" height="64" fill="white" transform="translate(18 108)"/>
</clipPath>
</defs>
</svg>
