<svg width="104" height="184" viewBox="0 0 104 184" fill="none" xmlns="http://www.w3.org/2000/svg">
<g clip-path="url(#clip0_5087_53821)">
<path d="M0 4C0 1.79086 1.79086 0 4 0H100C102.209 0 104 1.79086 104 4V180C104 182.209 102.209 184 100 184H4C1.79086 184 0 182.209 0 180V4Z" fill="#F0F7FE"/>
<path d="M4 0.5H100C101.933 0.500002 103.5 2.067 103.5 4V180C103.5 181.933 101.933 183.5 100 183.5H4C2.067 183.5 0.5 181.933 0.5 180V4C0.5 2.067 2.067 0.5 4 0.5Z" stroke="#2B87F8" stroke-opacity="0.1"/>
<path d="M56 138C56 136.895 56.8954 136 58 136H94C95.1046 136 96 136.895 96 138V138C96 139.105 95.1046 140 94 140H58C56.8954 140 56 139.105 56 138V138Z" fill="#2B87F8" fill-opacity="0.55"/>
<path d="M56 146C56 144.895 56.8954 144 58 144H94C95.1046 144 96 144.895 96 146V146C96 147.105 95.1046 148 94 148H58C56.8954 148 56 147.105 56 146V146Z" fill="#2B87F8" fill-opacity="0.25"/>
<path d="M56 154C56 152.895 56.8954 152 58 152H94C95.1046 152 96 152.895 96 154V154C96 155.105 95.1046 156 94 156H58C56.8954 156 56 155.105 56 154V154Z" fill="#2B87F8" fill-opacity="0.25"/>
<path d="M56 162C56 160.895 56.8954 160 58 160H94C95.1046 160 96 160.895 96 162V162C96 163.105 95.1046 164 94 164H58C56.8954 164 56 163.105 56 162V162Z" fill="#2B87F8" fill-opacity="0.25"/>
<path d="M64 170C64 168.895 64.8954 168 66 168H86C87.1046 168 88 168.895 88 170V170C88 171.105 87.1046 172 86 172H66C64.8954 172 64 171.105 64 170V170Z" fill="#2B87F8" fill-opacity="0.25"/>
<path d="M8 138C8 136.895 8.89543 136 10 136H46C47.1046 136 48 136.895 48 138V138C48 139.105 47.1046 140 46 140H10C8.89543 140 8 139.105 8 138V138Z" fill="#2B87F8" fill-opacity="0.55"/>
<path d="M8 146C8 144.895 8.89543 144 10 144H46C47.1046 144 48 144.895 48 146V146C48 147.105 47.1046 148 46 148H10C8.89543 148 8 147.105 8 146V146Z" fill="#2B87F8" fill-opacity="0.25"/>
<path d="M8 154C8 152.895 8.89543 152 10 152H46C47.1046 152 48 152.895 48 154V154C48 155.105 47.1046 156 46 156H10C8.89543 156 8 155.105 8 154V154Z" fill="#2B87F8" fill-opacity="0.25"/>
<path d="M8 162C8 160.895 8.89543 160 10 160H46C47.1046 160 48 160.895 48 162V162C48 163.105 47.1046 164 46 164H10C8.89543 164 8 163.105 8 162V162Z" fill="#2B87F8" fill-opacity="0.25"/>
<path d="M16 170C16 168.895 16.8954 168 18 168H38C39.1046 168 40 168.895 40 170V170C40 171.105 39.1046 172 38 172H18C16.8954 172 16 171.105 16 170V170Z" fill="#2B87F8" fill-opacity="0.25"/>
<mask id="path-14-inside-1_5087_53821" fill="white">
<path d="M93.9718 95.2242C95.8779 99.1277 96.4613 103.546 95.6337 107.81C94.8061 112.075 92.6126 115.954 89.3847 118.861C86.1569 121.768 82.0702 123.545 77.7427 123.924C73.4152 124.302 69.0821 123.262 65.3985 120.959C61.715 118.656 58.8813 115.217 57.3259 111.161C55.7706 107.105 55.5781 102.653 56.7776 98.4775C57.9771 94.3024 60.5033 90.6312 63.9744 88.0192C67.4454 85.4073 71.6726 83.9964 76.0166 84L76 104L93.9718 95.2242Z"/>
</mask>
<path d="M93.9718 95.2242C95.8779 99.1277 96.4613 103.546 95.6337 107.81C94.8061 112.075 92.6126 115.954 89.3847 118.861C86.1569 121.768 82.0702 123.545 77.7427 123.924C73.4152 124.302 69.0821 123.262 65.3985 120.959C61.715 118.656 58.8813 115.217 57.3259 111.161C55.7706 107.105 55.5781 102.653 56.7776 98.4775C57.9771 94.3024 60.5033 90.6312 63.9744 88.0192C67.4454 85.4073 71.6726 83.9964 76.0166 84L76 104L93.9718 95.2242Z" fill="#2B87F8" fill-opacity="0.15" stroke="#2B87F8" stroke-opacity="0.15" stroke-width="2" mask="url(#path-14-inside-1_5087_53821)"/>
<path d="M77.6667 101.222L77.6834 81.2222C85.5653 81.2286 92.3802 85.7945 95.6329 92.4247L95.6385 92.4464L77.6667 101.222Z" fill="#2B87F8"/>
<g clip-path="url(#clip1_5087_53821)">
<mask id="path-16-inside-2_5087_53821" fill="white">
<path d="M48 104C48 115.046 39.0457 124 28 124C16.9543 124 8 115.046 8 104C8 92.9543 16.9543 84 28 84C39.0457 84 48 92.9543 48 104ZM13.4 104C13.4 112.063 19.9366 118.6 28 118.6C36.0634 118.6 42.6 112.063 42.6 104C42.6 95.9366 36.0634 89.4 28 89.4C19.9366 89.4 13.4 95.9366 13.4 104Z"/>
</mask>
<path d="M48 104C48 115.046 39.0457 124 28 124C16.9543 124 8 115.046 8 104C8 92.9543 16.9543 84 28 84C39.0457 84 48 92.9543 48 104ZM13.4 104C13.4 112.063 19.9366 118.6 28 118.6C36.0634 118.6 42.6 112.063 42.6 104C42.6 95.9366 36.0634 89.4 28 89.4C19.9366 89.4 13.4 95.9366 13.4 104Z" fill="#2B87F8" fill-opacity="0.15" stroke="#2B87F8" stroke-opacity="0.15" stroke-width="2" mask="url(#path-16-inside-2_5087_53821)"/>
<path d="M43.7602 91.6868C41.3249 88.5697 38.0199 86.2448 34.2633 85.006C30.5066 83.7673 26.467 83.6703 22.6552 84.7274C18.8435 85.7845 15.4308 87.9482 12.8487 90.9448C10.2666 93.9414 8.63115 97.6365 8.14908 101.563L13.5088 102.221C13.8607 99.3546 15.0546 96.6573 16.9396 94.4697C18.8245 92.2822 21.3157 90.7027 24.0983 89.931C26.8809 89.1593 29.8298 89.2301 32.5722 90.1344C35.3146 91.0387 37.7272 92.7359 39.505 95.0113L43.7602 91.6868Z" fill="#2B87F8" fill-opacity="0.4"/>
<path d="M28.7101 123.987C32.395 123.856 35.972 122.709 39.0459 120.673C42.1197 118.637 44.5708 115.79 46.1283 112.448C47.6857 109.106 48.2889 105.398 47.8713 101.734C47.4536 98.071 46.0313 94.5942 43.7615 91.6884L39.5059 95.0125C41.1628 97.1338 42.2011 99.6718 42.506 102.346C42.8109 105.021 42.3706 107.727 41.2336 110.167C40.0967 112.607 38.3074 114.685 36.0635 116.171C33.8196 117.658 31.2083 118.495 28.5184 118.591L28.7101 123.987Z" fill="#2B87F8" fill-opacity="0.25"/>
<path fill-rule="evenodd" clip-rule="evenodd" d="M31.4628 105.838V106.217C31.4628 106.511 31.5247 106.783 31.6484 107.033C31.7745 107.283 31.959 107.483 32.2018 107.635C32.4447 107.787 32.7436 107.863 33.0985 107.863C33.4511 107.863 33.7499 107.787 33.9951 107.635C34.2403 107.483 34.4259 107.283 34.552 107.033C34.6781 106.783 34.7411 106.511 34.7411 106.217V105.838C34.7411 105.54 34.6781 105.266 34.552 105.019C34.4283 104.769 34.2438 104.569 33.9986 104.42C33.7558 104.268 33.4557 104.192 33.0985 104.192C32.7482 104.192 32.4517 104.268 32.2088 104.42C31.966 104.572 31.7804 104.773 31.6519 105.022C31.5259 105.272 31.4628 105.544 31.4628 105.838ZM32.5801 106.217V105.838C32.5801 105.682 32.6175 105.535 32.6922 105.397C32.7669 105.257 32.9023 105.187 33.0985 105.187C33.3086 105.187 33.4464 105.257 33.5118 105.397C33.5795 105.535 33.6133 105.682 33.6133 105.838V106.217C33.6133 106.373 33.5783 106.519 33.5083 106.655C33.4382 106.788 33.3016 106.854 33.0985 106.854C32.9 106.854 32.7634 106.785 32.6887 106.648C32.6163 106.51 32.5801 106.366 32.5801 106.217Z" fill="#2B87F8"/>
<path fill-rule="evenodd" clip-rule="evenodd" d="M27.7432 101.734V102.112C27.7432 102.406 27.805 102.677 27.9288 102.924C28.0549 103.172 28.2394 103.37 28.4822 103.52C28.7274 103.669 29.0262 103.744 29.3788 103.744C29.7314 103.744 30.0303 103.67 30.2755 103.523C30.5206 103.376 30.7063 103.179 30.8324 102.931C30.9608 102.684 31.025 102.411 31.025 102.112V101.734C31.025 101.435 30.962 101.161 30.8359 100.914C30.7098 100.664 30.5241 100.464 30.279 100.315C30.0361 100.163 29.7361 100.087 29.3788 100.087C29.0333 100.087 28.739 100.163 28.4962 100.315C28.2534 100.464 28.0666 100.664 27.9358 100.914C27.8074 101.161 27.7432 101.435 27.7432 101.734ZM28.871 102.112V101.734C28.871 101.584 28.906 101.438 28.976 101.296C29.0484 101.153 29.1827 101.082 29.3788 101.082C29.5913 101.082 29.7302 101.152 29.7956 101.292C29.861 101.43 29.8937 101.577 29.8937 101.734V102.112C29.8937 102.268 29.8587 102.414 29.7886 102.55C29.7209 102.683 29.5843 102.749 29.3788 102.749C29.1874 102.749 29.0543 102.683 28.9795 102.55C28.9072 102.414 28.871 102.268 28.871 102.112Z" fill="#2B87F8"/>
<path d="M33.2036 100.389L28.272 107.562H29.2282L34.1597 100.389H33.2036Z" fill="#2B87F8"/>
<path fill-rule="evenodd" clip-rule="evenodd" d="M24.0087 105.852L23.7283 107.562H24.9892L25.2696 105.852H26.2186L26.4322 104.592H25.4765L25.6787 103.359H26.6284L26.842 102.098H25.8856L26.166 100.389H24.9051L24.6247 102.098H23.3638L23.6442 100.389H22.3833L22.1029 102.098H21.154L20.9403 103.359H21.8961L21.6938 104.592H20.7442L20.5305 105.852H21.4869L21.2065 107.562H22.4674L22.7478 105.852H24.0087ZM24.2156 104.592L24.4178 103.359H23.1569L22.9547 104.592H24.2156Z" fill="#2B87F8"/>
</g>
<path d="M10 24.5H94C94.8284 24.5 95.5 25.1716 95.5 26V70C95.5 70.8284 94.8284 71.5 94 71.5H10C9.17157 71.5 8.5 70.8284 8.5 70V26C8.5 25.1716 9.17157 24.5 10 24.5Z" stroke="#2B87F8" stroke-opacity="0.15"/>
<path d="M81.15 29.5H81.7V72H81.15V29.5Z" fill="#2B87F8" fill-opacity="0.15"/>
<path d="M55.3 59.5H55.85V72H55.3V59.5Z" fill="#2B87F8" fill-opacity="0.15"/>
<path d="M30.55 44.5H30V72H30.55V44.5Z" fill="#2B87F8" fill-opacity="0.15"/>
<path d="M8 67V66C9.05041 66 10.1307 65.2397 11.3946 63.644C12.0376 62.8321 12.6962 61.8568 13.6129 60.3924C13.7827 60.1211 13.9569 59.8406 14.1955 59.4548C14.2633 59.3452 14.3434 59.2155 14.4927 58.9739C14.6135 58.7784 14.7046 58.6312 14.7943 58.4865C15.289 57.6884 15.6682 57.0864 16.0512 56.496C20.395 49.8001 24.3354 46.5 30 46.5C35.3914 46.5 38.4449 47.4255 43.4545 49.9372C43.5194 49.9698 43.9061 50.1639 44.0177 50.2198C48.5044 52.4678 51.0969 53.2631 55.5732 53.25C60.1869 53.2365 63.5277 50.77 68.9732 44.5633C69.2006 44.3041 70.1393 43.2291 70.3809 42.9539C70.9252 42.3337 71.3611 41.8447 71.7819 41.3845C75.468 37.3541 78.1907 35.5 81.425 35.5C83.7671 35.5 85.5948 36.7768 87.0808 39.1512C88.2071 40.9507 89.0479 43.1169 90.17 46.7395C90.3135 47.2027 90.7922 48.7705 90.8581 48.9845C92.7023 54.9763 93.9742 57.25 96 57.25V58.25C94.4135 58.25 93.1819 57.2501 92.1382 55.3843C91.3533 53.9812 90.7358 52.2982 89.7988 49.254C89.7324 49.0383 89.254 47.4716 89.1112 47.0105C86.8097 39.5808 84.8815 36.5 81.425 36.5C78.6264 36.5 76.1164 38.2092 72.6278 42.0238C72.2124 42.478 71.7808 42.9622 71.2407 43.5776C71.0003 43.8515 70.0616 44.9264 69.8332 45.1868C67.1894 48.2002 65.4993 49.9052 63.5353 51.3553C60.9755 53.2452 58.3911 54.2418 55.5768 54.25C50.8786 54.2637 48.1223 53.4182 43.4868 51.0956C43.3747 51.0394 42.9878 50.8452 42.9232 50.8129C38.0618 48.3754 35.1735 47.5 30 47.5C24.848 47.5 21.161 50.5879 16.9988 57.004C16.62 57.5878 16.2441 58.1845 15.7526 58.9774C15.6632 59.1217 15.5723 59.2685 15.4517 59.4637C15.3025 59.7052 15.2223 59.835 15.1544 59.9448C14.915 60.332 14.7399 60.6139 14.5689 60.8871C13.6342 62.38 12.9587 63.3806 12.2872 64.2283C10.8357 66.061 9.50146 67 8 67Z" fill="#2B87F8" fill-opacity="0.25"/>
<path d="M83.6616 31.7148C83.2642 32.4747 82.4121 33 81.425 33C80.5117 33 79.714 32.5503 79.2851 31.8812C77.3039 33.0572 75.2538 35.9051 72.6906 40.6651C72.2787 41.4299 71.8512 42.2442 71.3158 43.2794C71.1952 43.5125 70.8925 44.1002 70.5952 44.6772L70.591 44.6854C70.3101 45.2307 70.0349 45.7649 69.924 45.9795C67.294 51.066 65.6162 53.937 63.6673 56.3753C61.8458 58.6542 60.0012 60.1713 58.0471 60.8596C57.9842 62.0514 56.9015 63 55.575 63C54.3009 63 53.2517 62.1248 53.1151 60.9997C51.4513 60.6013 49.9298 59.7871 48.4766 58.5797C46.8419 57.2214 45.5668 55.7064 43.3177 52.6665C43.2472 52.5713 43.0659 52.3259 42.9285 52.1399L42.7666 51.9207C40.3839 48.6983 39.0652 47.1363 37.3457 45.7283C35.8816 44.5295 34.3526 43.7193 32.6726 43.3105C32.3986 44.282 31.429 45 30.275 45C29.0937 45 28.1057 44.2477 27.8592 43.2413C23.8034 44.1917 20.5824 47.9592 17.021 54.7161C16.6418 55.4355 16.2654 56.1708 15.7735 57.1475C15.6841 57.3251 15.5932 57.5059 15.4726 57.7461L15.1753 58.3382C14.9359 58.8146 14.761 59.1614 14.5901 59.4972C13.6575 61.3306 12.984 62.5584 12.3156 63.597C10.866 65.8495 9.53788 67 8 67V66C9.01399 66 10.1003 65.059 11.3662 63.092C12.0123 62.088 12.6729 60.8839 13.5917 59.0775C13.7617 58.7433 13.936 58.3979 14.1747 57.9227L14.4719 57.3308C14.5927 57.0903 14.6837 56.9092 14.7734 56.7312C15.2677 55.7497 15.6465 55.0096 16.029 54.2839C17.9871 50.5689 19.6989 47.9449 21.6641 45.9193C23.5623 43.9626 25.6089 42.7038 27.8686 42.2219C28.13 41.234 29.1082 40.5 30.275 40.5C31.4661 40.5 32.4607 41.2649 32.6968 42.2839C34.6527 42.7127 36.4181 43.6229 38.0819 44.9853C39.8903 46.4661 41.2471 48.0732 43.6795 51.3629L43.8434 51.5848C43.9806 51.7704 44.1605 52.0139 44.2304 52.1084C46.4314 55.0832 47.6696 56.5544 49.2187 57.8415C50.4995 58.9057 51.8162 59.6255 53.2431 59.9942C53.5846 59.1234 54.4997 58.5 55.575 58.5C56.5907 58.5 57.4635 59.0562 57.8449 59.8518C59.5074 59.2077 61.132 57.8461 62.7774 55.7875C64.6725 53.4165 66.3274 50.5846 68.9285 45.5541C69.0376 45.3431 69.3064 44.8213 69.5831 44.2841L69.6048 44.242C69.9003 43.6684 70.2002 43.0862 70.3203 42.8539C70.858 41.8144 71.2878 40.9957 71.7026 40.2254C74.449 35.1253 76.6401 32.0964 78.9539 30.8769C78.9513 30.8349 78.95 30.7926 78.95 30.75C78.95 29.5074 80.0581 28.5 81.425 28.5C82.788 28.5 83.8937 29.5017 83.9 30.7395C85.1056 31.2543 86.148 32.1679 87.0636 33.4459C88.1957 35.026 89.0393 36.9245 90.1641 40.0966C90.2613 40.3706 90.5119 41.0865 90.6842 41.5786L90.6851 41.5811C90.767 41.8149 90.831 41.9978 90.8522 42.0579C92.6966 47.2925 93.9501 49.25 96 49.25V50.25C94.4363 50.25 93.2016 49.3743 92.1531 47.737C91.3634 46.5039 90.7439 45.0289 89.8046 42.363C89.7835 42.3029 89.7205 42.123 89.6399 41.8928L89.6313 41.8684C89.4592 41.3768 89.2128 40.6732 89.1172 40.4034C87.3623 35.4545 85.8338 32.7288 83.6616 31.7148Z" fill="#2B87F8"/>
<mask id="path-25-inside-3_5087_53821" fill="white">
<path d="M0 0H104V12H0V0Z"/>
</mask>
<path d="M0 0H104V12H0V0Z" fill="#2B87F8" fill-opacity="0.25"/>
<path d="M104 12V11H0V12V13H104V12Z" fill="#2B87F8" fill-opacity="0.15" mask="url(#path-25-inside-3_5087_53821)"/>
<rect x="8" y="4" width="8" height="4" rx="1" fill="#2B87F8" fill-opacity="0.55"/>
<rect x="68" y="4" width="8" height="4" rx="1" fill="#2B87F8" fill-opacity="0.55"/>
<rect x="78" y="4" width="8" height="4" rx="1" fill="#2B87F8" fill-opacity="0.55"/>
<rect x="88" y="4" width="8" height="4" rx="1" fill="#2B87F8" fill-opacity="0.55"/>
</g>
<defs>
<clipPath id="clip0_5087_53821">
<path d="M0 4C0 1.79086 1.79086 0 4 0H100C102.209 0 104 1.79086 104 4V180C104 182.209 102.209 184 100 184H4C1.79086 184 0 182.209 0 180V4Z" fill="white"/>
</clipPath>
<clipPath id="clip1_5087_53821">
<rect width="40" height="40" fill="white" transform="translate(8 84)"/>
</clipPath>
</defs>
</svg>
