<svg width="104" height="184" viewBox="0 0 104 184" fill="none" xmlns="http://www.w3.org/2000/svg">
<g clip-path="url(#clip0_5087_54732)">
<path d="M0 4C0 1.79086 1.79086 0 4 0H100C102.209 0 104 1.79086 104 4V180C104 182.209 102.209 184 100 184H4C1.79086 184 0 182.209 0 180V4Z" fill="#F0F7FE"/>
<path d="M4 0.5H100C101.933 0.500002 103.5 2.067 103.5 4V180C103.5 181.933 101.933 183.5 100 183.5H4C2.067 183.5 0.5 181.933 0.5 180V4C0.5 2.067 2.067 0.5 4 0.5Z" stroke="#2B87F8" stroke-opacity="0.1"/>
<path d="M8 166C8 164.895 8.89543 164 10 164H94C95.1046 164 96 164.895 96 166V174C96 175.105 95.1046 176 94 176H10C8.89543 176 8 175.105 8 174V166Z" fill="#2B87F8" fill-opacity="0.55"/>
<path d="M10 164.5H94C94.8284 164.5 95.5 165.172 95.5 166V174C95.5 174.828 94.8284 175.5 94 175.5H10C9.17157 175.5 8.5 174.828 8.5 174V166L8.50781 165.847C8.58461 165.09 9.22334 164.5 10 164.5Z" stroke="#2B87F8" stroke-opacity="0.15"/>
<path d="M9 150C9 147.239 11.2386 145 14 145V145C16.7614 145 19 147.239 19 150V150C19 152.761 16.7614 155 14 155V155C11.2386 155 9 152.761 9 150V150Z" fill="white"/>
<path d="M14 145.5C16.4853 145.5 18.5 147.515 18.5 150C18.5 152.485 16.4853 154.5 14 154.5C11.5147 154.5 9.5 152.485 9.5 150C9.5 147.515 11.5147 145.5 14 145.5Z" stroke="#2B87F8" stroke-opacity="0.55"/>
<path d="M24 150C24 148.895 24.8954 148 26 148H70C71.1046 148 72 148.895 72 150V150C72 151.105 71.1046 152 70 152H26C24.8954 152 24 151.105 24 150V150Z" fill="#2B87F8" fill-opacity="0.25"/>
<g clip-path="url(#clip1_5087_54732)">
<path d="M24.7693 120C24.7693 118.895 25.6647 118 26.7693 118H56.0001C57.1046 118 58.0001 118.895 58.0001 120V137C58.0001 138.105 57.1046 139 56.0001 139H26.7693C25.6647 139 24.7693 138.105 24.7693 137V120Z" fill="#2B87F8" fill-opacity="0.4"/>
<rect x="24.7693" y="122.5" width="33.2308" height="4.5" fill="#2B87F8" fill-opacity="0.55"/>
</g>
<path d="M26.7693 118.5H55.9998C56.8282 118.5 57.4998 119.172 57.4998 120V137C57.4998 137.828 56.8282 138.5 55.9998 138.5H26.7693C25.9409 138.5 25.2693 137.828 25.2693 137V120C25.2693 119.172 25.9409 118.5 26.7693 118.5Z" stroke="#2B87F8" stroke-opacity="0.15"/>
<g clip-path="url(#clip2_5087_54732)">
<path d="M22 123C22 121.895 22.8954 121 24 121H53.2308C54.3353 121 55.2308 121.895 55.2308 123V140C55.2308 141.105 54.3353 142 53.2308 142H24C22.8954 142 22 141.105 22 140V123Z" fill="#2B87F8"/>
<path d="M24.7693 133.75C24.7693 133.336 25.1567 133 25.6347 133H28.4039C28.8818 133 29.2693 133.336 29.2693 133.75C29.2693 134.164 28.8818 134.5 28.4039 134.5H25.6347C25.1567 134.5 24.7693 134.164 24.7693 133.75Z" fill="white"/>
<path d="M30.6539 133.75C30.6539 133.336 31.0413 133 31.5193 133H34.2885C34.7665 133 35.1539 133.336 35.1539 133.75C35.1539 134.164 34.7665 134.5 34.2885 134.5H31.5193C31.0413 134.5 30.6539 134.164 30.6539 133.75Z" fill="white"/>
<path d="M36.5385 133.75C36.5385 133.336 36.926 133 37.4039 133H40.1731C40.6511 133 41.0385 133.336 41.0385 133.75C41.0385 134.164 40.6511 134.5 40.1731 134.5H37.4039C36.926 134.5 36.5385 134.164 36.5385 133.75Z" fill="white"/>
<path d="M42.4231 133.75C42.4231 133.336 42.8106 133 43.2885 133H46.0577C46.5357 133 46.9231 133.336 46.9231 133.75C46.9231 134.164 46.5357 134.5 46.0577 134.5H43.2885C42.8106 134.5 42.4231 134.164 42.4231 133.75Z" fill="white"/>
<path d="M49.6924 125.385C49.6924 124.62 50.3123 124 51.077 124V124C51.8417 124 52.4616 124.62 52.4616 125.385V125.615C52.4616 126.38 51.8417 127 51.077 127V127C50.3123 127 49.6924 126.38 49.6924 125.615V125.385Z" fill="white"/>
<path d="M51.0772 125.934L50.7167 126.163C50.7006 126.172 50.6849 126.176 50.6695 126.175C50.6541 126.173 50.6405 126.168 50.6288 126.158C50.6171 126.149 50.6083 126.136 50.6024 126.12C50.5966 126.104 50.5958 126.087 50.6002 126.07L50.6947 125.643L50.376 125.356C50.3628 125.344 50.3548 125.329 50.3519 125.313C50.3489 125.297 50.3497 125.281 50.3541 125.265C50.3585 125.25 50.3665 125.237 50.3782 125.227C50.39 125.217 50.4046 125.211 50.4222 125.209L50.8398 125.17L51.0047 124.764C51.012 124.747 51.0223 124.734 51.0354 124.725C51.0486 124.717 51.0625 124.713 51.0772 124.713C51.0919 124.713 51.1058 124.717 51.119 124.725C51.1322 124.734 51.1424 124.747 51.1497 124.764L51.3146 125.172L51.7322 125.209C51.7498 125.211 51.7644 125.217 51.7762 125.228C51.7879 125.239 51.796 125.252 51.8003 125.268C51.8047 125.283 51.8051 125.299 51.8014 125.314C51.7978 125.33 51.7894 125.344 51.7762 125.356L51.4597 125.643L51.5542 126.07C51.5586 126.087 51.5578 126.104 51.552 126.12C51.5461 126.136 51.5373 126.149 51.5256 126.158C51.5139 126.168 51.5003 126.173 51.4849 126.175C51.4695 126.176 51.4538 126.172 51.4377 126.163L51.0772 125.934Z" fill="#2B87F8"/>
</g>
<path d="M14 119.5C16.4853 119.5 18.5 121.515 18.5 124C18.5 126.485 16.4853 128.5 14 128.5C11.5147 128.5 9.5 126.485 9.5 124C9.5 121.515 11.5147 119.5 14 119.5Z" fill="#2B87F8"/>
<path d="M14 119.5C16.4853 119.5 18.5 121.515 18.5 124C18.5 126.485 16.4853 128.5 14 128.5C11.5147 128.5 9.5 126.485 9.5 124C9.5 121.515 11.5147 119.5 14 119.5Z" stroke="#2B87F8"/>
<path d="M14 126C15.1046 126 16 125.105 16 124C16 122.895 15.1046 122 14 122C12.8954 122 12 122.895 12 124C12 125.105 12.8954 126 14 126Z" fill="white"/>
<path d="M8 94C8 92.8954 8.89543 92 10 92H22C23.1046 92 24 92.8954 24 94V94C24 95.1046 23.1046 96 22 96H10C8.89543 96 8 95.1046 8 94V94Z" fill="#2B87F8" fill-opacity="0.55"/>
<path d="M8 100C8 98.8954 8.89543 98 10 98H94C95.1046 98 96 98.8954 96 100V108C96 109.105 95.1046 110 94 110H10C8.89543 110 8 109.105 8 108V100Z" fill="white"/>
<path d="M10 98.5H94C94.8284 98.5 95.5 99.1716 95.5 100V108C95.5 108.828 94.8284 109.5 94 109.5H10C9.17157 109.5 8.5 108.828 8.5 108V100L8.50781 99.8467C8.58461 99.0903 9.22334 98.5 10 98.5Z" stroke="#2B87F8" stroke-opacity="0.55"/>
<path d="M12 104C12 102.895 12.8954 102 14 102H42C43.1046 102 44 102.895 44 104V104C44 105.105 43.1046 106 42 106H14C12.8954 106 12 105.105 12 104V104Z" fill="#2B87F8" fill-opacity="0.25"/>
<path d="M8 68C8 66.8954 8.89543 66 10 66H22C23.1046 66 24 66.8954 24 68V68C24 69.1046 23.1046 70 22 70H10C8.89543 70 8 69.1046 8 68V68Z" fill="#2B87F8" fill-opacity="0.55"/>
<path d="M8 74C8 72.8954 8.89543 72 10 72H94C95.1046 72 96 72.8954 96 74V82C96 83.1046 95.1046 84 94 84H10C8.89543 84 8 83.1046 8 82V74Z" fill="white"/>
<path d="M10 72.5H94C94.8284 72.5 95.5 73.1716 95.5 74V82C95.5 82.8284 94.8284 83.5 94 83.5H10C9.17157 83.5 8.5 82.8284 8.5 82V74L8.50781 73.8467C8.58461 73.0903 9.22334 72.5 10 72.5Z" stroke="#2B87F8" stroke-opacity="0.55"/>
<path d="M52 78C52 76.8954 52.8954 76 54 76H74C75.1046 76 76 76.8954 76 78V78C76 79.1046 75.1046 80 74 80H54C52.8954 80 52 79.1046 52 78V78Z" fill="#2B87F8" fill-opacity="0.25"/>
<path d="M89.7628 78.9625L87.9864 77.1851C87.9618 77.1606 87.9435 77.1341 87.9312 77.1054C87.919 77.0768 87.9128 77.048 87.9128 77.0188C87.9128 76.9605 87.9335 76.9094 87.9747 76.8657C88.016 76.8219 88.0703 76.8 88.1378 76.8H91.8628C91.9303 76.8 91.9847 76.8225 92.026 76.8675C92.0672 76.9125 92.0878 76.965 92.0878 77.025C92.0878 77.0334 92.0633 77.0866 92.0143 77.1847L90.2378 78.9625C90.2045 78.9959 90.167 79.0209 90.1253 79.0375C90.0837 79.0542 90.042 79.0625 90.0003 79.0625C89.9587 79.0625 89.917 79.0542 89.8753 79.0375C89.8337 79.0209 89.7962 78.9959 89.7628 78.9625Z" fill="#2B87F8"/>
<path d="M8 42C8 40.8954 8.89543 40 10 40H22C23.1046 40 24 40.8954 24 42V42C24 43.1046 23.1046 44 22 44H10C8.89543 44 8 43.1046 8 42V42Z" fill="#2B87F8" fill-opacity="0.55"/>
<path d="M8 48C8 46.8954 8.89543 46 10 46H94C95.1046 46 96 46.8954 96 48V56C96 57.1046 95.1046 58 94 58H10C8.89543 58 8 57.1046 8 56V48Z" fill="white"/>
<path d="M10 46.5H94C94.8284 46.5 95.5 47.1716 95.5 48V56C95.5 56.8284 94.8284 57.5 94 57.5H10C9.17157 57.5 8.5 56.8284 8.5 56V48L8.50781 47.8467C8.58461 47.0903 9.22334 46.5 10 46.5Z" stroke="#2B87F8" stroke-opacity="0.55"/>
<path d="M52 52C52 50.8954 52.8954 50 54 50H74C75.1046 50 76 50.8954 76 52V52C76 53.1046 75.1046 54 74 54H54C52.8954 54 52 53.1046 52 52V52Z" fill="#2B87F8" fill-opacity="0.25"/>
<path d="M89.7628 52.9625L87.9864 51.1851C87.9618 51.1606 87.9435 51.1341 87.9312 51.1054C87.919 51.0768 87.9128 51.048 87.9128 51.0188C87.9128 50.9605 87.9335 50.9094 87.9747 50.8657C88.016 50.8219 88.0703 50.8 88.1378 50.8H91.8628C91.9303 50.8 91.9847 50.8225 92.026 50.8675C92.0672 50.9125 92.0878 50.965 92.0878 51.025C92.0878 51.0334 92.0633 51.0866 92.0143 51.1847L90.2378 52.9625C90.2045 52.9959 90.167 53.0209 90.1253 53.0375C90.0837 53.0542 90.042 53.0625 90.0003 53.0625C89.9587 53.0625 89.917 53.0542 89.8753 53.0375C89.8337 53.0209 89.7962 52.9959 89.7628 52.9625Z" fill="#2B87F8"/>
<path d="M28 28C28 25.7909 29.7909 24 32 24H72C74.2091 24 76 25.7909 76 28V28C76 30.2091 74.2091 32 72 32H32C29.7909 32 28 30.2091 28 28V28Z" fill="#2B87F8" fill-opacity="0.55"/>
<mask id="path-33-inside-1_5087_54732" fill="white">
<path d="M0 0H104V12H0V0Z"/>
</mask>
<path d="M0 0H104V12H0V0Z" fill="#2B87F8" fill-opacity="0.25"/>
<path d="M104 12V11H0V12V13H104V12Z" fill="#2B87F8" fill-opacity="0.15" mask="url(#path-33-inside-1_5087_54732)"/>
<rect x="8" y="4" width="8" height="4" rx="1" fill="#2B87F8" fill-opacity="0.55"/>
<rect x="68" y="4" width="8" height="4" rx="1" fill="#2B87F8" fill-opacity="0.55"/>
<rect x="78" y="4" width="8" height="4" rx="1" fill="#2B87F8" fill-opacity="0.55"/>
<rect x="88" y="4" width="8" height="4" rx="1" fill="#2B87F8" fill-opacity="0.55"/>
</g>
<defs>
<clipPath id="clip0_5087_54732">
<path d="M0 4C0 1.79086 1.79086 0 4 0H100C102.209 0 104 1.79086 104 4V180C104 182.209 102.209 184 100 184H4C1.79086 184 0 182.209 0 180V4Z" fill="white"/>
</clipPath>
<clipPath id="clip1_5087_54732">
<path d="M24.7693 120C24.7693 118.895 25.6647 118 26.7693 118H56.0001C57.1046 118 58.0001 118.895 58.0001 120V137C58.0001 138.105 57.1046 139 56.0001 139H26.7693C25.6647 139 24.7693 138.105 24.7693 137V120Z" fill="white"/>
</clipPath>
<clipPath id="clip2_5087_54732">
<path d="M22 123C22 121.895 22.8954 121 24 121H53.2308C54.3353 121 55.2308 121.895 55.2308 123V140C55.2308 141.105 54.3353 142 53.2308 142H24C22.8954 142 22 141.105 22 140V123Z" fill="white"/>
</clipPath>
</defs>
</svg>
