<svg width="184" height="184" viewBox="0 0 184 184" fill="none" xmlns="http://www.w3.org/2000/svg">
<g clip-path="url(#clip0_5087_54656)">
<path d="M0 4C0 1.79086 1.79086 0 4 0H180C182.209 0 184 1.79086 184 4V180C184 182.209 182.209 184 180 184H4C1.79086 184 0 182.209 0 180V4Z" fill="#F0F7FE"/>
<path d="M4 0.5H180C181.933 0.5 183.5 2.067 183.5 4V180C183.5 181.933 181.933 183.5 180 183.5H4C2.067 183.5 0.5 181.933 0.5 180V4C0.5 2.067 2.067 0.5 4 0.5Z" stroke="#2B87F8" stroke-opacity="0.1"/>
<path d="M116 98C116 96.8954 116.895 96 118 96H170C171.105 96 172 96.8954 172 98V106C172 107.105 171.105 108 170 108H118C116.895 108 116 107.105 116 106V98Z" fill="#2B87F8" fill-opacity="0.55"/>
<path d="M118 96.5H170C170.828 96.5 171.5 97.1716 171.5 98V106C171.5 106.828 170.828 107.5 170 107.5H118C117.172 107.5 116.5 106.828 116.5 106V98L116.508 97.8467C116.585 97.0903 117.223 96.5 118 96.5Z" stroke="#2B87F8" stroke-opacity="0.15"/>
<path d="M116 64C116 61.7909 117.791 60 120 60H168C170.209 60 172 61.7909 172 64V84C172 86.2091 170.209 88 168 88H120C117.791 88 116 86.2091 116 84V64Z" fill="#2B87F8" fill-opacity="0.15"/>
<path d="M120 60.5H168C169.933 60.5 171.5 62.067 171.5 64V84C171.5 85.933 169.933 87.5 168 87.5H120C118.067 87.5 116.5 85.933 116.5 84V64C116.5 62.067 118.067 60.5 120 60.5Z" stroke="#2B87F8" stroke-opacity="0.15"/>
<g clip-path="url(#clip1_5087_54656)">
<path d="M120 66C120 64.8954 120.895 64 122 64H138C139.105 64 140 64.8954 140 66V82C140 83.1046 139.105 84 138 84H122C120.895 84 120 83.1046 120 82V66Z" fill="#2B87F8" fill-opacity="0.15"/>
<path d="M137.143 74.9091C141.004 74.9091 143.38 78.7906 147.143 84C144.074 84 130.934 84 127.143 84C130.41 79.7099 133.281 74.9091 137.143 74.9091Z" fill="#2B87F8" fill-opacity="0.15"/>
<path d="M122.857 73.0909C126.933 73.0909 129.927 78.2927 133.571 84C128.79 84 117.211 84 112.857 84C116.377 78.2927 118.781 73.0909 122.857 73.0909Z" fill="#2B87F8" fill-opacity="0.25"/>
<path d="M131 73C132.657 73 134 71.6569 134 70C134 68.3431 132.657 67 131 67C129.343 67 128 68.3431 128 70C128 71.6569 129.343 73 131 73Z" fill="#2B87F8" fill-opacity="0.4"/>
</g>
<path d="M122 64.5H138C138.828 64.5 139.5 65.1716 139.5 66V82C139.5 82.8284 138.828 83.5 138 83.5H122C121.172 83.5 120.5 82.8284 120.5 82V66C120.5 65.1716 121.172 64.5 122 64.5Z" stroke="#2B87F8" stroke-opacity="0.15"/>
<path d="M144 70C144 68.8954 144.895 68 146 68H166C167.105 68 168 68.8954 168 70V70C168 71.1046 167.105 72 166 72H146C144.895 72 144 71.1046 144 70V70Z" fill="#2B87F8" fill-opacity="0.55"/>
<path d="M144 78C144 76.8954 144.895 76 146 76H150C151.105 76 152 76.8954 152 78V78C152 79.1046 151.105 80 150 80H146C144.895 80 144 79.1046 144 78V78Z" fill="#2B87F8" fill-opacity="0.25"/>
<path d="M116 28C116 25.7909 117.791 24 120 24H168C170.209 24 172 25.7909 172 28V48C172 50.2091 170.209 52 168 52H120C117.791 52 116 50.2091 116 48V28Z" fill="#2B87F8" fill-opacity="0.15"/>
<path d="M120 24.5H168C169.933 24.5 171.5 26.067 171.5 28V48C171.5 49.933 169.933 51.5 168 51.5H120C118.067 51.5 116.5 49.933 116.5 48V28C116.5 26.067 118.067 24.5 120 24.5Z" stroke="#2B87F8" stroke-opacity="0.15"/>
<g clip-path="url(#clip2_5087_54656)">
<path d="M120 30C120 28.8954 120.895 28 122 28H138C139.105 28 140 28.8954 140 30V46C140 47.1046 139.105 48 138 48H122C120.895 48 120 47.1046 120 46V30Z" fill="#2B87F8" fill-opacity="0.15"/>
<path d="M137.143 38.9091C141.004 38.9091 143.38 42.7906 147.143 48C144.074 48 130.934 48 127.143 48C130.41 43.7099 133.281 38.9091 137.143 38.9091Z" fill="#2B87F8" fill-opacity="0.15"/>
<path d="M122.857 37.0909C126.933 37.0909 129.927 42.2927 133.571 48C128.79 48 117.211 48 112.857 48C116.377 42.2927 118.781 37.0909 122.857 37.0909Z" fill="#2B87F8" fill-opacity="0.25"/>
<path d="M131 37C132.657 37 134 35.6569 134 34C134 32.3431 132.657 31 131 31C129.343 31 128 32.3431 128 34C128 35.6569 129.343 37 131 37Z" fill="#2B87F8" fill-opacity="0.4"/>
</g>
<path d="M122 28.5H138C138.828 28.5 139.5 29.1716 139.5 30V46C139.5 46.8284 138.828 47.5 138 47.5H122C121.172 47.5 120.5 46.8284 120.5 46V30C120.5 29.1716 121.172 28.5 122 28.5Z" stroke="#2B87F8" stroke-opacity="0.15"/>
<path d="M144 34C144 32.8954 144.895 32 146 32H166C167.105 32 168 32.8954 168 34V34C168 35.1046 167.105 36 166 36H146C144.895 36 144 35.1046 144 34V34Z" fill="#2B87F8" fill-opacity="0.55"/>
<path d="M144 42C144 40.8954 144.895 40 146 40H150C151.105 40 152 40.8954 152 42V42C152 43.1046 151.105 44 150 44H146C144.895 44 144 43.1046 144 42V42Z" fill="#2B87F8" fill-opacity="0.25"/>
<path d="M107 176C106.448 176 106 175.552 106 175L106 25C106 24.4477 106.448 24 107 24V24C107.552 24 108 24.4477 108 25L108 175C108 175.552 107.552 176 107 176V176Z" fill="#2B87F8" fill-opacity="0.15"/>
<path d="M12 166C12 164.895 12.8954 164 14 164H96C97.1046 164 98 164.895 98 166V174C98 175.105 97.1046 176 96 176H14C12.8954 176 12 175.105 12 174V166Z" fill="#2B87F8" fill-opacity="0.55"/>
<path d="M14 164.5H96C96.8284 164.5 97.5 165.172 97.5 166V174C97.5 174.828 96.8284 175.5 96 175.5H14C13.1716 175.5 12.5 174.828 12.5 174V166L12.5078 165.847C12.5846 165.09 13.2233 164.5 14 164.5Z" stroke="#2B87F8" stroke-opacity="0.15"/>
<path d="M13 150C13 147.239 15.2386 145 18 145V145C20.7614 145 23 147.239 23 150V150C23 152.761 20.7614 155 18 155V155C15.2386 155 13 152.761 13 150V150Z" fill="white"/>
<path d="M18 145.5C20.4853 145.5 22.5 147.515 22.5 150C22.5 152.485 20.4853 154.5 18 154.5C15.5147 154.5 13.5 152.485 13.5 150C13.5 147.515 15.5147 145.5 18 145.5Z" stroke="#2B87F8" stroke-opacity="0.55"/>
<path d="M28 150C28 148.895 28.8954 148 30 148H74C75.1046 148 76 148.895 76 150V150C76 151.105 75.1046 152 74 152H30C28.8954 152 28 151.105 28 150V150Z" fill="#2B87F8" fill-opacity="0.25"/>
<g clip-path="url(#clip3_5087_54656)">
<path d="M28.7693 120C28.7693 118.895 29.6647 118 30.7693 118H60.0001C61.1046 118 62.0001 118.895 62.0001 120V137C62.0001 138.105 61.1046 139 60.0001 139H30.7693C29.6647 139 28.7693 138.105 28.7693 137V120Z" fill="#2B87F8" fill-opacity="0.4"/>
<rect x="28.7693" y="122.5" width="33.2308" height="4.5" fill="#2B87F8" fill-opacity="0.55"/>
</g>
<path d="M30.7693 118.5H59.9998C60.8282 118.5 61.4998 119.172 61.4998 120V137C61.4998 137.828 60.8282 138.5 59.9998 138.5H30.7693C29.9409 138.5 29.2693 137.828 29.2693 137V120C29.2693 119.172 29.9409 118.5 30.7693 118.5Z" stroke="#2B87F8" stroke-opacity="0.15"/>
<g clip-path="url(#clip4_5087_54656)">
<path d="M26 123C26 121.895 26.8954 121 28 121H57.2308C58.3353 121 59.2308 121.895 59.2308 123V140C59.2308 141.105 58.3353 142 57.2308 142H28C26.8954 142 26 141.105 26 140V123Z" fill="#2B87F8"/>
<path d="M28.7693 133.75C28.7693 133.336 29.1567 133 29.6347 133H32.4039C32.8818 133 33.2693 133.336 33.2693 133.75C33.2693 134.164 32.8818 134.5 32.4039 134.5H29.6347C29.1567 134.5 28.7693 134.164 28.7693 133.75Z" fill="white"/>
<path d="M34.6539 133.75C34.6539 133.336 35.0413 133 35.5193 133H38.2885C38.7665 133 39.1539 133.336 39.1539 133.75C39.1539 134.164 38.7665 134.5 38.2885 134.5H35.5193C35.0413 134.5 34.6539 134.164 34.6539 133.75Z" fill="white"/>
<path d="M40.5385 133.75C40.5385 133.336 40.926 133 41.4039 133H44.1731C44.6511 133 45.0385 133.336 45.0385 133.75C45.0385 134.164 44.6511 134.5 44.1731 134.5H41.4039C40.926 134.5 40.5385 134.164 40.5385 133.75Z" fill="white"/>
<path d="M46.4231 133.75C46.4231 133.336 46.8106 133 47.2885 133H50.0577C50.5357 133 50.9231 133.336 50.9231 133.75C50.9231 134.164 50.5357 134.5 50.0577 134.5H47.2885C46.8106 134.5 46.4231 134.164 46.4231 133.75Z" fill="white"/>
<path d="M53.6924 125.385C53.6924 124.62 54.3123 124 55.077 124V124C55.8417 124 56.4616 124.62 56.4616 125.385V125.615C56.4616 126.38 55.8417 127 55.077 127V127C54.3123 127 53.6924 126.38 53.6924 125.615V125.385Z" fill="white"/>
<path d="M55.0772 125.934L54.7167 126.163C54.7006 126.172 54.6849 126.176 54.6695 126.175C54.6541 126.173 54.6405 126.168 54.6288 126.158C54.6171 126.149 54.6083 126.136 54.6024 126.12C54.5966 126.104 54.5958 126.087 54.6002 126.07L54.6947 125.643L54.376 125.356C54.3628 125.344 54.3548 125.329 54.3519 125.313C54.3489 125.297 54.3497 125.281 54.3541 125.265C54.3585 125.25 54.3665 125.237 54.3782 125.227C54.39 125.217 54.4046 125.211 54.4222 125.209L54.8398 125.17L55.0047 124.764C55.012 124.747 55.0223 124.734 55.0354 124.725C55.0486 124.717 55.0625 124.713 55.0772 124.713C55.0919 124.713 55.1058 124.717 55.119 124.725C55.1322 124.734 55.1424 124.747 55.1497 124.764L55.3146 125.172L55.7322 125.209C55.7498 125.211 55.7644 125.217 55.7762 125.228C55.7879 125.239 55.796 125.252 55.8003 125.268C55.8047 125.283 55.8051 125.299 55.8014 125.314C55.7978 125.33 55.7894 125.344 55.7762 125.356L55.4597 125.643L55.5542 126.07C55.5586 126.087 55.5578 126.104 55.552 126.12C55.5461 126.136 55.5373 126.149 55.5256 126.158C55.5139 126.168 55.5003 126.173 55.4849 126.175C55.4695 126.176 55.4538 126.172 55.4377 126.163L55.0772 125.934Z" fill="#2B87F8"/>
</g>
<path d="M18 119.5C20.4853 119.5 22.5 121.515 22.5 124C22.5 126.485 20.4853 128.5 18 128.5C15.5147 128.5 13.5 126.485 13.5 124C13.5 121.515 15.5147 119.5 18 119.5Z" fill="#2B87F8"/>
<path d="M18 119.5C20.4853 119.5 22.5 121.515 22.5 124C22.5 126.485 20.4853 128.5 18 128.5C15.5147 128.5 13.5 126.485 13.5 124C13.5 121.515 15.5147 119.5 18 119.5Z" stroke="#2B87F8"/>
<path d="M18 126C19.1046 126 20 125.105 20 124C20 122.895 19.1046 122 18 122C16.8954 122 16 122.895 16 124C16 125.105 16.8954 126 18 126Z" fill="white"/>
<path d="M12 94C12 92.8954 12.8954 92 14 92H26C27.1046 92 28 92.8954 28 94V94C28 95.1046 27.1046 96 26 96H14C12.8954 96 12 95.1046 12 94V94Z" fill="#2B87F8" fill-opacity="0.55"/>
<path d="M12 100C12 98.8954 12.8954 98 14 98H96C97.1046 98 98 98.8954 98 100V108C98 109.105 97.1046 110 96 110H14C12.8954 110 12 109.105 12 108V100Z" fill="white"/>
<path d="M14 98.5H96C96.8284 98.5 97.5 99.1716 97.5 100V108C97.5 108.828 96.8284 109.5 96 109.5H14C13.1716 109.5 12.5 108.828 12.5 108V100L12.5078 99.8467C12.5846 99.0903 13.2233 98.5 14 98.5Z" stroke="#2B87F8" stroke-opacity="0.55"/>
<path d="M16 104C16 102.895 16.8954 102 18 102H46C47.1046 102 48 102.895 48 104V104C48 105.105 47.1046 106 46 106H18C16.8954 106 16 105.105 16 104V104Z" fill="#2B87F8" fill-opacity="0.25"/>
<path d="M12 68C12 66.8954 12.8954 66 14 66H26C27.1046 66 28 66.8954 28 68V68C28 69.1046 27.1046 70 26 70H14C12.8954 70 12 69.1046 12 68V68Z" fill="#2B87F8" fill-opacity="0.55"/>
<path d="M12 74C12 72.8954 12.8954 72 14 72H96C97.1046 72 98 72.8954 98 74V82C98 83.1046 97.1046 84 96 84H14C12.8954 84 12 83.1046 12 82V74Z" fill="white"/>
<path d="M14 72.5H96C96.8284 72.5 97.5 73.1716 97.5 74V82C97.5 82.8284 96.8284 83.5 96 83.5H14C13.1716 83.5 12.5 82.8284 12.5 82V74L12.5078 73.8467C12.5846 73.0903 13.2233 72.5 14 72.5Z" stroke="#2B87F8" stroke-opacity="0.55"/>
<path d="M54 78C54 76.8954 54.8954 76 56 76H76C77.1046 76 78 76.8954 78 78V78C78 79.1046 77.1046 80 76 80H56C54.8954 80 54 79.1046 54 78V78Z" fill="#2B87F8" fill-opacity="0.25"/>
<path d="M91.7628 78.9625L89.9864 77.1851C89.9618 77.1606 89.9435 77.1341 89.9312 77.1054C89.919 77.0768 89.9128 77.048 89.9128 77.0188C89.9128 76.9605 89.9335 76.9094 89.9747 76.8657C90.016 76.8219 90.0703 76.8 90.1378 76.8H93.8628C93.9303 76.8 93.9847 76.8225 94.026 76.8675C94.0672 76.9125 94.0878 76.965 94.0878 77.025C94.0878 77.0334 94.0633 77.0866 94.0143 77.1847L92.2378 78.9625C92.2045 78.9959 92.167 79.0209 92.1253 79.0375C92.0837 79.0542 92.042 79.0625 92.0003 79.0625C91.9587 79.0625 91.917 79.0542 91.8753 79.0375C91.8337 79.0209 91.7962 78.9959 91.7628 78.9625Z" fill="#2B87F8"/>
<path d="M12 42C12 40.8954 12.8954 40 14 40H26C27.1046 40 28 40.8954 28 42V42C28 43.1046 27.1046 44 26 44H14C12.8954 44 12 43.1046 12 42V42Z" fill="#2B87F8" fill-opacity="0.55"/>
<path d="M12 48C12 46.8954 12.8954 46 14 46H96C97.1046 46 98 46.8954 98 48V56C98 57.1046 97.1046 58 96 58H14C12.8954 58 12 57.1046 12 56V48Z" fill="white"/>
<path d="M14 46.5H96C96.8284 46.5 97.5 47.1716 97.5 48V56C97.5 56.8284 96.8284 57.5 96 57.5H14C13.1716 57.5 12.5 56.8284 12.5 56V48L12.5078 47.8467C12.5846 47.0903 13.2233 46.5 14 46.5Z" stroke="#2B87F8" stroke-opacity="0.55"/>
<path d="M54 52C54 50.8954 54.8954 50 56 50H76C77.1046 50 78 50.8954 78 52V52C78 53.1046 77.1046 54 76 54H56C54.8954 54 54 53.1046 54 52V52Z" fill="#2B87F8" fill-opacity="0.25"/>
<path d="M91.7628 52.9625L89.9864 51.1851C89.9618 51.1606 89.9435 51.1341 89.9312 51.1054C89.919 51.0768 89.9128 51.048 89.9128 51.0188C89.9128 50.9605 89.9335 50.9094 89.9747 50.8657C90.016 50.8219 90.0703 50.8 90.1378 50.8H93.8628C93.9303 50.8 93.9847 50.8225 94.026 50.8675C94.0672 50.9125 94.0878 50.965 94.0878 51.025C94.0878 51.0334 94.0633 51.0866 94.0143 51.1847L92.2378 52.9625C92.2045 52.9959 92.167 53.0209 92.1253 53.0375C92.0837 53.0542 92.042 53.0625 92.0003 53.0625C91.9587 53.0625 91.917 53.0542 91.8753 53.0375C91.8337 53.0209 91.7962 52.9959 91.7628 52.9625Z" fill="#2B87F8"/>
<path d="M12 28C12 25.7909 13.7909 24 16 24H56C58.2091 24 60 25.7909 60 28V28C60 30.2091 58.2091 32 56 32H16C13.7909 32 12 30.2091 12 28V28Z" fill="#2B87F8" fill-opacity="0.55"/>
<mask id="path-54-inside-1_5087_54656" fill="white">
<path d="M0 0H184V12H0V0Z"/>
</mask>
<path d="M0 0H184V12H0V0Z" fill="#2B87F8" fill-opacity="0.25"/>
<path d="M184 12V11H0V12V13H184V12Z" fill="#2B87F8" fill-opacity="0.15" mask="url(#path-54-inside-1_5087_54656)"/>
<rect x="12" y="4" width="8" height="4" rx="1" fill="#2B87F8" fill-opacity="0.55"/>
<rect x="144" y="4" width="8" height="4" rx="1" fill="#2B87F8" fill-opacity="0.55"/>
<rect x="154" y="4" width="8" height="4" rx="1" fill="#2B87F8" fill-opacity="0.55"/>
<rect x="164" y="4" width="8" height="4" rx="1" fill="#2B87F8" fill-opacity="0.55"/>
</g>
<defs>
<clipPath id="clip0_5087_54656">
<path d="M0 4C0 1.79086 1.79086 0 4 0H180C182.209 0 184 1.79086 184 4V180C184 182.209 182.209 184 180 184H4C1.79086 184 0 182.209 0 180V4Z" fill="white"/>
</clipPath>
<clipPath id="clip1_5087_54656">
<path d="M120 66C120 64.8954 120.895 64 122 64H138C139.105 64 140 64.8954 140 66V82C140 83.1046 139.105 84 138 84H122C120.895 84 120 83.1046 120 82V66Z" fill="white"/>
</clipPath>
<clipPath id="clip2_5087_54656">
<path d="M120 30C120 28.8954 120.895 28 122 28H138C139.105 28 140 28.8954 140 30V46C140 47.1046 139.105 48 138 48H122C120.895 48 120 47.1046 120 46V30Z" fill="white"/>
</clipPath>
<clipPath id="clip3_5087_54656">
<path d="M28.7693 120C28.7693 118.895 29.6647 118 30.7693 118H60.0001C61.1046 118 62.0001 118.895 62.0001 120V137C62.0001 138.105 61.1046 139 60.0001 139H30.7693C29.6647 139 28.7693 138.105 28.7693 137V120Z" fill="white"/>
</clipPath>
<clipPath id="clip4_5087_54656">
<path d="M26 123C26 121.895 26.8954 121 28 121H57.2308C58.3353 121 59.2308 121.895 59.2308 123V140C59.2308 141.105 58.3353 142 57.2308 142H28C26.8954 142 26 141.105 26 140V123Z" fill="white"/>
</clipPath>
</defs>
</svg>
