<svg width="184" height="184" viewBox="0 0 184 184" fill="none" xmlns="http://www.w3.org/2000/svg">
<g clip-path="url(#clip0_5087_53587)">
<path d="M0 4C0 1.79086 1.79086 0 4 0H180C182.209 0 184 1.79086 184 4V180C184 182.209 182.209 184 180 184H4C1.79086 184 0 182.209 0 180V4Z" fill="#F0F7FE"/>
<path d="M4 0.5H180C181.933 0.5 183.5 2.067 183.5 4V180C183.5 181.933 181.933 183.5 180 183.5H4C2.067 183.5 0.5 181.933 0.5 180V4C0.5 2.067 2.067 0.5 4 0.5Z" stroke="#2B87F8" stroke-opacity="0.1"/>
<path d="M124 154C124 152.895 124.895 152 126 152H170C171.105 152 172 152.895 172 154V154C172 155.105 171.105 156 170 156H126C124.895 156 124 155.105 124 154V154Z" fill="#2B87F8" fill-opacity="0.25"/>
<path d="M124 162C124 160.895 124.895 160 126 160H170C171.105 160 172 160.895 172 162V162C172 163.105 171.105 164 170 164H126C124.895 164 124 163.105 124 162V162Z" fill="#2B87F8" fill-opacity="0.25"/>
<path d="M124 170C124 168.895 124.895 168 126 168H154C155.105 168 156 168.895 156 170V170C156 171.105 155.105 172 154 172H126C124.895 172 124 171.105 124 170V170Z" fill="#2B87F8" fill-opacity="0.25"/>
<path d="M124 130C124 128.895 124.895 128 126 128H170C171.105 128 172 128.895 172 130V130C172 131.105 171.105 132 170 132H126C124.895 132 124 131.105 124 130V130Z" fill="#2B87F8" fill-opacity="0.25"/>
<path d="M124 138C124 136.895 124.895 136 126 136H154C155.105 136 156 136.895 156 138V138C156 139.105 155.105 140 154 140H126C124.895 140 124 139.105 124 138V138Z" fill="#2B87F8" fill-opacity="0.25"/>
<path d="M124 90C124 88.8954 124.895 88 126 88H170C171.105 88 172 88.8954 172 90V90C172 91.1046 171.105 92 170 92H126C124.895 92 124 91.1046 124 90V90Z" fill="#2B87F8" fill-opacity="0.25"/>
<path d="M124 98C124 96.8954 124.895 96 126 96H170C171.105 96 172 96.8954 172 98V98C172 99.1046 171.105 100 170 100H126C124.895 100 124 99.1046 124 98V98Z" fill="#2B87F8" fill-opacity="0.25"/>
<path d="M124 106C124 104.895 124.895 104 126 104H170C171.105 104 172 104.895 172 106V106C172 107.105 171.105 108 170 108H126C124.895 108 124 107.105 124 106V106Z" fill="#2B87F8" fill-opacity="0.25"/>
<path d="M124 114C124 112.895 124.895 112 126 112H154C155.105 112 156 112.895 156 114V114C156 115.105 155.105 116 154 116H126C124.895 116 124 115.105 124 114V114Z" fill="#2B87F8" fill-opacity="0.25"/>
<g clip-path="url(#clip1_5087_53587)">
<path d="M124 26C124 24.8954 124.895 24 126 24H170C171.105 24 172 24.8954 172 26V54C172 55.1046 171.105 56 170 56H126C124.895 56 124 55.1046 124 54V26Z" fill="#2B87F8" fill-opacity="0.15"/>
<path d="M165.143 41.4545C174.41 41.4545 180.113 47.6649 189.143 56C181.776 56 150.241 56 141.143 56C148.984 49.1358 155.875 41.4545 165.143 41.4545Z" fill="#2B87F8" fill-opacity="0.15"/>
<path d="M130.857 38.5455C140.639 38.5455 147.825 46.8683 156.571 56C145.096 56 117.306 56 106.857 56C115.305 46.8683 121.075 38.5455 130.857 38.5455Z" fill="#2B87F8" fill-opacity="0.25"/>
<path d="M149 39C150.657 39 152 37.6569 152 36C152 34.3431 150.657 33 149 33C147.343 33 146 34.3431 146 36C146 37.6569 147.343 39 149 39Z" fill="#2B87F8" fill-opacity="0.4"/>
</g>
<path d="M126 24.5H170C170.828 24.5 171.5 25.1716 171.5 26V54C171.5 54.8284 170.828 55.5 170 55.5H126C125.172 55.5 124.5 54.8284 124.5 54V26C124.5 25.1716 125.172 24.5 126 24.5Z" stroke="#2B87F8" stroke-opacity="0.15"/>
<path d="M124 66C124 64.8954 124.895 64 126 64H170C171.105 64 172 64.8954 172 66V66C172 67.1046 171.105 68 170 68H126C124.895 68 124 67.1046 124 66V66Z" fill="#2B87F8" fill-opacity="0.55"/>
<path d="M124 74C124 72.8954 124.895 72 126 72H154C155.105 72 156 72.8954 156 74V74C156 75.1046 155.105 76 154 76H126C124.895 76 124 75.1046 124 74V74Z" fill="#2B87F8" fill-opacity="0.55"/>
<path d="M68 154C68 152.895 68.8954 152 70 152H114C115.105 152 116 152.895 116 154V154C116 155.105 115.105 156 114 156H70C68.8954 156 68 155.105 68 154V154Z" fill="#2B87F8" fill-opacity="0.25"/>
<path d="M68 162C68 160.895 68.8954 160 70 160H114C115.105 160 116 160.895 116 162V162C116 163.105 115.105 164 114 164H70C68.8954 164 68 163.105 68 162V162Z" fill="#2B87F8" fill-opacity="0.25"/>
<path d="M68 170C68 168.895 68.8954 168 70 168H98C99.1046 168 100 168.895 100 170V170C100 171.105 99.1046 172 98 172H70C68.8954 172 68 171.105 68 170V170Z" fill="#2B87F8" fill-opacity="0.25"/>
<path d="M68 130C68 128.895 68.8954 128 70 128H114C115.105 128 116 128.895 116 130V130C116 131.105 115.105 132 114 132H70C68.8954 132 68 131.105 68 130V130Z" fill="#2B87F8" fill-opacity="0.25"/>
<path d="M68 138C68 136.895 68.8954 136 70 136H98C99.1046 136 100 136.895 100 138V138C100 139.105 99.1046 140 98 140H70C68.8954 140 68 139.105 68 138V138Z" fill="#2B87F8" fill-opacity="0.25"/>
<path d="M68 90C68 88.8954 68.8954 88 70 88H114C115.105 88 116 88.8954 116 90V90C116 91.1046 115.105 92 114 92H70C68.8954 92 68 91.1046 68 90V90Z" fill="#2B87F8" fill-opacity="0.25"/>
<path d="M68 98C68 96.8954 68.8954 96 70 96H114C115.105 96 116 96.8954 116 98V98C116 99.1046 115.105 100 114 100H70C68.8954 100 68 99.1046 68 98V98Z" fill="#2B87F8" fill-opacity="0.25"/>
<path d="M68 106C68 104.895 68.8954 104 70 104H114C115.105 104 116 104.895 116 106V106C116 107.105 115.105 108 114 108H70C68.8954 108 68 107.105 68 106V106Z" fill="#2B87F8" fill-opacity="0.25"/>
<path d="M68 114C68 112.895 68.8954 112 70 112H98C99.1046 112 100 112.895 100 114V114C100 115.105 99.1046 116 98 116H70C68.8954 116 68 115.105 68 114V114Z" fill="#2B87F8" fill-opacity="0.25"/>
<g clip-path="url(#clip2_5087_53587)">
<path d="M68 26C68 24.8954 68.8954 24 70 24H114C115.105 24 116 24.8954 116 26V54C116 55.1046 115.105 56 114 56H70C68.8954 56 68 55.1046 68 54V26Z" fill="#2B87F8" fill-opacity="0.15"/>
<path d="M109.143 41.4545C118.41 41.4545 124.113 47.6649 133.143 56C125.776 56 94.2407 56 85.1428 56C92.9844 49.1358 99.8755 41.4545 109.143 41.4545Z" fill="#2B87F8" fill-opacity="0.15"/>
<path d="M74.8572 38.5455C84.6392 38.5455 91.8254 46.8683 100.571 56C89.096 56 61.3062 56 50.8572 56C59.3053 46.8683 65.0752 38.5455 74.8572 38.5455Z" fill="#2B87F8" fill-opacity="0.25"/>
<path d="M93 39C94.6569 39 96 37.6569 96 36C96 34.3431 94.6569 33 93 33C91.3431 33 90 34.3431 90 36C90 37.6569 91.3431 39 93 39Z" fill="#2B87F8" fill-opacity="0.4"/>
</g>
<path d="M70 24.5H114C114.828 24.5 115.5 25.1716 115.5 26V54C115.5 54.8284 114.828 55.5 114 55.5H70C69.1716 55.5 68.5 54.8284 68.5 54V26C68.5 25.1716 69.1716 24.5 70 24.5Z" stroke="#2B87F8" stroke-opacity="0.15"/>
<path d="M68 66C68 64.8954 68.8954 64 70 64H114C115.105 64 116 64.8954 116 66V66C116 67.1046 115.105 68 114 68H70C68.8954 68 68 67.1046 68 66V66Z" fill="#2B87F8" fill-opacity="0.55"/>
<path d="M68 74C68 72.8954 68.8954 72 70 72H98C99.1046 72 100 72.8954 100 74V74C100 75.1046 99.1046 76 98 76H70C68.8954 76 68 75.1046 68 74V74Z" fill="#2B87F8" fill-opacity="0.55"/>
<path d="M12 154C12 152.895 12.8954 152 14 152H58C59.1046 152 60 152.895 60 154V154C60 155.105 59.1046 156 58 156H14C12.8954 156 12 155.105 12 154V154Z" fill="#2B87F8" fill-opacity="0.55"/>
<path d="M12 130C12 128.895 12.8954 128 14 128H58C59.1046 128 60 128.895 60 130V130C60 131.105 59.1046 132 58 132H14C12.8954 132 12 131.105 12 130V130Z" fill="#2B87F8" fill-opacity="0.55"/>
<path d="M12 90C12 88.8954 12.8954 88 14 88H58C59.1046 88 60 88.8954 60 90V90C60 91.1046 59.1046 92 58 92H14C12.8954 92 12 91.1046 12 90V90Z" fill="#2B87F8" fill-opacity="0.55"/>
<mask id="path-39-inside-1_5087_53587" fill="white">
<path d="M0 0H184V12H0V0Z"/>
</mask>
<path d="M0 0H184V12H0V0Z" fill="#2B87F8" fill-opacity="0.25"/>
<path d="M184 12V11H0V12V13H184V12Z" fill="#2B87F8" fill-opacity="0.15" mask="url(#path-39-inside-1_5087_53587)"/>
<rect x="12" y="4" width="8" height="4" rx="1" fill="#2B87F8" fill-opacity="0.55"/>
<rect x="144" y="4" width="8" height="4" rx="1" fill="#2B87F8" fill-opacity="0.55"/>
<rect x="154" y="4" width="8" height="4" rx="1" fill="#2B87F8" fill-opacity="0.55"/>
<rect x="164" y="4" width="8" height="4" rx="1" fill="#2B87F8" fill-opacity="0.55"/>
</g>
<defs>
<clipPath id="clip0_5087_53587">
<rect width="184" height="184" rx="4" fill="white"/>
</clipPath>
<clipPath id="clip1_5087_53587">
<path d="M124 26C124 24.8954 124.895 24 126 24H170C171.105 24 172 24.8954 172 26V54C172 55.1046 171.105 56 170 56H126C124.895 56 124 55.1046 124 54V26Z" fill="white"/>
</clipPath>
<clipPath id="clip2_5087_53587">
<path d="M68 26C68 24.8954 68.8954 24 70 24H114C115.105 24 116 24.8954 116 26V54C116 55.1046 115.105 56 114 56H70C68.8954 56 68 55.1046 68 54V26Z" fill="white"/>
</clipPath>
</defs>
</svg>
