<svg width="104" height="184" viewBox="0 0 104 184" fill="none" xmlns="http://www.w3.org/2000/svg">
<g clip-path="url(#clip0_5087_53653)">
<path d="M0 4C0 1.79086 1.79086 0 4 0H100C102.209 0 104 1.79086 104 4V180C104 182.209 102.209 184 100 184H4C1.79086 184 0 182.209 0 180V4Z" fill="#F0F7FE"/>
<path d="M4 0.5H100C101.933 0.500002 103.5 2.067 103.5 4V180C103.5 181.933 101.933 183.5 100 183.5H4C2.067 183.5 0.5 181.933 0.5 180V4C0.5 2.067 2.067 0.5 4 0.5Z" stroke="#2B87F8" stroke-opacity="0.1"/>
<mask id="path-4-inside-1_5087_53653" fill="white">
<path d="M0 0H104V12H0V0Z"/>
</mask>
<path d="M0 0H104V12H0V0Z" fill="#2B87F8" fill-opacity="0.25"/>
<path d="M104 12V11H0V12V13H104V12Z" fill="#2B87F8" fill-opacity="0.15" mask="url(#path-4-inside-1_5087_53653)"/>
<rect x="8" y="4" width="8" height="4" rx="1" fill="#2B87F8" fill-opacity="0.55"/>
<rect x="68" y="4" width="8" height="4" rx="1" fill="#2B87F8" fill-opacity="0.55"/>
<rect x="78" y="4" width="8" height="4" rx="1" fill="#2B87F8" fill-opacity="0.55"/>
<rect x="88" y="4" width="8" height="4" rx="1" fill="#2B87F8" fill-opacity="0.55"/>
<path d="M8 154C8 152.895 8.89543 152 10 152H46C47.1046 152 48 152.895 48 154V154C48 155.105 47.1046 156 46 156H10C8.89543 156 8 155.105 8 154V154Z" fill="#2B87F8" fill-opacity="0.25"/>
<path d="M8 162C8 160.895 8.89543 160 10 160H30C31.1046 160 32 160.895 32 162V162C32 163.105 31.1046 164 30 164H10C8.89543 164 8 163.105 8 162V162Z" fill="#2B87F8" fill-opacity="0.25"/>
<path d="M56 154C56 152.895 56.8954 152 58 152H94C95.1046 152 96 152.895 96 154V154C96 155.105 95.1046 156 94 156H58C56.8954 156 56 155.105 56 154V154Z" fill="#2B87F8" fill-opacity="0.25"/>
<path d="M56 162C56 160.895 56.8954 160 58 160H78C79.1046 160 80 160.895 80 162V162C80 163.105 79.1046 164 78 164H58C56.8954 164 56 163.105 56 162V162Z" fill="#2B87F8" fill-opacity="0.25"/>
<path d="M8 102C8 100.895 8.89543 100 10 100H46C47.1046 100 48 100.895 48 102V102C48 103.105 47.1046 104 46 104H10C8.89543 104 8 103.105 8 102V102Z" fill="#2B87F8" fill-opacity="0.25"/>
<path d="M8 110C8 108.895 8.89543 108 10 108H46C47.1046 108 48 108.895 48 110V110C48 111.105 47.1046 112 46 112H10C8.89543 112 8 111.105 8 110V110Z" fill="#2B87F8" fill-opacity="0.25"/>
<path d="M8 118C8 116.895 8.89543 116 10 116H46C47.1046 116 48 116.895 48 118V118C48 119.105 47.1046 120 46 120H10C8.89543 120 8 119.105 8 118V118Z" fill="#2B87F8" fill-opacity="0.25"/>
<path d="M8 126C8 124.895 8.89543 124 10 124H30C31.1046 124 32 124.895 32 126V126C32 127.105 31.1046 128 30 128H10C8.89543 128 8 127.105 8 126V126Z" fill="#2B87F8" fill-opacity="0.25"/>
<path d="M56 102C56 100.895 56.8954 100 58 100H94C95.1046 100 96 100.895 96 102V102C96 103.105 95.1046 104 94 104H58C56.8954 104 56 103.105 56 102V102Z" fill="#2B87F8" fill-opacity="0.25"/>
<path d="M56 110C56 108.895 56.8954 108 58 108H94C95.1046 108 96 108.895 96 110V110C96 111.105 95.1046 112 94 112H58C56.8954 112 56 111.105 56 110V110Z" fill="#2B87F8" fill-opacity="0.25"/>
<path d="M56 118C56 116.895 56.8954 116 58 116H94C95.1046 116 96 116.895 96 118V118C96 119.105 95.1046 120 94 120H58C56.8954 120 56 119.105 56 118V118Z" fill="#2B87F8" fill-opacity="0.25"/>
<path d="M56 126C56 124.895 56.8954 124 58 124H78C79.1046 124 80 124.895 80 126V126C80 127.105 79.1046 128 78 128H58C56.8954 128 56 127.105 56 126V126Z" fill="#2B87F8" fill-opacity="0.25"/>
<g clip-path="url(#clip1_5087_53653)">
<path d="M8 26C8 24.8954 8.89543 24 10 24H46C47.1046 24 48 24.8954 48 26V54C48 55.1046 47.1046 56 46 56H10C8.89543 56 8 55.1046 8 54V26Z" fill="#2B87F8" fill-opacity="0.15"/>
<path d="M42.2856 41.4545C50.0084 41.4545 54.7609 47.6649 62.2856 56C56.147 56 29.8673 56 22.2856 56C28.8203 49.1358 34.5629 41.4545 42.2856 41.4545Z" fill="#2B87F8" fill-opacity="0.15"/>
<path d="M13.7144 38.5455C21.866 38.5455 27.8546 46.8683 35.1429 56C25.58 56 2.42184 56 -6.28564 56C0.754448 46.8683 5.56267 38.5455 13.7144 38.5455Z" fill="#2B87F8" fill-opacity="0.25"/>
<path d="M29 39C30.6569 39 32 37.6569 32 36C32 34.3431 30.6569 33 29 33C27.3431 33 26 34.3431 26 36C26 37.6569 27.3431 39 29 39Z" fill="#2B87F8" fill-opacity="0.4"/>
</g>
<path d="M10 24.5H46C46.8284 24.5 47.5 25.1716 47.5 26V54C47.5 54.8284 46.8284 55.5 46 55.5H10C9.17157 55.5 8.5 54.8284 8.5 54V26C8.5 25.1716 9.17157 24.5 10 24.5Z" stroke="#2B87F8" stroke-opacity="0.15"/>
<path d="M8 66C8 64.8954 8.89543 64 10 64H46C47.1046 64 48 64.8954 48 66V66C48 67.1046 47.1046 68 46 68H10C8.89543 68 8 67.1046 8 66V66Z" fill="#2B87F8" fill-opacity="0.55"/>
<path d="M8 74C8 72.8954 8.89543 72 10 72H30C31.1046 72 32 72.8954 32 74V74C32 75.1046 31.1046 76 30 76H10C8.89543 76 8 75.1046 8 74V74Z" fill="#2B87F8" fill-opacity="0.55"/>
<g clip-path="url(#clip2_5087_53653)">
<path d="M56 26C56 24.8954 56.8954 24 58 24H94C95.1046 24 96 24.8954 96 26V54C96 55.1046 95.1046 56 94 56H58C56.8954 56 56 55.1046 56 54V26Z" fill="#2B87F8" fill-opacity="0.15"/>
<path d="M90.2856 41.4545C98.0084 41.4545 102.761 47.6649 110.286 56C104.147 56 77.8673 56 70.2856 56C76.8203 49.1358 82.5629 41.4545 90.2856 41.4545Z" fill="#2B87F8" fill-opacity="0.15"/>
<path d="M61.7144 38.5455C69.866 38.5455 75.8546 46.8683 83.1429 56C73.58 56 50.4218 56 41.7144 56C48.7544 46.8683 53.5627 38.5455 61.7144 38.5455Z" fill="#2B87F8" fill-opacity="0.25"/>
<path d="M77 39C78.6569 39 80 37.6569 80 36C80 34.3431 78.6569 33 77 33C75.3431 33 74 34.3431 74 36C74 37.6569 75.3431 39 77 39Z" fill="#2B87F8" fill-opacity="0.4"/>
</g>
<path d="M58 24.5H94C94.8284 24.5 95.5 25.1716 95.5 26V54C95.5 54.8284 94.8284 55.5 94 55.5H58C57.1716 55.5 56.5 54.8284 56.5 54V26C56.5 25.1716 57.1716 24.5 58 24.5Z" stroke="#2B87F8" stroke-opacity="0.15"/>
<path d="M56 66C56 64.8954 56.8954 64 58 64H94C95.1046 64 96 64.8954 96 66V66C96 67.1046 95.1046 68 94 68H58C56.8954 68 56 67.1046 56 66V66Z" fill="#2B87F8" fill-opacity="0.55"/>
<path d="M56 74C56 72.8954 56.8954 72 58 72H78C79.1046 72 80 72.8954 80 74V74C80 75.1046 79.1046 76 78 76H58C56.8954 76 56 75.1046 56 74V74Z" fill="#2B87F8" fill-opacity="0.55"/>
<path d="M8 90C8 88.8954 8.89543 88 10 88H54C55.1046 88 56 88.8954 56 90V90C56 91.1046 55.1046 92 54 92H10C8.89543 92 8 91.1046 8 90V90Z" fill="#2B87F8" fill-opacity="0.55"/>
<path d="M8 142C8 140.895 8.89543 140 10 140H54C55.1046 140 56 140.895 56 142V142C56 143.105 55.1046 144 54 144H10C8.89543 144 8 143.105 8 142V142Z" fill="#2B87F8" fill-opacity="0.55"/>
<path d="M8 178C8 176.895 8.89543 176 10 176H54C55.1046 176 56 176.895 56 178V178C56 179.105 55.1046 180 54 180H10C8.89543 180 8 179.105 8 178V178Z" fill="#2B87F8" fill-opacity="0.55"/>
</g>
<defs>
<clipPath id="clip0_5087_53653">
<path d="M0 4C0 1.79086 1.79086 0 4 0H100C102.209 0 104 1.79086 104 4V180C104 182.209 102.209 184 100 184H4C1.79086 184 0 182.209 0 180V4Z" fill="white"/>
</clipPath>
<clipPath id="clip1_5087_53653">
<path d="M8 26C8 24.8954 8.89543 24 10 24H46C47.1046 24 48 24.8954 48 26V54C48 55.1046 47.1046 56 46 56H10C8.89543 56 8 55.1046 8 54V26Z" fill="white"/>
</clipPath>
<clipPath id="clip2_5087_53653">
<path d="M56 26C56 24.8954 56.8954 24 58 24H94C95.1046 24 96 24.8954 96 26V54C96 55.1046 95.1046 56 94 56H58C56.8954 56 56 55.1046 56 54V26Z" fill="white"/>
</clipPath>
</defs>
</svg>
