<svg width="184" height="184" viewBox="0 0 184 184" fill="none" xmlns="http://www.w3.org/2000/svg">
<g clip-path="url(#clip0_5087_53395)">
<path d="M0 4C0 1.79086 1.79086 0 4 0H180C182.209 0 184 1.79086 184 4V180C184 182.209 182.209 184 180 184H4C1.79086 184 0 182.209 0 180V4Z" fill="#F0F7FE"/>
<path d="M4 0.5H180C181.933 0.5 183.5 2.067 183.5 4V180C183.5 181.933 181.933 183.5 180 183.5H4C2.067 183.5 0.5 181.933 0.5 180V4C0.5 2.067 2.067 0.5 4 0.5Z" stroke="#2B87F8" stroke-opacity="0.1"/>
<mask id="path-4-inside-1_5087_53395" fill="white">
<path d="M0 0H184V12H0V0Z"/>
</mask>
<path d="M0 0H184V12H0V0Z" fill="#2B87F8" fill-opacity="0.25"/>
<path d="M184 12V11H0V12V13H184V12Z" fill="#2B87F8" fill-opacity="0.15" mask="url(#path-4-inside-1_5087_53395)"/>
<rect x="12" y="4" width="8" height="4" rx="1" fill="#2B87F8" fill-opacity="0.55"/>
<rect x="144" y="4" width="8" height="4" rx="1" fill="#2B87F8" fill-opacity="0.55"/>
<rect x="154" y="4" width="8" height="4" rx="1" fill="#2B87F8" fill-opacity="0.55"/>
<rect x="164" y="4" width="8" height="4" rx="1" fill="#2B87F8" fill-opacity="0.55"/>
<g clip-path="url(#clip1_5087_53395)">
<path d="M12 56C12 53.7909 13.7909 52 16 52H168C170.209 52 172 53.7909 172 56V168C172 170.209 170.209 172 168 172H16C13.7909 172 12 170.209 12 168V56Z" fill="#2B87F8" fill-opacity="0.15"/>
<path d="M77.7866 49.4533V24H81.4947V45.6351L90.1459 36.7273L92.768 39.4271L81.4947 51.0349V68.5455H88.3005C96.1459 68.5455 102.506 75.0969 102.506 83.1761V95.2808L121.048 95.2784V60.2727C121.048 58.0586 123.242 58.0446 123.159 58.362C128.224 58.3536 133.288 58.3559 138.352 58.3555V35.4545L193.974 35.476V58.36L216.224 58.364L216.231 76.2025H236V175.467L140.824 175.475V158.93H124.757V178L83.9657 178.001V190.748H80.2575V178.001L60.4807 178.001V192H56.7725V178.001L39.4678 178.001V192H11.0386V178.002L-22.3348 178.002V192H-26.0429V178.002L-40.8755 178.002L-43.3476 174.182L-26.0429 156.364V127.091H-52V123.273H-26.0429V106.089C-26.0429 95.1962 -17.46 86.3636 -6.87843 86.3636H4.85837V72.3636H-37.1674V68.5455H4.85837V34.1818H8.56653V68.5455H35.7597V26.5455H39.4678V68.5455H59.2446L77.7866 49.4533ZM77.7866 54.8531L64.4888 68.5455H77.7866V54.8531ZM77.7866 72.3636H60.7806L47.184 86.3636H48.7399C55.2247 86.3636 60.4807 91.7762 60.4807 98.4548V122.021H98.7983V99.0995L77.7866 99.1022V72.3636ZM98.7983 95.2813V83.1761C98.7983 77.2054 94.0977 72.3636 88.3005 72.3636H81.4947V95.2836L98.7983 95.2813ZM102.506 99.099V122.021H121.048V99.0966L102.506 99.099ZM121.048 125.839H102.506V143.636H60.4807V174.183L80.2575 174.182V155.112H121.048V125.839ZM124.757 155.112H144.532V171.657L232.292 171.649V80.0207H216.232L216.262 153.909L163.074 153.815V125.839H124.757V155.112ZM212.523 76.2025L212.517 62.1814L193.974 62.1782V76.2025H212.523ZM190.266 58.3593V39.2927L142.06 39.2742V58.3552C158.129 58.3546 174.197 58.3568 190.266 58.3593ZM142.06 62.1734V76.2025H190.266V62.1775C174.197 62.175 158.129 62.1728 142.06 62.1734ZM138.352 62.1737C131.77 62.1742 127.132 62.1756 124.757 62.1778V95.2779L142.687 95.2756C157.27 95.2737 166.782 107.844 166.782 122.021H190.266V80.0207H138.352V62.1737ZM166.782 125.839V150.003L212.552 150.084L212.524 80.0207H193.974V125.839H166.782ZM163.074 122.021C163.074 109.934 155.244 99.0922 142.687 99.0938L124.757 99.0961V122.021H163.074ZM121.048 158.93H83.9657V174.182L121.048 174.182V158.93ZM56.7725 174.183V143.636C51.0092 143.636 45.2294 143.501 39.4678 143.644V174.183L56.7725 174.183ZM35.7597 174.183V144.016C23.826 146.13 14.7468 156.834 14.7468 169.721V174.183L35.7597 174.183ZM14.7468 178.001V188.182H35.7597V178.001L14.7468 178.001ZM11.0386 174.183V169.721C11.0386 154.721 21.7692 142.3 35.7597 140.148V125.839H27.0649C26.3823 136.236 17.555 144.909 7.33047 144.909C2.42212 144.909 -2.01683 143.305 -5.53657 140.649L-22.3348 157.945V174.184L11.0386 174.183ZM-26.0429 174.184V161.763L-38.1056 174.184L-26.0429 174.184ZM98.7983 139.818V125.839H60.4807V139.818H98.7983ZM39.4678 94.3088V122.021H56.7725V98.4548C56.7725 93.8848 53.1767 90.1818 48.7399 90.1818H43.4759L39.4678 94.3088ZM56.7725 125.839H39.4678V139.825C45.231 139.7 51.008 139.818 56.7725 139.818V125.839ZM26.9757 122.021H35.7597V98.127L22.9695 111.297C25.1121 114.307 26.55 117.97 26.9757 122.021ZM-22.3348 127.091V152.545L-8.3248 138.12C-11.1168 135.085 -12.9739 131.253 -13.5171 127.091H-22.3348ZM-13.6492 123.273C-13.085 112.514 -5.39379 104.205 4.85837 103.047V90.1818H-6.87843C-15.4125 90.1818 -22.3348 97.3054 -22.3348 106.089V123.273H-13.6492ZM35.7597 92.7273V90.1818H8.56653V102.951C13.0845 103.262 17.2682 105.26 20.5136 108.426L35.7597 92.7273ZM41.9399 86.3636L55.5365 72.3636H39.4678V86.3636H41.9399ZM35.7597 72.3636H8.56653V86.3636H35.7597V72.3636ZM23.3991 124.545C23.3991 114.586 16.0799 106.727 7.33047 106.727C-2.50336 106.727 -9.97425 114.42 -9.97425 124.545C-9.97425 133.555 -2.34207 141.091 7.33047 141.091C15.9283 141.091 23.3991 133.398 23.3991 124.545Z" fill="#2B87F8" fill-opacity="0.25"/>
<g clip-path="url(#clip2_5087_53395)">
<path d="M76.0001 104C76.3667 104 76.6806 103.869 76.9417 103.608C77.2029 103.347 77.3334 103.033 77.3334 102.667C77.3334 102.3 77.2029 101.986 76.9417 101.725C76.6806 101.464 76.3667 101.333 76.0001 101.333C75.6334 101.333 75.3195 101.464 75.0584 101.725C74.7973 101.986 74.6667 102.3 74.6667 102.667C74.6667 103.033 74.7973 103.347 75.0584 103.608C75.3195 103.869 75.6334 104 76.0001 104ZM76.0001 110.667C74.2112 109.144 72.8751 107.731 71.9917 106.425C71.1084 105.119 70.6667 103.911 70.6667 102.8C70.6667 101.133 71.2029 99.8055 72.2751 98.8166C73.3473 97.8278 74.589 97.3333 76.0001 97.3333C77.4112 97.3333 78.6529 97.8278 79.7251 98.8166C80.7973 99.8055 81.3334 101.133 81.3334 102.8C81.3334 103.911 80.8917 105.119 80.0084 106.425C79.1251 107.731 77.789 109.144 76.0001 110.667Z" fill="#2B87F8"/>
</g>
</g>
<path d="M16 52.5H168C169.933 52.5 171.5 54.067 171.5 56V168C171.5 169.933 169.933 171.5 168 171.5H16C14.067 171.5 12.5 169.933 12.5 168V56C12.5 54.067 14.067 52.5 16 52.5Z" stroke="#2B87F8" stroke-opacity="0.15" stroke-linejoin="bevel"/>
<mask id="path-15-inside-2_5087_53395" fill="white">
<path d="M0 12H184V44H0V12Z"/>
</mask>
<path d="M0 12H184V44H0V12Z" fill="#2B87F8" fill-opacity="0.55"/>
<path d="M0 12V13H184V12V11H0V12ZM184 44V43H0V44V45H184V44Z" fill="#2B87F8" fill-opacity="0.15" mask="url(#path-15-inside-2_5087_53395)"/>
<path d="M168 18C168 16.8954 168.895 16 170 16H178C179.105 16 180 16.8954 180 18V26C180 27.1046 179.105 28 178 28H170C168.895 28 168 27.1046 168 26V18Z" fill="white"/>
<path d="M170 16.5H178C178.828 16.5 179.5 17.1716 179.5 18V26C179.5 26.8284 178.828 27.5 178 27.5H170C169.172 27.5 168.5 26.8284 168.5 26V18L168.508 17.8467C168.579 17.1407 169.141 16.5795 169.847 16.5078L170 16.5Z" stroke="#2B87F8" stroke-opacity="0.25"/>
<path d="M171.781 24.75H176.219L175.302 23.8333C175.121 23.9659 174.92 24.0685 174.698 24.1411C174.477 24.2137 174.244 24.25 174.001 24.25C173.757 24.25 173.524 24.213 173.303 24.1389C173.081 24.0648 172.879 23.963 172.698 23.8333L171.781 24.75ZM171.25 24.2292L172.167 23.3125C172.034 23.1299 171.932 22.9269 171.859 22.7035C171.786 22.48 171.75 22.2455 171.75 22C171.75 21.7564 171.787 21.5238 171.861 21.3021C171.935 21.0804 172.037 20.879 172.167 20.6979L171.25 19.7812V24.2292ZM172.708 22.7708L173.469 22L172.708 21.2396C172.639 21.3538 172.587 21.4744 172.552 21.6013C172.517 21.7282 172.5 21.8611 172.5 22C172.5 22.1389 172.517 22.273 172.552 22.4023C172.587 22.5316 172.639 22.6545 172.708 22.7708ZM174 23.5C174.139 23.5 174.272 23.4826 174.399 23.4479C174.526 23.4132 174.646 23.3611 174.76 23.2917L174 22.5312L173.24 23.2917C173.351 23.3611 173.47 23.4132 173.597 23.4479C173.723 23.4826 173.858 23.5 174 23.5ZM174 21.4687L174.76 20.7083C174.646 20.6389 174.526 20.5868 174.399 20.5521C174.272 20.5174 174.139 20.5 174 20.5C173.861 20.5 173.728 20.5174 173.601 20.5521C173.474 20.5868 173.354 20.6389 173.24 20.7083L174 21.4687ZM175.292 22.7604C175.361 22.6462 175.413 22.5256 175.448 22.3987C175.483 22.2718 175.5 22.1389 175.5 22C175.5 21.8611 175.483 21.7277 175.448 21.5998C175.413 21.472 175.361 21.3519 175.292 21.2396L174.531 22L175.292 22.7604ZM176.75 24.2187V19.7812L175.833 20.6979C175.963 20.8789 176.065 21.0803 176.139 21.3019C176.213 21.5235 176.25 21.756 176.25 21.9994C176.25 22.2429 176.214 22.4755 176.141 22.6974C176.068 22.9193 175.966 23.1208 175.833 23.3021L176.75 24.2187ZM175.302 20.1667L176.219 19.25H171.781L172.698 20.1667C172.879 20.0341 173.08 19.9315 173.302 19.8589C173.523 19.7863 173.756 19.75 173.999 19.75C174.243 19.75 174.476 19.787 174.697 19.8611C174.919 19.9352 175.121 20.037 175.302 20.1667ZM171.25 25.5C171.044 25.5 170.867 25.4266 170.72 25.2797C170.573 25.1328 170.5 24.9562 170.5 24.75V19.25C170.5 19.0437 170.573 18.8672 170.72 18.7203C170.867 18.5734 171.044 18.5 171.25 18.5H176.75C176.956 18.5 177.133 18.5734 177.28 18.7203C177.427 18.8672 177.5 19.0437 177.5 19.25V24.75C177.5 24.9562 177.427 25.1328 177.28 25.2797C177.133 25.4266 176.956 25.5 176.75 25.5H171.25Z" fill="#2B87F8"/>
</g>
<defs>
<clipPath id="clip0_5087_53395">
<rect width="184" height="184" rx="4" fill="white"/>
</clipPath>
<clipPath id="clip1_5087_53395">
<path d="M12 56C12 53.7909 13.7909 52 16 52H168C170.209 52 172 53.7909 172 56V168C172 170.209 170.209 172 168 172H16C13.7909 172 12 170.209 12 168V56Z" fill="white"/>
</clipPath>
<clipPath id="clip2_5087_53395">
<path d="M68 104C68 99.5817 71.5817 96 76 96V96C80.4183 96 84 99.5817 84 104V104C84 108.418 80.4183 112 76 112V112C71.5817 112 68 108.418 68 104V104Z" fill="white"/>
</clipPath>
</defs>
</svg>
