<svg width="184" height="184" viewBox="0 0 184 184" fill="none" xmlns="http://www.w3.org/2000/svg">
<g clip-path="url(#clip0_5087_53465)">
<path d="M0 4C0 1.79086 1.79086 0 4 0H180C182.209 0 184 1.79086 184 4V180C184 182.209 182.209 184 180 184H4C1.79086 184 0 182.209 0 180V4Z" fill="#F0F7FE"/>
<path d="M4 0.5H180C181.933 0.5 183.5 2.067 183.5 4V180C183.5 181.933 181.933 183.5 180 183.5H4C2.067 183.5 0.5 181.933 0.5 180V4C0.5 2.067 2.067 0.5 4 0.5Z" stroke="#2B87F8" stroke-opacity="0.1"/>
<g clip-path="url(#clip1_5087_53465)">
<path d="M12 54C12 52.8954 12.8954 52 14 52H66C67.1046 52 68 52.8954 68 54V54C68 55.1046 67.1046 56 66 56H14C12.8954 56 12 55.1046 12 54V54Z" fill="#2B87F8" fill-opacity="0.55"/>
<path d="M12 62C12 60.8954 12.8954 60 14 60H50C51.1046 60 52 60.8954 52 62V62C52 63.1046 51.1046 64 50 64H14C12.8954 64 12 63.1046 12 62V62Z" fill="#2B87F8" fill-opacity="0.55"/>
<path d="M12 70C12 68.8954 12.8954 68 14 68H170C171.105 68 172 68.8954 172 70V70C172 71.1046 171.105 72 170 72H14C12.8954 72 12 71.1046 12 70V70Z" fill="#2B87F8" fill-opacity="0.25"/>
<path d="M12 78C12 76.8954 12.8954 76 14 76H170C171.105 76 172 76.8954 172 78V78C172 79.1046 171.105 80 170 80H14C12.8954 80 12 79.1046 12 78V78Z" fill="#2B87F8" fill-opacity="0.25"/>
<path d="M12 86C12 84.8954 12.8954 84 14 84H122C123.105 84 124 84.8954 124 86V86C124 87.1046 123.105 88 122 88H14C12.8954 88 12 87.1046 12 86V86Z" fill="#2B87F8" fill-opacity="0.25"/>
<path d="M12 102C12 100.895 12.8954 100 14 100H170C171.105 100 172 100.895 172 102V102C172 103.105 171.105 104 170 104H14C12.8954 104 12 103.105 12 102V102Z" fill="#2B87F8" fill-opacity="0.25"/>
<path d="M12 110C12 108.895 12.8954 108 14 108H90C91.1046 108 92 108.895 92 110V110C92 111.105 91.1046 112 90 112H14C12.8954 112 12 111.105 12 110V110Z" fill="#2B87F8" fill-opacity="0.25"/>
<path d="M12 126C12 124.895 12.8954 124 14 124H170C171.105 124 172 124.895 172 126V126C172 127.105 171.105 128 170 128H14C12.8954 128 12 127.105 12 126V126Z" fill="#2B87F8" fill-opacity="0.25"/>
<path d="M12 134C12 132.895 12.8954 132 14 132H170C171.105 132 172 132.895 172 134V134C172 135.105 171.105 136 170 136H14C12.8954 136 12 135.105 12 134V134Z" fill="#2B87F8" fill-opacity="0.25"/>
<path d="M12 142C12 140.895 12.8954 140 14 140H146C147.105 140 148 140.895 148 142V142C148 143.105 147.105 144 146 144H14C12.8954 144 12 143.105 12 142V142Z" fill="#2B87F8" fill-opacity="0.25"/>
<path d="M12 158C12 156.895 12.8954 156 14 156H66C67.1046 156 68 156.895 68 158V158C68 159.105 67.1046 160 66 160H14C12.8954 160 12 159.105 12 158V158Z" fill="#2B87F8" fill-opacity="0.55"/>
<path d="M12 166C12 164.895 12.8954 164 14 164H170C171.105 164 172 164.895 172 166V166C172 167.105 171.105 168 170 168H14C12.8954 168 12 167.105 12 166V166Z" fill="#2B87F8" fill-opacity="0.25"/>
</g>
<mask id="path-16-inside-1_5087_53465" fill="white">
<path d="M0 0H184V12H0V0Z"/>
</mask>
<path d="M0 0H184V12H0V0Z" fill="#2B87F8" fill-opacity="0.25"/>
<path d="M184 12V11H0V12V13H184V12Z" fill="#2B87F8" fill-opacity="0.15" mask="url(#path-16-inside-1_5087_53465)"/>
<rect x="12" y="4" width="8" height="4" rx="1" fill="#2B87F8" fill-opacity="0.55"/>
<rect x="144" y="4" width="8" height="4" rx="1" fill="#2B87F8" fill-opacity="0.55"/>
<rect x="154" y="4" width="8" height="4" rx="1" fill="#2B87F8" fill-opacity="0.55"/>
<rect x="164" y="4" width="8" height="4" rx="1" fill="#2B87F8" fill-opacity="0.55"/>
<mask id="path-22-inside-2_5087_53465" fill="white">
<path d="M0 12H184V44H0V12Z"/>
</mask>
<path d="M0 12H184V44H0V12Z" fill="#2B87F8" fill-opacity="0.55"/>
<path d="M0 12V13H184V12V11H0V12ZM184 44V43H0V44V45H184V44Z" fill="#2B87F8" fill-opacity="0.15" mask="url(#path-22-inside-2_5087_53465)"/>
<path d="M168 18C168 16.8954 168.895 16 170 16H178C179.105 16 180 16.8954 180 18V26C180 27.1046 179.105 28 178 28H170C168.895 28 168 27.1046 168 26V18Z" fill="white"/>
<path d="M170 16.5H178C178.828 16.5 179.5 17.1716 179.5 18V26C179.5 26.8284 178.828 27.5 178 27.5H170C169.172 27.5 168.5 26.8284 168.5 26V18L168.508 17.8467C168.579 17.1407 169.141 16.5795 169.847 16.5078L170 16.5Z" stroke="#2B87F8" stroke-opacity="0.25"/>
<path d="M171.781 24.75H176.219L175.302 23.8333C175.121 23.9659 174.92 24.0685 174.698 24.1411C174.477 24.2137 174.244 24.25 174.001 24.25C173.757 24.25 173.524 24.213 173.303 24.1389C173.081 24.0648 172.879 23.963 172.698 23.8333L171.781 24.75ZM171.25 24.2292L172.167 23.3125C172.034 23.1299 171.932 22.9269 171.859 22.7035C171.786 22.48 171.75 22.2455 171.75 22C171.75 21.7564 171.787 21.5238 171.861 21.3021C171.935 21.0804 172.037 20.879 172.167 20.6979L171.25 19.7812V24.2292ZM172.708 22.7708L173.469 22L172.708 21.2396C172.639 21.3538 172.587 21.4744 172.552 21.6013C172.517 21.7282 172.5 21.8611 172.5 22C172.5 22.1389 172.517 22.273 172.552 22.4023C172.587 22.5316 172.639 22.6545 172.708 22.7708ZM174 23.5C174.139 23.5 174.272 23.4826 174.399 23.4479C174.526 23.4132 174.646 23.3611 174.76 23.2917L174 22.5312L173.24 23.2917C173.351 23.3611 173.47 23.4132 173.597 23.4479C173.723 23.4826 173.858 23.5 174 23.5ZM174 21.4687L174.76 20.7083C174.646 20.6389 174.526 20.5868 174.399 20.5521C174.272 20.5174 174.139 20.5 174 20.5C173.861 20.5 173.728 20.5174 173.601 20.5521C173.474 20.5868 173.354 20.6389 173.24 20.7083L174 21.4687ZM175.292 22.7604C175.361 22.6462 175.413 22.5256 175.448 22.3987C175.483 22.2718 175.5 22.1389 175.5 22C175.5 21.8611 175.483 21.7277 175.448 21.5998C175.413 21.472 175.361 21.3519 175.292 21.2396L174.531 22L175.292 22.7604ZM176.75 24.2187V19.7812L175.833 20.6979C175.963 20.8789 176.065 21.0803 176.139 21.3019C176.213 21.5235 176.25 21.756 176.25 21.9994C176.25 22.2429 176.214 22.4755 176.141 22.6974C176.068 22.9193 175.966 23.1208 175.833 23.3021L176.75 24.2187ZM175.302 20.1667L176.219 19.25H171.781L172.698 20.1667C172.879 20.0341 173.08 19.9315 173.302 19.8589C173.523 19.7863 173.756 19.75 173.999 19.75C174.243 19.75 174.476 19.787 174.697 19.8611C174.919 19.9352 175.121 20.037 175.302 20.1667ZM171.25 25.5C171.044 25.5 170.867 25.4266 170.72 25.2797C170.573 25.1328 170.5 24.9562 170.5 24.75V19.25C170.5 19.0437 170.573 18.8672 170.72 18.7203C170.867 18.5734 171.044 18.5 171.25 18.5H176.75C176.956 18.5 177.133 18.5734 177.28 18.7203C177.427 18.8672 177.5 19.0437 177.5 19.25V24.75C177.5 24.9562 177.427 25.1328 177.28 25.2797C177.133 25.4266 176.956 25.5 176.75 25.5H171.25Z" fill="#2B87F8"/>
</g>
<defs>
<clipPath id="clip0_5087_53465">
<rect width="184" height="184" rx="4" fill="white"/>
</clipPath>
<clipPath id="clip1_5087_53465">
<rect width="160" height="120" fill="white" transform="translate(12 52)"/>
</clipPath>
</defs>
</svg>
