<svg width="104" height="184" viewBox="0 0 104 184" fill="none" xmlns="http://www.w3.org/2000/svg">
<g clip-path="url(#clip0_5087_53418)">
<path d="M0 4C0 1.79086 1.79086 0 4 0H100C102.209 0 104 1.79086 104 4V180C104 182.209 102.209 184 100 184H4C1.79086 184 0 182.209 0 180V4Z" fill="#F0F7FE"/>
<path d="M4 0.5H100C101.933 0.500002 103.5 2.067 103.5 4V180C103.5 181.933 101.933 183.5 100 183.5H4C2.067 183.5 0.5 181.933 0.5 180V4C0.5 2.067 2.067 0.5 4 0.5Z" stroke="#2B87F8" stroke-opacity="0.1"/>
<g clip-path="url(#clip1_5087_53418)">
<g clip-path="url(#clip2_5087_53418)">
<path d="M8 56C8 53.7909 9.79086 52 12 52H164C166.209 52 168 53.7909 168 56V168C168 170.209 166.209 172 164 172H12C9.79086 172 8 170.209 8 168V56Z" fill="#2B87F8" fill-opacity="0.15"/>
<path d="M73.7866 49.4533V24H77.4947V45.6351L86.1459 36.7273L88.768 39.4271L77.4947 51.0349V68.5455H84.3005C92.1459 68.5455 98.5064 75.0969 98.5064 83.1761V95.2808L117.048 95.2784V60.2727C117.048 58.0586 119.242 58.0446 119.159 58.362C124.224 58.3536 129.288 58.3559 134.352 58.3555V35.4545L189.974 35.476V58.36L212.224 58.364L212.231 76.2025H232V175.467L136.824 175.475V158.93H120.757V178L79.9657 178.001V190.748H76.2575V178.001L56.4807 178.001V192H52.7725V178.001L35.4678 178.001V192H7.03863V178.002L-26.3348 178.002V192H-30.0429V178.002L-44.8755 178.002L-47.3476 174.182L-30.0429 156.364V127.091H-56V123.273H-30.0429V106.089C-30.0429 95.1962 -21.46 86.3636 -10.8784 86.3636H0.858372V72.3636H-41.1674V68.5455H0.858372V34.1818H4.56653V68.5455H31.7597V26.5455H35.4678V68.5455H55.2446L73.7866 49.4533ZM73.7866 54.8531L60.4888 68.5455H73.7866V54.8531ZM73.7866 72.3636H56.7806L43.184 86.3636H44.7399C51.2247 86.3636 56.4807 91.7762 56.4807 98.4548V122.021H94.7983V99.0995L73.7866 99.1022V72.3636ZM94.7983 95.2813V83.1761C94.7983 77.2054 90.0977 72.3636 84.3005 72.3636H77.4947V95.2836L94.7983 95.2813ZM98.5064 99.099V122.021H117.048V99.0966L98.5064 99.099ZM117.048 125.839H98.5064V143.636H56.4807V174.183L76.2575 174.182V155.112H117.048V125.839ZM120.757 155.112H140.532V171.657L228.292 171.649V80.0207H212.232L212.262 153.909L159.074 153.815V125.839H120.757V155.112ZM208.523 76.2025L208.517 62.1814L189.974 62.1782V76.2025H208.523ZM186.266 58.3593V39.2927L138.06 39.2742V58.3552C154.129 58.3546 170.197 58.3568 186.266 58.3593ZM138.06 62.1734V76.2025H186.266V62.1775C170.197 62.175 154.129 62.1728 138.06 62.1734ZM134.352 62.1737C127.77 62.1742 123.132 62.1756 120.757 62.1778V95.2779L138.687 95.2756C153.27 95.2737 162.782 107.844 162.782 122.021H186.266V80.0207H134.352V62.1737ZM162.782 125.839V150.003L208.552 150.084L208.524 80.0207H189.974V125.839H162.782ZM159.074 122.021C159.074 109.934 151.244 99.0922 138.687 99.0938L120.757 99.0961V122.021H159.074ZM117.048 158.93H79.9657V174.182L117.048 174.182V158.93ZM52.7725 174.183V143.636C47.0092 143.636 41.2294 143.501 35.4678 143.644V174.183L52.7725 174.183ZM31.7597 174.183V144.016C19.826 146.13 10.7468 156.834 10.7468 169.721V174.183L31.7597 174.183ZM10.7468 178.001V188.182H31.7597V178.001L10.7468 178.001ZM7.03863 174.183V169.721C7.03863 154.721 17.7692 142.3 31.7597 140.148V125.839H23.0649C22.3823 136.236 13.555 144.909 3.33047 144.909C-1.57788 144.909 -6.01683 143.305 -9.53657 140.649L-26.3348 157.945V174.184L7.03863 174.183ZM-30.0429 174.184V161.763L-42.1056 174.184L-30.0429 174.184ZM94.7983 139.818V125.839H56.4807V139.818H94.7983ZM35.4678 94.3088V122.021H52.7725V98.4548C52.7725 93.8848 49.1767 90.1818 44.7399 90.1818H39.4759L35.4678 94.3088ZM52.7725 125.839H35.4678V139.825C41.231 139.7 47.008 139.818 52.7725 139.818V125.839ZM22.9757 122.021H31.7597V98.127L18.9695 111.297C21.1121 114.307 22.55 117.97 22.9757 122.021ZM-26.3348 127.091V152.545L-12.3248 138.12C-15.1168 135.085 -16.9739 131.253 -17.5171 127.091H-26.3348ZM-17.6492 123.273C-17.085 112.514 -9.39379 104.205 0.858372 103.047V90.1818H-10.8784C-19.4125 90.1818 -26.3348 97.3054 -26.3348 106.089V123.273H-17.6492ZM31.7597 92.7273V90.1818H4.56653V102.951C9.08451 103.262 13.2682 105.26 16.5136 108.426L31.7597 92.7273ZM37.9399 86.3636L51.5365 72.3636H35.4678V86.3636H37.9399ZM31.7597 72.3636H4.56653V86.3636H31.7597V72.3636ZM19.3991 124.545C19.3991 114.586 12.0799 106.727 3.33047 106.727C-6.50336 106.727 -13.9742 114.42 -13.9742 124.545C-13.9742 133.555 -6.34207 141.091 3.33047 141.091C11.9283 141.091 19.3991 133.398 19.3991 124.545Z" fill="#2B87F8" fill-opacity="0.25"/>
<g clip-path="url(#clip3_5087_53418)">
<path d="M72.0001 104C72.3667 104 72.6806 103.869 72.9417 103.608C73.2029 103.347 73.3334 103.033 73.3334 102.667C73.3334 102.3 73.2029 101.986 72.9417 101.725C72.6806 101.464 72.3667 101.333 72.0001 101.333C71.6334 101.333 71.3195 101.464 71.0584 101.725C70.7973 101.986 70.6667 102.3 70.6667 102.667C70.6667 103.033 70.7973 103.347 71.0584 103.608C71.3195 103.869 71.6334 104 72.0001 104ZM72.0001 110.667C70.2112 109.144 68.8751 107.731 67.9917 106.425C67.1084 105.119 66.6667 103.911 66.6667 102.8C66.6667 101.133 67.2029 99.8055 68.2751 98.8166C69.3473 97.8278 70.589 97.3333 72.0001 97.3333C73.4112 97.3333 74.6529 97.8278 75.7251 98.8166C76.7973 99.8055 77.3334 101.133 77.3334 102.8C77.3334 103.911 76.8917 105.119 76.0084 106.425C75.1251 107.731 73.789 109.144 72.0001 110.667Z" fill="#2B87F8"/>
</g>
</g>
</g>
<path d="M12 52.5H92C93.933 52.5 95.5 54.067 95.5 56V168C95.5 169.933 93.933 171.5 92 171.5H12C10.067 171.5 8.5 169.933 8.5 168V56C8.5 54.067 10.067 52.5 12 52.5Z" stroke="#2B87F8" stroke-opacity="0.15"/>
<mask id="path-10-inside-1_5087_53418" fill="white">
<path d="M0 0H104V12H0V0Z"/>
</mask>
<path d="M0 0H104V12H0V0Z" fill="#2B87F8" fill-opacity="0.25"/>
<path d="M104 12V11H0V12V13H104V12Z" fill="#2B87F8" fill-opacity="0.15" mask="url(#path-10-inside-1_5087_53418)"/>
<rect x="8" y="4" width="8" height="4" rx="1" fill="#2B87F8" fill-opacity="0.55"/>
<rect x="68" y="4" width="8" height="4" rx="1" fill="#2B87F8" fill-opacity="0.55"/>
<rect x="78" y="4" width="8" height="4" rx="1" fill="#2B87F8" fill-opacity="0.55"/>
<rect x="88" y="4" width="8" height="4" rx="1" fill="#2B87F8" fill-opacity="0.55"/>
<mask id="path-16-inside-2_5087_53418" fill="white">
<path d="M0 12H104V44H0V12Z"/>
</mask>
<path d="M0 12H104V44H0V12Z" fill="#2B87F8" fill-opacity="0.55"/>
<path d="M0 12V13H104V12V11H0V12ZM104 44V43H0V44V45H104V44Z" fill="#2B87F8" fill-opacity="0.15" mask="url(#path-16-inside-2_5087_53418)"/>
<path d="M88 18C88 16.8954 88.8954 16 90 16H98C99.1046 16 100 16.8954 100 18V26C100 27.1046 99.1046 28 98 28H90C88.8954 28 88 27.1046 88 26V18Z" fill="white"/>
<path d="M90 16.5H98C98.8284 16.5 99.5 17.1716 99.5 18V26C99.5 26.8284 98.8284 27.5 98 27.5H90C89.1716 27.5 88.5 26.8284 88.5 26V18L88.5078 17.8467C88.5795 17.1407 89.1407 16.5795 89.8467 16.5078L90 16.5Z" stroke="#2B87F8" stroke-opacity="0.25"/>
<path d="M91.7812 24.75H96.2187L95.3021 23.8333C95.1211 23.9659 94.9197 24.0685 94.6981 24.1411C94.4765 24.2137 94.244 24.25 94.0006 24.25C93.7571 24.25 93.5245 24.213 93.3026 24.1389C93.0807 24.0648 92.8792 23.963 92.6979 23.8333L91.7812 24.75ZM91.25 24.2292L92.1667 23.3125C92.0341 23.1299 91.9315 22.9269 91.8589 22.7035C91.7863 22.48 91.75 22.2455 91.75 22C91.75 21.7564 91.787 21.5238 91.8611 21.3021C91.9352 21.0804 92.037 20.879 92.1667 20.6979L91.25 19.7812V24.2292ZM92.7083 22.7708L93.4687 22L92.7083 21.2396C92.6389 21.3538 92.5868 21.4744 92.5521 21.6013C92.5174 21.7282 92.5 21.8611 92.5 22C92.5 22.1389 92.5174 22.273 92.5521 22.4023C92.5868 22.5316 92.6389 22.6545 92.7083 22.7708ZM94 23.5C94.1389 23.5 94.2718 23.4826 94.3987 23.4479C94.5256 23.4132 94.6462 23.3611 94.7604 23.2917L94 22.5312L93.2396 23.2917C93.3509 23.3611 93.4699 23.4132 93.5966 23.4479C93.7233 23.4826 93.8578 23.5 94 23.5ZM94 21.4687L94.7604 20.7083C94.6462 20.6389 94.5256 20.5868 94.3987 20.5521C94.2718 20.5174 94.1389 20.5 94 20.5C93.8611 20.5 93.7282 20.5174 93.6013 20.5521C93.4744 20.5868 93.3538 20.6389 93.2396 20.7083L94 21.4687ZM95.2917 22.7604C95.3611 22.6462 95.4132 22.5256 95.4479 22.3987C95.4826 22.2718 95.5 22.1389 95.5 22C95.5 21.8611 95.4826 21.7277 95.4479 21.5998C95.4132 21.472 95.3611 21.3519 95.2917 21.2396L94.5312 22L95.2917 22.7604ZM96.75 24.2187V19.7812L95.8333 20.6979C95.963 20.8789 96.0648 21.0803 96.1389 21.3019C96.213 21.5235 96.25 21.756 96.25 21.9994C96.25 22.2429 96.2137 22.4755 96.1411 22.6974C96.0685 22.9193 95.9659 23.1208 95.8333 23.3021L96.75 24.2187ZM95.3021 20.1667L96.2187 19.25H91.7812L92.6979 20.1667C92.8789 20.0341 93.0802 19.9315 93.3019 19.8589C93.5235 19.7863 93.756 19.75 93.9994 19.75C94.2429 19.75 94.4755 19.787 94.6974 19.8611C94.9193 19.9352 95.1208 20.037 95.3021 20.1667ZM91.25 25.5C91.0437 25.5 90.8672 25.4266 90.7203 25.2797C90.5734 25.1328 90.5 24.9562 90.5 24.75V19.25C90.5 19.0437 90.5734 18.8672 90.7203 18.7203C90.8672 18.5734 91.0437 18.5 91.25 18.5H96.75C96.9562 18.5 97.1328 18.5734 97.2797 18.7203C97.4266 18.8672 97.5 19.0437 97.5 19.25V24.75C97.5 24.9562 97.4266 25.1328 97.2797 25.2797C97.1328 25.4266 96.9562 25.5 96.75 25.5H91.25Z" fill="#2B87F8"/>
</g>
<defs>
<clipPath id="clip0_5087_53418">
<path d="M0 4C0 1.79086 1.79086 0 4 0H100C102.209 0 104 1.79086 104 4V180C104 182.209 102.209 184 100 184H4C1.79086 184 0 182.209 0 180V4Z" fill="white"/>
</clipPath>
<clipPath id="clip1_5087_53418">
<path d="M8 56C8 53.7909 9.79086 52 12 52H92C94.2091 52 96 53.7909 96 56V168C96 170.209 94.2091 172 92 172H12C9.79086 172 8 170.209 8 168V56Z" fill="white"/>
</clipPath>
<clipPath id="clip2_5087_53418">
<path d="M8 56C8 53.7909 9.79086 52 12 52H164C166.209 52 168 53.7909 168 56V168C168 170.209 166.209 172 164 172H12C9.79086 172 8 170.209 8 168V56Z" fill="white"/>
</clipPath>
<clipPath id="clip3_5087_53418">
<path d="M64 104C64 99.5817 67.5817 96 72 96V96C76.4183 96 80 99.5817 80 104V104C80 108.418 76.4183 112 72 112V112C67.5817 112 64 108.418 64 104V104Z" fill="white"/>
</clipPath>
</defs>
</svg>
