<svg width="104" height="184" viewBox="0 0 104 184" fill="none" xmlns="http://www.w3.org/2000/svg">
<g clip-path="url(#clip0_5087_53516)">
<path d="M0 4C0 1.79086 1.79086 0 4 0H100C102.209 0 104 1.79086 104 4V180C104 182.209 102.209 184 100 184H4C1.79086 184 0 182.209 0 180V4Z" fill="#F0F7FE"/>
<path d="M4 0.5H100C101.933 0.500002 103.5 2.067 103.5 4V180C103.5 181.933 101.933 183.5 100 183.5H4C2.067 183.5 0.5 181.933 0.5 180V4C0.5 2.067 2.067 0.5 4 0.5Z" stroke="#2B87F8" stroke-opacity="0.1"/>
<mask id="path-4-inside-1_5087_53516" fill="white">
<path d="M0 0H104V12H0V0Z"/>
</mask>
<path d="M0 0H104V12H0V0Z" fill="#2B87F8" fill-opacity="0.25"/>
<path d="M104 12V11H0V12V13H104V12Z" fill="#2B87F8" fill-opacity="0.15" mask="url(#path-4-inside-1_5087_53516)"/>
<rect x="8" y="4" width="8" height="4" rx="1" fill="#2B87F8" fill-opacity="0.55"/>
<rect x="68" y="4" width="8" height="4" rx="1" fill="#2B87F8" fill-opacity="0.55"/>
<rect x="78" y="4" width="8" height="4" rx="1" fill="#2B87F8" fill-opacity="0.55"/>
<rect x="88" y="4" width="8" height="4" rx="1" fill="#2B87F8" fill-opacity="0.55"/>
<mask id="path-10-inside-2_5087_53516" fill="white">
<path d="M0 12H104V44H0V12Z"/>
</mask>
<path d="M0 12H104V44H0V12Z" fill="#2B87F8" fill-opacity="0.55"/>
<path d="M0 12V13H104V12V11H0V12ZM104 44V43H0V44V45H104V44Z" fill="#2B87F8" fill-opacity="0.15" mask="url(#path-10-inside-2_5087_53516)"/>
<path d="M88 18C88 16.8954 88.8954 16 90 16H98C99.1046 16 100 16.8954 100 18V26C100 27.1046 99.1046 28 98 28H90C88.8954 28 88 27.1046 88 26V18Z" fill="white"/>
<path d="M90 16.5H98C98.8284 16.5 99.5 17.1716 99.5 18V26C99.5 26.8284 98.8284 27.5 98 27.5H90C89.1716 27.5 88.5 26.8284 88.5 26V18L88.5078 17.8467C88.5795 17.1407 89.1407 16.5795 89.8467 16.5078L90 16.5Z" stroke="#2B87F8" stroke-opacity="0.25"/>
<path d="M91.7812 24.75H96.2187L95.3021 23.8333C95.1211 23.9659 94.9197 24.0685 94.6981 24.1411C94.4765 24.2137 94.244 24.25 94.0006 24.25C93.7571 24.25 93.5245 24.213 93.3026 24.1389C93.0807 24.0648 92.8792 23.963 92.6979 23.8333L91.7812 24.75ZM91.25 24.2292L92.1667 23.3125C92.0341 23.1299 91.9315 22.9269 91.8589 22.7035C91.7863 22.48 91.75 22.2455 91.75 22C91.75 21.7564 91.787 21.5238 91.8611 21.3021C91.9352 21.0804 92.037 20.879 92.1667 20.6979L91.25 19.7812V24.2292ZM92.7083 22.7708L93.4687 22L92.7083 21.2396C92.6389 21.3538 92.5868 21.4744 92.5521 21.6013C92.5174 21.7282 92.5 21.8611 92.5 22C92.5 22.1389 92.5174 22.273 92.5521 22.4023C92.5868 22.5316 92.6389 22.6545 92.7083 22.7708ZM94 23.5C94.1389 23.5 94.2718 23.4826 94.3987 23.4479C94.5256 23.4132 94.6462 23.3611 94.7604 23.2917L94 22.5312L93.2396 23.2917C93.3509 23.3611 93.4699 23.4132 93.5966 23.4479C93.7233 23.4826 93.8578 23.5 94 23.5ZM94 21.4687L94.7604 20.7083C94.6462 20.6389 94.5256 20.5868 94.3987 20.5521C94.2718 20.5174 94.1389 20.5 94 20.5C93.8611 20.5 93.7282 20.5174 93.6013 20.5521C93.4744 20.5868 93.3538 20.6389 93.2396 20.7083L94 21.4687ZM95.2917 22.7604C95.3611 22.6462 95.4132 22.5256 95.4479 22.3987C95.4826 22.2718 95.5 22.1389 95.5 22C95.5 21.8611 95.4826 21.7277 95.4479 21.5998C95.4132 21.472 95.3611 21.3519 95.2917 21.2396L94.5312 22L95.2917 22.7604ZM96.75 24.2187V19.7812L95.8333 20.6979C95.963 20.8789 96.0648 21.0803 96.1389 21.3019C96.213 21.5235 96.25 21.756 96.25 21.9994C96.25 22.2429 96.2137 22.4755 96.1411 22.6974C96.0685 22.9193 95.9659 23.1208 95.8333 23.3021L96.75 24.2187ZM95.3021 20.1667L96.2187 19.25H91.7812L92.6979 20.1667C92.8789 20.0341 93.0802 19.9315 93.3019 19.8589C93.5235 19.7863 93.756 19.75 93.9994 19.75C94.2429 19.75 94.4755 19.787 94.6974 19.8611C94.9193 19.9352 95.1208 20.037 95.3021 20.1667ZM91.25 25.5C91.0437 25.5 90.8672 25.4266 90.7203 25.2797C90.5734 25.1328 90.5 24.9562 90.5 24.75V19.25C90.5 19.0437 90.5734 18.8672 90.7203 18.7203C90.8672 18.5734 91.0437 18.5 91.25 18.5H96.75C96.9562 18.5 97.1328 18.5734 97.2797 18.7203C97.4266 18.8672 97.5 19.0437 97.5 19.25V24.75C97.5 24.9562 97.4266 25.1328 97.2797 25.2797C97.1328 25.4266 96.9562 25.5 96.75 25.5H91.25Z" fill="#2B87F8"/>
<g clip-path="url(#clip1_5087_53516)">
<path d="M8 54C8 52.8954 8.89543 52 10 52H62C63.1046 52 64 52.8954 64 54V54C64 55.1046 63.1046 56 62 56H10C8.89543 56 8 55.1046 8 54V54Z" fill="#2B87F8" fill-opacity="0.55"/>
<path d="M8 62C8 60.8954 8.89543 60 10 60H46C47.1046 60 48 60.8954 48 62V62C48 63.1046 47.1046 64 46 64H10C8.89543 64 8 63.1046 8 62V62Z" fill="#2B87F8" fill-opacity="0.55"/>
<path d="M8 70C8 68.8954 8.89543 68 10 68H94C95.1046 68 96 68.8954 96 70V70C96 71.1046 95.1046 72 94 72H10C8.89543 72 8 71.1046 8 70V70Z" fill="#2B87F8" fill-opacity="0.25"/>
<path d="M8 78C8 76.8954 8.89543 76 10 76H94C95.1046 76 96 76.8954 96 78V78C96 79.1046 95.1046 80 94 80H10C8.89543 80 8 79.1046 8 78V78Z" fill="#2B87F8" fill-opacity="0.25"/>
<path d="M8 86C8 84.8954 8.89543 84 10 84H94C95.1046 84 96 84.8954 96 86V86C96 87.1046 95.1046 88 94 88H10C8.89543 88 8 87.1046 8 86V86Z" fill="#2B87F8" fill-opacity="0.25"/>
<path d="M8 94C8 92.8954 8.89543 92 10 92H86C87.1046 92 88 92.8954 88 94V94C88 95.1046 87.1046 96 86 96H10C8.89543 96 8 95.1046 8 94V94Z" fill="#2B87F8" fill-opacity="0.25"/>
<path d="M8 110C8 108.895 8.89543 108 10 108H94C95.1046 108 96 108.895 96 110V110C96 111.105 95.1046 112 94 112H10C8.89543 112 8 111.105 8 110V110Z" fill="#2B87F8" fill-opacity="0.25"/>
<path d="M8 118C8 116.895 8.89543 116 10 116H78C79.1046 116 80 116.895 80 118V118C80 119.105 79.1046 120 78 120H10C8.89543 120 8 119.105 8 118V118Z" fill="#2B87F8" fill-opacity="0.25"/>
<path d="M8 134C8 132.895 8.89543 132 10 132H94C95.1046 132 96 132.895 96 134V134C96 135.105 95.1046 136 94 136H10C8.89543 136 8 135.105 8 134V134Z" fill="#2B87F8" fill-opacity="0.25"/>
<path d="M8 142C8 140.895 8.89543 140 10 140H94C95.1046 140 96 140.895 96 142V142C96 143.105 95.1046 144 94 144H10C8.89543 144 8 143.105 8 142V142Z" fill="#2B87F8" fill-opacity="0.25"/>
<path d="M8 150C8 148.895 8.89543 148 10 148H90C91.1046 148 92 148.895 92 150V150C92 151.105 91.1046 152 90 152H10C8.89543 152 8 151.105 8 150V150Z" fill="#2B87F8" fill-opacity="0.25"/>
<path d="M8 166C8 164.895 8.89543 164 10 164H62C63.1046 164 64 164.895 64 166V166C64 167.105 63.1046 168 62 168H10C8.89543 168 8 167.105 8 166V166Z" fill="#2B87F8" fill-opacity="0.55"/>
</g>
</g>
<defs>
<clipPath id="clip0_5087_53516">
<path d="M0 4C0 1.79086 1.79086 0 4 0H100C102.209 0 104 1.79086 104 4V180C104 182.209 102.209 184 100 184H4C1.79086 184 0 182.209 0 180V4Z" fill="white"/>
</clipPath>
<clipPath id="clip1_5087_53516">
<rect width="88" height="120" fill="white" transform="translate(8 52)"/>
</clipPath>
</defs>
</svg>
