<svg width="184" height="184" viewBox="0 0 184 184" fill="none" xmlns="http://www.w3.org/2000/svg">
<g clip-path="url(#clip0_5087_53292)">
<path d="M0 4C0 1.79086 1.79086 0 4 0H180C182.209 0 184 1.79086 184 4V180C184 182.209 182.209 184 180 184H4C1.79086 184 0 182.209 0 180V4Z" fill="#F0F7FE"/>
<path d="M4 0.5H180C181.933 0.5 183.5 2.067 183.5 4V180C183.5 181.933 181.933 183.5 180 183.5H4C2.067 183.5 0.5 181.933 0.5 180V4C0.5 2.067 2.067 0.5 4 0.5Z" stroke="#2B87F8" stroke-opacity="0.1"/>
<path d="M12 27.3103C12 25.4821 13.4015 24 15.1304 24H30L36 30.4V52.6897C36 54.5179 34.5985 56 32.8696 56H15.1304C13.4015 56 12 54.5179 12 52.6897V27.3103Z" fill="#2B87F8" fill-opacity="0.55"/>
<path d="M30 24V30.4H36L30 24Z" fill="#2B87F8" fill-opacity="0.55"/>
<path d="M30 30.4L36 36.8V30.4H30Z" fill="#2B87F8" fill-opacity="0.1"/>
<path d="M20.5446 51.364L20.7306 51.898C20.5026 52 20.3106 52.042 20.0646 52.042C19.4406 52.042 19.0926 51.676 19.0926 50.986V49.594H18.5346V49.036H19.0926V48.262L19.7586 48.19V49.036H20.6106V49.594H19.7586V50.968C19.7586 51.292 19.8906 51.46 20.1726 51.46C20.2926 51.46 20.4246 51.424 20.5446 51.364ZM24.0011 50.488C24.0011 50.584 23.9951 50.674 23.9891 50.758H21.7211C21.7631 51.208 22.1291 51.49 22.6211 51.49C22.9031 51.49 23.2631 51.4 23.5391 51.16L23.8571 51.604C23.5511 51.928 23.0411 52.066 22.5971 52.066C21.6731 52.066 21.0431 51.466 21.0431 50.518C21.0431 49.594 21.6971 48.97 22.6091 48.97C23.4071 48.97 24.0011 49.474 24.0011 50.488ZM22.5851 49.546C22.1471 49.546 21.8111 49.774 21.7271 50.248H23.3651C23.3351 49.78 23.0171 49.546 22.5851 49.546ZM26.0704 50.464L27.1324 52H26.3284L25.9564 51.424C25.7884 51.154 25.6804 50.974 25.6504 50.878H25.6384C25.5964 50.974 25.4884 51.16 25.3144 51.43L24.9424 52H24.1504L25.2004 50.482L24.2104 49.036H25.0144L25.4044 49.654C25.5124 49.822 25.5964 49.96 25.6384 50.062H25.6504C25.6924 49.96 25.7704 49.822 25.8784 49.654L26.2624 49.036H27.0544L26.0704 50.464ZM29.3689 51.364L29.5549 51.898C29.3269 52 29.1349 52.042 28.8889 52.042C28.2649 52.042 27.9169 51.676 27.9169 50.986V49.594H27.3589V49.036H27.9169V48.262L28.5829 48.19V49.036H29.4349V49.594H28.5829V50.968C28.5829 51.292 28.7149 51.46 28.9969 51.46C29.1169 51.46 29.2489 51.424 29.3689 51.364Z" fill="white"/>
<path d="M12 62C12 60.8954 12.8954 60 14 60H34C35.1046 60 36 60.8954 36 62V62C36 63.1046 35.1046 64 34 64H14C12.8954 64 12 63.1046 12 62V62Z" fill="#2B87F8" fill-opacity="0.25"/>
<path d="M57.3333 27.3103C57.3333 25.4821 58.7348 24 60.4637 24H75.3333L81.3333 30.4V52.6897C81.3333 54.5179 79.9317 56 78.2028 56H60.4637C58.7348 56 57.3333 54.5179 57.3333 52.6897V27.3103Z" fill="#2B87F8" fill-opacity="0.55"/>
<path d="M75.3333 24V30.4H81.3333L75.3333 24Z" fill="#2B87F8" fill-opacity="0.55"/>
<path d="M75.3333 30.4L81.3333 36.8V30.4H75.3333Z" fill="#2B87F8" fill-opacity="0.1"/>
<path d="M65.8779 51.364L66.0639 51.898C65.8359 52 65.6439 52.042 65.3979 52.042C64.7739 52.042 64.4259 51.676 64.4259 50.986V49.594H63.8679V49.036H64.4259V48.262L65.0919 48.19V49.036H65.9439V49.594H65.0919V50.968C65.0919 51.292 65.2239 51.46 65.5059 51.46C65.6259 51.46 65.7579 51.424 65.8779 51.364ZM69.3344 50.488C69.3344 50.584 69.3284 50.674 69.3224 50.758H67.0544C67.0964 51.208 67.4624 51.49 67.9544 51.49C68.2364 51.49 68.5964 51.4 68.8724 51.16L69.1904 51.604C68.8844 51.928 68.3744 52.066 67.9304 52.066C67.0064 52.066 66.3764 51.466 66.3764 50.518C66.3764 49.594 67.0304 48.97 67.9424 48.97C68.7404 48.97 69.3344 49.474 69.3344 50.488ZM67.9184 49.546C67.4804 49.546 67.1444 49.774 67.0604 50.248H68.6984C68.6684 49.78 68.3504 49.546 67.9184 49.546ZM71.4037 50.464L72.4657 52H71.6617L71.2897 51.424C71.1217 51.154 71.0137 50.974 70.9837 50.878H70.9717C70.9297 50.974 70.8217 51.16 70.6477 51.43L70.2757 52H69.4837L70.5337 50.482L69.5437 49.036H70.3477L70.7377 49.654C70.8457 49.822 70.9297 49.96 70.9717 50.062H70.9837C71.0257 49.96 71.1037 49.822 71.2117 49.654L71.5957 49.036H72.3877L71.4037 50.464ZM74.7021 51.364L74.8881 51.898C74.6601 52 74.4681 52.042 74.2221 52.042C73.5981 52.042 73.2501 51.676 73.2501 50.986V49.594H72.6921V49.036H73.2501V48.262L73.9161 48.19V49.036H74.7681V49.594H73.9161V50.968C73.9161 51.292 74.0481 51.46 74.3301 51.46C74.4501 51.46 74.5821 51.424 74.7021 51.364Z" fill="white"/>
<path d="M57.3333 62C57.3333 60.8954 58.2287 60 59.3333 60H79.3333C80.4378 60 81.3333 60.8954 81.3333 62V62C81.3333 63.1046 80.4378 64 79.3333 64H59.3333C58.2287 64 57.3333 63.1046 57.3333 62V62Z" fill="#2B87F8" fill-opacity="0.25"/>
<path d="M102.667 27.3103C102.667 25.4821 104.068 24 105.797 24H120.667L126.667 30.4V52.6897C126.667 54.5179 125.265 56 123.536 56H105.797C104.068 56 102.667 54.5179 102.667 52.6897V27.3103Z" fill="#2B87F8" fill-opacity="0.55"/>
<path d="M120.667 24V30.4H126.667L120.667 24Z" fill="#2B87F8" fill-opacity="0.55"/>
<path d="M120.667 30.4L126.667 36.8V30.4H120.667Z" fill="#2B87F8" fill-opacity="0.1"/>
<path d="M111.211 51.364L111.397 51.898C111.169 52 110.977 52.042 110.731 52.042C110.107 52.042 109.759 51.676 109.759 50.986V49.594H109.201V49.036H109.759V48.262L110.425 48.19V49.036H111.277V49.594H110.425V50.968C110.425 51.292 110.557 51.46 110.839 51.46C110.959 51.46 111.091 51.424 111.211 51.364ZM114.668 50.488C114.668 50.584 114.662 50.674 114.656 50.758H112.388C112.43 51.208 112.796 51.49 113.288 51.49C113.57 51.49 113.93 51.4 114.206 51.16L114.524 51.604C114.218 51.928 113.708 52.066 113.264 52.066C112.34 52.066 111.71 51.466 111.71 50.518C111.71 49.594 112.364 48.97 113.276 48.97C114.074 48.97 114.668 49.474 114.668 50.488ZM113.252 49.546C112.814 49.546 112.478 49.774 112.394 50.248H114.032C114.002 49.78 113.684 49.546 113.252 49.546ZM116.737 50.464L117.799 52H116.995L116.623 51.424C116.455 51.154 116.347 50.974 116.317 50.878H116.305C116.263 50.974 116.155 51.16 115.981 51.43L115.609 52H114.817L115.867 50.482L114.877 49.036H115.681L116.071 49.654C116.179 49.822 116.263 49.96 116.305 50.062H116.317C116.359 49.96 116.437 49.822 116.545 49.654L116.929 49.036H117.721L116.737 50.464ZM120.036 51.364L120.222 51.898C119.994 52 119.802 52.042 119.556 52.042C118.932 52.042 118.584 51.676 118.584 50.986V49.594H118.026V49.036H118.584V48.262L119.25 48.19V49.036H120.102V49.594H119.25V50.968C119.25 51.292 119.382 51.46 119.664 51.46C119.784 51.46 119.916 51.424 120.036 51.364Z" fill="white"/>
<path d="M102.667 62C102.667 60.8954 103.562 60 104.667 60H124.667C125.771 60 126.667 60.8954 126.667 62V62C126.667 63.1046 125.771 64 124.667 64H104.667C103.562 64 102.667 63.1046 102.667 62V62Z" fill="#2B87F8" fill-opacity="0.25"/>
<path d="M148 27.3103C148 25.4821 149.402 24 151.13 24H166L172 30.4V52.6897C172 54.5179 170.598 56 168.87 56H151.13C149.402 56 148 54.5179 148 52.6897V27.3103Z" fill="#2B87F8" fill-opacity="0.55"/>
<path d="M166 24V30.4H172L166 24Z" fill="#2B87F8" fill-opacity="0.55"/>
<path d="M166 30.4L172 36.8V30.4H166Z" fill="#2B87F8" fill-opacity="0.1"/>
<path d="M156.545 51.364L156.731 51.898C156.503 52 156.311 52.042 156.065 52.042C155.441 52.042 155.093 51.676 155.093 50.986V49.594H154.535V49.036H155.093V48.262L155.759 48.19V49.036H156.611V49.594H155.759V50.968C155.759 51.292 155.891 51.46 156.173 51.46C156.293 51.46 156.425 51.424 156.545 51.364ZM160.001 50.488C160.001 50.584 159.995 50.674 159.989 50.758H157.721C157.763 51.208 158.129 51.49 158.621 51.49C158.903 51.49 159.263 51.4 159.539 51.16L159.857 51.604C159.551 51.928 159.041 52.066 158.597 52.066C157.673 52.066 157.043 51.466 157.043 50.518C157.043 49.594 157.697 48.97 158.609 48.97C159.407 48.97 160.001 49.474 160.001 50.488ZM158.585 49.546C158.147 49.546 157.811 49.774 157.727 50.248H159.365C159.335 49.78 159.017 49.546 158.585 49.546ZM162.07 50.464L163.132 52H162.328L161.956 51.424C161.788 51.154 161.68 50.974 161.65 50.878H161.638C161.596 50.974 161.488 51.16 161.314 51.43L160.942 52H160.15L161.2 50.482L160.21 49.036H161.014L161.404 49.654C161.512 49.822 161.596 49.96 161.638 50.062H161.65C161.692 49.96 161.77 49.822 161.878 49.654L162.262 49.036H163.054L162.07 50.464ZM165.369 51.364L165.555 51.898C165.327 52 165.135 52.042 164.889 52.042C164.265 52.042 163.917 51.676 163.917 50.986V49.594H163.359V49.036H163.917V48.262L164.583 48.19V49.036H165.435V49.594H164.583V50.968C164.583 51.292 164.715 51.46 164.997 51.46C165.117 51.46 165.249 51.424 165.369 51.364Z" fill="white"/>
<path d="M148 62C148 60.8954 148.895 60 150 60H170C171.105 60 172 60.8954 172 62V62C172 63.1046 171.105 64 170 64H150C148.895 64 148 63.1046 148 62V62Z" fill="#2B87F8" fill-opacity="0.25"/>
<path d="M12 81.3103C12 79.4821 13.4015 78 15.1304 78H30L36 84.4V106.69C36 108.518 34.5985 110 32.8696 110H15.1304C13.4015 110 12 108.518 12 106.69V81.3103Z" fill="#2B87F8" fill-opacity="0.55"/>
<path d="M30 78V84.4H36L30 78Z" fill="#2B87F8" fill-opacity="0.55"/>
<path d="M30 84.4L36 90.8V84.4H30Z" fill="#2B87F8" fill-opacity="0.1"/>
<path d="M20.5446 105.364L20.7306 105.898C20.5026 106 20.3106 106.042 20.0646 106.042C19.4406 106.042 19.0926 105.676 19.0926 104.986V103.594H18.5346V103.036H19.0926V102.262L19.7586 102.19V103.036H20.6106V103.594H19.7586V104.968C19.7586 105.292 19.8906 105.46 20.1726 105.46C20.2926 105.46 20.4246 105.424 20.5446 105.364ZM24.0011 104.488C24.0011 104.584 23.9951 104.674 23.9891 104.758H21.7211C21.7631 105.208 22.1291 105.49 22.6211 105.49C22.9031 105.49 23.2631 105.4 23.5391 105.16L23.8571 105.604C23.5511 105.928 23.0411 106.066 22.5971 106.066C21.6731 106.066 21.0431 105.466 21.0431 104.518C21.0431 103.594 21.6971 102.97 22.6091 102.97C23.4071 102.97 24.0011 103.474 24.0011 104.488ZM22.5851 103.546C22.1471 103.546 21.8111 103.774 21.7271 104.248H23.3651C23.3351 103.78 23.0171 103.546 22.5851 103.546ZM26.0704 104.464L27.1324 106H26.3284L25.9564 105.424C25.7884 105.154 25.6804 104.974 25.6504 104.878H25.6384C25.5964 104.974 25.4884 105.16 25.3144 105.43L24.9424 106H24.1504L25.2004 104.482L24.2104 103.036H25.0144L25.4044 103.654C25.5124 103.822 25.5964 103.96 25.6384 104.062H25.6504C25.6924 103.96 25.7704 103.822 25.8784 103.654L26.2624 103.036H27.0544L26.0704 104.464ZM29.3689 105.364L29.5549 105.898C29.3269 106 29.1349 106.042 28.8889 106.042C28.2649 106.042 27.9169 105.676 27.9169 104.986V103.594H27.3589V103.036H27.9169V102.262L28.5829 102.19V103.036H29.4349V103.594H28.5829V104.968C28.5829 105.292 28.7149 105.46 28.9969 105.46C29.1169 105.46 29.2489 105.424 29.3689 105.364Z" fill="white"/>
<path d="M12 116C12 114.895 12.8954 114 14 114H34C35.1046 114 36 114.895 36 116V116C36 117.105 35.1046 118 34 118H14C12.8954 118 12 117.105 12 116V116Z" fill="#2B87F8" fill-opacity="0.25"/>
<path d="M57.3333 81.3103C57.3333 79.4821 58.7348 78 60.4637 78H75.3333L81.3333 84.4V106.69C81.3333 108.518 79.9317 110 78.2028 110H60.4637C58.7348 110 57.3333 108.518 57.3333 106.69V81.3103Z" fill="#2B87F8" fill-opacity="0.55"/>
<path d="M75.3333 78V84.4H81.3333L75.3333 78Z" fill="#2B87F8" fill-opacity="0.55"/>
<path d="M75.3333 84.4L81.3333 90.8V84.4H75.3333Z" fill="#2B87F8" fill-opacity="0.1"/>
<path d="M65.8779 105.364L66.0639 105.898C65.8359 106 65.6439 106.042 65.3979 106.042C64.7739 106.042 64.4259 105.676 64.4259 104.986V103.594H63.8679V103.036H64.4259V102.262L65.0919 102.19V103.036H65.9439V103.594H65.0919V104.968C65.0919 105.292 65.2239 105.46 65.5059 105.46C65.6259 105.46 65.7579 105.424 65.8779 105.364ZM69.3344 104.488C69.3344 104.584 69.3284 104.674 69.3224 104.758H67.0544C67.0964 105.208 67.4624 105.49 67.9544 105.49C68.2364 105.49 68.5964 105.4 68.8724 105.16L69.1904 105.604C68.8844 105.928 68.3744 106.066 67.9304 106.066C67.0064 106.066 66.3764 105.466 66.3764 104.518C66.3764 103.594 67.0304 102.97 67.9424 102.97C68.7404 102.97 69.3344 103.474 69.3344 104.488ZM67.9184 103.546C67.4804 103.546 67.1444 103.774 67.0604 104.248H68.6984C68.6684 103.78 68.3504 103.546 67.9184 103.546ZM71.4037 104.464L72.4657 106H71.6617L71.2897 105.424C71.1217 105.154 71.0137 104.974 70.9837 104.878H70.9717C70.9297 104.974 70.8217 105.16 70.6477 105.43L70.2757 106H69.4837L70.5337 104.482L69.5437 103.036H70.3477L70.7377 103.654C70.8457 103.822 70.9297 103.96 70.9717 104.062H70.9837C71.0257 103.96 71.1037 103.822 71.2117 103.654L71.5957 103.036H72.3877L71.4037 104.464ZM74.7021 105.364L74.8881 105.898C74.6601 106 74.4681 106.042 74.2221 106.042C73.5981 106.042 73.2501 105.676 73.2501 104.986V103.594H72.6921V103.036H73.2501V102.262L73.9161 102.19V103.036H74.7681V103.594H73.9161V104.968C73.9161 105.292 74.0481 105.46 74.3301 105.46C74.4501 105.46 74.5821 105.424 74.7021 105.364Z" fill="white"/>
<path d="M57.3333 116C57.3333 114.895 58.2287 114 59.3333 114H79.3333C80.4378 114 81.3333 114.895 81.3333 116V116C81.3333 117.105 80.4378 118 79.3333 118H59.3333C58.2287 118 57.3333 117.105 57.3333 116V116Z" fill="#2B87F8" fill-opacity="0.25"/>
<path d="M102.667 81.3103C102.667 79.4821 104.068 78 105.797 78H120.667L126.667 84.4V106.69C126.667 108.518 125.265 110 123.536 110H105.797C104.068 110 102.667 108.518 102.667 106.69V81.3103Z" fill="#2B87F8" fill-opacity="0.55"/>
<path d="M120.667 78V84.4H126.667L120.667 78Z" fill="#2B87F8" fill-opacity="0.55"/>
<path d="M120.667 84.4L126.667 90.8V84.4H120.667Z" fill="#2B87F8" fill-opacity="0.1"/>
<path d="M111.211 105.364L111.397 105.898C111.169 106 110.977 106.042 110.731 106.042C110.107 106.042 109.759 105.676 109.759 104.986V103.594H109.201V103.036H109.759V102.262L110.425 102.19V103.036H111.277V103.594H110.425V104.968C110.425 105.292 110.557 105.46 110.839 105.46C110.959 105.46 111.091 105.424 111.211 105.364ZM114.668 104.488C114.668 104.584 114.662 104.674 114.656 104.758H112.388C112.43 105.208 112.796 105.49 113.288 105.49C113.57 105.49 113.93 105.4 114.206 105.16L114.524 105.604C114.218 105.928 113.708 106.066 113.264 106.066C112.34 106.066 111.71 105.466 111.71 104.518C111.71 103.594 112.364 102.97 113.276 102.97C114.074 102.97 114.668 103.474 114.668 104.488ZM113.252 103.546C112.814 103.546 112.478 103.774 112.394 104.248H114.032C114.002 103.78 113.684 103.546 113.252 103.546ZM116.737 104.464L117.799 106H116.995L116.623 105.424C116.455 105.154 116.347 104.974 116.317 104.878H116.305C116.263 104.974 116.155 105.16 115.981 105.43L115.609 106H114.817L115.867 104.482L114.877 103.036H115.681L116.071 103.654C116.179 103.822 116.263 103.96 116.305 104.062H116.317C116.359 103.96 116.437 103.822 116.545 103.654L116.929 103.036H117.721L116.737 104.464ZM120.036 105.364L120.222 105.898C119.994 106 119.802 106.042 119.556 106.042C118.932 106.042 118.584 105.676 118.584 104.986V103.594H118.026V103.036H118.584V102.262L119.25 102.19V103.036H120.102V103.594H119.25V104.968C119.25 105.292 119.382 105.46 119.664 105.46C119.784 105.46 119.916 105.424 120.036 105.364Z" fill="white"/>
<path d="M102.667 116C102.667 114.895 103.562 114 104.667 114H124.667C125.771 114 126.667 114.895 126.667 116V116C126.667 117.105 125.771 118 124.667 118H104.667C103.562 118 102.667 117.105 102.667 116V116Z" fill="#2B87F8" fill-opacity="0.25"/>
<path d="M148 81.3103C148 79.4821 149.402 78 151.13 78H166L172 84.4V106.69C172 108.518 170.598 110 168.87 110H151.13C149.402 110 148 108.518 148 106.69V81.3103Z" fill="#2B87F8" fill-opacity="0.55"/>
<path d="M166 78V84.4H172L166 78Z" fill="#2B87F8" fill-opacity="0.55"/>
<path d="M166 84.4L172 90.8V84.4H166Z" fill="#2B87F8" fill-opacity="0.1"/>
<path d="M156.545 105.364L156.731 105.898C156.503 106 156.311 106.042 156.065 106.042C155.441 106.042 155.093 105.676 155.093 104.986V103.594H154.535V103.036H155.093V102.262L155.759 102.19V103.036H156.611V103.594H155.759V104.968C155.759 105.292 155.891 105.46 156.173 105.46C156.293 105.46 156.425 105.424 156.545 105.364ZM160.001 104.488C160.001 104.584 159.995 104.674 159.989 104.758H157.721C157.763 105.208 158.129 105.49 158.621 105.49C158.903 105.49 159.263 105.4 159.539 105.16L159.857 105.604C159.551 105.928 159.041 106.066 158.597 106.066C157.673 106.066 157.043 105.466 157.043 104.518C157.043 103.594 157.697 102.97 158.609 102.97C159.407 102.97 160.001 103.474 160.001 104.488ZM158.585 103.546C158.147 103.546 157.811 103.774 157.727 104.248H159.365C159.335 103.78 159.017 103.546 158.585 103.546ZM162.07 104.464L163.132 106H162.328L161.956 105.424C161.788 105.154 161.68 104.974 161.65 104.878H161.638C161.596 104.974 161.488 105.16 161.314 105.43L160.942 106H160.15L161.2 104.482L160.21 103.036H161.014L161.404 103.654C161.512 103.822 161.596 103.96 161.638 104.062H161.65C161.692 103.96 161.77 103.822 161.878 103.654L162.262 103.036H163.054L162.07 104.464ZM165.369 105.364L165.555 105.898C165.327 106 165.135 106.042 164.889 106.042C164.265 106.042 163.917 105.676 163.917 104.986V103.594H163.359V103.036H163.917V102.262L164.583 102.19V103.036H165.435V103.594H164.583V104.968C164.583 105.292 164.715 105.46 164.997 105.46C165.117 105.46 165.249 105.424 165.369 105.364Z" fill="white"/>
<path d="M148 116C148 114.895 148.895 114 150 114H170C171.105 114 172 114.895 172 116V116C172 117.105 171.105 118 170 118H150C148.895 118 148 117.105 148 116V116Z" fill="#2B87F8" fill-opacity="0.25"/>
<path d="M12 135.31C12 133.482 13.4015 132 15.1304 132H30L36 138.4V160.69C36 162.518 34.5985 164 32.8696 164H15.1304C13.4015 164 12 162.518 12 160.69V135.31Z" fill="#2B87F8" fill-opacity="0.55"/>
<path d="M30 132V138.4H36L30 132Z" fill="#2B87F8" fill-opacity="0.55"/>
<path d="M30 138.4L36 144.8V138.4H30Z" fill="#2B87F8" fill-opacity="0.1"/>
<path d="M20.5446 159.364L20.7306 159.898C20.5026 160 20.3106 160.042 20.0646 160.042C19.4406 160.042 19.0926 159.676 19.0926 158.986V157.594H18.5346V157.036H19.0926V156.262L19.7586 156.19V157.036H20.6106V157.594H19.7586V158.968C19.7586 159.292 19.8906 159.46 20.1726 159.46C20.2926 159.46 20.4246 159.424 20.5446 159.364ZM24.0011 158.488C24.0011 158.584 23.9951 158.674 23.9891 158.758H21.7211C21.7631 159.208 22.1291 159.49 22.6211 159.49C22.9031 159.49 23.2631 159.4 23.5391 159.16L23.8571 159.604C23.5511 159.928 23.0411 160.066 22.5971 160.066C21.6731 160.066 21.0431 159.466 21.0431 158.518C21.0431 157.594 21.6971 156.97 22.6091 156.97C23.4071 156.97 24.0011 157.474 24.0011 158.488ZM22.5851 157.546C22.1471 157.546 21.8111 157.774 21.7271 158.248H23.3651C23.3351 157.78 23.0171 157.546 22.5851 157.546ZM26.0704 158.464L27.1324 160H26.3284L25.9564 159.424C25.7884 159.154 25.6804 158.974 25.6504 158.878H25.6384C25.5964 158.974 25.4884 159.16 25.3144 159.43L24.9424 160H24.1504L25.2004 158.482L24.2104 157.036H25.0144L25.4044 157.654C25.5124 157.822 25.5964 157.96 25.6384 158.062H25.6504C25.6924 157.96 25.7704 157.822 25.8784 157.654L26.2624 157.036H27.0544L26.0704 158.464ZM29.3689 159.364L29.5549 159.898C29.3269 160 29.1349 160.042 28.8889 160.042C28.2649 160.042 27.9169 159.676 27.9169 158.986V157.594H27.3589V157.036H27.9169V156.262L28.5829 156.19V157.036H29.4349V157.594H28.5829V158.968C28.5829 159.292 28.7149 159.46 28.9969 159.46C29.1169 159.46 29.2489 159.424 29.3689 159.364Z" fill="white"/>
<path d="M12 170C12 168.895 12.8954 168 14 168H34C35.1046 168 36 168.895 36 170V170C36 171.105 35.1046 172 34 172H14C12.8954 172 12 171.105 12 170V170Z" fill="#2B87F8" fill-opacity="0.25"/>
<path d="M57.3333 135.31C57.3333 133.482 58.7348 132 60.4637 132H75.3333L81.3333 138.4V160.69C81.3333 162.518 79.9317 164 78.2028 164H60.4637C58.7348 164 57.3333 162.518 57.3333 160.69V135.31Z" fill="#2B87F8" fill-opacity="0.55"/>
<path d="M75.3333 132V138.4H81.3333L75.3333 132Z" fill="#2B87F8" fill-opacity="0.55"/>
<path d="M75.3333 138.4L81.3333 144.8V138.4H75.3333Z" fill="#2B87F8" fill-opacity="0.1"/>
<path d="M65.8779 159.364L66.0639 159.898C65.8359 160 65.6439 160.042 65.3979 160.042C64.7739 160.042 64.4259 159.676 64.4259 158.986V157.594H63.8679V157.036H64.4259V156.262L65.0919 156.19V157.036H65.9439V157.594H65.0919V158.968C65.0919 159.292 65.2239 159.46 65.5059 159.46C65.6259 159.46 65.7579 159.424 65.8779 159.364ZM69.3344 158.488C69.3344 158.584 69.3284 158.674 69.3224 158.758H67.0544C67.0964 159.208 67.4624 159.49 67.9544 159.49C68.2364 159.49 68.5964 159.4 68.8724 159.16L69.1904 159.604C68.8844 159.928 68.3744 160.066 67.9304 160.066C67.0064 160.066 66.3764 159.466 66.3764 158.518C66.3764 157.594 67.0304 156.97 67.9424 156.97C68.7404 156.97 69.3344 157.474 69.3344 158.488ZM67.9184 157.546C67.4804 157.546 67.1444 157.774 67.0604 158.248H68.6984C68.6684 157.78 68.3504 157.546 67.9184 157.546ZM71.4037 158.464L72.4657 160H71.6617L71.2897 159.424C71.1217 159.154 71.0137 158.974 70.9837 158.878H70.9717C70.9297 158.974 70.8217 159.16 70.6477 159.43L70.2757 160H69.4837L70.5337 158.482L69.5437 157.036H70.3477L70.7377 157.654C70.8457 157.822 70.9297 157.96 70.9717 158.062H70.9837C71.0257 157.96 71.1037 157.822 71.2117 157.654L71.5957 157.036H72.3877L71.4037 158.464ZM74.7021 159.364L74.8881 159.898C74.6601 160 74.4681 160.042 74.2221 160.042C73.5981 160.042 73.2501 159.676 73.2501 158.986V157.594H72.6921V157.036H73.2501V156.262L73.9161 156.19V157.036H74.7681V157.594H73.9161V158.968C73.9161 159.292 74.0481 159.46 74.3301 159.46C74.4501 159.46 74.5821 159.424 74.7021 159.364Z" fill="white"/>
<path d="M57.3333 170C57.3333 168.895 58.2287 168 59.3333 168H79.3333C80.4378 168 81.3333 168.895 81.3333 170V170C81.3333 171.105 80.4378 172 79.3333 172H59.3333C58.2287 172 57.3333 171.105 57.3333 170V170Z" fill="#2B87F8" fill-opacity="0.25"/>
<path d="M102.667 135.31C102.667 133.482 104.068 132 105.797 132H120.667L126.667 138.4V160.69C126.667 162.518 125.265 164 123.536 164H105.797C104.068 164 102.667 162.518 102.667 160.69V135.31Z" fill="#2B87F8" fill-opacity="0.55"/>
<path d="M120.667 132V138.4H126.667L120.667 132Z" fill="#2B87F8" fill-opacity="0.55"/>
<path d="M120.667 138.4L126.667 144.8V138.4H120.667Z" fill="#2B87F8" fill-opacity="0.1"/>
<path d="M111.211 159.364L111.397 159.898C111.169 160 110.977 160.042 110.731 160.042C110.107 160.042 109.759 159.676 109.759 158.986V157.594H109.201V157.036H109.759V156.262L110.425 156.19V157.036H111.277V157.594H110.425V158.968C110.425 159.292 110.557 159.46 110.839 159.46C110.959 159.46 111.091 159.424 111.211 159.364ZM114.668 158.488C114.668 158.584 114.662 158.674 114.656 158.758H112.388C112.43 159.208 112.796 159.49 113.288 159.49C113.57 159.49 113.93 159.4 114.206 159.16L114.524 159.604C114.218 159.928 113.708 160.066 113.264 160.066C112.34 160.066 111.71 159.466 111.71 158.518C111.71 157.594 112.364 156.97 113.276 156.97C114.074 156.97 114.668 157.474 114.668 158.488ZM113.252 157.546C112.814 157.546 112.478 157.774 112.394 158.248H114.032C114.002 157.78 113.684 157.546 113.252 157.546ZM116.737 158.464L117.799 160H116.995L116.623 159.424C116.455 159.154 116.347 158.974 116.317 158.878H116.305C116.263 158.974 116.155 159.16 115.981 159.43L115.609 160H114.817L115.867 158.482L114.877 157.036H115.681L116.071 157.654C116.179 157.822 116.263 157.96 116.305 158.062H116.317C116.359 157.96 116.437 157.822 116.545 157.654L116.929 157.036H117.721L116.737 158.464ZM120.036 159.364L120.222 159.898C119.994 160 119.802 160.042 119.556 160.042C118.932 160.042 118.584 159.676 118.584 158.986V157.594H118.026V157.036H118.584V156.262L119.25 156.19V157.036H120.102V157.594H119.25V158.968C119.25 159.292 119.382 159.46 119.664 159.46C119.784 159.46 119.916 159.424 120.036 159.364Z" fill="white"/>
<path d="M102.667 170C102.667 168.895 103.562 168 104.667 168H124.667C125.771 168 126.667 168.895 126.667 170V170C126.667 171.105 125.771 172 124.667 172H104.667C103.562 172 102.667 171.105 102.667 170V170Z" fill="#2B87F8" fill-opacity="0.25"/>
<path d="M148 135.31C148 133.482 149.402 132 151.13 132H166L172 138.4V160.69C172 162.518 170.598 164 168.87 164H151.13C149.402 164 148 162.518 148 160.69V135.31Z" fill="#2B87F8" fill-opacity="0.55"/>
<path d="M166 132V138.4H172L166 132Z" fill="#2B87F8" fill-opacity="0.55"/>
<path d="M166 138.4L172 144.8V138.4H166Z" fill="#2B87F8" fill-opacity="0.1"/>
<path d="M156.545 159.364L156.731 159.898C156.503 160 156.311 160.042 156.065 160.042C155.441 160.042 155.093 159.676 155.093 158.986V157.594H154.535V157.036H155.093V156.262L155.759 156.19V157.036H156.611V157.594H155.759V158.968C155.759 159.292 155.891 159.46 156.173 159.46C156.293 159.46 156.425 159.424 156.545 159.364ZM160.001 158.488C160.001 158.584 159.995 158.674 159.989 158.758H157.721C157.763 159.208 158.129 159.49 158.621 159.49C158.903 159.49 159.263 159.4 159.539 159.16L159.857 159.604C159.551 159.928 159.041 160.066 158.597 160.066C157.673 160.066 157.043 159.466 157.043 158.518C157.043 157.594 157.697 156.97 158.609 156.97C159.407 156.97 160.001 157.474 160.001 158.488ZM158.585 157.546C158.147 157.546 157.811 157.774 157.727 158.248H159.365C159.335 157.78 159.017 157.546 158.585 157.546ZM162.07 158.464L163.132 160H162.328L161.956 159.424C161.788 159.154 161.68 158.974 161.65 158.878H161.638C161.596 158.974 161.488 159.16 161.314 159.43L160.942 160H160.15L161.2 158.482L160.21 157.036H161.014L161.404 157.654C161.512 157.822 161.596 157.96 161.638 158.062H161.65C161.692 157.96 161.77 157.822 161.878 157.654L162.262 157.036H163.054L162.07 158.464ZM165.369 159.364L165.555 159.898C165.327 160 165.135 160.042 164.889 160.042C164.265 160.042 163.917 159.676 163.917 158.986V157.594H163.359V157.036H163.917V156.262L164.583 156.19V157.036H165.435V157.594H164.583V158.968C164.583 159.292 164.715 159.46 164.997 159.46C165.117 159.46 165.249 159.424 165.369 159.364Z" fill="white"/>
<path d="M148 170C148 168.895 148.895 168 150 168H170C171.105 168 172 168.895 172 170V170C172 171.105 171.105 172 170 172H150C148.895 172 148 171.105 148 170V170Z" fill="#2B87F8" fill-opacity="0.25"/>
<mask id="path-64-inside-1_5087_53292" fill="white">
<path d="M0 0H184V12H0V0Z"/>
</mask>
<path d="M0 0H184V12H0V0Z" fill="#2B87F8" fill-opacity="0.25"/>
<path d="M184 12V11H0V12V13H184V12Z" fill="#2B87F8" fill-opacity="0.15" mask="url(#path-64-inside-1_5087_53292)"/>
<rect x="12" y="4" width="8" height="4" rx="1" fill="#2B87F8" fill-opacity="0.55"/>
<rect x="144" y="4" width="8" height="4" rx="1" fill="#2B87F8" fill-opacity="0.55"/>
<rect x="154" y="4" width="8" height="4" rx="1" fill="#2B87F8" fill-opacity="0.55"/>
<rect x="164" y="4" width="8" height="4" rx="1" fill="#2B87F8" fill-opacity="0.55"/>
</g>
<defs>
<clipPath id="clip0_5087_53292">
<rect width="184" height="184" rx="4" fill="white"/>
</clipPath>
</defs>
</svg>
