<svg width="104" height="184" viewBox="0 0 104 184" fill="none" xmlns="http://www.w3.org/2000/svg">
<g clip-path="url(#clip0_5087_53365)">
<path d="M0 4C0 1.79086 1.79086 0 4 0H100C102.209 0 104 1.79086 104 4V180C104 182.209 102.209 184 100 184H4C1.79086 184 0 182.209 0 180V4Z" fill="#F0F7FE"/>
<path d="M4 0.5H100C101.933 0.500002 103.5 2.067 103.5 4V180C103.5 181.933 101.933 183.5 100 183.5H4C2.067 183.5 0.5 181.933 0.5 180V4C0.5 2.067 2.067 0.5 4 0.5Z" stroke="#2B87F8" stroke-opacity="0.1"/>
<mask id="path-4-inside-1_5087_53365" fill="white">
<path d="M0 0H104V12H0V0Z"/>
</mask>
<path d="M0 0H104V12H0V0Z" fill="#2B87F8" fill-opacity="0.25"/>
<path d="M104 12V11H0V12V13H104V12Z" fill="#2B87F8" fill-opacity="0.15" mask="url(#path-4-inside-1_5087_53365)"/>
<rect x="8" y="4" width="8" height="4" rx="1" fill="#2B87F8" fill-opacity="0.55"/>
<rect x="68" y="4" width="8" height="4" rx="1" fill="#2B87F8" fill-opacity="0.55"/>
<rect x="78" y="4" width="8" height="4" rx="1" fill="#2B87F8" fill-opacity="0.55"/>
<rect x="88" y="4" width="8" height="4" rx="1" fill="#2B87F8" fill-opacity="0.55"/>
<path d="M16 27.3103C16 25.4821 17.4015 24 19.1304 24H34L40 30.4V52.6897C40 54.5179 38.5985 56 36.8696 56H19.1304C17.4015 56 16 54.5179 16 52.6897V27.3103Z" fill="#2B87F8" fill-opacity="0.55"/>
<path d="M34 24V30.4H40L34 24Z" fill="#2B87F8" fill-opacity="0.55"/>
<path d="M34 30.4L40 36.8V30.4H34Z" fill="#2B87F8" fill-opacity="0.1"/>
<path d="M24.5446 51.364L24.7306 51.898C24.5026 52 24.3106 52.042 24.0646 52.042C23.4406 52.042 23.0926 51.676 23.0926 50.986V49.594H22.5346V49.036H23.0926V48.262L23.7586 48.19V49.036H24.6106V49.594H23.7586V50.968C23.7586 51.292 23.8906 51.46 24.1726 51.46C24.2926 51.46 24.4246 51.424 24.5446 51.364ZM28.0011 50.488C28.0011 50.584 27.9951 50.674 27.9891 50.758H25.7211C25.7631 51.208 26.1291 51.49 26.6211 51.49C26.9031 51.49 27.2631 51.4 27.5391 51.16L27.8571 51.604C27.5511 51.928 27.0411 52.066 26.5971 52.066C25.6731 52.066 25.0431 51.466 25.0431 50.518C25.0431 49.594 25.6971 48.97 26.6091 48.97C27.4071 48.97 28.0011 49.474 28.0011 50.488ZM26.5851 49.546C26.1471 49.546 25.8111 49.774 25.7271 50.248H27.3651C27.3351 49.78 27.0171 49.546 26.5851 49.546ZM30.0704 50.464L31.1324 52H30.3284L29.9564 51.424C29.7884 51.154 29.6804 50.974 29.6504 50.878H29.6384C29.5964 50.974 29.4884 51.16 29.3144 51.43L28.9424 52H28.1504L29.2004 50.482L28.2104 49.036H29.0144L29.4044 49.654C29.5124 49.822 29.5964 49.96 29.6384 50.062H29.6504C29.6924 49.96 29.7704 49.822 29.8784 49.654L30.2624 49.036H31.0544L30.0704 50.464ZM33.3689 51.364L33.5549 51.898C33.3269 52 33.1349 52.042 32.8889 52.042C32.2649 52.042 31.9169 51.676 31.9169 50.986V49.594H31.3589V49.036H31.9169V48.262L32.5829 48.19V49.036H33.4349V49.594H32.5829V50.968C32.5829 51.292 32.7149 51.46 32.9969 51.46C33.1169 51.46 33.2489 51.424 33.3689 51.364Z" fill="white"/>
<path d="M16 62C16 60.8954 16.8954 60 18 60H38C39.1046 60 40 60.8954 40 62V62C40 63.1046 39.1046 64 38 64H18C16.8954 64 16 63.1046 16 62V62Z" fill="#2B87F8" fill-opacity="0.25"/>
<path d="M64 27.3103C64 25.4821 65.4015 24 67.1304 24H82L88 30.4V52.6897C88 54.5179 86.5985 56 84.8696 56H67.1304C65.4015 56 64 54.5179 64 52.6897V27.3103Z" fill="#2B87F8" fill-opacity="0.55"/>
<path d="M82 24V30.4H88L82 24Z" fill="#2B87F8" fill-opacity="0.55"/>
<path d="M82 30.4L88 36.8V30.4H82Z" fill="#2B87F8" fill-opacity="0.1"/>
<path d="M72.5446 51.364L72.7306 51.898C72.5026 52 72.3106 52.042 72.0646 52.042C71.4406 52.042 71.0926 51.676 71.0926 50.986V49.594H70.5346V49.036H71.0926V48.262L71.7586 48.19V49.036H72.6106V49.594H71.7586V50.968C71.7586 51.292 71.8906 51.46 72.1726 51.46C72.2926 51.46 72.4246 51.424 72.5446 51.364ZM76.0011 50.488C76.0011 50.584 75.9951 50.674 75.9891 50.758H73.7211C73.7631 51.208 74.1291 51.49 74.6211 51.49C74.9031 51.49 75.2631 51.4 75.5391 51.16L75.8571 51.604C75.5511 51.928 75.0411 52.066 74.5971 52.066C73.6731 52.066 73.0431 51.466 73.0431 50.518C73.0431 49.594 73.6971 48.97 74.6091 48.97C75.4071 48.97 76.0011 49.474 76.0011 50.488ZM74.5851 49.546C74.1471 49.546 73.8111 49.774 73.7271 50.248H75.3651C75.3351 49.78 75.0171 49.546 74.5851 49.546ZM78.0704 50.464L79.1324 52H78.3284L77.9564 51.424C77.7884 51.154 77.6804 50.974 77.6504 50.878H77.6384C77.5964 50.974 77.4884 51.16 77.3144 51.43L76.9424 52H76.1504L77.2004 50.482L76.2104 49.036H77.0144L77.4044 49.654C77.5124 49.822 77.5964 49.96 77.6384 50.062H77.6504C77.6924 49.96 77.7704 49.822 77.8784 49.654L78.2624 49.036H79.0544L78.0704 50.464ZM81.3689 51.364L81.5549 51.898C81.3269 52 81.1349 52.042 80.8889 52.042C80.2649 52.042 79.9169 51.676 79.9169 50.986V49.594H79.3589V49.036H79.9169V48.262L80.5829 48.19V49.036H81.4349V49.594H80.5829V50.968C80.5829 51.292 80.7149 51.46 80.9969 51.46C81.1169 51.46 81.2489 51.424 81.3689 51.364Z" fill="white"/>
<path d="M64 62C64 60.8954 64.8954 60 66 60H86C87.1046 60 88 60.8954 88 62V62C88 63.1046 87.1046 64 86 64H66C64.8954 64 64 63.1046 64 62V62Z" fill="#2B87F8" fill-opacity="0.25"/>
<path d="M16 81.3103C16 79.4821 17.4015 78 19.1304 78H34L40 84.4V106.69C40 108.518 38.5985 110 36.8696 110H19.1304C17.4015 110 16 108.518 16 106.69V81.3103Z" fill="#2B87F8" fill-opacity="0.55"/>
<path d="M34 78V84.4H40L34 78Z" fill="#2B87F8" fill-opacity="0.55"/>
<path d="M34 84.4L40 90.8V84.4H34Z" fill="#2B87F8" fill-opacity="0.1"/>
<path d="M24.5446 105.364L24.7306 105.898C24.5026 106 24.3106 106.042 24.0646 106.042C23.4406 106.042 23.0926 105.676 23.0926 104.986V103.594H22.5346V103.036H23.0926V102.262L23.7586 102.19V103.036H24.6106V103.594H23.7586V104.968C23.7586 105.292 23.8906 105.46 24.1726 105.46C24.2926 105.46 24.4246 105.424 24.5446 105.364ZM28.0011 104.488C28.0011 104.584 27.9951 104.674 27.9891 104.758H25.7211C25.7631 105.208 26.1291 105.49 26.6211 105.49C26.9031 105.49 27.2631 105.4 27.5391 105.16L27.8571 105.604C27.5511 105.928 27.0411 106.066 26.5971 106.066C25.6731 106.066 25.0431 105.466 25.0431 104.518C25.0431 103.594 25.6971 102.97 26.6091 102.97C27.4071 102.97 28.0011 103.474 28.0011 104.488ZM26.5851 103.546C26.1471 103.546 25.8111 103.774 25.7271 104.248H27.3651C27.3351 103.78 27.0171 103.546 26.5851 103.546ZM30.0704 104.464L31.1324 106H30.3284L29.9564 105.424C29.7884 105.154 29.6804 104.974 29.6504 104.878H29.6384C29.5964 104.974 29.4884 105.16 29.3144 105.43L28.9424 106H28.1504L29.2004 104.482L28.2104 103.036H29.0144L29.4044 103.654C29.5124 103.822 29.5964 103.96 29.6384 104.062H29.6504C29.6924 103.96 29.7704 103.822 29.8784 103.654L30.2624 103.036H31.0544L30.0704 104.464ZM33.3689 105.364L33.5549 105.898C33.3269 106 33.1349 106.042 32.8889 106.042C32.2649 106.042 31.9169 105.676 31.9169 104.986V103.594H31.3589V103.036H31.9169V102.262L32.5829 102.19V103.036H33.4349V103.594H32.5829V104.968C32.5829 105.292 32.7149 105.46 32.9969 105.46C33.1169 105.46 33.2489 105.424 33.3689 105.364Z" fill="white"/>
<path d="M16 116C16 114.895 16.8954 114 18 114H38C39.1046 114 40 114.895 40 116V116C40 117.105 39.1046 118 38 118H18C16.8954 118 16 117.105 16 116V116Z" fill="#2B87F8" fill-opacity="0.25"/>
<path d="M64 81.3103C64 79.4821 65.4015 78 67.1304 78H82L88 84.4V106.69C88 108.518 86.5985 110 84.8696 110H67.1304C65.4015 110 64 108.518 64 106.69V81.3103Z" fill="#2B87F8" fill-opacity="0.55"/>
<path d="M82 78V84.4H88L82 78Z" fill="#2B87F8" fill-opacity="0.55"/>
<path d="M82 84.4L88 90.8V84.4H82Z" fill="#2B87F8" fill-opacity="0.1"/>
<path d="M72.5446 105.364L72.7306 105.898C72.5026 106 72.3106 106.042 72.0646 106.042C71.4406 106.042 71.0926 105.676 71.0926 104.986V103.594H70.5346V103.036H71.0926V102.262L71.7586 102.19V103.036H72.6106V103.594H71.7586V104.968C71.7586 105.292 71.8906 105.46 72.1726 105.46C72.2926 105.46 72.4246 105.424 72.5446 105.364ZM76.0011 104.488C76.0011 104.584 75.9951 104.674 75.9891 104.758H73.7211C73.7631 105.208 74.1291 105.49 74.6211 105.49C74.9031 105.49 75.2631 105.4 75.5391 105.16L75.8571 105.604C75.5511 105.928 75.0411 106.066 74.5971 106.066C73.6731 106.066 73.0431 105.466 73.0431 104.518C73.0431 103.594 73.6971 102.97 74.6091 102.97C75.4071 102.97 76.0011 103.474 76.0011 104.488ZM74.5851 103.546C74.1471 103.546 73.8111 103.774 73.7271 104.248H75.3651C75.3351 103.78 75.0171 103.546 74.5851 103.546ZM78.0704 104.464L79.1324 106H78.3284L77.9564 105.424C77.7884 105.154 77.6804 104.974 77.6504 104.878H77.6384C77.5964 104.974 77.4884 105.16 77.3144 105.43L76.9424 106H76.1504L77.2004 104.482L76.2104 103.036H77.0144L77.4044 103.654C77.5124 103.822 77.5964 103.96 77.6384 104.062H77.6504C77.6924 103.96 77.7704 103.822 77.8784 103.654L78.2624 103.036H79.0544L78.0704 104.464ZM81.3689 105.364L81.5549 105.898C81.3269 106 81.1349 106.042 80.8889 106.042C80.2649 106.042 79.9169 105.676 79.9169 104.986V103.594H79.3589V103.036H79.9169V102.262L80.5829 102.19V103.036H81.4349V103.594H80.5829V104.968C80.5829 105.292 80.7149 105.46 80.9969 105.46C81.1169 105.46 81.2489 105.424 81.3689 105.364Z" fill="white"/>
<path d="M64 116C64 114.895 64.8954 114 66 114H86C87.1046 114 88 114.895 88 116V116C88 117.105 87.1046 118 86 118H66C64.8954 118 64 117.105 64 116V116Z" fill="#2B87F8" fill-opacity="0.25"/>
<path d="M16 135.31C16 133.482 17.4015 132 19.1304 132H34L40 138.4V160.69C40 162.518 38.5985 164 36.8696 164H19.1304C17.4015 164 16 162.518 16 160.69V135.31Z" fill="#2B87F8" fill-opacity="0.55"/>
<path d="M34 132V138.4H40L34 132Z" fill="#2B87F8" fill-opacity="0.55"/>
<path d="M34 138.4L40 144.8V138.4H34Z" fill="#2B87F8" fill-opacity="0.1"/>
<path d="M24.5446 159.364L24.7306 159.898C24.5026 160 24.3106 160.042 24.0646 160.042C23.4406 160.042 23.0926 159.676 23.0926 158.986V157.594H22.5346V157.036H23.0926V156.262L23.7586 156.19V157.036H24.6106V157.594H23.7586V158.968C23.7586 159.292 23.8906 159.46 24.1726 159.46C24.2926 159.46 24.4246 159.424 24.5446 159.364ZM28.0011 158.488C28.0011 158.584 27.9951 158.674 27.9891 158.758H25.7211C25.7631 159.208 26.1291 159.49 26.6211 159.49C26.9031 159.49 27.2631 159.4 27.5391 159.16L27.8571 159.604C27.5511 159.928 27.0411 160.066 26.5971 160.066C25.6731 160.066 25.0431 159.466 25.0431 158.518C25.0431 157.594 25.6971 156.97 26.6091 156.97C27.4071 156.97 28.0011 157.474 28.0011 158.488ZM26.5851 157.546C26.1471 157.546 25.8111 157.774 25.7271 158.248H27.3651C27.3351 157.78 27.0171 157.546 26.5851 157.546ZM30.0704 158.464L31.1324 160H30.3284L29.9564 159.424C29.7884 159.154 29.6804 158.974 29.6504 158.878H29.6384C29.5964 158.974 29.4884 159.16 29.3144 159.43L28.9424 160H28.1504L29.2004 158.482L28.2104 157.036H29.0144L29.4044 157.654C29.5124 157.822 29.5964 157.96 29.6384 158.062H29.6504C29.6924 157.96 29.7704 157.822 29.8784 157.654L30.2624 157.036H31.0544L30.0704 158.464ZM33.3689 159.364L33.5549 159.898C33.3269 160 33.1349 160.042 32.8889 160.042C32.2649 160.042 31.9169 159.676 31.9169 158.986V157.594H31.3589V157.036H31.9169V156.262L32.5829 156.19V157.036H33.4349V157.594H32.5829V158.968C32.5829 159.292 32.7149 159.46 32.9969 159.46C33.1169 159.46 33.2489 159.424 33.3689 159.364Z" fill="white"/>
<path d="M16 170C16 168.895 16.8954 168 18 168H38C39.1046 168 40 168.895 40 170V170C40 171.105 39.1046 172 38 172H18C16.8954 172 16 171.105 16 170V170Z" fill="#2B87F8" fill-opacity="0.25"/>
<path d="M64 135.31C64 133.482 65.4015 132 67.1304 132H82L88 138.4V160.69C88 162.518 86.5985 164 84.8696 164H67.1304C65.4015 164 64 162.518 64 160.69V135.31Z" fill="#2B87F8" fill-opacity="0.55"/>
<path d="M82 132V138.4H88L82 132Z" fill="#2B87F8" fill-opacity="0.55"/>
<path d="M82 138.4L88 144.8V138.4H82Z" fill="#2B87F8" fill-opacity="0.1"/>
<path d="M72.5446 159.364L72.7306 159.898C72.5026 160 72.3106 160.042 72.0646 160.042C71.4406 160.042 71.0926 159.676 71.0926 158.986V157.594H70.5346V157.036H71.0926V156.262L71.7586 156.19V157.036H72.6106V157.594H71.7586V158.968C71.7586 159.292 71.8906 159.46 72.1726 159.46C72.2926 159.46 72.4246 159.424 72.5446 159.364ZM76.0011 158.488C76.0011 158.584 75.9951 158.674 75.9891 158.758H73.7211C73.7631 159.208 74.1291 159.49 74.6211 159.49C74.9031 159.49 75.2631 159.4 75.5391 159.16L75.8571 159.604C75.5511 159.928 75.0411 160.066 74.5971 160.066C73.6731 160.066 73.0431 159.466 73.0431 158.518C73.0431 157.594 73.6971 156.97 74.6091 156.97C75.4071 156.97 76.0011 157.474 76.0011 158.488ZM74.5851 157.546C74.1471 157.546 73.8111 157.774 73.7271 158.248H75.3651C75.3351 157.78 75.0171 157.546 74.5851 157.546ZM78.0704 158.464L79.1324 160H78.3284L77.9564 159.424C77.7884 159.154 77.6804 158.974 77.6504 158.878H77.6384C77.5964 158.974 77.4884 159.16 77.3144 159.43L76.9424 160H76.1504L77.2004 158.482L76.2104 157.036H77.0144L77.4044 157.654C77.5124 157.822 77.5964 157.96 77.6384 158.062H77.6504C77.6924 157.96 77.7704 157.822 77.8784 157.654L78.2624 157.036H79.0544L78.0704 158.464ZM81.3689 159.364L81.5549 159.898C81.3269 160 81.1349 160.042 80.8889 160.042C80.2649 160.042 79.9169 159.676 79.9169 158.986V157.594H79.3589V157.036H79.9169V156.262L80.5829 156.19V157.036H81.4349V157.594H80.5829V158.968C80.5829 159.292 80.7149 159.46 80.9969 159.46C81.1169 159.46 81.2489 159.424 81.3689 159.364Z" fill="white"/>
<path d="M64 170C64 168.895 64.8954 168 66 168H86C87.1046 168 88 168.895 88 170V170C88 171.105 87.1046 172 86 172H66C64.8954 172 64 171.105 64 170V170Z" fill="#2B87F8" fill-opacity="0.25"/>
</g>
<defs>
<clipPath id="clip0_5087_53365">
<path d="M0 4C0 1.79086 1.79086 0 4 0H100C102.209 0 104 1.79086 104 4V180C104 182.209 102.209 184 100 184H4C1.79086 184 0 182.209 0 180V4Z" fill="white"/>
</clipPath>
</defs>
</svg>
