<svg width="104" height="184" viewBox="0 0 104 184" fill="none" xmlns="http://www.w3.org/2000/svg">
<g clip-path="url(#clip0_5087_53191)">
<path d="M0 4C0 1.79086 1.79086 0 4 0H100C102.209 0 104 1.79086 104 4V180C104 182.209 102.209 184 100 184H4C1.79086 184 0 182.209 0 180V4Z" fill="#F0F7FE"/>
<path d="M4 0.5H100C101.933 0.500002 103.5 2.067 103.5 4V180C103.5 181.933 101.933 183.5 100 183.5H4C2.067 183.5 0.5 181.933 0.5 180V4C0.5 2.067 2.067 0.5 4 0.5Z" stroke="#2B87F8" stroke-opacity="0.1"/>
<path d="M28 28C28 25.7909 29.7909 24 32 24H72C74.2091 24 76 25.7909 76 28V28C76 30.2091 74.2091 32 72 32H32C29.7909 32 28 30.2091 28 28V28Z" fill="#2B87F8" fill-opacity="0.55"/>
<mask id="path-5-inside-1_5087_53191" fill="white">
<path d="M0 0H104V12H0V0Z"/>
</mask>
<path d="M0 0H104V12H0V0Z" fill="#2B87F8" fill-opacity="0.25"/>
<path d="M104 12V11H0V12V13H104V12Z" fill="#2B87F8" fill-opacity="0.15" mask="url(#path-5-inside-1_5087_53191)"/>
<rect x="8" y="4" width="8" height="4" rx="1" fill="#2B87F8" fill-opacity="0.55"/>
<rect x="68" y="4" width="8" height="4" rx="1" fill="#2B87F8" fill-opacity="0.55"/>
<rect x="78" y="4" width="8" height="4" rx="1" fill="#2B87F8" fill-opacity="0.55"/>
<rect x="88" y="4" width="8" height="4" rx="1" fill="#2B87F8" fill-opacity="0.55"/>
<path d="M8 44C8 41.7909 9.79086 40 12 40H92C94.2091 40 96 41.7909 96 44V168C96 170.209 94.2091 172 92 172H12C9.79086 172 8 170.209 8 168V44Z" fill="#2B87F8" fill-opacity="0.1"/>
<path d="M12 40.5H92C93.933 40.5 95.5 42.067 95.5 44V168C95.5 169.933 93.933 171.5 92 171.5H12C10.067 171.5 8.5 169.933 8.5 168V44C8.5 42.067 10.067 40.5 12 40.5Z" stroke="#2B87F8" stroke-opacity="0.15"/>
<path d="M16 50C16 48.8954 16.8954 48 18 48H30C31.1046 48 32 48.8954 32 50V50C32 51.1046 31.1046 52 30 52H18C16.8954 52 16 51.1046 16 50V50Z" fill="#2B87F8" fill-opacity="0.55"/>
<path d="M16 56C16 54.8954 16.8954 54 18 54H86C87.1046 54 88 54.8954 88 56V64C88 65.1046 87.1046 66 86 66H18C16.8954 66 16 65.1046 16 64V56Z" fill="white"/>
<path d="M18 54.5H86C86.8284 54.5 87.5 55.1716 87.5 56V64C87.5 64.8284 86.8284 65.5 86 65.5H18C17.1716 65.5 16.5 64.8284 16.5 64V56L16.5078 55.8467C16.5846 55.0903 17.2233 54.5 18 54.5Z" stroke="#2B87F8" stroke-opacity="0.55"/>
<path d="M81.7628 60.9625L79.9864 59.1851C79.9618 59.1606 79.9435 59.134 79.9312 59.1054C79.919 59.0768 79.9128 59.0479 79.9128 59.0187C79.9128 58.9604 79.9335 58.9094 79.9747 58.8656C80.016 58.8219 80.0703 58.8 80.1378 58.8H83.8628C83.9303 58.8 83.9847 58.8225 84.026 58.8675C84.0672 58.9125 84.0878 58.965 84.0878 59.025C84.0878 59.0333 84.0633 59.0865 84.0143 59.1846L82.2378 60.9625C82.2045 60.9958 82.167 61.0208 82.1253 61.0375C82.0837 61.0542 82.042 61.0625 82.0003 61.0625C81.9587 61.0625 81.917 61.0542 81.8753 61.0375C81.8337 61.0208 81.7962 60.9958 81.7628 60.9625Z" fill="#2B87F8"/>
<path d="M16 76C16 74.8954 16.8954 74 18 74H30C31.1046 74 32 74.8954 32 76V76C32 77.1046 31.1046 78 30 78H18C16.8954 78 16 77.1046 16 76V76Z" fill="#2B87F8" fill-opacity="0.55"/>
<path d="M16 82C16 80.8954 16.8954 80 18 80H86C87.1046 80 88 80.8954 88 82V90C88 91.1046 87.1046 92 86 92H18C16.8954 92 16 91.1046 16 90V82Z" fill="white"/>
<path d="M18 80.5H86C86.8284 80.5 87.5 81.1716 87.5 82V90C87.5 90.8284 86.8284 91.5 86 91.5H18C17.1716 91.5 16.5 90.8284 16.5 90V82L16.5078 81.8467C16.5846 81.0903 17.2233 80.5 18 80.5Z" stroke="#2B87F8" stroke-opacity="0.55"/>
<path d="M16 102C16 100.895 16.8954 100 18 100H30C31.1046 100 32 100.895 32 102V102C32 103.105 31.1046 104 30 104H18C16.8954 104 16 103.105 16 102V102Z" fill="#2B87F8" fill-opacity="0.55"/>
<path d="M16 108C16 106.895 16.8954 106 18 106H86C87.1046 106 88 106.895 88 108V142C88 143.105 87.1046 144 86 144H18C16.8954 144 16 143.105 16 142V108Z" fill="white"/>
<path d="M18 106.5H86C86.8284 106.5 87.5 107.172 87.5 108V142C87.5 142.828 86.8284 143.5 86 143.5H18C17.1716 143.5 16.5 142.828 16.5 142V108C16.5 107.172 17.1716 106.5 18 106.5Z" stroke="#2B87F8" stroke-opacity="0.55"/>
<path d="M16 154C16 152.895 16.8954 152 18 152H48C49.1046 152 50 152.895 50 154V162C50 163.105 49.1046 164 48 164H18C16.8954 164 16 163.105 16 162V154Z" fill="#2B87F8" fill-opacity="0.15"/>
<path d="M18 152.5H48C48.8284 152.5 49.5 153.172 49.5 154V162C49.5 162.828 48.8284 163.5 48 163.5H18C17.1716 163.5 16.5 162.828 16.5 162V154L16.5078 153.847C16.5846 153.09 17.2233 152.5 18 152.5Z" stroke="#2B87F8" stroke-opacity="0.15"/>
<path d="M54 154C54 152.895 54.8954 152 56 152H86C87.1046 152 88 152.895 88 154V162C88 163.105 87.1046 164 86 164H56C54.8954 164 54 163.105 54 162V154Z" fill="#2B87F8" fill-opacity="0.55"/>
<path d="M56 152.5H86C86.8284 152.5 87.5 153.172 87.5 154V162C87.5 162.828 86.8284 163.5 86 163.5H56C55.1716 163.5 54.5 162.828 54.5 162V154L54.5078 153.847C54.5846 153.09 55.2233 152.5 56 152.5Z" stroke="#2B87F8" stroke-opacity="0.15"/>
</g>
<defs>
<clipPath id="clip0_5087_53191">
<path d="M0 4C0 1.79086 1.79086 0 4 0H100C102.209 0 104 1.79086 104 4V180C104 182.209 102.209 184 100 184H4C1.79086 184 0 182.209 0 180V4Z" fill="white"/>
</clipPath>
</defs>
</svg>
