<svg width="184" height="184" viewBox="0 0 184 184" fill="none" xmlns="http://www.w3.org/2000/svg">
<g clip-path="url(#clip0_5087_53141)">
<path d="M0 4C0 1.79086 1.79086 0 4 0H180C182.209 0 184 1.79086 184 4V180C184 182.209 182.209 184 180 184H4C1.79086 184 0 182.209 0 180V4Z" fill="#F0F7FE"/>
<path d="M4 0.5H180C181.933 0.5 183.5 2.067 183.5 4V180C183.5 181.933 181.933 183.5 180 183.5H4C2.067 183.5 0.5 181.933 0.5 180V4C0.5 2.067 2.067 0.5 4 0.5Z" stroke="#2B87F8" stroke-opacity="0.1"/>
<path d="M12 44C12 41.7909 13.7909 40 16 40H168C170.209 40 172 41.7909 172 44V168C172 170.209 170.209 172 168 172H16C13.7909 172 12 170.209 12 168V44Z" fill="#2B87F8" fill-opacity="0.1"/>
<path d="M16 40.5H168C169.933 40.5 171.5 42.067 171.5 44V168C171.5 169.933 169.933 171.5 168 171.5H16C14.067 171.5 12.5 169.933 12.5 168V44C12.5 42.067 14.067 40.5 16 40.5Z" stroke="#2B87F8" stroke-opacity="0.15"/>
<path d="M20 50C20 48.8954 20.8954 48 22 48H34C35.1046 48 36 48.8954 36 50V50C36 51.1046 35.1046 52 34 52H22C20.8954 52 20 51.1046 20 50V50Z" fill="#2B87F8" fill-opacity="0.55"/>
<path d="M20 56C20 54.8954 20.8954 54 22 54H162C163.105 54 164 54.8954 164 56V64C164 65.1046 163.105 66 162 66H22C20.8954 66 20 65.1046 20 64V56Z" fill="white"/>
<path d="M22 54.5H162C162.828 54.5 163.5 55.1716 163.5 56V64C163.5 64.8284 162.828 65.5 162 65.5H22C21.1716 65.5 20.5 64.8284 20.5 64V56L20.5078 55.8467C20.5846 55.0903 21.2233 54.5 22 54.5Z" stroke="#2B87F8" stroke-opacity="0.55"/>
<path d="M157.763 60.9625L155.986 59.1851C155.962 59.1606 155.943 59.134 155.931 59.1054C155.919 59.0768 155.913 59.0479 155.913 59.0187C155.913 58.9604 155.933 58.9094 155.975 58.8656C156.016 58.8219 156.07 58.8 156.138 58.8H159.863C159.93 58.8 159.985 58.8225 160.026 58.8675C160.067 58.9125 160.088 58.965 160.088 59.025C160.088 59.0333 160.063 59.0865 160.014 59.1846L158.238 60.9625C158.205 60.9958 158.167 61.0208 158.125 61.0375C158.084 61.0542 158.042 61.0625 158 61.0625C157.959 61.0625 157.917 61.0542 157.875 61.0375C157.834 61.0208 157.796 60.9958 157.763 60.9625Z" fill="#2B87F8"/>
<path d="M20 76C20 74.8954 20.8954 74 22 74H34C35.1046 74 36 74.8954 36 76V76C36 77.1046 35.1046 78 34 78H22C20.8954 78 20 77.1046 20 76V76Z" fill="#2B87F8" fill-opacity="0.55"/>
<path d="M20 82C20 80.8954 20.8954 80 22 80H162C163.105 80 164 80.8954 164 82V90C164 91.1046 163.105 92 162 92H22C20.8954 92 20 91.1046 20 90V82Z" fill="white"/>
<path d="M22 80.5H162C162.828 80.5 163.5 81.1716 163.5 82V90C163.5 90.8284 162.828 91.5 162 91.5H22C21.1716 91.5 20.5 90.8284 20.5 90V82L20.5078 81.8467C20.5846 81.0903 21.2233 80.5 22 80.5Z" stroke="#2B87F8" stroke-opacity="0.55"/>
<path d="M20 102C20 100.895 20.8954 100 22 100H34C35.1046 100 36 100.895 36 102V102C36 103.105 35.1046 104 34 104H22C20.8954 104 20 103.105 20 102V102Z" fill="#2B87F8" fill-opacity="0.55"/>
<path d="M20 108C20 106.895 20.8954 106 22 106H162C163.105 106 164 106.895 164 108V142C164 143.105 163.105 144 162 144H22C20.8954 144 20 143.105 20 142V108Z" fill="white"/>
<path d="M22 106.5H162C162.828 106.5 163.5 107.172 163.5 108V142C163.5 142.828 162.828 143.5 162 143.5H22C21.1716 143.5 20.5 142.828 20.5 142V108C20.5 107.172 21.1716 106.5 22 106.5Z" stroke="#2B87F8" stroke-opacity="0.55"/>
<path d="M76 154C76 152.895 76.8954 152 78 152H116C117.105 152 118 152.895 118 154V162C118 163.105 117.105 164 116 164H78C76.8954 164 76 163.105 76 162V154Z" fill="#2B87F8" fill-opacity="0.15"/>
<path d="M78 152.5H116C116.828 152.5 117.5 153.172 117.5 154V162C117.5 162.828 116.828 163.5 116 163.5H78C77.1716 163.5 76.5 162.828 76.5 162V154L76.5078 153.847C76.5846 153.09 77.2233 152.5 78 152.5Z" stroke="#2B87F8" stroke-opacity="0.15"/>
<path d="M122 154C122 152.895 122.895 152 124 152H162C163.105 152 164 152.895 164 154V162C164 163.105 163.105 164 162 164H124C122.895 164 122 163.105 122 162V154Z" fill="#2B87F8" fill-opacity="0.55"/>
<path d="M124 152.5H162C162.828 152.5 163.5 153.172 163.5 154V162C163.5 162.828 162.828 163.5 162 163.5H124C123.172 163.5 122.5 162.828 122.5 162V154L122.508 153.847C122.585 153.09 123.223 152.5 124 152.5Z" stroke="#2B87F8" stroke-opacity="0.15"/>
<path d="M68 28C68 25.7909 69.7909 24 72 24H112C114.209 24 116 25.7909 116 28V28C116 30.2091 114.209 32 112 32H72C69.7909 32 68 30.2091 68 28V28Z" fill="#2B87F8" fill-opacity="0.55"/>
<mask id="path-21-inside-1_5087_53141" fill="white">
<path d="M0 0H184V12H0V0Z"/>
</mask>
<path d="M0 0H184V12H0V0Z" fill="#2B87F8" fill-opacity="0.25"/>
<path d="M184 12V11H0V12V13H184V12Z" fill="#2B87F8" fill-opacity="0.15" mask="url(#path-21-inside-1_5087_53141)"/>
<rect x="12" y="4" width="8" height="4" rx="1" fill="#2B87F8" fill-opacity="0.55"/>
<rect x="144" y="4" width="8" height="4" rx="1" fill="#2B87F8" fill-opacity="0.55"/>
<rect x="154" y="4" width="8" height="4" rx="1" fill="#2B87F8" fill-opacity="0.55"/>
<rect x="164" y="4" width="8" height="4" rx="1" fill="#2B87F8" fill-opacity="0.55"/>
</g>
<defs>
<clipPath id="clip0_5087_53141">
<rect width="184" height="184" rx="4" fill="white"/>
</clipPath>
</defs>
</svg>
