<svg width="104" height="184" viewBox="0 0 104 184" fill="none" xmlns="http://www.w3.org/2000/svg">
<g clip-path="url(#clip0_5087_53087)">
<path d="M0 4C0 1.79086 1.79086 0 4 0H100C102.209 0 104 1.79086 104 4V180C104 182.209 102.209 184 100 184H4C1.79086 184 0 182.209 0 180V4Z" fill="#F0F7FE"/>
<path d="M4 0.5H100C101.933 0.500002 103.5 2.067 103.5 4V180C103.5 181.933 101.933 183.5 100 183.5H4C2.067 183.5 0.5 181.933 0.5 180V4C0.5 2.067 2.067 0.5 4 0.5Z" stroke="#2B87F8" stroke-opacity="0.1"/>
<g clip-path="url(#clip1_5087_53087)">
<path d="M8 28C8 25.7909 9.79086 24 12 24H92C94.2091 24 96 25.7909 96 28V48C96 50.2091 94.2091 52 92 52H12C9.79086 52 8 50.2091 8 48V28Z" fill="#2B87F8" fill-opacity="0.1"/>
<path d="M12 24.5H92C93.933 24.5 95.5 26.067 95.5 28V48C95.5 49.933 93.933 51.5 92 51.5H12C10.067 51.5 8.5 49.933 8.5 48V28C8.5 26.067 10.067 24.5 12 24.5Z" stroke="#2B87F8" stroke-opacity="0.15"/>
<g clip-path="url(#clip2_5087_53087)">
<path d="M12 30C12 28.8954 12.8954 28 14 28H30C31.1046 28 32 28.8954 32 30V46C32 47.1046 31.1046 48 30 48H14C12.8954 48 12 47.1046 12 46V30Z" fill="#2B87F8" fill-opacity="0.15"/>
<path d="M29.1428 38.9091C33.0042 38.9091 35.3804 42.7906 39.1428 48C36.0735 48 22.9336 48 19.1428 48C22.4101 43.7099 25.2814 38.9091 29.1428 38.9091Z" fill="#2B87F8" fill-opacity="0.15"/>
<path d="M14.8572 37.0909C18.933 37.0909 21.9273 42.2927 25.5715 48C20.79 48 9.21092 48 4.85718 48C8.37722 42.2927 10.7813 37.0909 14.8572 37.0909Z" fill="#2B87F8" fill-opacity="0.25"/>
<path d="M23 37C24.6569 37 26 35.6569 26 34C26 32.3431 24.6569 31 23 31C21.3431 31 20 32.3431 20 34C20 35.6569 21.3431 37 23 37Z" fill="#2B87F8" fill-opacity="0.4"/>
</g>
<path d="M14 28.5H30C30.8284 28.5 31.5 29.1716 31.5 30V46C31.5 46.8284 30.8284 47.5 30 47.5H14C13.1716 47.5 12.5 46.8284 12.5 46V30C12.5 29.1716 13.1716 28.5 14 28.5Z" stroke="#2B87F8" stroke-opacity="0.15"/>
<path d="M36 34C36 32.8954 36.8954 32 38 32H90C91.1046 32 92 32.8954 92 34V34C92 35.1046 91.1046 36 90 36H38C36.8954 36 36 35.1046 36 34V34Z" fill="#2B87F8" fill-opacity="0.55"/>
<path d="M36 42C36 40.8954 36.8954 40 38 40H74C75.1046 40 76 40.8954 76 42V42C76 43.1046 75.1046 44 74 44H38C36.8954 44 36 43.1046 36 42V42Z" fill="#2B87F8" fill-opacity="0.25"/>
<path d="M8 60C8 57.7909 9.79086 56 12 56H92C94.2091 56 96 57.7909 96 60V80C96 82.2091 94.2091 84 92 84H12C9.79086 84 8 82.2091 8 80V60Z" fill="#2B87F8" fill-opacity="0.1"/>
<path d="M12 56.5H92C93.933 56.5 95.5 58.067 95.5 60V80C95.5 81.933 93.933 83.5 92 83.5H12C10.067 83.5 8.5 81.933 8.5 80V60C8.5 58.067 10.067 56.5 12 56.5Z" stroke="#2B87F8" stroke-opacity="0.15"/>
<g clip-path="url(#clip3_5087_53087)">
<path d="M12 62C12 60.8954 12.8954 60 14 60H30C31.1046 60 32 60.8954 32 62V78C32 79.1046 31.1046 80 30 80H14C12.8954 80 12 79.1046 12 78V62Z" fill="#2B87F8" fill-opacity="0.15"/>
<path d="M29.1428 70.9091C33.0042 70.9091 35.3804 74.7906 39.1428 80C36.0735 80 22.9336 80 19.1428 80C22.4101 75.7099 25.2814 70.9091 29.1428 70.9091Z" fill="#2B87F8" fill-opacity="0.15"/>
<path d="M14.8572 69.0909C18.933 69.0909 21.9273 74.2926 25.5715 80C20.79 80 9.21092 80 4.85718 80C8.37722 74.2926 10.7813 69.0909 14.8572 69.0909Z" fill="#2B87F8" fill-opacity="0.25"/>
<path d="M23 69C24.6569 69 26 67.6569 26 66C26 64.3431 24.6569 63 23 63C21.3431 63 20 64.3431 20 66C20 67.6569 21.3431 69 23 69Z" fill="#2B87F8" fill-opacity="0.4"/>
</g>
<path d="M14 60.5H30C30.8284 60.5 31.5 61.1716 31.5 62V78C31.5 78.8284 30.8284 79.5 30 79.5H14C13.1716 79.5 12.5 78.8284 12.5 78V62C12.5 61.1716 13.1716 60.5 14 60.5Z" stroke="#2B87F8" stroke-opacity="0.15"/>
<path d="M36 66C36 64.8954 36.8954 64 38 64H90C91.1046 64 92 64.8954 92 66V66C92 67.1046 91.1046 68 90 68H38C36.8954 68 36 67.1046 36 66V66Z" fill="#2B87F8" fill-opacity="0.55"/>
<path d="M36 74C36 72.8954 36.8954 72 38 72H74C75.1046 72 76 72.8954 76 74V74C76 75.1046 75.1046 76 74 76H38C36.8954 76 36 75.1046 36 74V74Z" fill="#2B87F8" fill-opacity="0.25"/>
<path d="M8 92C8 89.7909 9.79086 88 12 88H92C94.2091 88 96 89.7909 96 92V112C96 114.209 94.2091 116 92 116H12C9.79086 116 8 114.209 8 112V92Z" fill="#2B87F8" fill-opacity="0.1"/>
<path d="M12 88.5H92C93.933 88.5 95.5 90.067 95.5 92V112C95.5 113.933 93.933 115.5 92 115.5H12C10.067 115.5 8.5 113.933 8.5 112V92C8.5 90.067 10.067 88.5 12 88.5Z" stroke="#2B87F8" stroke-opacity="0.15"/>
<g clip-path="url(#clip4_5087_53087)">
<path d="M12 94C12 92.8954 12.8954 92 14 92H30C31.1046 92 32 92.8954 32 94V110C32 111.105 31.1046 112 30 112H14C12.8954 112 12 111.105 12 110V94Z" fill="#2B87F8" fill-opacity="0.15"/>
<path d="M29.1428 102.909C33.0042 102.909 35.3804 106.791 39.1428 112C36.0735 112 22.9336 112 19.1428 112C22.4101 107.71 25.2814 102.909 29.1428 102.909Z" fill="#2B87F8" fill-opacity="0.15"/>
<path d="M14.8572 101.091C18.933 101.091 21.9273 106.293 25.5715 112C20.79 112 9.21092 112 4.85718 112C8.37722 106.293 10.7813 101.091 14.8572 101.091Z" fill="#2B87F8" fill-opacity="0.25"/>
<path d="M23 101C24.6569 101 26 99.6569 26 98C26 96.3431 24.6569 95 23 95C21.3431 95 20 96.3431 20 98C20 99.6569 21.3431 101 23 101Z" fill="#2B87F8" fill-opacity="0.4"/>
</g>
<path d="M14 92.5H30C30.8284 92.5 31.5 93.1716 31.5 94V110C31.5 110.828 30.8284 111.5 30 111.5H14C13.1716 111.5 12.5 110.828 12.5 110V94C12.5 93.1716 13.1716 92.5 14 92.5Z" stroke="#2B87F8" stroke-opacity="0.15"/>
<path d="M36 98C36 96.8954 36.8954 96 38 96H90C91.1046 96 92 96.8954 92 98V98C92 99.1046 91.1046 100 90 100H38C36.8954 100 36 99.1046 36 98V98Z" fill="#2B87F8" fill-opacity="0.55"/>
<path d="M36 106C36 104.895 36.8954 104 38 104H74C75.1046 104 76 104.895 76 106V106C76 107.105 75.1046 108 74 108H38C36.8954 108 36 107.105 36 106V106Z" fill="#2B87F8" fill-opacity="0.25"/>
<path d="M8 124C8 121.791 9.79086 120 12 120H92C94.2091 120 96 121.791 96 124V144C96 146.209 94.2091 148 92 148H12C9.79086 148 8 146.209 8 144V124Z" fill="#2B87F8" fill-opacity="0.1"/>
<path d="M12 120.5H92C93.933 120.5 95.5 122.067 95.5 124V144C95.5 145.933 93.933 147.5 92 147.5H12C10.067 147.5 8.5 145.933 8.5 144V124C8.5 122.067 10.067 120.5 12 120.5Z" stroke="#2B87F8" stroke-opacity="0.15"/>
<g clip-path="url(#clip5_5087_53087)">
<path d="M12 126C12 124.895 12.8954 124 14 124H30C31.1046 124 32 124.895 32 126V142C32 143.105 31.1046 144 30 144H14C12.8954 144 12 143.105 12 142V126Z" fill="#2B87F8" fill-opacity="0.15"/>
<path d="M29.1428 134.909C33.0042 134.909 35.3804 138.791 39.1428 144C36.0735 144 22.9336 144 19.1428 144C22.4101 139.71 25.2814 134.909 29.1428 134.909Z" fill="#2B87F8" fill-opacity="0.15"/>
<path d="M14.8572 133.091C18.933 133.091 21.9273 138.293 25.5715 144C20.79 144 9.21092 144 4.85718 144C8.37722 138.293 10.7813 133.091 14.8572 133.091Z" fill="#2B87F8" fill-opacity="0.25"/>
<path d="M23 133C24.6569 133 26 131.657 26 130C26 128.343 24.6569 127 23 127C21.3431 127 20 128.343 20 130C20 131.657 21.3431 133 23 133Z" fill="#2B87F8" fill-opacity="0.4"/>
</g>
<path d="M14 124.5H30C30.8284 124.5 31.5 125.172 31.5 126V142C31.5 142.828 30.8284 143.5 30 143.5H14C13.1716 143.5 12.5 142.828 12.5 142V126C12.5 125.172 13.1716 124.5 14 124.5Z" stroke="#2B87F8" stroke-opacity="0.15"/>
<path d="M36 130C36 128.895 36.8954 128 38 128H90C91.1046 128 92 128.895 92 130V130C92 131.105 91.1046 132 90 132H38C36.8954 132 36 131.105 36 130V130Z" fill="#2B87F8" fill-opacity="0.55"/>
<path d="M36 138C36 136.895 36.8954 136 38 136H74C75.1046 136 76 136.895 76 138V138C76 139.105 75.1046 140 74 140H38C36.8954 140 36 139.105 36 138V138Z" fill="#2B87F8" fill-opacity="0.25"/>
<path d="M8 156C8 153.791 9.79086 152 12 152H92C94.2091 152 96 153.791 96 156V176C96 178.209 94.2091 180 92 180H12C9.79086 180 8 178.209 8 176V156Z" fill="#2B87F8" fill-opacity="0.1"/>
<path d="M12 152.5H92C93.933 152.5 95.5 154.067 95.5 156V176C95.5 177.933 93.933 179.5 92 179.5H12C10.067 179.5 8.5 177.933 8.5 176V156C8.5 154.067 10.067 152.5 12 152.5Z" stroke="#2B87F8" stroke-opacity="0.15"/>
<g clip-path="url(#clip6_5087_53087)">
<path d="M12 158C12 156.895 12.8954 156 14 156H30C31.1046 156 32 156.895 32 158V174C32 175.105 31.1046 176 30 176H14C12.8954 176 12 175.105 12 174V158Z" fill="#2B87F8" fill-opacity="0.15"/>
<path d="M29.1428 166.909C33.0042 166.909 35.3804 170.791 39.1428 176C36.0735 176 22.9336 176 19.1428 176C22.4101 171.71 25.2814 166.909 29.1428 166.909Z" fill="#2B87F8" fill-opacity="0.15"/>
<path d="M14.8572 165.091C18.933 165.091 21.9273 170.293 25.5715 176C20.79 176 9.21092 176 4.85718 176C8.37722 170.293 10.7813 165.091 14.8572 165.091Z" fill="#2B87F8" fill-opacity="0.25"/>
<path d="M23 165C24.6569 165 26 163.657 26 162C26 160.343 24.6569 159 23 159C21.3431 159 20 160.343 20 162C20 163.657 21.3431 165 23 165Z" fill="#2B87F8" fill-opacity="0.4"/>
</g>
<path d="M14 156.5H30C30.8284 156.5 31.5 157.172 31.5 158V174C31.5 174.828 30.8284 175.5 30 175.5H14C13.1716 175.5 12.5 174.828 12.5 174V158C12.5 157.172 13.1716 156.5 14 156.5Z" stroke="#2B87F8" stroke-opacity="0.15"/>
<path d="M36 162C36 160.895 36.8954 160 38 160H90C91.1046 160 92 160.895 92 162V162C92 163.105 91.1046 164 90 164H38C36.8954 164 36 163.105 36 162V162Z" fill="#2B87F8" fill-opacity="0.55"/>
<path d="M36 170C36 168.895 36.8954 168 38 168H74C75.1046 168 76 168.895 76 170V170C76 171.105 75.1046 172 74 172H38C36.8954 172 36 171.105 36 170V170Z" fill="#2B87F8" fill-opacity="0.25"/>
</g>
<mask id="path-49-inside-1_5087_53087" fill="white">
<path d="M0 0H104V12H0V0Z"/>
</mask>
<path d="M0 0H104V12H0V0Z" fill="#2B87F8" fill-opacity="0.25"/>
<path d="M104 12V11H0V12V13H104V12Z" fill="#2B87F8" fill-opacity="0.15" mask="url(#path-49-inside-1_5087_53087)"/>
<rect x="8" y="4" width="8" height="4" rx="1" fill="#2B87F8" fill-opacity="0.55"/>
<rect x="68" y="4" width="8" height="4" rx="1" fill="#2B87F8" fill-opacity="0.55"/>
<rect x="78" y="4" width="8" height="4" rx="1" fill="#2B87F8" fill-opacity="0.55"/>
<rect x="88" y="4" width="8" height="4" rx="1" fill="#2B87F8" fill-opacity="0.55"/>
</g>
<defs>
<clipPath id="clip0_5087_53087">
<path d="M0 4C0 1.79086 1.79086 0 4 0H100C102.209 0 104 1.79086 104 4V180C104 182.209 102.209 184 100 184H4C1.79086 184 0 182.209 0 180V4Z" fill="white"/>
</clipPath>
<clipPath id="clip1_5087_53087">
<rect width="88" height="148" fill="white" transform="translate(8 24)"/>
</clipPath>
<clipPath id="clip2_5087_53087">
<path d="M12 30C12 28.8954 12.8954 28 14 28H30C31.1046 28 32 28.8954 32 30V46C32 47.1046 31.1046 48 30 48H14C12.8954 48 12 47.1046 12 46V30Z" fill="white"/>
</clipPath>
<clipPath id="clip3_5087_53087">
<path d="M12 62C12 60.8954 12.8954 60 14 60H30C31.1046 60 32 60.8954 32 62V78C32 79.1046 31.1046 80 30 80H14C12.8954 80 12 79.1046 12 78V62Z" fill="white"/>
</clipPath>
<clipPath id="clip4_5087_53087">
<path d="M12 94C12 92.8954 12.8954 92 14 92H30C31.1046 92 32 92.8954 32 94V110C32 111.105 31.1046 112 30 112H14C12.8954 112 12 111.105 12 110V94Z" fill="white"/>
</clipPath>
<clipPath id="clip5_5087_53087">
<path d="M12 126C12 124.895 12.8954 124 14 124H30C31.1046 124 32 124.895 32 126V142C32 143.105 31.1046 144 30 144H14C12.8954 144 12 143.105 12 142V126Z" fill="white"/>
</clipPath>
<clipPath id="clip6_5087_53087">
<path d="M12 158C12 156.895 12.8954 156 14 156H30C31.1046 156 32 156.895 32 158V174C32 175.105 31.1046 176 30 176H14C12.8954 176 12 175.105 12 174V158Z" fill="white"/>
</clipPath>
</defs>
</svg>
