<svg width="184" height="184" viewBox="0 0 184 184" fill="none" xmlns="http://www.w3.org/2000/svg">
<g clip-path="url(#clip0_5087_53019)">
<path d="M0 4C0 1.79086 1.79086 0 4 0H180C182.209 0 184 1.79086 184 4V180C184 182.209 182.209 184 180 184H4C1.79086 184 0 182.209 0 180V4Z" fill="#F0F7FE"/>
<path d="M4 0.5H180C181.933 0.5 183.5 2.067 183.5 4V180C183.5 181.933 181.933 183.5 180 183.5H4C2.067 183.5 0.5 181.933 0.5 180V4C0.5 2.067 2.067 0.5 4 0.5Z" stroke="#2B87F8" stroke-opacity="0.1"/>
<g clip-path="url(#clip1_5087_53019)">
<path d="M12 28C12 25.7909 13.7909 24 16 24H168C170.209 24 172 25.7909 172 28V48C172 50.2091 170.209 52 168 52H16C13.7909 52 12 50.2091 12 48V28Z" fill="#2B87F8" fill-opacity="0.1"/>
<path d="M16 24.5H168C169.933 24.5 171.5 26.067 171.5 28V48C171.5 49.933 169.933 51.5 168 51.5H16C14.067 51.5 12.5 49.933 12.5 48V28C12.5 26.067 14.067 24.5 16 24.5Z" stroke="#2B87F8" stroke-opacity="0.15"/>
<g clip-path="url(#clip2_5087_53019)">
<path d="M16 30C16 28.8954 16.8954 28 18 28H34C35.1046 28 36 28.8954 36 30V46C36 47.1046 35.1046 48 34 48H18C16.8954 48 16 47.1046 16 46V30Z" fill="#2B87F8" fill-opacity="0.15"/>
<path d="M33.1428 38.9091C37.0042 38.9091 39.3804 42.7906 43.1428 48C40.0735 48 26.9336 48 23.1428 48C26.4101 43.7099 29.2814 38.9091 33.1428 38.9091Z" fill="#2B87F8" fill-opacity="0.15"/>
<path d="M18.8572 37.0909C22.933 37.0909 25.9273 42.2927 29.5715 48C24.79 48 13.2109 48 8.85718 48C12.3772 42.2927 14.7813 37.0909 18.8572 37.0909Z" fill="#2B87F8" fill-opacity="0.25"/>
<path d="M27 37C28.6569 37 30 35.6569 30 34C30 32.3431 28.6569 31 27 31C25.3431 31 24 32.3431 24 34C24 35.6569 25.3431 37 27 37Z" fill="#2B87F8" fill-opacity="0.4"/>
</g>
<path d="M18 28.5H34C34.8284 28.5 35.5 29.1716 35.5 30V46C35.5 46.8284 34.8284 47.5 34 47.5H18C17.1716 47.5 16.5 46.8284 16.5 46V30C16.5 29.1716 17.1716 28.5 18 28.5Z" stroke="#2B87F8" stroke-opacity="0.15"/>
<path d="M40 34C40 32.8954 40.8954 32 42 32H166C167.105 32 168 32.8954 168 34V34C168 35.1046 167.105 36 166 36H42C40.8954 36 40 35.1046 40 34V34Z" fill="#2B87F8" fill-opacity="0.55"/>
<path d="M40 42C40 40.8954 40.8954 40 42 40H150C151.105 40 152 40.8954 152 42V42C152 43.1046 151.105 44 150 44H42C40.8954 44 40 43.1046 40 42V42Z" fill="#2B87F8" fill-opacity="0.25"/>
<path d="M12 60C12 57.7909 13.7909 56 16 56H168C170.209 56 172 57.7909 172 60V80C172 82.2091 170.209 84 168 84H16C13.7909 84 12 82.2091 12 80V60Z" fill="#2B87F8" fill-opacity="0.1"/>
<path d="M16 56.5H168C169.933 56.5 171.5 58.067 171.5 60V80C171.5 81.933 169.933 83.5 168 83.5H16C14.067 83.5 12.5 81.933 12.5 80V60C12.5 58.067 14.067 56.5 16 56.5Z" stroke="#2B87F8" stroke-opacity="0.15"/>
<g clip-path="url(#clip3_5087_53019)">
<path d="M16 62C16 60.8954 16.8954 60 18 60H34C35.1046 60 36 60.8954 36 62V78C36 79.1046 35.1046 80 34 80H18C16.8954 80 16 79.1046 16 78V62Z" fill="#2B87F8" fill-opacity="0.15"/>
<path d="M33.1428 70.9091C37.0042 70.9091 39.3804 74.7906 43.1428 80C40.0735 80 26.9336 80 23.1428 80C26.4101 75.7099 29.2814 70.9091 33.1428 70.9091Z" fill="#2B87F8" fill-opacity="0.15"/>
<path d="M18.8572 69.0909C22.933 69.0909 25.9273 74.2926 29.5715 80C24.79 80 13.2109 80 8.85718 80C12.3772 74.2926 14.7813 69.0909 18.8572 69.0909Z" fill="#2B87F8" fill-opacity="0.25"/>
<path d="M27 69C28.6569 69 30 67.6569 30 66C30 64.3431 28.6569 63 27 63C25.3431 63 24 64.3431 24 66C24 67.6569 25.3431 69 27 69Z" fill="#2B87F8" fill-opacity="0.4"/>
</g>
<path d="M18 60.5H34C34.8284 60.5 35.5 61.1716 35.5 62V78C35.5 78.8284 34.8284 79.5 34 79.5H18C17.1716 79.5 16.5 78.8284 16.5 78V62C16.5 61.1716 17.1716 60.5 18 60.5Z" stroke="#2B87F8" stroke-opacity="0.15"/>
<path d="M40 66C40 64.8954 40.8954 64 42 64H166C167.105 64 168 64.8954 168 66V66C168 67.1046 167.105 68 166 68H42C40.8954 68 40 67.1046 40 66V66Z" fill="#2B87F8" fill-opacity="0.55"/>
<path d="M40 74C40 72.8954 40.8954 72 42 72H150C151.105 72 152 72.8954 152 74V74C152 75.1046 151.105 76 150 76H42C40.8954 76 40 75.1046 40 74V74Z" fill="#2B87F8" fill-opacity="0.25"/>
<path d="M12 92C12 89.7909 13.7909 88 16 88H168C170.209 88 172 89.7909 172 92V112C172 114.209 170.209 116 168 116H16C13.7909 116 12 114.209 12 112V92Z" fill="#2B87F8" fill-opacity="0.1"/>
<path d="M16 88.5H168C169.933 88.5 171.5 90.067 171.5 92V112C171.5 113.933 169.933 115.5 168 115.5H16C14.067 115.5 12.5 113.933 12.5 112V92C12.5 90.067 14.067 88.5 16 88.5Z" stroke="#2B87F8" stroke-opacity="0.15"/>
<g clip-path="url(#clip4_5087_53019)">
<path d="M16 94C16 92.8954 16.8954 92 18 92H34C35.1046 92 36 92.8954 36 94V110C36 111.105 35.1046 112 34 112H18C16.8954 112 16 111.105 16 110V94Z" fill="#2B87F8" fill-opacity="0.15"/>
<path d="M33.1428 102.909C37.0042 102.909 39.3804 106.791 43.1428 112C40.0735 112 26.9336 112 23.1428 112C26.4101 107.71 29.2814 102.909 33.1428 102.909Z" fill="#2B87F8" fill-opacity="0.15"/>
<path d="M18.8572 101.091C22.933 101.091 25.9273 106.293 29.5715 112C24.79 112 13.2109 112 8.85718 112C12.3772 106.293 14.7813 101.091 18.8572 101.091Z" fill="#2B87F8" fill-opacity="0.25"/>
<path d="M27 101C28.6569 101 30 99.6569 30 98C30 96.3431 28.6569 95 27 95C25.3431 95 24 96.3431 24 98C24 99.6569 25.3431 101 27 101Z" fill="#2B87F8" fill-opacity="0.4"/>
</g>
<path d="M18 92.5H34C34.8284 92.5 35.5 93.1716 35.5 94V110C35.5 110.828 34.8284 111.5 34 111.5H18C17.1716 111.5 16.5 110.828 16.5 110V94C16.5 93.1716 17.1716 92.5 18 92.5Z" stroke="#2B87F8" stroke-opacity="0.15"/>
<path d="M40 98C40 96.8954 40.8954 96 42 96H166C167.105 96 168 96.8954 168 98V98C168 99.1046 167.105 100 166 100H42C40.8954 100 40 99.1046 40 98V98Z" fill="#2B87F8" fill-opacity="0.55"/>
<path d="M40 106C40 104.895 40.8954 104 42 104H150C151.105 104 152 104.895 152 106V106C152 107.105 151.105 108 150 108H42C40.8954 108 40 107.105 40 106V106Z" fill="#2B87F8" fill-opacity="0.25"/>
<path d="M12 124C12 121.791 13.7909 120 16 120H168C170.209 120 172 121.791 172 124V144C172 146.209 170.209 148 168 148H16C13.7909 148 12 146.209 12 144V124Z" fill="#2B87F8" fill-opacity="0.1"/>
<path d="M16 120.5H168C169.933 120.5 171.5 122.067 171.5 124V144C171.5 145.933 169.933 147.5 168 147.5H16C14.067 147.5 12.5 145.933 12.5 144V124C12.5 122.067 14.067 120.5 16 120.5Z" stroke="#2B87F8" stroke-opacity="0.15"/>
<g clip-path="url(#clip5_5087_53019)">
<path d="M16 126C16 124.895 16.8954 124 18 124H34C35.1046 124 36 124.895 36 126V142C36 143.105 35.1046 144 34 144H18C16.8954 144 16 143.105 16 142V126Z" fill="#2B87F8" fill-opacity="0.15"/>
<path d="M33.1428 134.909C37.0042 134.909 39.3804 138.791 43.1428 144C40.0735 144 26.9336 144 23.1428 144C26.4101 139.71 29.2814 134.909 33.1428 134.909Z" fill="#2B87F8" fill-opacity="0.15"/>
<path d="M18.8572 133.091C22.933 133.091 25.9273 138.293 29.5715 144C24.79 144 13.2109 144 8.85718 144C12.3772 138.293 14.7813 133.091 18.8572 133.091Z" fill="#2B87F8" fill-opacity="0.25"/>
<path d="M27 133C28.6569 133 30 131.657 30 130C30 128.343 28.6569 127 27 127C25.3431 127 24 128.343 24 130C24 131.657 25.3431 133 27 133Z" fill="#2B87F8" fill-opacity="0.4"/>
</g>
<path d="M18 124.5H34C34.8284 124.5 35.5 125.172 35.5 126V142C35.5 142.828 34.8284 143.5 34 143.5H18C17.1716 143.5 16.5 142.828 16.5 142V126C16.5 125.172 17.1716 124.5 18 124.5Z" stroke="#2B87F8" stroke-opacity="0.15"/>
<path d="M40 130C40 128.895 40.8954 128 42 128H166C167.105 128 168 128.895 168 130V130C168 131.105 167.105 132 166 132H42C40.8954 132 40 131.105 40 130V130Z" fill="#2B87F8" fill-opacity="0.55"/>
<path d="M40 138C40 136.895 40.8954 136 42 136H150C151.105 136 152 136.895 152 138V138C152 139.105 151.105 140 150 140H42C40.8954 140 40 139.105 40 138V138Z" fill="#2B87F8" fill-opacity="0.25"/>
<path d="M12 156C12 153.791 13.7909 152 16 152H168C170.209 152 172 153.791 172 156V176C172 178.209 170.209 180 168 180H16C13.7909 180 12 178.209 12 176V156Z" fill="#2B87F8" fill-opacity="0.1"/>
<path d="M16 152.5H168C169.933 152.5 171.5 154.067 171.5 156V176C171.5 177.933 169.933 179.5 168 179.5H16C14.067 179.5 12.5 177.933 12.5 176V156C12.5 154.067 14.067 152.5 16 152.5Z" stroke="#2B87F8" stroke-opacity="0.15"/>
<g clip-path="url(#clip6_5087_53019)">
<path d="M16 158C16 156.895 16.8954 156 18 156H34C35.1046 156 36 156.895 36 158V174C36 175.105 35.1046 176 34 176H18C16.8954 176 16 175.105 16 174V158Z" fill="#2B87F8" fill-opacity="0.15"/>
<path d="M33.1428 166.909C37.0042 166.909 39.3804 170.791 43.1428 176C40.0735 176 26.9336 176 23.1428 176C26.4101 171.71 29.2814 166.909 33.1428 166.909Z" fill="#2B87F8" fill-opacity="0.15"/>
<path d="M18.8572 165.091C22.933 165.091 25.9273 170.293 29.5715 176C24.79 176 13.2109 176 8.85718 176C12.3772 170.293 14.7813 165.091 18.8572 165.091Z" fill="#2B87F8" fill-opacity="0.25"/>
<path d="M27 165C28.6569 165 30 163.657 30 162C30 160.343 28.6569 159 27 159C25.3431 159 24 160.343 24 162C24 163.657 25.3431 165 27 165Z" fill="#2B87F8" fill-opacity="0.4"/>
</g>
<path d="M18 156.5H34C34.8284 156.5 35.5 157.172 35.5 158V174C35.5 174.828 34.8284 175.5 34 175.5H18C17.1716 175.5 16.5 174.828 16.5 174V158C16.5 157.172 17.1716 156.5 18 156.5Z" stroke="#2B87F8" stroke-opacity="0.15"/>
<path d="M40 162C40 160.895 40.8954 160 42 160H166C167.105 160 168 160.895 168 162V162C168 163.105 167.105 164 166 164H42C40.8954 164 40 163.105 40 162V162Z" fill="#2B87F8" fill-opacity="0.55"/>
<path d="M40 170C40 168.895 40.8954 168 42 168H150C151.105 168 152 168.895 152 170V170C152 171.105 151.105 172 150 172H42C40.8954 172 40 171.105 40 170V170Z" fill="#2B87F8" fill-opacity="0.25"/>
</g>
<mask id="path-49-inside-1_5087_53019" fill="white">
<path d="M0 0H184V12H0V0Z"/>
</mask>
<path d="M0 0H184V12H0V0Z" fill="#2B87F8" fill-opacity="0.25"/>
<path d="M184 12V11H0V12V13H184V12Z" fill="#2B87F8" fill-opacity="0.15" mask="url(#path-49-inside-1_5087_53019)"/>
<rect x="12" y="4" width="8" height="4" rx="1" fill="#2B87F8" fill-opacity="0.55"/>
<rect x="144" y="4" width="8" height="4" rx="1" fill="#2B87F8" fill-opacity="0.55"/>
<rect x="154" y="4" width="8" height="4" rx="1" fill="#2B87F8" fill-opacity="0.55"/>
<rect x="164" y="4" width="8" height="4" rx="1" fill="#2B87F8" fill-opacity="0.55"/>
</g>
<defs>
<clipPath id="clip0_5087_53019">
<rect width="184" height="184" rx="4" fill="white"/>
</clipPath>
<clipPath id="clip1_5087_53019">
<rect width="160" height="148" fill="white" transform="translate(12 24)"/>
</clipPath>
<clipPath id="clip2_5087_53019">
<path d="M16 30C16 28.8954 16.8954 28 18 28H34C35.1046 28 36 28.8954 36 30V46C36 47.1046 35.1046 48 34 48H18C16.8954 48 16 47.1046 16 46V30Z" fill="white"/>
</clipPath>
<clipPath id="clip3_5087_53019">
<path d="M16 62C16 60.8954 16.8954 60 18 60H34C35.1046 60 36 60.8954 36 62V78C36 79.1046 35.1046 80 34 80H18C16.8954 80 16 79.1046 16 78V62Z" fill="white"/>
</clipPath>
<clipPath id="clip4_5087_53019">
<path d="M16 94C16 92.8954 16.8954 92 18 92H34C35.1046 92 36 92.8954 36 94V110C36 111.105 35.1046 112 34 112H18C16.8954 112 16 111.105 16 110V94Z" fill="white"/>
</clipPath>
<clipPath id="clip5_5087_53019">
<path d="M16 126C16 124.895 16.8954 124 18 124H34C35.1046 124 36 124.895 36 126V142C36 143.105 35.1046 144 34 144H18C16.8954 144 16 143.105 16 142V126Z" fill="white"/>
</clipPath>
<clipPath id="clip6_5087_53019">
<path d="M16 158C16 156.895 16.8954 156 18 156H34C35.1046 156 36 156.895 36 158V174C36 175.105 35.1046 176 34 176H18C16.8954 176 16 175.105 16 174V158Z" fill="white"/>
</clipPath>
</defs>
</svg>
