<svg width="104" height="184" viewBox="0 0 104 184" fill="none" xmlns="http://www.w3.org/2000/svg">
<g clip-path="url(#clip0_5087_52955)">
<path d="M0 4C0 1.79086 1.79086 0 4 0H100C102.209 0 104 1.79086 104 4V180C104 182.209 102.209 184 100 184H4C1.79086 184 0 182.209 0 180V4Z" fill="#F0F7FE"/>
<path d="M4 0.5H100C101.933 0.500002 103.5 2.067 103.5 4V180C103.5 181.933 101.933 183.5 100 183.5H4C2.067 183.5 0.5 181.933 0.5 180V4C0.5 2.067 2.067 0.5 4 0.5Z" stroke="#2B87F8" stroke-opacity="0.1"/>
<path d="M8 60C8 57.7909 9.79086 56 12 56H92C94.2091 56 96 57.7909 96 60V132C96 134.209 94.2091 136 92 136H12C9.79086 136 8 134.209 8 132V60Z" fill="#2B87F8" fill-opacity="0.15"/>
<path d="M12 56.5H92C93.933 56.5 95.5 58.067 95.5 60V132C95.5 133.933 93.933 135.5 92 135.5H12C10.067 135.5 8.5 133.933 8.5 132V60C8.5 58.067 10.067 56.5 12 56.5Z" stroke="#2B87F8" stroke-opacity="0.15"/>
<path d="M16 66C16 64.8954 16.8954 64 18 64H30C31.1046 64 32 64.8954 32 66V66C32 67.1046 31.1046 68 30 68H18C16.8954 68 16 67.1046 16 66V66Z" fill="#2B87F8" fill-opacity="0.55"/>
<path d="M16 72C16 70.8954 16.8954 70 18 70H86C87.1046 70 88 70.8954 88 72V80C88 81.1046 87.1046 82 86 82H18C16.8954 82 16 81.1046 16 80V72Z" fill="white"/>
<path d="M18 70.5H86C86.8284 70.5 87.5 71.1716 87.5 72V80C87.5 80.8284 86.8284 81.5 86 81.5H18C17.1716 81.5 16.5 80.8284 16.5 80V72L16.5078 71.8467C16.5846 71.0903 17.2233 70.5 18 70.5Z" stroke="#2B87F8" stroke-opacity="0.55"/>
<path d="M16 92C16 90.8954 16.8954 90 18 90H30C31.1046 90 32 90.8954 32 92V92C32 93.1046 31.1046 94 30 94H18C16.8954 94 16 93.1046 16 92V92Z" fill="#2B87F8" fill-opacity="0.55"/>
<path d="M16 98C16 96.8954 16.8954 96 18 96H86C87.1046 96 88 96.8954 88 98V106C88 107.105 87.1046 108 86 108H18C16.8954 108 16 107.105 16 106V98Z" fill="white"/>
<path d="M18 96.5H86C86.8284 96.5 87.5 97.1716 87.5 98V106C87.5 106.828 86.8284 107.5 86 107.5H18C17.1716 107.5 16.5 106.828 16.5 106V98L16.5078 97.8467C16.5846 97.0903 17.2233 96.5 18 96.5Z" stroke="#2B87F8" stroke-opacity="0.55"/>
<path d="M16 118C16 116.895 16.8954 116 18 116H86C87.1046 116 88 116.895 88 118V126C88 127.105 87.1046 128 86 128H18C16.8954 128 16 127.105 16 126V118Z" fill="#2B87F8" fill-opacity="0.55"/>
<path d="M18 116.5H86C86.8284 116.5 87.5 117.172 87.5 118V126C87.5 126.828 86.8284 127.5 86 127.5H18C17.1716 127.5 16.5 126.828 16.5 126V118L16.5078 117.847C16.5846 117.09 17.2233 116.5 18 116.5Z" stroke="#2B87F8" stroke-opacity="0.15"/>
<path d="M28 36C28 33.7909 29.7909 32 32 32H72C74.2091 32 76 33.7909 76 36V36C76 38.2091 74.2091 40 72 40H32C29.7909 40 28 38.2091 28 36V36Z" fill="#2B87F8" fill-opacity="0.55"/>
<mask id="path-15-inside-1_5087_52955" fill="white">
<path d="M0 0H104V12H0V0Z"/>
</mask>
<path d="M0 0H104V12H0V0Z" fill="#2B87F8" fill-opacity="0.25"/>
<path d="M104 12V11H0V12V13H104V12Z" fill="#2B87F8" fill-opacity="0.15" mask="url(#path-15-inside-1_5087_52955)"/>
<rect x="8" y="4" width="8" height="4" rx="1" fill="#2B87F8" fill-opacity="0.55"/>
<rect x="68" y="4" width="8" height="4" rx="1" fill="#2B87F8" fill-opacity="0.55"/>
<rect x="78" y="4" width="8" height="4" rx="1" fill="#2B87F8" fill-opacity="0.55"/>
<rect x="88" y="4" width="8" height="4" rx="1" fill="#2B87F8" fill-opacity="0.55"/>
</g>
<defs>
<clipPath id="clip0_5087_52955">
<path d="M0 4C0 1.79086 1.79086 0 4 0H100C102.209 0 104 1.79086 104 4V180C104 182.209 102.209 184 100 184H4C1.79086 184 0 182.209 0 180V4Z" fill="white"/>
</clipPath>
</defs>
</svg>
