<svg width="184" height="184" viewBox="0 0 184 184" fill="none" xmlns="http://www.w3.org/2000/svg">
<g clip-path="url(#clip0_5087_52922)">
<path d="M0 4C0 1.79086 1.79086 0 4 0H180C182.209 0 184 1.79086 184 4V180C184 182.209 182.209 184 180 184H4C1.79086 184 0 182.209 0 180V4Z" fill="#F0F7FE"/>
<path d="M4 0.5H180C181.933 0.5 183.5 2.067 183.5 4V180C183.5 181.933 181.933 183.5 180 183.5H4C2.067 183.5 0.5 181.933 0.5 180V4C0.5 2.067 2.067 0.5 4 0.5Z" stroke="#2B87F8" stroke-opacity="0.1"/>
<path d="M40 60C40 57.7909 41.7909 56 44 56H140C142.209 56 144 57.7909 144 60V132C144 134.209 142.209 136 140 136H44C41.7909 136 40 134.209 40 132V60Z" fill="#2B87F8" fill-opacity="0.15"/>
<path d="M44 56.5H140C141.933 56.5 143.5 58.067 143.5 60V132C143.5 133.933 141.933 135.5 140 135.5H44C42.067 135.5 40.5 133.933 40.5 132V60C40.5 58.067 42.067 56.5 44 56.5Z" stroke="#2B87F8" stroke-opacity="0.15"/>
<path d="M48 66C48 64.8954 48.8954 64 50 64H62C63.1046 64 64 64.8954 64 66V66C64 67.1046 63.1046 68 62 68H50C48.8954 68 48 67.1046 48 66V66Z" fill="#2B87F8" fill-opacity="0.55"/>
<path d="M48 72C48 70.8954 48.8954 70 50 70H134C135.105 70 136 70.8954 136 72V80C136 81.1046 135.105 82 134 82H50C48.8954 82 48 81.1046 48 80V72Z" fill="white"/>
<path d="M50 70.5H134C134.828 70.5 135.5 71.1716 135.5 72V80C135.5 80.8284 134.828 81.5 134 81.5H50C49.1716 81.5 48.5 80.8284 48.5 80V72L48.5078 71.8467C48.5846 71.0903 49.2233 70.5 50 70.5Z" stroke="#2B87F8" stroke-opacity="0.55"/>
<path d="M48 92C48 90.8954 48.8954 90 50 90H62C63.1046 90 64 90.8954 64 92V92C64 93.1046 63.1046 94 62 94H50C48.8954 94 48 93.1046 48 92V92Z" fill="#2B87F8" fill-opacity="0.55"/>
<path d="M48 98C48 96.8954 48.8954 96 50 96H134C135.105 96 136 96.8954 136 98V106C136 107.105 135.105 108 134 108H50C48.8954 108 48 107.105 48 106V98Z" fill="white"/>
<path d="M50 96.5H134C134.828 96.5 135.5 97.1716 135.5 98V106C135.5 106.828 134.828 107.5 134 107.5H50C49.1716 107.5 48.5 106.828 48.5 106V98L48.5078 97.8467C48.5846 97.0903 49.2233 96.5 50 96.5Z" stroke="#2B87F8" stroke-opacity="0.55"/>
<path d="M48 118C48 116.895 48.8954 116 50 116H134C135.105 116 136 116.895 136 118V126C136 127.105 135.105 128 134 128H50C48.8954 128 48 127.105 48 126V118Z" fill="#2B87F8" fill-opacity="0.55"/>
<path d="M50 116.5H134C134.828 116.5 135.5 117.172 135.5 118V126C135.5 126.828 134.828 127.5 134 127.5H50C49.1716 127.5 48.5 126.828 48.5 126V118L48.5078 117.847C48.5846 117.09 49.2233 116.5 50 116.5Z" stroke="#2B87F8" stroke-opacity="0.15"/>
<path d="M68 36C68 33.7909 69.7909 32 72 32H112C114.209 32 116 33.7909 116 36V36C116 38.2091 114.209 40 112 40H72C69.7909 40 68 38.2091 68 36V36Z" fill="#2B87F8" fill-opacity="0.55"/>
<mask id="path-15-inside-1_5087_52922" fill="white">
<path d="M0 0H184V12H0V0Z"/>
</mask>
<path d="M0 0H184V12H0V0Z" fill="#2B87F8" fill-opacity="0.25"/>
<path d="M184 12V11H0V12V13H184V12Z" fill="#2B87F8" fill-opacity="0.15" mask="url(#path-15-inside-1_5087_52922)"/>
<rect x="12" y="4" width="8" height="4" rx="1" fill="#2B87F8" fill-opacity="0.55"/>
<rect x="144" y="4" width="8" height="4" rx="1" fill="#2B87F8" fill-opacity="0.55"/>
<rect x="154" y="4" width="8" height="4" rx="1" fill="#2B87F8" fill-opacity="0.55"/>
<rect x="164" y="4" width="8" height="4" rx="1" fill="#2B87F8" fill-opacity="0.55"/>
</g>
<defs>
<clipPath id="clip0_5087_52922">
<rect width="184" height="184" rx="4" fill="white"/>
</clipPath>
</defs>
</svg>
