<svg width="184" height="184" viewBox="0 0 184 184" fill="none" xmlns="http://www.w3.org/2000/svg">
<g clip-path="url(#clip0_5087_52871)">
<path d="M0 4C0 1.79086 1.79086 0 4 0H180C182.209 0 184 1.79086 184 4V180C184 182.209 182.209 184 180 184H4C1.79086 184 0 182.209 0 180V4Z" fill="#F0F7FE"/>
<path d="M4 0.5H180C181.933 0.5 183.5 2.067 183.5 4V180C183.5 181.933 181.933 183.5 180 183.5H4C2.067 183.5 0.5 181.933 0.5 180V4C0.5 2.067 2.067 0.5 4 0.5Z" stroke="#2B87F8" stroke-opacity="0.1"/>
<mask id="path-4-inside-1_5087_52871" fill="white">
<path d="M0 0H184V12H0V0Z"/>
</mask>
<path d="M0 0H184V12H0V0Z" fill="#2B87F8" fill-opacity="0.25"/>
<path d="M184 12V11H0V12V13H184V12Z" fill="#2B87F8" fill-opacity="0.15" mask="url(#path-4-inside-1_5087_52871)"/>
<rect x="12" y="4" width="8" height="4" rx="1" fill="#2B87F8" fill-opacity="0.55"/>
<rect x="144" y="4" width="8" height="4" rx="1" fill="#2B87F8" fill-opacity="0.55"/>
<rect x="154" y="4" width="8" height="4" rx="1" fill="#2B87F8" fill-opacity="0.55"/>
<rect x="164" y="4" width="8" height="4" rx="1" fill="#2B87F8" fill-opacity="0.55"/>
<g clip-path="url(#clip1_5087_52871)">
<path d="M12 28C12 25.7909 13.7909 24 16 24H168C170.209 24 172 25.7909 172 28V168C172 170.209 170.209 172 168 172H16C13.7909 172 12 170.209 12 168V28Z" fill="#2B87F8" fill-opacity="0.15"/>
<path d="M77.7866 35.4533V10H81.4947V31.6351L90.1459 22.7273L92.768 25.4271L81.4947 37.0349V54.5455H88.3005C96.1459 54.5455 102.506 61.0969 102.506 69.1761V81.2808L121.048 81.2784V46.2727C121.048 44.0586 123.242 44.0446 123.159 44.362C128.224 44.3536 133.288 44.3559 138.352 44.3555V21.4545L193.974 21.476V44.36L216.224 44.364L216.231 62.2025H236V161.467L140.824 161.475V144.93H124.757V164L83.9657 164.001V176.748H80.2575V164.001L60.4807 164.001V178H56.7725V164.001L39.4678 164.001V178H11.0386V164.002L-22.3348 164.002V178H-26.0429V164.002L-40.8755 164.002L-43.3476 160.182L-26.0429 142.364V113.091H-52V109.273H-26.0429V92.0893C-26.0429 81.1962 -17.46 72.3636 -6.87843 72.3636H4.85837V58.3636H-37.1674V54.5455H4.85837V20.1818H8.56653V54.5455H35.7597V12.5455H39.4678V54.5455H59.2446L77.7866 35.4533ZM77.7866 40.8531L64.4888 54.5455H77.7866V40.8531ZM77.7866 58.3636H60.7806L47.184 72.3636H48.7399C55.2247 72.3636 60.4807 77.7762 60.4807 84.4548V108.021H98.7983V85.0995L77.7866 85.1022V58.3636ZM98.7983 81.2813V69.1761C98.7983 63.2054 94.0977 58.3636 88.3005 58.3636H81.4947V81.2836L98.7983 81.2813ZM102.506 85.099V108.021H121.048V85.0966L102.506 85.099ZM121.048 111.839H102.506V129.636H60.4807V160.183L80.2575 160.182V141.112H121.048V111.839ZM124.757 141.112H144.532V157.657L232.292 157.649V66.0207H216.232L216.262 139.909L163.074 139.815V111.839H124.757V141.112ZM212.523 62.2025L212.517 48.1814L193.974 48.1782V62.2025H212.523ZM190.266 44.3593V25.2927L142.06 25.2742V44.3552C158.129 44.3546 174.197 44.3568 190.266 44.3593ZM142.06 48.1734V62.2025H190.266V48.1775C174.197 48.175 158.129 48.1728 142.06 48.1734ZM138.352 48.1737C131.77 48.1742 127.132 48.1756 124.757 48.1778V81.2779L142.687 81.2756C157.27 81.2737 166.782 93.8437 166.782 108.021H190.266V66.0207H138.352V48.1737ZM166.782 111.839V136.003L212.552 136.084L212.524 66.0207H193.974V111.839H166.782ZM163.074 108.021C163.074 95.9343 155.244 85.0922 142.687 85.0938L124.757 85.0961V108.021H163.074ZM121.048 144.93H83.9657V160.182L121.048 160.182V144.93ZM56.7725 160.183V129.636C51.0092 129.636 45.2294 129.501 39.4678 129.644V160.183L56.7725 160.183ZM35.7597 160.183V130.016C23.826 132.13 14.7468 142.834 14.7468 155.721V160.183L35.7597 160.183ZM14.7468 164.001V174.182H35.7597V164.001L14.7468 164.001ZM11.0386 160.183V155.721C11.0386 140.721 21.7692 128.3 35.7597 126.148V111.839H27.0649C26.3823 122.236 17.555 130.909 7.33047 130.909C2.42212 130.909 -2.01683 129.305 -5.53657 126.649L-22.3348 143.945V160.184L11.0386 160.183ZM-26.0429 160.184V147.763L-38.1056 160.184L-26.0429 160.184ZM98.7983 125.818V111.839H60.4807V125.818H98.7983ZM39.4678 80.3088V108.021H56.7725V84.4548C56.7725 79.8848 53.1767 76.1818 48.7399 76.1818H43.4759L39.4678 80.3088ZM56.7725 111.839H39.4678V125.825C45.231 125.7 51.008 125.818 56.7725 125.818V111.839ZM26.9757 108.021H35.7597V84.127L22.9695 97.2966C25.1121 100.307 26.55 103.97 26.9757 108.021ZM-22.3348 113.091V138.545L-8.3248 124.12C-11.1168 121.085 -12.9739 117.253 -13.5171 113.091H-22.3348ZM-13.6492 109.273C-13.085 98.5139 -5.39379 90.2049 4.85837 89.0472V76.1818H-6.87843C-15.4125 76.1818 -22.3348 83.3054 -22.3348 92.0893V109.273H-13.6492ZM35.7597 78.7273V76.1818H8.56653V88.9515C13.0845 89.2617 17.2682 91.2601 20.5136 94.4257L35.7597 78.7273ZM41.9399 72.3636L55.5365 58.3636H39.4678V72.3636H41.9399ZM35.7597 58.3636H8.56653V72.3636H35.7597V58.3636ZM23.3991 110.545C23.3991 100.586 16.0799 92.7273 7.33047 92.7273C-2.50336 92.7273 -9.97425 100.42 -9.97425 110.545C-9.97425 119.555 -2.34207 127.091 7.33047 127.091C15.9283 127.091 23.3991 119.398 23.3991 110.545Z" fill="#2B87F8" fill-opacity="0.25"/>
<g clip-path="url(#clip2_5087_52871)">
<path d="M76.0001 90C76.3667 90 76.6806 89.8695 76.9417 89.6083C77.2029 89.3472 77.3334 89.0333 77.3334 88.6667C77.3334 88.3 77.2029 87.9861 76.9417 87.725C76.6806 87.4639 76.3667 87.3333 76.0001 87.3333C75.6334 87.3333 75.3195 87.4639 75.0584 87.725C74.7973 87.9861 74.6667 88.3 74.6667 88.6667C74.6667 89.0333 74.7973 89.3472 75.0584 89.6083C75.3195 89.8695 75.6334 90 76.0001 90ZM76.0001 96.6667C74.2112 95.1445 72.8751 93.7306 71.9917 92.425C71.1084 91.1195 70.6667 89.9111 70.6667 88.8C70.6667 87.1333 71.2029 85.8056 72.2751 84.8167C73.3473 83.8278 74.589 83.3333 76.0001 83.3333C77.4112 83.3333 78.6529 83.8278 79.7251 84.8167C80.7973 85.8056 81.3334 87.1333 81.3334 88.8C81.3334 89.9111 80.8917 91.1195 80.0084 92.425C79.1251 93.7306 77.789 95.1445 76.0001 96.6667Z" fill="#2B87F8"/>
</g>
</g>
<path d="M16 24.5H168C169.933 24.5 171.5 26.067 171.5 28V168C171.5 169.933 169.933 171.5 168 171.5H16C14.067 171.5 12.5 169.933 12.5 168V28C12.5 26.067 14.067 24.5 16 24.5Z" stroke="#2B87F8" stroke-opacity="0.15" stroke-linejoin="bevel"/>
</g>
<defs>
<clipPath id="clip0_5087_52871">
<rect width="184" height="184" rx="4" fill="white"/>
</clipPath>
<clipPath id="clip1_5087_52871">
<path d="M12 28C12 25.7909 13.7909 24 16 24H168C170.209 24 172 25.7909 172 28V168C172 170.209 170.209 172 168 172H16C13.7909 172 12 170.209 12 168V28Z" fill="white"/>
</clipPath>
<clipPath id="clip2_5087_52871">
<path d="M68 90C68 85.5817 71.5817 82 76 82V82C80.4183 82 84 85.5817 84 90V90C84 94.4183 80.4183 98 76 98V98C71.5817 98 68 94.4183 68 90V90Z" fill="white"/>
</clipPath>
</defs>
</svg>
