<svg width="104" height="184" viewBox="0 0 104 184" fill="none" xmlns="http://www.w3.org/2000/svg">
<g clip-path="url(#clip0_5087_52889)">
<path d="M0 4C0 1.79086 1.79086 0 4 0H100C102.209 0 104 1.79086 104 4V180C104 182.209 102.209 184 100 184H4C1.79086 184 0 182.209 0 180V4Z" fill="#F0F7FE"/>
<path d="M4 0.5H100C101.933 0.500002 103.5 2.067 103.5 4V180C103.5 181.933 101.933 183.5 100 183.5H4C2.067 183.5 0.5 181.933 0.5 180V4C0.5 2.067 2.067 0.5 4 0.5Z" stroke="#2B87F8" stroke-opacity="0.1"/>
<g clip-path="url(#clip1_5087_52889)">
<g clip-path="url(#clip2_5087_52889)">
<path d="M8 28C8 25.7909 9.79086 24 12 24H164C166.209 24 168 25.7909 168 28V168C168 170.209 166.209 172 164 172H12C9.79086 172 8 170.209 8 168V28Z" fill="#2B87F8" fill-opacity="0.15"/>
<path d="M73.7866 35.4533V10H77.4947V31.6351L86.1459 22.7273L88.768 25.4271L77.4947 37.0349V54.5455H84.3005C92.1459 54.5455 98.5064 61.0969 98.5064 69.1761V81.2808L117.048 81.2784V46.2727C117.048 44.0586 119.242 44.0446 119.159 44.362C124.224 44.3536 129.288 44.3559 134.352 44.3555V21.4545L189.974 21.476V44.36L212.224 44.364L212.231 62.2025H232V161.467L136.824 161.475V144.93H120.757V164L79.9657 164.001V176.748H76.2575V164.001L56.4807 164.001V178H52.7725V164.001L35.4678 164.001V178H7.03863V164.002L-26.3348 164.002V178H-30.0429V164.002L-44.8755 164.002L-47.3476 160.182L-30.0429 142.364V113.091H-56V109.273H-30.0429V92.0893C-30.0429 81.1962 -21.46 72.3636 -10.8784 72.3636H0.858372V58.3636H-41.1674V54.5455H0.858372V20.1818H4.56653V54.5455H31.7597V12.5455H35.4678V54.5455H55.2446L73.7866 35.4533ZM73.7866 40.8531L60.4888 54.5455H73.7866V40.8531ZM73.7866 58.3636H56.7806L43.184 72.3636H44.7399C51.2247 72.3636 56.4807 77.7762 56.4807 84.4548V108.021H94.7983V85.0995L73.7866 85.1022V58.3636ZM94.7983 81.2813V69.1761C94.7983 63.2054 90.0977 58.3636 84.3005 58.3636H77.4947V81.2836L94.7983 81.2813ZM98.5064 85.099V108.021H117.048V85.0966L98.5064 85.099ZM117.048 111.839H98.5064V129.636H56.4807V160.183L76.2575 160.182V141.112H117.048V111.839ZM120.757 141.112H140.532V157.657L228.292 157.649V66.0207H212.232L212.262 139.909L159.074 139.815V111.839H120.757V141.112ZM208.523 62.2025L208.517 48.1814L189.974 48.1782V62.2025H208.523ZM186.266 44.3593V25.2927L138.06 25.2742V44.3552C154.129 44.3546 170.197 44.3568 186.266 44.3593ZM138.06 48.1734V62.2025H186.266V48.1775C170.197 48.175 154.129 48.1728 138.06 48.1734ZM134.352 48.1737C127.77 48.1742 123.132 48.1756 120.757 48.1778V81.2779L138.687 81.2756C153.27 81.2737 162.782 93.8437 162.782 108.021H186.266V66.0207H134.352V48.1737ZM162.782 111.839V136.003L208.552 136.084L208.524 66.0207H189.974V111.839H162.782ZM159.074 108.021C159.074 95.9343 151.244 85.0922 138.687 85.0938L120.757 85.0961V108.021H159.074ZM117.048 144.93H79.9657V160.182L117.048 160.182V144.93ZM52.7725 160.183V129.636C47.0092 129.636 41.2294 129.501 35.4678 129.644V160.183L52.7725 160.183ZM31.7597 160.183V130.016C19.826 132.13 10.7468 142.834 10.7468 155.721V160.183L31.7597 160.183ZM10.7468 164.001V174.182H31.7597V164.001L10.7468 164.001ZM7.03863 160.183V155.721C7.03863 140.721 17.7692 128.3 31.7597 126.148V111.839H23.0649C22.3823 122.236 13.555 130.909 3.33047 130.909C-1.57788 130.909 -6.01683 129.305 -9.53657 126.649L-26.3348 143.945V160.184L7.03863 160.183ZM-30.0429 160.184V147.763L-42.1056 160.184L-30.0429 160.184ZM94.7983 125.818V111.839H56.4807V125.818H94.7983ZM35.4678 80.3088V108.021H52.7725V84.4548C52.7725 79.8848 49.1767 76.1818 44.7399 76.1818H39.4759L35.4678 80.3088ZM52.7725 111.839H35.4678V125.825C41.231 125.7 47.008 125.818 52.7725 125.818V111.839ZM22.9757 108.021H31.7597V84.127L18.9695 97.2966C21.1121 100.307 22.55 103.97 22.9757 108.021ZM-26.3348 113.091V138.545L-12.3248 124.12C-15.1168 121.085 -16.9739 117.253 -17.5171 113.091H-26.3348ZM-17.6492 109.273C-17.085 98.5139 -9.39379 90.2049 0.858372 89.0472V76.1818H-10.8784C-19.4125 76.1818 -26.3348 83.3054 -26.3348 92.0893V109.273H-17.6492ZM31.7597 78.7273V76.1818H4.56653V88.9515C9.08451 89.2617 13.2682 91.2601 16.5136 94.4257L31.7597 78.7273ZM37.9399 72.3636L51.5365 58.3636H35.4678V72.3636H37.9399ZM31.7597 58.3636H4.56653V72.3636H31.7597V58.3636ZM19.3991 110.545C19.3991 100.586 12.0799 92.7273 3.33047 92.7273C-6.50336 92.7273 -13.9742 100.42 -13.9742 110.545C-13.9742 119.555 -6.34207 127.091 3.33047 127.091C11.9283 127.091 19.3991 119.398 19.3991 110.545Z" fill="#2B87F8" fill-opacity="0.25"/>
<g clip-path="url(#clip3_5087_52889)">
<path d="M72.0001 90C72.3667 90 72.6806 89.8695 72.9417 89.6083C73.2029 89.3472 73.3334 89.0333 73.3334 88.6667C73.3334 88.3 73.2029 87.9861 72.9417 87.725C72.6806 87.4639 72.3667 87.3333 72.0001 87.3333C71.6334 87.3333 71.3195 87.4639 71.0584 87.725C70.7973 87.9861 70.6667 88.3 70.6667 88.6667C70.6667 89.0333 70.7973 89.3472 71.0584 89.6083C71.3195 89.8695 71.6334 90 72.0001 90ZM72.0001 96.6667C70.2112 95.1445 68.8751 93.7306 67.9917 92.425C67.1084 91.1195 66.6667 89.9111 66.6667 88.8C66.6667 87.1333 67.2029 85.8056 68.2751 84.8167C69.3473 83.8278 70.589 83.3333 72.0001 83.3333C73.4112 83.3333 74.6529 83.8278 75.7251 84.8167C76.7973 85.8056 77.3334 87.1333 77.3334 88.8C77.3334 89.9111 76.8917 91.1195 76.0084 92.425C75.1251 93.7306 73.789 95.1445 72.0001 96.6667Z" fill="#2B87F8"/>
</g>
</g>
</g>
<path d="M12 24.5H92C93.933 24.5 95.5 26.067 95.5 28V168C95.5 169.933 93.933 171.5 92 171.5H12C10.067 171.5 8.5 169.933 8.5 168V28C8.5 26.067 10.067 24.5 12 24.5Z" stroke="#2B87F8" stroke-opacity="0.15"/>
<mask id="path-10-inside-1_5087_52889" fill="white">
<path d="M0 0H104V12H0V0Z"/>
</mask>
<path d="M0 0H104V12H0V0Z" fill="#2B87F8" fill-opacity="0.25"/>
<path d="M104 12V11H0V12V13H104V12Z" fill="#2B87F8" fill-opacity="0.15" mask="url(#path-10-inside-1_5087_52889)"/>
<rect x="8" y="4" width="8" height="4" rx="1" fill="#2B87F8" fill-opacity="0.55"/>
<rect x="68" y="4" width="8" height="4" rx="1" fill="#2B87F8" fill-opacity="0.55"/>
<rect x="78" y="4" width="8" height="4" rx="1" fill="#2B87F8" fill-opacity="0.55"/>
<rect x="88" y="4" width="8" height="4" rx="1" fill="#2B87F8" fill-opacity="0.55"/>
</g>
<defs>
<clipPath id="clip0_5087_52889">
<path d="M0 4C0 1.79086 1.79086 0 4 0H100C102.209 0 104 1.79086 104 4V180C104 182.209 102.209 184 100 184H4C1.79086 184 0 182.209 0 180V4Z" fill="white"/>
</clipPath>
<clipPath id="clip1_5087_52889">
<path d="M8 28C8 25.7909 9.79086 24 12 24H92C94.2091 24 96 25.7909 96 28V168C96 170.209 94.2091 172 92 172H12C9.79086 172 8 170.209 8 168V28Z" fill="white"/>
</clipPath>
<clipPath id="clip2_5087_52889">
<path d="M8 28C8 25.7909 9.79086 24 12 24H164C166.209 24 168 25.7909 168 28V168C168 170.209 166.209 172 164 172H12C9.79086 172 8 170.209 8 168V28Z" fill="white"/>
</clipPath>
<clipPath id="clip3_5087_52889">
<path d="M64 90C64 85.5817 67.5817 82 72 82V82C76.4183 82 80 85.5817 80 90V90C80 94.4183 76.4183 98 72 98V98C67.5817 98 64 94.4183 64 90V90Z" fill="white"/>
</clipPath>
</defs>
</svg>
