<svg width="184" height="184" viewBox="0 0 184 184" fill="none" xmlns="http://www.w3.org/2000/svg">
<g clip-path="url(#clip0_5087_54558)">
<path d="M0 4C0 1.79086 1.79086 0 4 0H180C182.209 0 184 1.79086 184 4V180C184 182.209 182.209 184 180 184H4C1.79086 184 0 182.209 0 180V4Z" fill="#F0F7FE"/>
<path d="M0 4C0 1.79086 1.79086 0 4 0H180C182.209 0 184 1.79086 184 4V180C184 182.209 182.209 184 180 184H4C1.79086 184 0 182.209 0 180V4Z" fill="#032754" fill-opacity="0.4"/>
<path d="M4 0.5H180C181.933 0.5 183.5 2.067 183.5 4V180C183.5 181.933 181.933 183.5 180 183.5H4C2.067 183.5 0.5 181.933 0.5 180V4C0.5 2.067 2.067 0.5 4 0.5Z" stroke="#2B87F8" stroke-opacity="0.1"/>
<path d="M40 58C40 55.7909 41.7909 54 44 54H140C142.209 54 144 55.7909 144 58V126C144 128.209 142.209 130 140 130H44C41.7909 130 40 128.209 40 126V58Z" fill="white"/>
<path d="M140 53.5C142.485 53.5 144.5 55.5147 144.5 58V126C144.5 128.485 142.485 130.5 140 130.5H44C41.5147 130.5 39.5 128.485 39.5 126V58C39.5 55.5147 41.5147 53.5 44 53.5H140Z" stroke="#2B87F8" stroke-opacity="0.15"/>
<path d="M48 64C48 62.8954 48.8954 62 50 62H94C95.1046 62 96 62.8954 96 64V64C96 65.1046 95.1046 66 94 66H50C48.8954 66 48 65.1046 48 64V64Z" fill="#2B87F8" fill-opacity="0.55"/>
<path d="M134 64.6375L131.95 66.6875C131.859 66.7792 131.754 66.823 131.638 66.8188C131.521 66.8146 131.417 66.7667 131.325 66.675C131.234 66.5834 131.188 66.4771 131.188 66.3563C131.188 66.2355 131.234 66.1292 131.325 66.0375L133.363 64L131.313 61.95C131.221 61.8584 131.177 61.7521 131.181 61.6313C131.186 61.5105 131.234 61.4042 131.325 61.3125C131.417 61.2209 131.523 61.175 131.644 61.175C131.765 61.175 131.871 61.2209 131.963 61.3125L134 63.3625L136.05 61.3125C136.142 61.2209 136.248 61.175 136.369 61.175C136.49 61.175 136.596 61.2209 136.688 61.3125C136.779 61.4042 136.825 61.5105 136.825 61.6313C136.825 61.7521 136.779 61.8584 136.688 61.95L134.638 64L136.688 66.05C136.779 66.1417 136.825 66.2459 136.825 66.3625C136.825 66.4792 136.779 66.5834 136.688 66.675C136.596 66.7667 136.49 66.8125 136.369 66.8125C136.248 66.8125 136.142 66.7667 136.05 66.675L134 64.6375Z" fill="#2B87F8"/>
<path d="M48 78C48 75.7909 49.7909 74 52 74H132C134.209 74 136 75.7909 136 78V118C136 120.209 134.209 122 132 122H52C49.7909 122 48 120.209 48 118V78Z" fill="#2B87F8" fill-opacity="0.25"/>
<path d="M52 74.5H132C133.933 74.5 135.5 76.067 135.5 78V118C135.5 119.933 133.933 121.5 132 121.5H52C50.067 121.5 48.5 119.933 48.5 118V78C48.5 76.067 50.067 74.5 52 74.5Z" stroke="#2B87F8" stroke-opacity="0.15"/>
</g>
<defs>
<clipPath id="clip0_5087_54558">
<rect width="184" height="184" fill="white"/>
</clipPath>
</defs>
</svg>
