<svg width="104" height="184" viewBox="0 0 104 184" fill="none" xmlns="http://www.w3.org/2000/svg">
<g clip-path="url(#clip0_5087_54570)">
<path d="M0 4C0 1.79086 1.79086 0 4 0H100C102.209 0 104 1.79086 104 4V180C104 182.209 102.209 184 100 184H4C1.79086 184 0 182.209 0 180V4Z" fill="#F0F7FE"/>
<path d="M0 4C0 1.79086 1.79086 0 4 0H100C102.209 0 104 1.79086 104 4V180C104 182.209 102.209 184 100 184H4C1.79086 184 0 182.209 0 180V4Z" fill="#032754" fill-opacity="0.4"/>
<path d="M4 0.5H100C101.933 0.500002 103.5 2.067 103.5 4V180C103.5 181.933 101.933 183.5 100 183.5H4C2.067 183.5 0.5 181.933 0.5 180V4C0.5 2.067 2.067 0.5 4 0.5Z" stroke="#2B87F8" stroke-opacity="0.1"/>
<path d="M8 58C8 55.7909 9.79086 54 12 54H92C94.2091 54 96 55.7909 96 58V126C96 128.209 94.2091 130 92 130H12C9.79086 130 8 128.209 8 126V58Z" fill="white"/>
<path d="M92 53.5C94.4853 53.5 96.5 55.5147 96.5 58V126C96.5 128.485 94.4853 130.5 92 130.5H12C9.51472 130.5 7.5 128.485 7.5 126V58C7.5 55.5147 9.51472 53.5 12 53.5H92Z" stroke="#2B87F8" stroke-opacity="0.15"/>
<path d="M16 64C16 62.8954 16.8954 62 18 62H62C63.1046 62 64 62.8954 64 64V64C64 65.1046 63.1046 66 62 66H18C16.8954 66 16 65.1046 16 64V64Z" fill="#2B87F8" fill-opacity="0.55"/>
<path d="M86.0002 64.6375L83.9502 66.6875C83.8585 66.7792 83.7543 66.823 83.6377 66.8188C83.521 66.8146 83.4168 66.7667 83.3252 66.675C83.2335 66.5834 83.1877 66.4771 83.1877 66.3563C83.1877 66.2355 83.2335 66.1292 83.3252 66.0375L85.3627 64L83.3127 61.95C83.221 61.8584 83.1773 61.7521 83.1814 61.6313C83.1856 61.5105 83.2335 61.4042 83.3252 61.3125C83.4168 61.2209 83.5231 61.175 83.6439 61.175C83.7648 61.175 83.871 61.2209 83.9627 61.3125L86.0002 63.3625L88.0502 61.3125C88.1418 61.2209 88.2481 61.175 88.3689 61.175C88.4898 61.175 88.596 61.2209 88.6877 61.3125C88.7793 61.4042 88.8252 61.5105 88.8252 61.6313C88.8252 61.7521 88.7793 61.8584 88.6877 61.95L86.6377 64L88.6877 66.05C88.7793 66.1417 88.8252 66.2459 88.8252 66.3625C88.8252 66.4792 88.7793 66.5834 88.6877 66.675C88.596 66.7667 88.4898 66.8125 88.3689 66.8125C88.2481 66.8125 88.1418 66.7667 88.0502 66.675L86.0002 64.6375Z" fill="#2B87F8"/>
<path d="M16 78C16 75.7909 17.7909 74 20 74H84C86.2091 74 88 75.7909 88 78V118C88 120.209 86.2091 122 84 122H20C17.7909 122 16 120.209 16 118V78Z" fill="#2B87F8" fill-opacity="0.25"/>
<path d="M20 74.5H84C85.933 74.5 87.5 76.067 87.5 78V118C87.5 119.933 85.933 121.5 84 121.5H20C18.067 121.5 16.5 119.933 16.5 118V78C16.5 76.067 18.067 74.5 20 74.5Z" stroke="#2B87F8" stroke-opacity="0.15"/>
</g>
<defs>
<clipPath id="clip0_5087_54570">
<path d="M0 4C0 1.79086 1.79086 0 4 0H100C102.209 0 104 1.79086 104 4V180C104 182.209 102.209 184 100 184H4C1.79086 184 0 182.209 0 180V4Z" fill="white"/>
</clipPath>
</defs>
</svg>
