<svg width="184" height="184" viewBox="0 0 184 184" fill="none" xmlns="http://www.w3.org/2000/svg">
<g clip-path="url(#clip0_5087_52787)">
<path d="M0 4C0 1.79086 1.79086 0 4 0H180C182.209 0 184 1.79086 184 4V180C184 182.209 182.209 184 180 184H4C1.79086 184 0 182.209 0 180V4Z" fill="#F0F7FE"/>
<path d="M4 0.5H180C181.933 0.5 183.5 2.067 183.5 4V180C183.5 181.933 181.933 183.5 180 183.5H4C2.067 183.5 0.5 181.933 0.5 180V4C0.5 2.067 2.067 0.5 4 0.5Z" stroke="#2B87F8" stroke-opacity="0.1"/>
<g clip-path="url(#clip1_5087_52787)">
<g clip-path="url(#clip2_5087_52787)">
<path d="M12 48C12 34.7452 22.7452 24 36 24V24C49.2548 24 60 34.7452 60 48V48C60 61.2548 49.2548 72 36 72V72C22.7452 72 12 61.2548 12 48V48Z" fill="#2B87F8" fill-opacity="0.15"/>
<path d="M36 49.6001C44.6516 49.6002 52.0679 54.8827 55.2031 62.3979C50.8246 68.2281 43.8535 72.0005 36.001 72.0005C28.147 72.0004 21.1742 68.2271 16.7959 62.395C19.9317 54.881 27.3492 49.6001 36 49.6001ZM36 30.3999C40.4182 30.4 44 33.9817 44 38.3999C44 42.8181 40.4182 46.3998 36 46.3999C31.5817 46.3999 28 42.8182 28 38.3999C28 33.9816 31.5817 30.3999 36 30.3999Z" fill="#2B87F8" fill-opacity="0.55"/>
</g>
<path d="M68 26C68 24.8954 68.8954 24 70 24H122C123.105 24 124 24.8954 124 26V26C124 27.1046 123.105 28 122 28H70C68.8954 28 68 27.1046 68 26V26Z" fill="#2B87F8" fill-opacity="0.55"/>
<path d="M68 34C68 32.8954 68.8954 32 70 32H106C107.105 32 108 32.8954 108 34V34C108 35.1046 107.105 36 106 36H70C68.8954 36 68 35.1046 68 34V34Z" fill="#2B87F8" fill-opacity="0.55"/>
<path d="M68 42C68 40.8954 68.8954 40 70 40H170C171.105 40 172 40.8954 172 42V42C172 43.1046 171.105 44 170 44H70C68.8954 44 68 43.1046 68 42V42Z" fill="#2B87F8" fill-opacity="0.25"/>
<path d="M68 50C68 48.8954 68.8954 48 70 48H170C171.105 48 172 48.8954 172 50V50C172 51.1046 171.105 52 170 52H70C68.8954 52 68 51.1046 68 50V50Z" fill="#2B87F8" fill-opacity="0.25"/>
<path d="M68 58C68 56.8954 68.8954 56 70 56H170C171.105 56 172 56.8954 172 58V58C172 59.1046 171.105 60 170 60H70C68.8954 60 68 59.1046 68 58V58Z" fill="#2B87F8" fill-opacity="0.25"/>
<path d="M68 66C68 64.8954 68.8954 64 70 64H154C155.105 64 156 64.8954 156 66V66C156 67.1046 155.105 68 154 68H70C68.8954 68 68 67.1046 68 66V66Z" fill="#2B87F8" fill-opacity="0.25"/>
<path d="M68 78C68 76.8954 68.8954 76 70 76H98C99.1046 76 100 76.8954 100 78V78C100 79.1046 99.1046 80 98 80H70C68.8954 80 68 79.1046 68 78V78Z" fill="#2B87F8" fill-opacity="0.55"/>
<path d="M68 90C68 88.8954 68.8954 88 70 88H122C123.105 88 124 88.8954 124 90V90C124 91.1046 123.105 92 122 92H70C68.8954 92 68 91.1046 68 90V90Z" fill="#2B87F8" fill-opacity="0.55"/>
<path d="M68 98C68 96.8954 68.8954 96 70 96H170C171.105 96 172 96.8954 172 98V98C172 99.1046 171.105 100 170 100H70C68.8954 100 68 99.1046 68 98V98Z" fill="#2B87F8" fill-opacity="0.25"/>
<path d="M68 106C68 104.895 68.8954 104 70 104H170C171.105 104 172 104.895 172 106V106C172 107.105 171.105 108 170 108H70C68.8954 108 68 107.105 68 106V106Z" fill="#2B87F8" fill-opacity="0.25"/>
<path d="M68 114C68 112.895 68.8954 112 70 112H138C139.105 112 140 112.895 140 114V114C140 115.105 139.105 116 138 116H70C68.8954 116 68 115.105 68 114V114Z" fill="#2B87F8" fill-opacity="0.25"/>
<path d="M68 126C68 124.895 68.8954 124 70 124H122C123.105 124 124 124.895 124 126V126C124 127.105 123.105 128 122 128H70C68.8954 128 68 127.105 68 126V126Z" fill="#2B87F8" fill-opacity="0.55"/>
<path d="M68 134C68 132.895 68.8954 132 70 132H170C171.105 132 172 132.895 172 134V134C172 135.105 171.105 136 170 136H70C68.8954 136 68 135.105 68 134V134Z" fill="#2B87F8" fill-opacity="0.25"/>
<path d="M68 142C68 140.895 68.8954 140 70 140H170C171.105 140 172 140.895 172 142V142C172 143.105 171.105 144 170 144H70C68.8954 144 68 143.105 68 142V142Z" fill="#2B87F8" fill-opacity="0.25"/>
<path d="M68 150C68 148.895 68.8954 148 70 148H154C155.105 148 156 148.895 156 150V150C156 151.105 155.105 152 154 152H70C68.8954 152 68 151.105 68 150V150Z" fill="#2B87F8" fill-opacity="0.25"/>
<path d="M68 162C68 160.895 68.8954 160 70 160H99C100.105 160 101 160.895 101 162V170C101 171.105 100.105 172 99 172H70C68.8954 172 68 171.105 68 170V162Z" fill="#2B87F8" fill-opacity="0.55"/>
<path d="M70 160.5H99C99.8284 160.5 100.5 161.172 100.5 162V170C100.5 170.828 99.8284 171.5 99 171.5H70C69.1716 171.5 68.5 170.828 68.5 170V162L68.5078 161.847C68.5795 161.141 69.1407 160.579 69.8467 160.508L70 160.5Z" stroke="#2B87F8" stroke-opacity="0.15"/>
<path d="M105 162C105 160.895 105.895 160 107 160H136C137.105 160 138 160.895 138 162V170C138 171.105 137.105 172 136 172H107C105.895 172 105 171.105 105 170V162Z" fill="#2B87F8" fill-opacity="0.15"/>
<path d="M107 160.5H136C136.828 160.5 137.5 161.172 137.5 162V170C137.5 170.828 136.828 171.5 136 171.5H107C106.172 171.5 105.5 170.828 105.5 170V162L105.508 161.847C105.579 161.141 106.141 160.579 106.847 160.508L107 160.5Z" stroke="#2B87F8" stroke-opacity="0.15"/>
</g>
<mask id="path-25-inside-1_5087_52787" fill="white">
<path d="M0 0H184V12H0V0Z"/>
</mask>
<path d="M0 0H184V12H0V0Z" fill="#2B87F8" fill-opacity="0.25"/>
<path d="M184 12V11H0V12V13H184V12Z" fill="#2B87F8" fill-opacity="0.15" mask="url(#path-25-inside-1_5087_52787)"/>
<rect x="12" y="4" width="8" height="4" rx="1" fill="#2B87F8" fill-opacity="0.55"/>
<rect x="144" y="4" width="8" height="4" rx="1" fill="#2B87F8" fill-opacity="0.55"/>
<rect x="154" y="4" width="8" height="4" rx="1" fill="#2B87F8" fill-opacity="0.55"/>
<rect x="164" y="4" width="8" height="4" rx="1" fill="#2B87F8" fill-opacity="0.55"/>
</g>
<defs>
<clipPath id="clip0_5087_52787">
<rect width="184" height="184" rx="4" fill="white"/>
</clipPath>
<clipPath id="clip1_5087_52787">
<rect width="160" height="148" fill="white" transform="translate(12 24)"/>
</clipPath>
<clipPath id="clip2_5087_52787">
<path d="M12 48C12 34.7452 22.7452 24 36 24V24C49.2548 24 60 34.7452 60 48V48C60 61.2548 49.2548 72 36 72V72C22.7452 72 12 61.2548 12 48V48Z" fill="white"/>
</clipPath>
</defs>
</svg>
