<svg width="104" height="184" viewBox="0 0 104 184" fill="none" xmlns="http://www.w3.org/2000/svg">
<g clip-path="url(#clip0_5087_52734)">
<path d="M0 4C0 1.79086 1.79086 0 4 0H100C102.209 0 104 1.79086 104 4V180C104 182.209 102.209 184 100 184H4C1.79086 184 0 182.209 0 180V4Z" fill="#F0F7FE"/>
<path d="M4 0.5H100C101.933 0.500002 103.5 2.067 103.5 4V180C103.5 181.933 101.933 183.5 100 183.5H4C2.067 183.5 0.5 181.933 0.5 180V4C0.5 2.067 2.067 0.5 4 0.5Z" stroke="#2B87F8" stroke-opacity="0.1"/>
<mask id="path-4-inside-1_5087_52734" fill="white">
<path d="M0 0H104V12H0V0Z"/>
</mask>
<path d="M0 0H104V12H0V0Z" fill="#2B87F8" fill-opacity="0.25"/>
<path d="M104 12V11H0V12V13H104V12Z" fill="#2B87F8" fill-opacity="0.15" mask="url(#path-4-inside-1_5087_52734)"/>
<rect x="8" y="4" width="8" height="4" rx="1" fill="#2B87F8" fill-opacity="0.55"/>
<rect x="68" y="4" width="8" height="4" rx="1" fill="#2B87F8" fill-opacity="0.55"/>
<rect x="78" y="4" width="8" height="4" rx="1" fill="#2B87F8" fill-opacity="0.55"/>
<rect x="88" y="4" width="8" height="4" rx="1" fill="#2B87F8" fill-opacity="0.55"/>
<path d="M50.2751 96C50.0695 96 49.889 95.9334 49.7334 95.8C49.5778 95.6667 49.4834 95.4973 49.4501 95.2917L49.0834 92.8334C48.8001 92.7278 48.5098 92.5889 48.2126 92.4167C47.9153 92.2445 47.6473 92.0639 47.4084 91.875L45.1334 92.8917C44.9334 92.9806 44.7334 92.9931 44.5334 92.9292C44.3334 92.8653 44.1778 92.7361 44.0667 92.5417L42.3501 89.5167C42.2389 89.3334 42.2084 89.1389 42.2584 88.9334C42.3084 88.7278 42.4167 88.5611 42.5834 88.4334L44.6417 86.9084C44.6139 86.7695 44.5973 86.6181 44.5917 86.4542C44.5862 86.2903 44.5834 86.1389 44.5834 86C44.5834 85.8611 44.5862 85.7098 44.5917 85.5459C44.5973 85.382 44.6139 85.2306 44.6417 85.0917L42.5834 83.5667C42.4167 83.4389 42.3084 83.2722 42.2584 83.0667C42.2084 82.8611 42.2389 82.6667 42.3501 82.4834L44.0667 79.4584C44.1778 79.2639 44.3334 79.1348 44.5334 79.0709C44.7334 79.007 44.9334 79.0195 45.1334 79.1084L47.4084 80.125C47.6473 79.9361 47.9167 79.7556 48.2167 79.5834C48.5167 79.4111 48.8056 79.2778 49.0834 79.1834L49.4501 76.7084C49.4834 76.5028 49.5778 76.3334 49.7334 76.2C49.889 76.0667 50.0695 76 50.2751 76H53.7251C53.9306 76 54.1112 76.0667 54.2667 76.2C54.4223 76.3334 54.5167 76.5028 54.5501 76.7084L54.9167 79.1667C55.2001 79.2723 55.4931 79.4084 55.7959 79.575C56.0987 79.7417 56.364 79.925 56.5917 80.125L58.8667 79.1084C59.0667 79.0195 59.2667 79.007 59.4667 79.0709C59.6667 79.1348 59.8223 79.2639 59.9334 79.4584L61.6501 82.4667C61.7612 82.65 61.7945 82.8472 61.7501 83.0584C61.7056 83.2695 61.5945 83.4389 61.4167 83.5667L59.3584 85.0584C59.3862 85.2084 59.4028 85.3653 59.4084 85.5292C59.414 85.6931 59.4167 85.85 59.4167 86C59.4167 86.15 59.414 86.3042 59.4084 86.4625C59.4028 86.6209 59.3834 86.775 59.3501 86.925L61.4084 88.4334C61.5751 88.5611 61.6834 88.7278 61.7334 88.9334C61.7834 89.1389 61.7528 89.3334 61.6417 89.5167L59.9251 92.5334C59.814 92.7278 59.657 92.8584 59.4542 92.925C59.2515 92.9917 59.0501 92.9806 58.8501 92.8917L56.5917 91.875C56.3529 92.0639 56.0862 92.2472 55.7917 92.425C55.4973 92.6028 55.2056 92.7389 54.9167 92.8334L54.5501 95.2917C54.5167 95.4973 54.4223 95.6667 54.2667 95.8C54.1112 95.9334 53.9306 96 53.7251 96H50.2751ZM50.9334 94.3334H53.0584L53.4084 91.5834C53.9473 91.45 54.4542 91.2459 54.9292 90.9709C55.4042 90.6959 55.8362 90.3639 56.2251 89.975L58.8167 91.0834L59.8084 89.3167L57.5251 87.625C57.5973 87.3584 57.6529 87.0903 57.6917 86.8209C57.7306 86.5514 57.7501 86.2778 57.7501 86C57.7501 85.7222 57.7334 85.4486 57.7001 85.1792C57.6667 84.9098 57.6084 84.6417 57.5251 84.375L59.8084 82.6834L58.8167 80.9167L56.2251 82.0334C55.8473 81.6167 55.4237 81.2681 54.9542 80.9875C54.4848 80.707 53.9695 80.5167 53.4084 80.4167L53.0667 77.6667H50.9417L50.5917 80.4167C50.0417 80.5389 49.5292 80.7375 49.0542 81.0125C48.5792 81.2875 48.1528 81.625 47.7751 82.025L45.1834 80.9167L44.1917 82.6834L46.4751 84.3667C46.4028 84.6389 46.3473 84.9084 46.3084 85.175C46.2695 85.4417 46.2501 85.7167 46.2501 86C46.2501 86.2778 46.2695 86.55 46.3084 86.8167C46.3473 87.0834 46.4028 87.3528 46.4751 87.625L44.1917 89.3167L45.1834 91.0834L47.7751 89.9667C48.1639 90.3612 48.5959 90.6959 49.0709 90.9709C49.5459 91.2459 50.0528 91.45 50.5917 91.5834L50.9334 94.3334ZM52.0167 89.3334C52.9389 89.3334 53.7251 89.0084 54.3751 88.3584C55.0251 87.7084 55.3501 86.9222 55.3501 86C55.3501 85.0778 55.0251 84.2917 54.3751 83.6417C53.7251 82.9917 52.9389 82.6667 52.0167 82.6667C51.0889 82.6667 50.3014 82.9917 49.6542 83.6417C49.007 84.2917 48.6834 85.0778 48.6834 86C48.6834 86.9222 49.007 87.7084 49.6542 88.3584C50.3014 89.0084 51.0889 89.3334 52.0167 89.3334Z" fill="#2B87F8"/>
<path d="M25.6049 114.224C23.8609 114.224 22.3089 113.632 21.2529 112.752L22.1489 111.328C23.0929 112.032 24.3089 112.512 25.6049 112.512C27.0289 112.512 28.0849 111.856 28.0849 110.736C28.0849 109.808 27.4129 109.232 25.5089 108.96C22.8529 108.592 21.5729 107.616 21.5729 105.872C21.5729 103.888 23.3489 102.576 25.6849 102.576C27.1089 102.576 28.3249 102.896 29.5089 103.776L28.5649 105.136C27.7489 104.512 26.6929 104.24 25.7329 104.24C24.4209 104.24 23.4449 104.848 23.4449 105.776C23.4449 106.64 24.1969 107.04 25.9889 107.344C28.8209 107.808 29.9569 108.896 29.9569 110.704C29.9569 112.88 28.1809 114.224 25.6049 114.224ZM38.8971 109.968C38.8971 110.224 38.8811 110.464 38.8651 110.688H32.8171C32.9291 111.888 33.9051 112.64 35.2171 112.64C35.9691 112.64 36.9291 112.4 37.6651 111.76L38.5131 112.944C37.6971 113.808 36.3371 114.176 35.1531 114.176C32.6891 114.176 31.0091 112.576 31.0091 110.048C31.0091 107.584 32.7531 105.92 35.1851 105.92C37.3131 105.92 38.8971 107.264 38.8971 109.968ZM35.1211 107.456C33.9531 107.456 33.0571 108.064 32.8331 109.328H37.2011C37.1211 108.08 36.2731 107.456 35.1211 107.456ZM45.051 112.304L45.547 113.728C44.939 114 44.427 114.112 43.771 114.112C42.107 114.112 41.179 113.136 41.179 111.296V107.584H39.691V106.096H41.179V104.032L42.955 103.84V106.096H45.227V107.584H42.955V111.248C42.955 112.112 43.307 112.56 44.059 112.56C44.379 112.56 44.731 112.464 45.051 112.304ZM51.5004 112.304L51.9964 113.728C51.3884 114 50.8764 114.112 50.2204 114.112C48.5564 114.112 47.6284 113.136 47.6284 111.296V107.584H46.1404V106.096H47.6284V104.032L49.4044 103.84V106.096H51.6764V107.584H49.4044V111.248C49.4044 112.112 49.7564 112.56 50.5084 112.56C50.8284 112.56 51.1804 112.464 51.5004 112.304ZM54.1578 104.912C53.4858 104.912 53.0058 104.448 53.0058 103.824C53.0058 103.168 53.4858 102.704 54.1578 102.704C54.8298 102.704 55.3098 103.168 55.3098 103.824C55.3098 104.448 54.8298 104.912 54.1578 104.912ZM53.2778 114V106.096H55.0698V114H53.2778ZM57.274 114V106.096H58.922C58.922 106.512 58.906 106.928 58.874 107.536H58.922C59.402 106.464 60.394 105.936 61.69 105.936C63.818 105.936 64.986 107.216 64.986 109.552V114H63.194V109.712C63.194 108.368 62.57 107.52 61.274 107.52C59.994 107.52 59.066 108.496 59.066 109.84V114H57.274ZM70.7151 117.92C69.3871 117.92 68.1071 117.584 66.9711 116.912L67.6431 115.472C68.9391 116.08 69.7871 116.304 70.6831 116.304C72.1231 116.304 72.9711 115.6 73.0511 114.368C73.0831 113.808 73.1151 113.312 73.1631 112.704H73.1311C72.6831 113.536 71.7551 114.16 70.3791 114.16C68.0591 114.16 66.4591 112.512 66.4591 110.064C66.4591 107.6 68.0591 105.92 70.3631 105.92C71.7551 105.92 72.8111 106.624 73.1791 107.408H73.2111C73.1951 106.944 73.1951 106.528 73.1951 106.096H74.8591V114.016C74.8591 116.528 73.3231 117.92 70.7151 117.92ZM70.6511 112.576C72.0751 112.576 73.0671 111.552 73.0671 110.08C73.0671 108.56 72.0751 107.504 70.6831 107.504C69.2591 107.504 68.2511 108.56 68.2511 110.016C68.2511 111.536 69.2591 112.576 70.6511 112.576ZM79.9114 114.224C78.6794 114.224 77.5754 113.92 76.3914 113.264L77.1274 111.904C78.1034 112.432 79.0154 112.688 79.9434 112.688C80.8234 112.688 81.3994 112.288 81.3994 111.696C81.3994 111.104 80.9034 110.784 79.7834 110.672C77.7834 110.464 76.7274 109.648 76.7274 108.32C76.7274 106.896 78.0074 105.936 79.9114 105.936C80.9194 105.936 81.9434 106.192 82.7754 106.64L82.2154 108.016C81.4314 107.616 80.5674 107.392 79.8634 107.392C78.9834 107.392 78.4714 107.728 78.4714 108.288C78.4714 108.848 78.9034 109.136 79.9594 109.264C82.2634 109.568 83.1594 110.256 83.1594 111.728C83.1594 113.216 81.8634 114.224 79.9114 114.224Z" fill="#2B87F8"/>
</g>
<defs>
<clipPath id="clip0_5087_52734">
<path d="M0 4C0 1.79086 1.79086 0 4 0H100C102.209 0 104 1.79086 104 4V180C104 182.209 102.209 184 100 184H4C1.79086 184 0 182.209 0 180V4Z" fill="white"/>
</clipPath>
</defs>
</svg>
