<svg width="184" height="184" viewBox="0 0 184 184" fill="none" xmlns="http://www.w3.org/2000/svg">
<g clip-path="url(#clip0_5087_52715)">
<path d="M0 4C0 1.79086 1.79086 0 4 0H180C182.209 0 184 1.79086 184 4V180C184 182.209 182.209 184 180 184H4C1.79086 184 0 182.209 0 180V4Z" fill="#F0F7FE"/>
<path d="M4 0.5H180C181.933 0.5 183.5 2.067 183.5 4V180C183.5 181.933 181.933 183.5 180 183.5H4C2.067 183.5 0.5 181.933 0.5 180V4C0.5 2.067 2.067 0.5 4 0.5Z" stroke="#2B87F8" stroke-opacity="0.1"/>
<path d="M89.6999 93.3334C89.4258 93.3334 89.1851 93.2445 88.9777 93.0667C88.7703 92.8889 88.6444 92.663 88.5999 92.3889L88.111 89.1111C87.7332 88.9704 87.3462 88.7852 86.9499 88.5556C86.5536 88.3259 86.1962 88.0852 85.8777 87.8334L82.8443 89.1889C82.5777 89.3074 82.311 89.3241 82.0443 89.2389C81.7777 89.1537 81.5703 88.9815 81.4221 88.7223L79.1332 84.6889C78.9851 84.4445 78.9443 84.1852 79.011 83.9112C79.0777 83.6371 79.2221 83.4148 79.4443 83.2445L82.1888 81.2112C82.1518 81.026 82.1295 80.8241 82.1221 80.6056C82.1147 80.3871 82.111 80.1852 82.111 80C82.111 79.8148 82.1147 79.613 82.1221 79.3945C82.1295 79.1759 82.1518 78.9741 82.1888 78.7889L79.4443 76.7556C79.2221 76.5852 79.0777 76.363 79.011 76.0889C78.9443 75.8148 78.9851 75.5556 79.1332 75.3111L81.4221 71.2778C81.5703 71.0185 81.7777 70.8463 82.0443 70.7611C82.311 70.6759 82.5777 70.6926 82.8443 70.8111L85.8777 72.1667C86.1962 71.9148 86.5555 71.6741 86.9555 71.4445C87.3555 71.2148 87.7407 71.0371 88.111 70.9111L88.5999 67.6111C88.6444 67.3371 88.7703 67.1111 88.9777 66.9334C89.1851 66.7556 89.4258 66.6667 89.6999 66.6667H94.2999C94.574 66.6667 94.8147 66.7556 95.0221 66.9334C95.2295 67.1111 95.3555 67.3371 95.3999 67.6111L95.8888 70.8889C96.2666 71.0297 96.6573 71.2111 97.061 71.4334C97.4647 71.6556 97.8184 71.9 98.1221 72.1667L101.155 70.8111C101.422 70.6926 101.689 70.6759 101.955 70.7611C102.222 70.8463 102.43 71.0185 102.578 71.2778L104.867 75.2889C105.015 75.5333 105.059 75.7963 105 76.0778C104.941 76.3593 104.793 76.5852 104.555 76.7556L101.811 78.7445C101.848 78.9445 101.87 79.1537 101.878 79.3723C101.885 79.5908 101.889 79.8 101.889 80C101.889 80.2 101.885 80.4056 101.878 80.6167C101.87 80.8278 101.844 81.0334 101.8 81.2334L104.544 83.2445C104.767 83.4148 104.911 83.6371 104.978 83.9112C105.044 84.1852 105.004 84.4445 104.855 84.6889L102.567 88.7111C102.418 88.9704 102.209 89.1445 101.939 89.2334C101.668 89.3222 101.4 89.3074 101.133 89.1889L98.1221 87.8334C97.8036 88.0852 97.4481 88.3296 97.0555 88.5667C96.6629 88.8037 96.274 88.9852 95.8888 89.1111L95.3999 92.3889C95.3555 92.663 95.2295 92.8889 95.0221 93.0667C94.8147 93.2445 94.574 93.3334 94.2999 93.3334H89.6999ZM90.5777 91.1112H93.411L93.8777 87.4445C94.5962 87.2667 95.2721 86.9945 95.9055 86.6278C96.5388 86.2612 97.1147 85.8186 97.6333 85.3L101.089 86.7778L102.411 84.4223L99.3666 82.1667C99.4629 81.8111 99.537 81.4537 99.5888 81.0945C99.6407 80.7352 99.6666 80.3704 99.6666 80C99.6666 79.6296 99.6444 79.2648 99.5999 78.9056C99.5555 78.5463 99.4777 78.1889 99.3666 77.8334L102.411 75.5778L101.089 73.2222L97.6333 74.7111C97.1296 74.1556 96.5647 73.6908 95.9388 73.3167C95.3129 72.9426 94.6258 72.6889 93.8777 72.5556L93.4221 68.8889H90.5888L90.1221 72.5556C89.3888 72.7185 88.7055 72.9834 88.0721 73.35C87.4388 73.7167 86.8703 74.1667 86.3666 74.7L82.911 73.2222L81.5888 75.5778L84.6332 77.8223C84.5369 78.1852 84.4629 78.5445 84.411 78.9C84.3592 79.2556 84.3332 79.6222 84.3332 80C84.3332 80.3704 84.3592 80.7334 84.411 81.0889C84.4629 81.4445 84.5369 81.8037 84.6332 82.1667L81.5888 84.4223L82.911 86.7778L86.3666 85.2889C86.8851 85.8149 87.461 86.2612 88.0943 86.6278C88.7277 86.9945 89.4036 87.2667 90.1221 87.4445L90.5777 91.1112ZM92.0221 84.4445C93.2518 84.4445 94.2999 84.0111 95.1666 83.1445C96.0332 82.2778 96.4666 81.2296 96.4666 80C96.4666 78.7704 96.0332 77.7223 95.1666 76.8556C94.2999 75.9889 93.2518 75.5556 92.0221 75.5556C90.7851 75.5556 89.7351 75.9889 88.8721 76.8556C88.0092 77.7223 87.5777 78.7704 87.5777 80C87.5777 81.2296 88.0092 82.2778 88.8721 83.1445C89.7351 84.0111 90.7851 84.4445 92.0221 84.4445Z" fill="#2B87F8"/>
<path d="M45.8085 121.392C42.7565 121.392 40.0405 120.356 38.1925 118.816L39.7605 116.324C41.4125 117.556 43.5405 118.396 45.8085 118.396C48.3005 118.396 50.1485 117.248 50.1485 115.288C50.1485 113.664 48.9725 112.656 45.6405 112.18C40.9925 111.536 38.7525 109.828 38.7525 106.776C38.7525 103.304 41.8605 101.008 45.9485 101.008C48.4405 101.008 50.5685 101.568 52.6405 103.108L50.9885 105.488C49.5605 104.396 47.7125 103.92 46.0325 103.92C43.7365 103.92 42.0285 104.984 42.0285 106.608C42.0285 108.12 43.3445 108.82 46.4805 109.352C51.4365 110.164 53.4245 112.068 53.4245 115.232C53.4245 119.04 50.3165 121.392 45.8085 121.392ZM69.07 113.944C69.07 114.392 69.042 114.812 69.014 115.204H58.43C58.626 117.304 60.334 118.62 62.63 118.62C63.946 118.62 65.626 118.2 66.914 117.08L68.398 119.152C66.97 120.664 64.59 121.308 62.518 121.308C58.206 121.308 55.266 118.508 55.266 114.084C55.266 109.772 58.318 106.86 62.574 106.86C66.298 106.86 69.07 109.212 69.07 113.944ZM62.462 109.548C60.418 109.548 58.85 110.612 58.458 112.824H66.102C65.962 110.64 64.478 109.548 62.462 109.548ZM79.8392 118.032L80.7072 120.524C79.6432 121 78.7472 121.196 77.5992 121.196C74.6872 121.196 73.0632 119.488 73.0632 116.268V109.772H70.4592V107.168H73.0632V103.556L76.1712 103.22V107.168H80.1472V109.772H76.1712V116.184C76.1712 117.696 76.7872 118.48 78.1032 118.48C78.6632 118.48 79.2792 118.312 79.8392 118.032ZM91.1257 118.032L91.9937 120.524C90.9297 121 90.0337 121.196 88.8857 121.196C85.9737 121.196 84.3497 119.488 84.3497 116.268V109.772H81.7457V107.168H84.3497V103.556L87.4577 103.22V107.168H91.4337V109.772H87.4577V116.184C87.4577 117.696 88.0737 118.48 89.3897 118.48C89.9497 118.48 90.5657 118.312 91.1257 118.032ZM95.7761 105.096C94.6001 105.096 93.7601 104.284 93.7601 103.192C93.7601 102.044 94.6001 101.232 95.7761 101.232C96.9521 101.232 97.7921 102.044 97.7921 103.192C97.7921 104.284 96.9521 105.096 95.7761 105.096ZM94.2361 121V107.168H97.3721V121H94.2361ZM101.23 121V107.168H104.114C104.114 107.896 104.086 108.624 104.03 109.688H104.114C104.954 107.812 106.69 106.888 108.958 106.888C112.682 106.888 114.726 109.128 114.726 113.216V121H111.59V113.496C111.59 111.144 110.498 109.66 108.23 109.66C105.99 109.66 104.366 111.368 104.366 113.72V121H101.23ZM124.751 127.86C122.427 127.86 120.187 127.272 118.199 126.096L119.375 123.576C121.643 124.64 123.127 125.032 124.695 125.032C127.215 125.032 128.699 123.8 128.839 121.644C128.895 120.664 128.951 119.796 129.035 118.732H128.979C128.195 120.188 126.571 121.28 124.163 121.28C120.103 121.28 117.303 118.396 117.303 114.112C117.303 109.8 120.103 106.86 124.135 106.86C126.571 106.86 128.419 108.092 129.063 109.464H129.119C129.091 108.652 129.091 107.924 129.091 107.168H132.003V121.028C132.003 125.424 129.315 127.86 124.751 127.86ZM124.639 118.508C127.131 118.508 128.867 116.716 128.867 114.14C128.867 111.48 127.131 109.632 124.695 109.632C122.203 109.632 120.439 111.48 120.439 114.028C120.439 116.688 122.203 118.508 124.639 118.508ZM140.845 121.392C138.689 121.392 136.757 120.86 134.685 119.712L135.973 117.332C137.681 118.256 139.277 118.704 140.901 118.704C142.441 118.704 143.449 118.004 143.449 116.968C143.449 115.932 142.581 115.372 140.621 115.176C137.121 114.812 135.273 113.384 135.273 111.06C135.273 108.568 137.513 106.888 140.845 106.888C142.609 106.888 144.401 107.336 145.857 108.12L144.877 110.528C143.505 109.828 141.993 109.436 140.761 109.436C139.221 109.436 138.325 110.024 138.325 111.004C138.325 111.984 139.081 112.488 140.929 112.712C144.961 113.244 146.529 114.448 146.529 117.024C146.529 119.628 144.261 121.392 140.845 121.392Z" fill="#2B87F8"/>
<mask id="path-6-inside-1_5087_52715" fill="white">
<path d="M0 0H184V12H0V0Z"/>
</mask>
<path d="M0 0H184V12H0V0Z" fill="#2B87F8" fill-opacity="0.25"/>
<path d="M184 12V11H0V12V13H184V12Z" fill="#2B87F8" fill-opacity="0.15" mask="url(#path-6-inside-1_5087_52715)"/>
<rect x="12" y="4" width="8" height="4" rx="1" fill="#2B87F8" fill-opacity="0.55"/>
<rect x="144" y="4" width="8" height="4" rx="1" fill="#2B87F8" fill-opacity="0.55"/>
<rect x="154" y="4" width="8" height="4" rx="1" fill="#2B87F8" fill-opacity="0.55"/>
<rect x="164" y="4" width="8" height="4" rx="1" fill="#2B87F8" fill-opacity="0.55"/>
</g>
<defs>
<clipPath id="clip0_5087_52715">
<rect width="184" height="184" rx="4" fill="white"/>
</clipPath>
</defs>
</svg>
