<svg width="184" height="184" viewBox="0 0 184 184" fill="none" xmlns="http://www.w3.org/2000/svg">
<g clip-path="url(#clip0_5087_55228)">
<rect x="0.5" y="0.5" width="183" height="183" rx="3.5" fill="#F0F7FE"/>
<rect x="0.5" y="0.5" width="183" height="183" rx="3.5" stroke="#C1DDFC"/>
<mask id="path-3-inside-1_5087_55228" fill="white">
<path d="M0 0H184V12H0V0Z"/>
</mask>
<path d="M0 0H184V12H0V0Z" fill="#2B87F8" fill-opacity="0.25"/>
<path d="M184 12V11H0V12V13H184V12Z" fill="#2B87F8" fill-opacity="0.15" mask="url(#path-3-inside-1_5087_55228)"/>
<rect x="12" y="4" width="8" height="4" rx="1" fill="#2B87F8" fill-opacity="0.55"/>
<rect x="144" y="4" width="8" height="4" rx="1" fill="#2B87F8" fill-opacity="0.55"/>
<rect x="154" y="4" width="8" height="4" rx="1" fill="#2B87F8" fill-opacity="0.55"/>
<rect x="164" y="4" width="8" height="4" rx="1" fill="#2B87F8" fill-opacity="0.55"/>
<rect x="16" y="24" width="80" height="6" rx="2" fill="#2B87F8" fill-opacity="0.55"/>
<rect x="16" y="42" width="45" height="25" rx="4" fill="white"/>
<rect x="16.5" y="42.5" width="44" height="24" rx="3.5" stroke="#2B87F8" stroke-opacity="0.15"/>
<rect x="22" y="48" width="20" height="3" rx="1" fill="#2B87F8" fill-opacity="0.4"/>
<rect x="22" y="55" width="30" height="6" rx="1" fill="#2B87F8"/>
<rect x="69" y="42" width="45" height="25" rx="4" fill="white"/>
<rect x="69.5" y="42.5" width="44" height="24" rx="3.5" stroke="#2B87F8" stroke-opacity="0.15"/>
<rect x="75" y="48" width="20" height="3" rx="1" fill="#2B87F8" fill-opacity="0.4"/>
<rect x="75" y="55" width="30" height="6" rx="1" fill="#2B87F8"/>
<rect x="122" y="42" width="45" height="25" rx="4" fill="white"/>
<rect x="122.5" y="42.5" width="44" height="24" rx="3.5" stroke="#2B87F8" stroke-opacity="0.15"/>
<rect x="128" y="48" width="20" height="3" rx="1" fill="#2B87F8" fill-opacity="0.4"/>
<rect x="128" y="55" width="30" height="6" rx="1" fill="#2B87F8"/>
<g clip-path="url(#clip1_5087_55228)">
<rect x="16" y="79" width="60" height="4" rx="1" fill="#2B87F8" fill-opacity="0.55"/>
<rect x="84" y="79" width="40" height="4" rx="1" fill="#2B87F8" fill-opacity="0.55"/>
<rect x="132" y="79" width="28" height="4" rx="1" fill="#2B87F8" fill-opacity="0.55"/>
<rect x="16" y="91" width="60" height="6" rx="1" fill="#2B87F8" fill-opacity="0.15"/>
<rect x="84" y="91" width="40" height="6" rx="1" fill="#2B87F8" fill-opacity="0.15"/>
<rect x="132" y="91" width="28" height="6" rx="1" fill="#2B87F8" fill-opacity="0.15"/>
<rect x="16" y="105" width="60" height="6" rx="1" fill="#2B87F8" fill-opacity="0.15"/>
<rect x="84" y="105" width="40" height="6" rx="1" fill="#2B87F8" fill-opacity="0.15"/>
<rect x="132" y="105" width="28" height="6" rx="1" fill="#2B87F8" fill-opacity="0.15"/>
<rect x="16" y="119" width="60" height="6" rx="1" fill="#2B87F8" fill-opacity="0.15"/>
<rect x="84" y="119" width="40" height="6" rx="1" fill="#2B87F8" fill-opacity="0.15"/>
<rect x="132" y="119" width="28" height="6" rx="1" fill="#2B87F8" fill-opacity="0.15"/>
<rect x="16" y="133" width="60" height="6" rx="1" fill="#2B87F8" fill-opacity="0.15"/>
<rect x="84" y="133" width="40" height="6" rx="1" fill="#2B87F8" fill-opacity="0.15"/>
<rect x="132" y="133" width="28" height="6" rx="1" fill="#2B87F8" fill-opacity="0.15"/>
</g>
</g>
<defs>
<clipPath id="clip0_5087_55228">
<rect width="184" height="184" rx="4" fill="white"/>
</clipPath>
<clipPath id="clip1_5087_55228">
<rect width="152" height="62" fill="white" transform="translate(16 79)"/>
</clipPath>
</defs>
</svg>
