<svg width="184" height="184" viewBox="0 0 184 184" fill="none" xmlns="http://www.w3.org/2000/svg">
<g clip-path="url(#clip0_5087_55298)">
<g clip-path="url(#clip1_5087_55298)">
<path d="M0 4C0 1.79086 1.79086 0 4 0H180C182.209 0 184 1.79086 184 4V180C184 182.209 182.209 184 180 184H4C1.79086 184 0 182.209 0 180V4Z" fill="#F0F7FE"/>
<mask id="path-4-inside-1_5087_55298" fill="white">
<path d="M0 0H184V12H0V0Z"/>
</mask>
<path d="M0 0H184V12H0V0Z" fill="#2B87F8" fill-opacity="0.25"/>
<path d="M184 12V11H0V12V13H184V12Z" fill="#2B87F8" fill-opacity="0.15" mask="url(#path-4-inside-1_5087_55298)"/>
<rect x="12" y="4" width="8" height="4" rx="1" fill="#2B87F8" fill-opacity="0.55"/>
<rect x="144" y="4" width="8" height="4" rx="1" fill="#2B87F8" fill-opacity="0.55"/>
<rect x="154" y="4" width="8" height="4" rx="1" fill="#2B87F8" fill-opacity="0.55"/>
<rect x="164" y="4" width="8" height="4" rx="1" fill="#2B87F8" fill-opacity="0.55"/>
<rect x="14" y="20" width="40" height="6" rx="2" fill="#2B87F8" fill-opacity="0.55"/>
<rect x="14" y="32" width="40" height="12" rx="2" fill="#2B87F8" fill-opacity="0.15"/>
<rect x="14" y="50" width="40" height="12" rx="2" fill="#2B87F8" fill-opacity="0.15"/>
<rect x="14" y="68" width="40" height="12" rx="2" fill="#2B87F8" fill-opacity="0.15"/>
<rect x="14" y="86" width="40" height="12" rx="2" fill="#2B87F8" fill-opacity="0.15"/>
<rect x="14" y="104" width="40" height="12" rx="2" fill="#2B87F8" fill-opacity="0.15"/>
<rect width="1" height="172" transform="translate(62 12)" fill="#2B87F8" fill-opacity="0.1"/>
<rect x="71" y="20" width="99" height="8" rx="2" fill="#2B87F8" fill-opacity="0.55"/>
<g clip-path="url(#clip2_5087_55298)">
<rect x="71" y="36" width="28" height="4" rx="2" fill="#2B87F8" fill-opacity="0.4"/>
<rect x="71" y="44" width="99" height="6" rx="2" fill="#2B87F8" fill-opacity="0.15"/>
</g>
<g clip-path="url(#clip3_5087_55298)">
<rect x="71" y="58" width="24" height="4" rx="2" fill="#2B87F8" fill-opacity="0.4"/>
<rect x="71" y="66" width="99" height="6" rx="2" fill="#2B87F8" fill-opacity="0.15"/>
</g>
<g clip-path="url(#clip4_5087_55298)">
<rect x="71" y="80" width="20" height="4" rx="2" fill="#2B87F8" fill-opacity="0.4"/>
<rect x="71" y="88" width="99" height="6" rx="2" fill="#2B87F8" fill-opacity="0.15"/>
<rect x="71" y="98" width="63" height="6" rx="2" fill="#2B87F8" fill-opacity="0.15"/>
</g>
<rect x="71" y="112" width="24" height="4" rx="2" fill="#2B87F8" fill-opacity="0.4"/>
<rect x="71" y="120" width="79" height="6" rx="2" fill="#2B87F8" fill-opacity="0.15"/>
<rect x="71" y="134" width="99" height="6" rx="2" fill="#2B87F8" fill-opacity="0.25"/>
</g>
<path d="M4 0.5H180C181.933 0.5 183.5 2.067 183.5 4V180C183.5 181.933 181.933 183.5 180 183.5H4C2.067 183.5 0.5 181.933 0.5 180V4C0.5 2.067 2.067 0.5 4 0.5Z" stroke="#C1DDFC"/>
</g>
<defs>
<clipPath id="clip0_5087_55298">
<rect width="184" height="184" rx="4" fill="white"/>
</clipPath>
<clipPath id="clip1_5087_55298">
<path d="M0 4C0 1.79086 1.79086 0 4 0H180C182.209 0 184 1.79086 184 4V180C184 182.209 182.209 184 180 184H4C1.79086 184 0 182.209 0 180V4Z" fill="white"/>
</clipPath>
<clipPath id="clip2_5087_55298">
<rect width="99" height="14" fill="white" transform="translate(71 36)"/>
</clipPath>
<clipPath id="clip3_5087_55298">
<rect width="99" height="14" fill="white" transform="translate(71 58)"/>
</clipPath>
<clipPath id="clip4_5087_55298">
<rect width="99" height="24" fill="white" transform="translate(71 80)"/>
</clipPath>
</defs>
</svg>
