<svg width="184" height="184" viewBox="0 0 184 184" fill="none" xmlns="http://www.w3.org/2000/svg">
<g clip-path="url(#clip0_5087_55464)">
<rect x="0.5" y="0.5" width="183" height="183" rx="3.5" fill="#F0F7FE"/>
<rect x="0.5" y="0.5" width="183" height="183" rx="3.5" stroke="#C1DDFC"/>
<mask id="path-3-inside-1_5087_55464" fill="white">
<path d="M0 0H184V12H0V0Z"/>
</mask>
<path d="M0 0H184V12H0V0Z" fill="#2B87F8" fill-opacity="0.25"/>
<path d="M184 12V11H0V12V13H184V12Z" fill="#C1DDFC" mask="url(#path-3-inside-1_5087_55464)"/>
<rect x="12" y="4" width="8" height="4" rx="1" fill="#2B87F8" fill-opacity="0.55"/>
<rect x="144" y="4" width="8" height="4" rx="1" fill="#2B87F8" fill-opacity="0.55"/>
<rect x="154" y="4" width="8" height="4" rx="1" fill="#2B87F8" fill-opacity="0.55"/>
<rect x="164" y="4" width="8" height="4" rx="1" fill="#2B87F8" fill-opacity="0.55"/>
<rect x="16" y="24" width="80" height="6" rx="2" fill="#2B87F8" fill-opacity="0.55"/>
<rect x="16.5" y="42.5" width="44" height="24" rx="3.5" fill="white"/>
<rect x="16.5" y="42.5" width="44" height="24" rx="3.5" stroke="#D2E6FD"/>
<rect x="22" y="48" width="20" height="3" rx="1" fill="#2B87F8" fill-opacity="0.4"/>
<rect x="22" y="55" width="30" height="6" rx="1" fill="#2B87F8"/>
<rect x="69.5" y="42.5" width="44" height="24" rx="3.5" fill="white"/>
<rect x="69.5" y="42.5" width="44" height="24" rx="3.5" stroke="#D2E6FD"/>
<rect x="75" y="48" width="20" height="3" rx="1" fill="#2B87F8" fill-opacity="0.4"/>
<rect x="75" y="55" width="30" height="6" rx="1" fill="#2B87F8"/>
<rect x="122.5" y="42.5" width="44" height="24" rx="3.5" fill="white"/>
<rect x="122.5" y="42.5" width="44" height="24" rx="3.5" stroke="#D2E6FD"/>
<rect x="128" y="48" width="20" height="3" rx="1" fill="#2B87F8" fill-opacity="0.4"/>
<rect x="128" y="55" width="30" height="6" rx="1" fill="#2B87F8"/>
<g clip-path="url(#clip1_5087_55464)">
<rect x="16" y="79" width="20" height="3" rx="1" fill="#2B87F8" fill-opacity="0.4"/>
<rect x="42" y="79" width="12" height="3" rx="1" fill="#2B87F8" fill-opacity="0.4"/>
<path d="M20 88.5H164C165.933 88.5 167.5 90.067 167.5 92V108C167.5 109.933 165.933 111.5 164 111.5H20C18.067 111.5 16.5 109.933 16.5 108V92L16.5049 91.8203C16.5984 89.9708 18.1273 88.5 20 88.5Z" fill="#F0F7FE"/>
<path d="M20 88.5H164C165.933 88.5 167.5 90.067 167.5 92V108C167.5 109.933 165.933 111.5 164 111.5H20C18.067 111.5 16.5 109.933 16.5 108V92L16.5049 91.8203C16.5984 89.9708 18.1273 88.5 20 88.5Z" stroke="#A1CAFC"/>
</g>
<g clip-path="url(#clip2_5087_55464)">
<rect x="16" y="120" width="24" height="3" rx="1" fill="#2B87F8" fill-opacity="0.4"/>
<rect x="46" y="120" width="10" height="3" rx="1" fill="#2B87F8" fill-opacity="0.4"/>
<path d="M20 129.5H164C165.933 129.5 167.5 131.067 167.5 133V149C167.5 150.933 165.933 152.5 164 152.5H20C18.067 152.5 16.5 150.933 16.5 149V133L16.5049 132.82C16.5984 130.971 18.1273 129.5 20 129.5Z" fill="#F0F7FE"/>
<path d="M20 129.5H164C165.933 129.5 167.5 131.067 167.5 133V149C167.5 150.933 165.933 152.5 164 152.5H20C18.067 152.5 16.5 150.933 16.5 149V133L16.5049 132.82C16.5984 130.971 18.1273 129.5 20 129.5Z" stroke="#A1CAFC"/>
</g>
<g clip-path="url(#clip3_5087_55464)">
<rect x="129" y="161" width="39" height="10" rx="2" fill="#2B87F8"/>
<rect x="129.5" y="161.5" width="38" height="9" rx="1.5" stroke="#2B87F8" stroke-opacity="0.15"/>
</g>
</g>
<defs>
<clipPath id="clip0_5087_55464">
<rect width="184" height="184" rx="4" fill="white"/>
</clipPath>
<clipPath id="clip1_5087_55464">
<rect width="152" height="33" fill="white" transform="translate(16 79)"/>
</clipPath>
<clipPath id="clip2_5087_55464">
<rect width="152" height="33" fill="white" transform="translate(16 120)"/>
</clipPath>
<clipPath id="clip3_5087_55464">
<rect width="152" height="10" fill="white" transform="translate(16 161)"/>
</clipPath>
</defs>
</svg>
