<svg width="184" height="184" viewBox="0 0 184 184" fill="none" xmlns="http://www.w3.org/2000/svg">
<g clip-path="url(#clip0_5087_54802)">
<path d="M4 0.5H180C181.933 0.5 183.5 2.067 183.5 4V180C183.5 181.933 181.933 183.5 180 183.5H4C2.067 183.5 0.5 181.933 0.5 180V4C0.5 2.067 2.067 0.5 4 0.5Z" fill="#F0F7FE"/>
<path d="M4 0.5H180C181.933 0.5 183.5 2.067 183.5 4V180C183.5 181.933 181.933 183.5 180 183.5H4C2.067 183.5 0.5 181.933 0.5 180V4C0.5 2.067 2.067 0.5 4 0.5Z" stroke="#C1DDFC"/>
<g clip-path="url(#clip1_5087_54802)">
<rect x="12" y="16" width="55" height="6" rx="2" fill="#2B87F8" fill-opacity="0.55"/>
<rect x="144" y="16" width="28" height="6" rx="2" fill="#2B87F8" fill-opacity="0.4"/>
</g>
<g clip-path="url(#clip2_5087_54802)">
<rect x="12.5" y="28.5" width="48.3333" height="19" rx="1.5" stroke="#2B87F8" stroke-opacity="0.15"/>
<rect x="16" y="30" width="14" height="6" rx="1" fill="#84B9FB"/>
<rect x="16" y="38" width="41.3333" height="4" rx="1" fill="#2B87F8" fill-opacity="0.15"/>
<rect x="67.8333" y="28.5" width="48.3333" height="19" rx="1.5" stroke="#2B87F8" stroke-opacity="0.15"/>
<rect x="71.3333" y="30" width="13" height="6" rx="1" fill="#84B9FB"/>
<rect x="71.3333" y="38" width="41.3333" height="4" rx="1" fill="#2B87F8" fill-opacity="0.15"/>
<rect x="123.167" y="28.5" width="48.3333" height="19" rx="1.5" stroke="#2B87F8" stroke-opacity="0.15"/>
<rect x="126.667" y="30" width="20" height="6" rx="1" fill="#84B9FB"/>
<rect x="126.667" y="38" width="41.3333" height="4" rx="1" fill="#2B87F8" fill-opacity="0.15"/>
</g>
<rect x="12" y="54" width="160" height="36" rx="2" fill="#2B87F8" fill-opacity="0.25"/>
<rect x="12.5" y="54.5" width="159" height="35" rx="1.5" stroke="#2B87F8" stroke-opacity="0.15"/>
<rect width="160" height="1" transform="translate(12 66)" fill="#2B87F8" fill-opacity="0.15"/>
<rect width="160" height="1" transform="translate(12 78)" fill="#2B87F8" fill-opacity="0.15"/>
<path d="M18 84L42.6667 74.4L67.3333 79.2L92 64.8L116.667 72L141.333 60L166 69.6" stroke="#2B87F8" stroke-width="1.5" stroke-linecap="round"/>
<g clip-path="url(#clip3_5087_54802)">
<rect x="12.5" y="96.5" width="76" height="55" rx="1.5" stroke="#2B87F8" stroke-opacity="0.15"/>
<g clip-path="url(#clip4_5087_54802)">
<rect x="16" y="100" width="32.5" height="6" rx="1" fill="#84B9FB"/>
<rect x="52.5" y="100" width="32.5" height="6" rx="1" fill="#84B9FB"/>
</g>
<g clip-path="url(#clip5_5087_54802)">
<rect x="16" y="110" width="32.5" height="6" rx="1" fill="#2B87F8" fill-opacity="0.15"/>
<rect x="52.5" y="110" width="32.5" height="6" rx="1" fill="#2B87F8" fill-opacity="0.15"/>
</g>
<g clip-path="url(#clip6_5087_54802)">
<rect x="16" y="120" width="32.5" height="6" rx="1" fill="#2B87F8" fill-opacity="0.15"/>
<rect x="52.5" y="120" width="32.5" height="6" rx="1" fill="#2B87F8" fill-opacity="0.15"/>
</g>
<g clip-path="url(#clip7_5087_54802)">
<rect x="16" y="130" width="32.5" height="6" rx="1" fill="#2B87F8" fill-opacity="0.15"/>
<rect x="52.5" y="130" width="32.5" height="6" rx="1" fill="#2B87F8" fill-opacity="0.15"/>
</g>
<g clip-path="url(#clip8_5087_54802)">
<rect x="16" y="140" width="32.5" height="6" rx="1" fill="#2B87F8" fill-opacity="0.15"/>
<rect x="52.5" y="140" width="32.5" height="6" rx="1" fill="#2B87F8" fill-opacity="0.15"/>
</g>
<rect x="95.5" y="96.5" width="76" height="55" rx="1.5" stroke="#2B87F8" stroke-opacity="0.15"/>
<g clip-path="url(#clip9_5087_54802)">
<rect x="99" y="100" width="32.5" height="6" rx="1" fill="#84B9FB"/>
<rect x="135.5" y="100" width="32.5" height="6" rx="1" fill="#84B9FB"/>
</g>
<g clip-path="url(#clip10_5087_54802)">
<rect x="99" y="110" width="32.5" height="6" rx="1" fill="#2B87F8" fill-opacity="0.15"/>
<rect x="135.5" y="110" width="32.5" height="6" rx="1" fill="#2B87F8" fill-opacity="0.15"/>
</g>
<g clip-path="url(#clip11_5087_54802)">
<rect x="99" y="120" width="32.5" height="6" rx="1" fill="#2B87F8" fill-opacity="0.15"/>
<rect x="135.5" y="120" width="32.5" height="6" rx="1" fill="#2B87F8" fill-opacity="0.15"/>
</g>
<g clip-path="url(#clip12_5087_54802)">
<rect x="99" y="130" width="32.5" height="6" rx="1" fill="#2B87F8" fill-opacity="0.15"/>
<rect x="135.5" y="130" width="32.5" height="6" rx="1" fill="#2B87F8" fill-opacity="0.15"/>
</g>
<g clip-path="url(#clip13_5087_54802)">
<rect x="99" y="140" width="32.5" height="6" rx="1" fill="#2B87F8" fill-opacity="0.15"/>
<rect x="135.5" y="140" width="32.5" height="6" rx="1" fill="#2B87F8" fill-opacity="0.15"/>
</g>
</g>
<mask id="path-44-inside-1_5087_54802" fill="white">
<path d="M0 0H184V12H0V0Z"/>
</mask>
<path d="M0 0H184V12H0V0Z" fill="#2B87F8" fill-opacity="0.25"/>
<path d="M184 12V11H0V12V13H184V12Z" fill="#C1DDFC" mask="url(#path-44-inside-1_5087_54802)"/>
<rect x="12" y="4" width="8" height="4" rx="1" fill="#2B87F8" fill-opacity="0.55"/>
<rect x="144" y="4" width="8" height="4" rx="1" fill="#2B87F8" fill-opacity="0.55"/>
<rect x="154" y="4" width="8" height="4" rx="1" fill="#2B87F8" fill-opacity="0.55"/>
<rect x="164" y="4" width="8" height="4" rx="1" fill="#2B87F8" fill-opacity="0.55"/>
</g>
<defs>
<clipPath id="clip0_5087_54802">
<rect width="184" height="184" rx="4" fill="white"/>
</clipPath>
<clipPath id="clip1_5087_54802">
<rect width="160" height="6" fill="white" transform="translate(12 16)"/>
</clipPath>
<clipPath id="clip2_5087_54802">
<rect width="160" height="20" fill="white" transform="translate(12 28)"/>
</clipPath>
<clipPath id="clip3_5087_54802">
<rect width="160" height="56" fill="white" transform="translate(12 96)"/>
</clipPath>
<clipPath id="clip4_5087_54802">
<rect width="69" height="6" fill="white" transform="translate(16 100)"/>
</clipPath>
<clipPath id="clip5_5087_54802">
<rect width="69" height="6" fill="white" transform="translate(16 110)"/>
</clipPath>
<clipPath id="clip6_5087_54802">
<rect width="69" height="6" fill="white" transform="translate(16 120)"/>
</clipPath>
<clipPath id="clip7_5087_54802">
<rect width="69" height="6" fill="white" transform="translate(16 130)"/>
</clipPath>
<clipPath id="clip8_5087_54802">
<rect width="69" height="6" fill="white" transform="translate(16 140)"/>
</clipPath>
<clipPath id="clip9_5087_54802">
<rect width="69" height="6" fill="white" transform="translate(99 100)"/>
</clipPath>
<clipPath id="clip10_5087_54802">
<rect width="69" height="6" fill="white" transform="translate(99 110)"/>
</clipPath>
<clipPath id="clip11_5087_54802">
<rect width="69" height="6" fill="white" transform="translate(99 120)"/>
</clipPath>
<clipPath id="clip12_5087_54802">
<rect width="69" height="6" fill="white" transform="translate(99 130)"/>
</clipPath>
<clipPath id="clip13_5087_54802">
<rect width="69" height="6" fill="white" transform="translate(99 140)"/>
</clipPath>
</defs>
</svg>
