<svg width="184" height="184" viewBox="0 0 184 184" fill="none" xmlns="http://www.w3.org/2000/svg">
<g clip-path="url(#clip0_5087_55032)">
<path d="M4 0.5H180C181.933 0.5 183.5 2.067 183.5 4V180C183.5 181.933 181.933 183.5 180 183.5H4C2.067 183.5 0.5 181.933 0.5 180V4C0.5 2.067 2.067 0.5 4 0.5Z" fill="#F0F7FE"/>
<path d="M4 0.5H180C181.933 0.5 183.5 2.067 183.5 4V180C183.5 181.933 181.933 183.5 180 183.5H4C2.067 183.5 0.5 181.933 0.5 180V4C0.5 2.067 2.067 0.5 4 0.5Z" stroke="#C1DDFC"/>
<mask id="path-3-inside-1_5087_55032" fill="white">
<path d="M0 0H184V12H0V0Z"/>
</mask>
<path d="M0 0H184V12H0V0Z" fill="#2B87F8" fill-opacity="0.25"/>
<path d="M184 12V11H0V12V13H184V12Z" fill="#2B87F8" fill-opacity="0.15" mask="url(#path-3-inside-1_5087_55032)"/>
<rect x="12" y="4" width="8" height="4" rx="1" fill="#2B87F8" fill-opacity="0.55"/>
<rect x="144" y="4" width="8" height="4" rx="1" fill="#2B87F8" fill-opacity="0.55"/>
<rect x="154" y="4" width="8" height="4" rx="1" fill="#2B87F8" fill-opacity="0.55"/>
<rect x="164" y="4" width="8" height="4" rx="1" fill="#2B87F8" fill-opacity="0.55"/>
<g clip-path="url(#clip1_5087_55032)">
<rect x="16" y="40" width="72" height="6" rx="2" fill="#2B87F8" fill-opacity="0.55"/>
<rect x="96" y="40" width="36" height="6" rx="2" fill="#2B87F8" fill-opacity="0.55"/>
<rect x="140" y="40" width="28" height="6" rx="2" fill="#2B87F8" fill-opacity="0.55"/>
</g>
<rect x="16" y="19" width="88" height="6" rx="2" fill="#2B87F8" fill-opacity="0.55"/>
<g clip-path="url(#clip2_5087_55032)">
<rect x="138" y="16" width="12" height="12" rx="2" fill="#2B87F8" fill-opacity="0.4"/>
<rect x="156" y="16" width="12" height="12" rx="2" fill="#2B87F8" fill-opacity="0.4"/>
</g>
<g clip-path="url(#clip3_5087_55032)">
<rect x="16" y="56" width="72" height="8" rx="2" fill="#2B87F8" fill-opacity="0.15"/>
<rect x="96" y="56" width="36" height="8" rx="2" fill="#2B87F8" fill-opacity="0.15"/>
<rect x="140" y="56" width="28" height="8" rx="2" fill="#2B87F8" fill-opacity="0.15"/>
</g>
<g clip-path="url(#clip4_5087_55032)">
<rect x="16" y="72" width="72" height="8" rx="2" fill="#2B87F8" fill-opacity="0.15"/>
<rect x="96" y="72" width="36" height="8" rx="2" fill="#2B87F8" fill-opacity="0.15"/>
<rect x="140" y="72" width="28" height="8" rx="2" fill="#2B87F8" fill-opacity="0.15"/>
</g>
<g clip-path="url(#clip5_5087_55032)">
<rect x="16" y="88" width="72" height="8" rx="2" fill="#2B87F8" fill-opacity="0.15"/>
<rect x="96" y="88" width="36" height="8" rx="2" fill="#2B87F8" fill-opacity="0.15"/>
<rect x="140" y="88" width="28" height="8" rx="2" fill="#2B87F8" fill-opacity="0.15"/>
</g>
<g clip-path="url(#clip6_5087_55032)">
<rect x="16" y="104" width="72" height="8" rx="2" fill="#2B87F8" fill-opacity="0.15"/>
<rect x="96" y="104" width="36" height="8" rx="2" fill="#2B87F8" fill-opacity="0.15"/>
<rect x="140" y="104" width="28" height="8" rx="2" fill="#2B87F8" fill-opacity="0.15"/>
</g>
<g clip-path="url(#clip7_5087_55032)">
<rect x="16" y="120" width="72" height="8" rx="2" fill="#2B87F8" fill-opacity="0.15"/>
<rect x="96" y="120" width="36" height="8" rx="2" fill="#2B87F8" fill-opacity="0.15"/>
<rect x="140" y="120" width="28" height="8" rx="2" fill="#2B87F8" fill-opacity="0.15"/>
</g>
<g clip-path="url(#clip8_5087_55032)">
<rect x="16" y="136" width="72" height="8" rx="2" fill="#2B87F8" fill-opacity="0.15"/>
<rect x="96" y="136" width="36" height="8" rx="2" fill="#2B87F8" fill-opacity="0.15"/>
<rect x="140" y="136" width="28" height="8" rx="2" fill="#2B87F8" fill-opacity="0.15"/>
</g>
</g>
<defs>
<clipPath id="clip0_5087_55032">
<rect width="184" height="184" rx="4" fill="white"/>
</clipPath>
<clipPath id="clip1_5087_55032">
<rect width="152" height="6" fill="white" transform="translate(16 40)"/>
</clipPath>
<clipPath id="clip2_5087_55032">
<rect width="30" height="6" fill="white" transform="translate(138 19)"/>
</clipPath>
<clipPath id="clip3_5087_55032">
<rect width="152" height="8" fill="white" transform="translate(16 56)"/>
</clipPath>
<clipPath id="clip4_5087_55032">
<rect width="152" height="8" fill="white" transform="translate(16 72)"/>
</clipPath>
<clipPath id="clip5_5087_55032">
<rect width="152" height="8" fill="white" transform="translate(16 88)"/>
</clipPath>
<clipPath id="clip6_5087_55032">
<rect width="152" height="8" fill="white" transform="translate(16 104)"/>
</clipPath>
<clipPath id="clip7_5087_55032">
<rect width="152" height="8" fill="white" transform="translate(16 120)"/>
</clipPath>
<clipPath id="clip8_5087_55032">
<rect width="152" height="8" fill="white" transform="translate(16 136)"/>
</clipPath>
</defs>
</svg>
