<svg width="104" height="184" viewBox="0 0 104 184" fill="none" xmlns="http://www.w3.org/2000/svg">
<g clip-path="url(#clip0_5087_52588)">
<path d="M0 4C0 1.79086 1.79086 0 4 0H100C102.209 0 104 1.79086 104 4V180C104 182.209 102.209 184 100 184H4C1.79086 184 0 182.209 0 180V4Z" fill="#F0F7FE"/>
<path d="M4 0.5H100C101.933 0.500002 103.5 2.067 103.5 4V180C103.5 181.933 101.933 183.5 100 183.5H4C2.067 183.5 0.5 181.933 0.5 180V4C0.5 2.067 2.067 0.5 4 0.5Z" stroke="#2B87F8" stroke-opacity="0.1"/>
<g clip-path="url(#clip1_5087_52588)">
<g clip-path="url(#clip2_5087_52588)">
<path d="M168 40H8V60H168V40Z" fill="#2B87F8" fill-opacity="0.4"/>
<path d="M14 50C14 48.8954 14.8954 48 16 48H40C41.1046 48 42 48.8954 42 50V50C42 51.1046 41.1046 52 40 52H16C14.8954 52 14 51.1046 14 50V50Z" fill="#2B87F8" fill-opacity="0.55"/>
<path d="M168 60H8V76H168V60Z" fill="white"/>
<path d="M14 68C14 66.8954 14.8954 66 16 66H32C33.1046 66 34 66.8954 34 68V68C34 69.1046 33.1046 70 32 70H16C14.8954 70 14 69.1046 14 68V68Z" fill="#2B87F8" fill-opacity="0.25"/>
<path d="M168 76H8V92H168V76Z" fill="#2B87F8" fill-opacity="0.15"/>
<path d="M14 84C14 82.8954 14.8954 82 16 82H40C41.1046 82 42 82.8954 42 84V84C42 85.1046 41.1046 86 40 86H16C14.8954 86 14 85.1046 14 84V84Z" fill="#2B87F8" fill-opacity="0.25"/>
<path d="M168 92H8V108H168V92Z" fill="white"/>
<path d="M14 100C14 98.8954 14.8954 98 16 98H32C33.1046 98 34 98.8954 34 100V100C34 101.105 33.1046 102 32 102H16C14.8954 102 14 101.105 14 100V100Z" fill="#2B87F8" fill-opacity="0.25"/>
<path d="M168 108H8V124H168V108Z" fill="#2B87F8" fill-opacity="0.15"/>
<path d="M14 116C14 114.895 14.8954 114 16 114H40C41.1046 114 42 114.895 42 116V116C42 117.105 41.1046 118 40 118H16C14.8954 118 14 117.105 14 116V116Z" fill="#2B87F8" fill-opacity="0.25"/>
<path d="M168 124H8V140H168V124Z" fill="white"/>
<path d="M14 132C14 130.895 14.8954 130 16 130H32C33.1046 130 34 130.895 34 132V132C34 133.105 33.1046 134 32 134H16C14.8954 134 14 133.105 14 132V132Z" fill="#2B87F8" fill-opacity="0.25"/>
<path d="M168 140H8V156H168V140Z" fill="#2B87F8" fill-opacity="0.15"/>
<path d="M14 148C14 146.895 14.8954 146 16 146H40C41.1046 146 42 146.895 42 148V148C42 149.105 41.1046 150 40 150H16C14.8954 150 14 149.105 14 148V148Z" fill="#2B87F8" fill-opacity="0.25"/>
<path d="M168 156H8V172H168V156Z" fill="white"/>
<path d="M14 164C14 162.895 14.8954 162 16 162H32C33.1046 162 34 162.895 34 164V164C34 165.105 33.1046 166 32 166H16C14.8954 166 14 165.105 14 164V164Z" fill="#2B87F8" fill-opacity="0.25"/>
<path d="M88 40H48V172H88V40Z" fill="#2B87F8" fill-opacity="0.15"/>
</g>
<path d="M12 40.5H164C165.933 40.5 167.5 42.067 167.5 44V168C167.5 169.933 165.933 171.5 164 171.5H12C10.067 171.5 8.5 169.933 8.5 168V44C8.5 42.067 10.067 40.5 12 40.5Z" stroke="#2B87F8" stroke-opacity="0.15"/>
</g>
<mask id="path-23-inside-1_5087_52588" fill="white">
<path d="M0 0H104V12H0V0Z"/>
</mask>
<path d="M0 0H104V12H0V0Z" fill="#2B87F8" fill-opacity="0.25"/>
<path d="M104 12V11H0V12V13H104V12Z" fill="#2B87F8" fill-opacity="0.15" mask="url(#path-23-inside-1_5087_52588)"/>
<rect x="8" y="4" width="8" height="4" rx="1" fill="#2B87F8" fill-opacity="0.55"/>
<rect x="68" y="4" width="8" height="4" rx="1" fill="#2B87F8" fill-opacity="0.55"/>
<rect x="78" y="4" width="8" height="4" rx="1" fill="#2B87F8" fill-opacity="0.55"/>
<rect x="88" y="4" width="8" height="4" rx="1" fill="#2B87F8" fill-opacity="0.55"/>
<path d="M8 178C8 176.895 8.89543 176 10 176H54C55.1046 176 56 176.895 56 178V178C56 179.105 55.1046 180 54 180H10C8.89543 180 8 179.105 8 178V178Z" fill="#2B87F8" fill-opacity="0.25"/>
<path d="M8 28C8 25.7909 9.79086 24 12 24H52C54.2091 24 56 25.7909 56 28V28C56 30.2091 54.2091 32 52 32H12C9.79086 32 8 30.2091 8 28V28Z" fill="#2B87F8" fill-opacity="0.55"/>
</g>
<defs>
<clipPath id="clip0_5087_52588">
<path d="M0 4C0 1.79086 1.79086 0 4 0H100C102.209 0 104 1.79086 104 4V180C104 182.209 102.209 184 100 184H4C1.79086 184 0 182.209 0 180V4Z" fill="white"/>
</clipPath>
<clipPath id="clip1_5087_52588">
<rect width="88" height="132" fill="white" transform="translate(8 40)"/>
</clipPath>
<clipPath id="clip2_5087_52588">
<path d="M8 44C8 41.7909 9.79086 40 12 40H164C166.209 40 168 41.7909 168 44V168C168 170.209 166.209 172 164 172H12C9.79086 172 8 170.209 8 168V44Z" fill="white"/>
</clipPath>
</defs>
</svg>
