<svg width="104" height="184" viewBox="0 0 104 184" fill="none" xmlns="http://www.w3.org/2000/svg">
<g clip-path="url(#clip0_5087_52495)">
<path d="M0 4C0 1.79086 1.79086 0 4 0H100C102.209 0 104 1.79086 104 4V180C104 182.209 102.209 184 100 184H4C1.79086 184 0 182.209 0 180V4Z" fill="#F0F7FE"/>
<path d="M4 0.5H100C101.933 0.500002 103.5 2.067 103.5 4V180C103.5 181.933 101.933 183.5 100 183.5H4C2.067 183.5 0.5 181.933 0.5 180V4C0.5 2.067 2.067 0.5 4 0.5Z" stroke="#2B87F8" stroke-opacity="0.1"/>
<mask id="path-4-inside-1_5087_52495" fill="white">
<path d="M0 0H104V12H0V0Z"/>
</mask>
<path d="M0 0H104V12H0V0Z" fill="#2B87F8" fill-opacity="0.25"/>
<path d="M104 12V11H0V12V13H104V12Z" fill="#2B87F8" fill-opacity="0.15" mask="url(#path-4-inside-1_5087_52495)"/>
<rect x="8" y="4" width="8" height="4" rx="1" fill="#2B87F8" fill-opacity="0.55"/>
<rect x="68" y="4" width="8" height="4" rx="1" fill="#2B87F8" fill-opacity="0.55"/>
<rect x="78" y="4" width="8" height="4" rx="1" fill="#2B87F8" fill-opacity="0.55"/>
<rect x="88" y="4" width="8" height="4" rx="1" fill="#2B87F8" fill-opacity="0.55"/>
<path d="M8 30C8 28.8954 8.89543 28 10 28H62C63.1046 28 64 28.8954 64 30V30C64 31.1046 63.1046 32 62 32H10C8.89543 32 8 31.1046 8 30V30Z" fill="#2B87F8" fill-opacity="0.55"/>
<path d="M8 38C8 36.8954 8.89543 36 10 36H46C47.1046 36 48 36.8954 48 38V38C48 39.1046 47.1046 40 46 40H10C8.89543 40 8 39.1046 8 38V38Z" fill="#2B87F8" fill-opacity="0.55"/>
<path d="M8 46C8 44.8954 8.89543 44 10 44H94C95.1046 44 96 44.8954 96 46V46C96 47.1046 95.1046 48 94 48H10C8.89543 48 8 47.1046 8 46V46Z" fill="#2B87F8" fill-opacity="0.25"/>
<path d="M8 54C8 52.8954 8.89543 52 10 52H94C95.1046 52 96 52.8954 96 54V54C96 55.1046 95.1046 56 94 56H10C8.89543 56 8 55.1046 8 54V54Z" fill="#2B87F8" fill-opacity="0.25"/>
<path d="M8 62C8 60.8954 8.89543 60 10 60H94C95.1046 60 96 60.8954 96 62V62C96 63.1046 95.1046 64 94 64H10C8.89543 64 8 63.1046 8 62V62Z" fill="#2B87F8" fill-opacity="0.25"/>
<path d="M8 70C8 68.8954 8.89543 68 10 68H86C87.1046 68 88 68.8954 88 70V70C88 71.1046 87.1046 72 86 72H10C8.89543 72 8 71.1046 8 70V70Z" fill="#2B87F8" fill-opacity="0.25"/>
<path d="M8 86C8 84.8954 8.89543 84 10 84H94C95.1046 84 96 84.8954 96 86V86C96 87.1046 95.1046 88 94 88H10C8.89543 88 8 87.1046 8 86V86Z" fill="#2B87F8" fill-opacity="0.25"/>
<path d="M8 94C8 92.8954 8.89543 92 10 92H78C79.1046 92 80 92.8954 80 94V94C80 95.1046 79.1046 96 78 96H10C8.89543 96 8 95.1046 8 94V94Z" fill="#2B87F8" fill-opacity="0.25"/>
<path d="M8 110C8 108.895 8.89543 108 10 108H94C95.1046 108 96 108.895 96 110V110C96 111.105 95.1046 112 94 112H10C8.89543 112 8 111.105 8 110V110Z" fill="#2B87F8" fill-opacity="0.25"/>
<path d="M8 118C8 116.895 8.89543 116 10 116H94C95.1046 116 96 116.895 96 118V118C96 119.105 95.1046 120 94 120H10C8.89543 120 8 119.105 8 118V118Z" fill="#2B87F8" fill-opacity="0.25"/>
<path d="M8 126C8 124.895 8.89543 124 10 124H90C91.1046 124 92 124.895 92 126V126C92 127.105 91.1046 128 90 128H10C8.89543 128 8 127.105 8 126V126Z" fill="#2B87F8" fill-opacity="0.25"/>
<path d="M8 142C8 140.895 8.89543 140 10 140H62C63.1046 140 64 140.895 64 142V142C64 143.105 63.1046 144 62 144H10C8.89543 144 8 143.105 8 142V142Z" fill="#2B87F8" fill-opacity="0.55"/>
<path d="M8 150C8 148.895 8.89543 148 10 148H94C95.1046 148 96 148.895 96 150V150C96 151.105 95.1046 152 94 152H10C8.89543 152 8 151.105 8 150V150Z" fill="#2B87F8" fill-opacity="0.25"/>
<path d="M8 158C8 156.895 8.89543 156 10 156H94C95.1046 156 96 156.895 96 158V158C96 159.105 95.1046 160 94 160H10C8.89543 160 8 159.105 8 158V158Z" fill="#2B87F8" fill-opacity="0.25"/>
<path d="M8 166C8 164.895 8.89543 164 10 164H30C31.1046 164 32 164.895 32 166V166C32 167.105 31.1046 168 30 168H10C8.89543 168 8 167.105 8 166V166Z" fill="#2B87F8" fill-opacity="0.25"/>
</g>
<defs>
<clipPath id="clip0_5087_52495">
<path d="M0 4C0 1.79086 1.79086 0 4 0H100C102.209 0 104 1.79086 104 4V180C104 182.209 102.209 184 100 184H4C1.79086 184 0 182.209 0 180V4Z" fill="white"/>
</clipPath>
</defs>
</svg>
