<svg width="184" height="184" viewBox="0 0 184 184" fill="none" xmlns="http://www.w3.org/2000/svg">
<g clip-path="url(#clip0_5087_52450)">
<path d="M0 4C0 1.79086 1.79086 0 4 0H180C182.209 0 184 1.79086 184 4V180C184 182.209 182.209 184 180 184H4C1.79086 184 0 182.209 0 180V4Z" fill="#F0F7FE"/>
<path d="M4 0.5H180C181.933 0.5 183.5 2.067 183.5 4V180C183.5 181.933 181.933 183.5 180 183.5H4C2.067 183.5 0.5 181.933 0.5 180V4C0.5 2.067 2.067 0.5 4 0.5Z" stroke="#2B87F8" stroke-opacity="0.1"/>
<path d="M12 30C12 28.8954 12.8954 28 14 28H66C67.1046 28 68 28.8954 68 30V30C68 31.1046 67.1046 32 66 32H14C12.8954 32 12 31.1046 12 30V30Z" fill="#2B87F8" fill-opacity="0.55"/>
<path d="M12 38C12 36.8954 12.8954 36 14 36H50C51.1046 36 52 36.8954 52 38V38C52 39.1046 51.1046 40 50 40H14C12.8954 40 12 39.1046 12 38V38Z" fill="#2B87F8" fill-opacity="0.55"/>
<path d="M12 46C12 44.8954 12.8954 44 14 44H170C171.105 44 172 44.8954 172 46V46C172 47.1046 171.105 48 170 48H14C12.8954 48 12 47.1046 12 46V46Z" fill="#2B87F8" fill-opacity="0.25"/>
<path d="M12 54C12 52.8954 12.8954 52 14 52H170C171.105 52 172 52.8954 172 54V54C172 55.1046 171.105 56 170 56H14C12.8954 56 12 55.1046 12 54V54Z" fill="#2B87F8" fill-opacity="0.25"/>
<path d="M12 62C12 60.8954 12.8954 60 14 60H170C171.105 60 172 60.8954 172 62V62C172 63.1046 171.105 64 170 64H14C12.8954 64 12 63.1046 12 62V62Z" fill="#2B87F8" fill-opacity="0.25"/>
<path d="M12 70C12 68.8954 12.8954 68 14 68H122C123.105 68 124 68.8954 124 70V70C124 71.1046 123.105 72 122 72H14C12.8954 72 12 71.1046 12 70V70Z" fill="#2B87F8" fill-opacity="0.25"/>
<path d="M12 86C12 84.8954 12.8954 84 14 84H170C171.105 84 172 84.8954 172 86V86C172 87.1046 171.105 88 170 88H14C12.8954 88 12 87.1046 12 86V86Z" fill="#2B87F8" fill-opacity="0.25"/>
<path d="M12 94C12 92.8954 12.8954 92 14 92H90C91.1046 92 92 92.8954 92 94V94C92 95.1046 91.1046 96 90 96H14C12.8954 96 12 95.1046 12 94V94Z" fill="#2B87F8" fill-opacity="0.25"/>
<path d="M12 110C12 108.895 12.8954 108 14 108H170C171.105 108 172 108.895 172 110V110C172 111.105 171.105 112 170 112H14C12.8954 112 12 111.105 12 110V110Z" fill="#2B87F8" fill-opacity="0.25"/>
<path d="M12 118C12 116.895 12.8954 116 14 116H170C171.105 116 172 116.895 172 118V118C172 119.105 171.105 120 170 120H14C12.8954 120 12 119.105 12 118V118Z" fill="#2B87F8" fill-opacity="0.25"/>
<path d="M12 126C12 124.895 12.8954 124 14 124H146C147.105 124 148 124.895 148 126V126C148 127.105 147.105 128 146 128H14C12.8954 128 12 127.105 12 126V126Z" fill="#2B87F8" fill-opacity="0.25"/>
<path d="M12 142C12 140.895 12.8954 140 14 140H66C67.1046 140 68 140.895 68 142V142C68 143.105 67.1046 144 66 144H14C12.8954 144 12 143.105 12 142V142Z" fill="#2B87F8" fill-opacity="0.55"/>
<path d="M12 150C12 148.895 12.8954 148 14 148H170C171.105 148 172 148.895 172 150V150C172 151.105 171.105 152 170 152H14C12.8954 152 12 151.105 12 150V150Z" fill="#2B87F8" fill-opacity="0.25"/>
<path d="M12 158C12 156.895 12.8954 156 14 156H170C171.105 156 172 156.895 172 158V158C172 159.105 171.105 160 170 160H14C12.8954 160 12 159.105 12 158V158Z" fill="#2B87F8" fill-opacity="0.25"/>
<path d="M12 166C12 164.895 12.8954 164 14 164H106C107.105 164 108 164.895 108 166V166C108 167.105 107.105 168 106 168H14C12.8954 168 12 167.105 12 166V166Z" fill="#2B87F8" fill-opacity="0.25"/>
<mask id="path-19-inside-1_5087_52450" fill="white">
<path d="M0 0H184V12H0V0Z"/>
</mask>
<path d="M0 0H184V12H0V0Z" fill="#2B87F8" fill-opacity="0.25"/>
<path d="M184 12V11H0V12V13H184V12Z" fill="#2B87F8" fill-opacity="0.15" mask="url(#path-19-inside-1_5087_52450)"/>
<rect x="12" y="4" width="8" height="4" rx="1" fill="#2B87F8" fill-opacity="0.55"/>
<rect x="144" y="4" width="8" height="4" rx="1" fill="#2B87F8" fill-opacity="0.55"/>
<rect x="154" y="4" width="8" height="4" rx="1" fill="#2B87F8" fill-opacity="0.55"/>
<rect x="164" y="4" width="8" height="4" rx="1" fill="#2B87F8" fill-opacity="0.55"/>
</g>
<defs>
<clipPath id="clip0_5087_52450">
<rect width="184" height="184" rx="4" fill="white"/>
</clipPath>
</defs>
</svg>
