<svg width="184" height="184" viewBox="0 0 184 184" fill="none" xmlns="http://www.w3.org/2000/svg">
<g clip-path="url(#clip0_5087_52354)">
<path d="M0 4C0 1.79086 1.79086 0 4 0H180C182.209 0 184 1.79086 184 4V180C184 182.209 182.209 184 180 184H4C1.79086 184 0 182.209 0 180V4Z" fill="#F0F7FE"/>
<path d="M4 0.5H180C181.933 0.5 183.5 2.067 183.5 4V180C183.5 181.933 181.933 183.5 180 183.5H4C2.067 183.5 0.5 181.933 0.5 180V4C0.5 2.067 2.067 0.5 4 0.5Z" stroke="#2B87F8" stroke-opacity="0.1"/>
<path d="M32 57C32 55.8954 32.8954 55 34 55H150C151.105 55 152 55.8954 152 57V57C152 58.1046 151.105 59 150 59H34C32.8954 59 32 58.1046 32 57V57Z" fill="#2B87F8" fill-opacity="0.55"/>
<path d="M32 65C32 63.8954 32.8954 63 34 63H150C151.105 63 152 63.8954 152 65V65C152 66.1046 151.105 67 150 67H34C32.8954 67 32 66.1046 32 65V65Z" fill="#2B87F8" fill-opacity="0.25"/>
<path d="M32 73C32 71.8954 32.8954 71 34 71H150C151.105 71 152 71.8954 152 73V73C152 74.1046 151.105 75 150 75H34C32.8954 75 32 74.1046 32 73V73Z" fill="#2B87F8" fill-opacity="0.25"/>
<path d="M32 81C32 79.8954 32.8954 79 34 79H134C135.105 79 136 79.8954 136 81V81C136 82.1046 135.105 83 134 83H34C32.8954 83 32 82.1046 32 81V81Z" fill="#2B87F8" fill-opacity="0.25"/>
<path d="M32 100C32 98.8954 32.8954 98 34 98H150C151.105 98 152 98.8954 152 100V100C152 101.105 151.105 102 150 102H34C32.8954 102 32 101.105 32 100V100Z" fill="#2B87F8" fill-opacity="0.55"/>
<path d="M32 108C32 106.895 32.8954 106 34 106H150C151.105 106 152 106.895 152 108V108C152 109.105 151.105 110 150 110H34C32.8954 110 32 109.105 32 108V108Z" fill="#2B87F8" fill-opacity="0.25"/>
<path d="M32 116C32 114.895 32.8954 114 34 114H150C151.105 114 152 114.895 152 116V116C152 117.105 151.105 118 150 118H34C32.8954 118 32 117.105 32 116V116Z" fill="#2B87F8" fill-opacity="0.25"/>
<path d="M32 124C32 122.895 32.8954 122 34 122H134C135.105 122 136 122.895 136 124V124C136 125.105 135.105 126 134 126H34C32.8954 126 32 125.105 32 124V124Z" fill="#2B87F8" fill-opacity="0.25"/>
<path d="M32 143C32 141.895 32.8954 141 34 141H150C151.105 141 152 141.895 152 143V143C152 144.105 151.105 145 150 145H34C32.8954 145 32 144.105 32 143V143Z" fill="#2B87F8" fill-opacity="0.55"/>
<path d="M32 151C32 149.895 32.8954 149 34 149H150C151.105 149 152 149.895 152 151V151C152 152.105 151.105 153 150 153H34C32.8954 153 32 152.105 32 151V151Z" fill="#2B87F8" fill-opacity="0.25"/>
<path d="M32 159C32 157.895 32.8954 157 34 157H134C135.105 157 136 157.895 136 159V159C136 160.105 135.105 161 134 161H34C32.8954 161 32 160.105 32 159V159Z" fill="#2B87F8" fill-opacity="0.25"/>
<path d="M32 34C32 31.7909 33.7909 30 36 30H92C94.2091 30 96 31.7909 96 34V34C96 36.2091 94.2091 38 92 38H36C33.7909 38 32 36.2091 32 34V34Z" fill="#2B87F8" fill-opacity="0.55"/>
<path d="M18 58C18.8284 58 19.5 57.3284 19.5 56.5C19.5 55.6716 18.8284 55 18 55C17.1716 55 16.5 55.6716 16.5 56.5C16.5 57.3284 17.1716 58 18 58Z" fill="#2B87F8"/>
<path d="M18 101C18.8284 101 19.5 100.328 19.5 99.5C19.5 98.6716 18.8284 98 18 98C17.1716 98 16.5 98.6716 16.5 99.5C16.5 100.328 17.1716 101 18 101Z" fill="#2B87F8"/>
<path d="M18 144C18.8284 144 19.5 143.328 19.5 142.5C19.5 141.672 18.8284 141 18 141C17.1716 141 16.5 141.672 16.5 142.5C16.5 143.328 17.1716 144 18 144Z" fill="#2B87F8"/>
<path d="M18 144C17.7239 144 17.5 143.776 17.5 143.5L17.5 40.5C17.5 40.2239 17.7239 40 18 40V40C18.2761 40 18.5 40.2239 18.5 40.5L18.5 143.5C18.5 143.776 18.2761 144 18 144V144Z" fill="#2B87F8" fill-opacity="0.15"/>
<path d="M12 34C12 30.6863 14.6863 28 18 28V28C21.3137 28 24 30.6863 24 34V34C24 37.3137 21.3137 40 18 40V40C14.6863 40 12 37.3137 12 34V34Z" fill="#2B87F8" fill-opacity="0.55"/>
<path d="M18.0009 35.7379L16.4388 36.652C16.369 36.6893 16.3007 36.7049 16.234 36.6987C16.1674 36.6924 16.1086 36.6707 16.0578 36.6334C16.007 36.5961 15.9689 36.5448 15.9435 36.4795C15.9181 36.4142 15.915 36.3473 15.934 36.2789L16.3436 34.5719L14.9625 33.4245C14.9053 33.3748 14.8704 33.3173 14.8577 33.252C14.845 33.1867 14.8482 33.1229 14.8672 33.0607C14.8863 32.9986 14.9212 32.9472 14.972 32.9068C15.0228 32.8664 15.0863 32.8431 15.1625 32.8369L16.9722 32.6783L17.6866 31.0552C17.7183 30.9868 17.7628 30.9355 17.8199 30.9013C17.8771 30.8671 17.9374 30.85 18.0009 30.85C18.0644 30.85 18.1247 30.8671 18.1818 30.9013C18.239 30.9355 18.2834 30.9868 18.3152 31.0552L19.0295 32.6876L20.8392 32.8369C20.9154 32.8431 20.9789 32.868 21.0297 32.9115C21.0805 32.955 21.1155 33.0079 21.1345 33.0701C21.1536 33.1323 21.1551 33.1944 21.1393 33.2566C21.1234 33.3188 21.0869 33.3748 21.0297 33.4245L19.6582 34.5719L20.0677 36.2789C20.0868 36.3473 20.0836 36.4142 20.0582 36.4795C20.0328 36.5448 19.9947 36.5961 19.9439 36.6334C19.8931 36.6707 19.8344 36.6924 19.7677 36.6987C19.701 36.7049 19.6328 36.6893 19.5629 36.652L18.0009 35.7379Z" fill="white"/>
<mask id="path-22-inside-1_5087_52354" fill="white">
<path d="M0 0H184V12H0V0Z"/>
</mask>
<path d="M0 0H184V12H0V0Z" fill="#2B87F8" fill-opacity="0.25"/>
<path d="M184 12V11H0V12V13H184V12Z" fill="#2B87F8" fill-opacity="0.15" mask="url(#path-22-inside-1_5087_52354)"/>
<rect x="12" y="4" width="8" height="4" rx="1" fill="#2B87F8" fill-opacity="0.55"/>
<rect x="144" y="4" width="8" height="4" rx="1" fill="#2B87F8" fill-opacity="0.55"/>
<rect x="154" y="4" width="8" height="4" rx="1" fill="#2B87F8" fill-opacity="0.55"/>
<rect x="164" y="4" width="8" height="4" rx="1" fill="#2B87F8" fill-opacity="0.55"/>
</g>
<defs>
<clipPath id="clip0_5087_52354">
<rect width="184" height="184" rx="4" fill="white"/>
</clipPath>
</defs>
</svg>
