<svg width="104" height="184" viewBox="0 0 104 184" fill="none" xmlns="http://www.w3.org/2000/svg">
<g clip-path="url(#clip0_5087_52404)">
<path d="M0 4C0 1.79086 1.79086 0 4 0H100C102.209 0 104 1.79086 104 4V180C104 182.209 102.209 184 100 184H4C1.79086 184 0 182.209 0 180V4Z" fill="#F0F7FE"/>
<path d="M4 0.5H100C101.933 0.500002 103.5 2.067 103.5 4V180C103.5 181.933 101.933 183.5 100 183.5H4C2.067 183.5 0.5 181.933 0.5 180V4C0.5 2.067 2.067 0.5 4 0.5Z" stroke="#2B87F8" stroke-opacity="0.1"/>
<path d="M28 57C28 55.8954 28.8954 55 30 55H90C91.1046 55 92 55.8954 92 57V57C92 58.1046 91.1046 59 90 59H30C28.8954 59 28 58.1046 28 57V57Z" fill="#2B87F8" fill-opacity="0.55"/>
<path d="M28 65C28 63.8954 28.8954 63 30 63H90C91.1046 63 92 63.8954 92 65V65C92 66.1046 91.1046 67 90 67H30C28.8954 67 28 66.1046 28 65V65Z" fill="#2B87F8" fill-opacity="0.25"/>
<path d="M28 73C28 71.8954 28.8954 71 30 71H90C91.1046 71 92 71.8954 92 73V73C92 74.1046 91.1046 75 90 75H30C28.8954 75 28 74.1046 28 73V73Z" fill="#2B87F8" fill-opacity="0.25"/>
<path d="M28 81C28 79.8954 28.8954 79 30 79H74C75.1046 79 76 79.8954 76 81V81C76 82.1046 75.1046 83 74 83H30C28.8954 83 28 82.1046 28 81V81Z" fill="#2B87F8" fill-opacity="0.25"/>
<path d="M28 100C28 98.8954 28.8954 98 30 98H90C91.1046 98 92 98.8954 92 100V100C92 101.105 91.1046 102 90 102H30C28.8954 102 28 101.105 28 100V100Z" fill="#2B87F8" fill-opacity="0.55"/>
<path d="M28 108C28 106.895 28.8954 106 30 106H90C91.1046 106 92 106.895 92 108V108C92 109.105 91.1046 110 90 110H30C28.8954 110 28 109.105 28 108V108Z" fill="#2B87F8" fill-opacity="0.25"/>
<path d="M28 116C28 114.895 28.8954 114 30 114H90C91.1046 114 92 114.895 92 116V116C92 117.105 91.1046 118 90 118H30C28.8954 118 28 117.105 28 116V116Z" fill="#2B87F8" fill-opacity="0.25"/>
<path d="M28 124C28 122.895 28.8954 122 30 122H74C75.1046 122 76 122.895 76 124V124C76 125.105 75.1046 126 74 126H30C28.8954 126 28 125.105 28 124V124Z" fill="#2B87F8" fill-opacity="0.25"/>
<path d="M28 143C28 141.895 28.8954 141 30 141H90C91.1046 141 92 141.895 92 143V143C92 144.105 91.1046 145 90 145H30C28.8954 145 28 144.105 28 143V143Z" fill="#2B87F8" fill-opacity="0.55"/>
<path d="M28 151C28 149.895 28.8954 149 30 149H90C91.1046 149 92 149.895 92 151V151C92 152.105 91.1046 153 90 153H30C28.8954 153 28 152.105 28 151V151Z" fill="#2B87F8" fill-opacity="0.25"/>
<path d="M28 159C28 157.895 28.8954 157 30 157H74C75.1046 157 76 157.895 76 159V159C76 160.105 75.1046 161 74 161H30C28.8954 161 28 160.105 28 159V159Z" fill="#2B87F8" fill-opacity="0.25"/>
<path d="M28 34C28 31.7909 29.7909 30 32 30H88C90.2091 30 92 31.7909 92 34V34C92 36.2091 90.2091 38 88 38H32C29.7909 38 28 36.2091 28 34V34Z" fill="#2B87F8" fill-opacity="0.55"/>
<path d="M14 58C14.8284 58 15.5 57.3284 15.5 56.5C15.5 55.6716 14.8284 55 14 55C13.1716 55 12.5 55.6716 12.5 56.5C12.5 57.3284 13.1716 58 14 58Z" fill="#2B87F8"/>
<path d="M14 101C14.8284 101 15.5 100.328 15.5 99.5C15.5 98.6716 14.8284 98 14 98C13.1716 98 12.5 98.6716 12.5 99.5C12.5 100.328 13.1716 101 14 101Z" fill="#2B87F8"/>
<path d="M14 144C14.8284 144 15.5 143.328 15.5 142.5C15.5 141.672 14.8284 141 14 141C13.1716 141 12.5 141.672 12.5 142.5C12.5 143.328 13.1716 144 14 144Z" fill="#2B87F8"/>
<path d="M14 144C13.7239 144 13.5 143.776 13.5 143.5L13.5 40.5C13.5 40.2239 13.7239 40 14 40V40C14.2761 40 14.5 40.2239 14.5 40.5L14.5 143.5C14.5 143.776 14.2761 144 14 144V144Z" fill="#2B87F8" fill-opacity="0.15"/>
<path d="M8 34C8 30.6863 10.6863 28 14 28V28C17.3137 28 20 30.6863 20 34V34C20 37.3137 17.3137 40 14 40V40C10.6863 40 8 37.3137 8 34V34Z" fill="#2B87F8" fill-opacity="0.55"/>
<path d="M14.0009 35.7379L12.4388 36.652C12.369 36.6893 12.3007 36.7049 12.234 36.6987C12.1674 36.6924 12.1086 36.6707 12.0578 36.6334C12.007 36.5961 11.9689 36.5448 11.9435 36.4795C11.9181 36.4142 11.915 36.3473 11.934 36.2789L12.3436 34.5719L10.9625 33.4245C10.9053 33.3748 10.8704 33.3173 10.8577 33.252C10.845 33.1867 10.8482 33.1229 10.8672 33.0607C10.8863 32.9986 10.9212 32.9472 10.972 32.9068C11.0228 32.8664 11.0863 32.8431 11.1625 32.8369L12.9722 32.6783L13.6866 31.0552C13.7183 30.9868 13.7628 30.9355 13.8199 30.9013C13.8771 30.8671 13.9374 30.85 14.0009 30.85C14.0644 30.85 14.1247 30.8671 14.1818 30.9013C14.239 30.9355 14.2834 30.9868 14.3152 31.0552L15.0295 32.6876L16.8392 32.8369C16.9154 32.8431 16.9789 32.868 17.0297 32.9115C17.0805 32.955 17.1155 33.0079 17.1345 33.0701C17.1536 33.1323 17.1551 33.1944 17.1393 33.2566C17.1234 33.3188 17.0869 33.3748 17.0297 33.4245L15.6582 34.5719L16.0677 36.2789C16.0868 36.3473 16.0836 36.4142 16.0582 36.4795C16.0328 36.5448 15.9947 36.5961 15.9439 36.6334C15.8931 36.6707 15.8344 36.6924 15.7677 36.6987C15.701 36.7049 15.6328 36.6893 15.5629 36.652L14.0009 35.7379Z" fill="white"/>
<mask id="path-22-inside-1_5087_52404" fill="white">
<path d="M0 0H104V12H0V0Z"/>
</mask>
<path d="M0 0H104V12H0V0Z" fill="#2B87F8" fill-opacity="0.25"/>
<path d="M104 12V11H0V12V13H104V12Z" fill="#2B87F8" fill-opacity="0.15" mask="url(#path-22-inside-1_5087_52404)"/>
<rect x="8" y="4" width="8" height="4" rx="1" fill="#2B87F8" fill-opacity="0.55"/>
<rect x="68" y="4" width="8" height="4" rx="1" fill="#2B87F8" fill-opacity="0.55"/>
<rect x="78" y="4" width="8" height="4" rx="1" fill="#2B87F8" fill-opacity="0.55"/>
<rect x="88" y="4" width="8" height="4" rx="1" fill="#2B87F8" fill-opacity="0.55"/>
</g>
<defs>
<clipPath id="clip0_5087_52404">
<path d="M0 4C0 1.79086 1.79086 0 4 0H100C102.209 0 104 1.79086 104 4V180C104 182.209 102.209 184 100 184H4C1.79086 184 0 182.209 0 180V4Z" fill="white"/>
</clipPath>
</defs>
</svg>
